<svg width="1024" height="1024" viewBox="0 0 1024 1024" fill="none" xmlns="http://www.w3.org/2000/svg">
<g opacity="0.3">
<path d="M101.736 457.239C101.375 456.673 101.04 455.9 100.731 454.92C100.422 453.941 100.267 452.911 100.267 451.829C100.267 449.819 100.705 448.376 101.581 447.5C102.509 446.624 103.694 446.186 105.137 446.186H138.838C139.198 446.753 139.533 447.526 139.843 448.505C140.152 449.484 140.306 450.515 140.306 451.597C140.306 453.606 139.843 455.049 138.915 455.925C138.039 456.801 136.88 457.239 135.437 457.239H126.857V492.95C126.29 493.105 125.388 493.259 124.152 493.414C122.966 493.568 121.781 493.646 120.596 493.646C119.411 493.646 118.354 493.543 117.427 493.337C116.551 493.182 115.804 492.873 115.185 492.409C114.567 491.945 114.103 491.301 113.794 490.477C113.485 489.652 113.33 488.57 113.33 487.23V457.239H101.736Z" fill="white"/>
<path d="M160.356 484.911C161.232 484.911 162.186 484.834 163.216 484.679C164.298 484.473 165.097 484.216 165.612 483.906V477.723L160.047 478.187C158.604 478.29 157.419 478.599 156.491 479.114C155.564 479.629 155.1 480.402 155.1 481.433C155.1 482.464 155.487 483.314 156.259 483.984C157.084 484.602 158.45 484.911 160.356 484.911ZM159.738 454.534C162.52 454.534 165.045 454.817 167.313 455.384C169.632 455.951 171.59 456.827 173.187 458.012C174.836 459.146 176.099 460.615 176.975 462.418C177.851 464.17 178.289 466.257 178.289 468.679V485.993C178.289 487.333 177.902 488.441 177.129 489.317C176.408 490.142 175.532 490.863 174.501 491.481C171.152 493.491 166.437 494.496 160.356 494.496C157.625 494.496 155.152 494.238 152.936 493.723C150.771 493.208 148.891 492.435 147.293 491.404C145.747 490.374 144.536 489.06 143.66 487.462C142.836 485.865 142.424 484.01 142.424 481.897C142.424 478.341 143.48 475.61 145.593 473.703C147.705 471.797 150.978 470.612 155.409 470.148L165.535 469.066V468.525C165.535 467.03 164.865 465.974 163.525 465.355C162.237 464.686 160.356 464.351 157.883 464.351C155.925 464.351 154.018 464.557 152.163 464.969C150.308 465.381 148.633 465.897 147.139 466.515C146.469 466.051 145.902 465.355 145.438 464.428C144.974 463.449 144.742 462.444 144.742 461.413C144.742 460.074 145.052 459.017 145.67 458.244C146.34 457.42 147.345 456.724 148.684 456.157C150.179 455.59 151.931 455.178 153.941 454.92C156.002 454.663 157.934 454.534 159.738 454.534Z" fill="white"/>
<path d="M204.333 454.534C207.425 454.534 210.285 454.946 212.913 455.771C215.593 456.544 217.886 457.755 219.792 459.404C221.699 461.053 223.193 463.14 224.276 465.665C225.358 468.138 225.899 471.101 225.899 474.554C225.899 477.852 225.435 480.737 224.508 483.211C223.58 485.684 222.266 487.771 220.565 489.472C218.865 491.121 216.804 492.357 214.382 493.182C212.011 494.006 209.358 494.419 206.42 494.419C204.204 494.419 202.143 494.084 200.237 493.414V506.245C199.721 506.4 198.897 506.554 197.763 506.709C196.629 506.915 195.47 507.018 194.285 507.018C193.151 507.018 192.121 506.941 191.193 506.786C190.317 506.631 189.57 506.322 188.951 505.858C188.333 505.395 187.869 504.751 187.56 503.926C187.251 503.153 187.096 502.123 187.096 500.834V463.732C187.096 462.341 187.38 461.207 187.947 460.331C188.565 459.455 189.389 458.656 190.42 457.935C192.017 456.904 194.001 456.08 196.372 455.462C198.742 454.843 201.396 454.534 204.333 454.534ZM204.488 484.061C209.796 484.061 212.449 480.892 212.449 474.554C212.449 471.256 211.779 468.808 210.44 467.211C209.151 465.613 207.271 464.814 204.797 464.814C203.818 464.814 202.942 464.943 202.169 465.201C201.396 465.407 200.726 465.665 200.159 465.974V482.979C200.778 483.288 201.448 483.546 202.169 483.752C202.89 483.958 203.663 484.061 204.488 484.061Z" fill="white"/>
<path d="M262.472 480.351C262.472 481.691 262.884 482.644 263.709 483.211C264.585 483.778 265.796 484.061 267.342 484.061C268.114 484.061 268.913 484.01 269.738 483.906C270.562 483.752 271.284 483.571 271.902 483.365C272.366 483.932 272.752 484.576 273.061 485.298C273.422 485.968 273.602 486.792 273.602 487.771C273.602 489.729 272.855 491.327 271.361 492.564C269.918 493.8 267.342 494.419 263.631 494.419C259.097 494.419 255.593 493.388 253.119 491.327C250.697 489.266 249.486 485.916 249.486 481.278V448.196C250.053 448.041 250.852 447.887 251.882 447.732C252.964 447.526 254.098 447.423 255.283 447.423C257.551 447.423 259.303 447.835 260.539 448.66C261.828 449.432 262.472 451.107 262.472 453.684V458.631H272.598C272.907 459.198 273.19 459.919 273.448 460.795C273.757 461.619 273.912 462.547 273.912 463.578C273.912 465.381 273.499 466.695 272.675 467.52C271.902 468.293 270.846 468.679 269.506 468.679H262.472V480.351Z" fill="white"/>
<path d="M318.155 493.182C317.64 493.337 316.815 493.491 315.682 493.646C314.599 493.8 313.466 493.878 312.281 493.878C311.147 493.878 310.116 493.8 309.189 493.646C308.313 493.491 307.566 493.182 306.947 492.718C306.329 492.254 305.839 491.636 305.479 490.863C305.169 490.039 305.015 488.982 305.015 487.694V470.534C305.015 468.422 304.474 466.953 303.392 466.128C302.361 465.252 301.073 464.814 299.527 464.814C298.496 464.814 297.517 464.943 296.59 465.201C295.662 465.458 294.915 465.768 294.348 466.128V493.182C293.833 493.337 293.008 493.491 291.874 493.646C290.792 493.8 289.659 493.878 288.473 493.878C287.34 493.878 286.309 493.8 285.382 493.646C284.506 493.491 283.758 493.182 283.14 492.718C282.522 492.254 282.032 491.636 281.671 490.863C281.362 490.039 281.208 488.982 281.208 487.694V442.862C281.775 442.759 282.599 442.63 283.681 442.476C284.815 442.27 285.948 442.167 287.082 442.167C288.216 442.167 289.221 442.244 290.097 442.399C291.024 442.553 291.797 442.862 292.416 443.326C293.034 443.79 293.498 444.434 293.807 445.259C294.168 446.031 294.348 447.062 294.348 448.35V455.925C295.018 455.668 296.023 455.384 297.363 455.075C298.754 454.714 300.274 454.534 301.923 454.534C307.025 454.534 310.992 455.822 313.827 458.399C316.712 460.924 318.155 464.711 318.155 469.761V493.182Z" fill="white"/>
<path d="M346.906 494.496C343.866 494.496 341.032 494.084 338.404 493.259C335.827 492.383 333.56 491.095 331.602 489.394C329.695 487.694 328.175 485.555 327.041 482.979C325.959 480.402 325.418 477.388 325.418 473.935C325.418 470.534 325.959 467.623 327.041 465.201C328.175 462.727 329.643 460.718 331.447 459.172C333.251 457.574 335.312 456.415 337.631 455.693C339.95 454.92 342.32 454.534 344.742 454.534C347.473 454.534 349.946 454.946 352.162 455.771C354.43 456.595 356.362 457.729 357.959 459.172C359.608 460.615 360.871 462.341 361.747 464.351C362.675 466.36 363.138 468.55 363.138 470.921C363.138 472.673 362.649 474.013 361.67 474.94C360.691 475.868 359.325 476.46 357.573 476.718L338.481 479.578C339.048 481.278 340.207 482.567 341.959 483.443C343.711 484.267 345.721 484.679 347.988 484.679C350.101 484.679 352.085 484.422 353.94 483.906C355.847 483.34 357.393 482.695 358.578 481.974C359.402 482.489 360.098 483.211 360.665 484.138C361.232 485.066 361.515 486.045 361.515 487.076C361.515 489.394 360.433 491.121 358.269 492.254C356.62 493.13 354.765 493.723 352.703 494.032C350.642 494.341 348.71 494.496 346.906 494.496ZM344.742 464.119C343.505 464.119 342.423 464.325 341.495 464.737C340.619 465.149 339.898 465.69 339.331 466.36C338.764 466.979 338.326 467.7 338.017 468.525C337.759 469.298 337.605 470.096 337.553 470.921L350.771 468.756C350.616 467.726 350.05 466.695 349.07 465.665C348.091 464.634 346.648 464.119 344.742 464.119Z" fill="white"/>
<path d="M386.174 445.259C386.174 443.3 386.818 441.651 388.107 440.312C389.446 438.972 391.198 438.302 393.363 438.302C395.527 438.302 397.253 438.972 398.542 440.312C399.881 441.651 400.551 443.3 400.551 445.259C400.551 447.217 399.881 448.866 398.542 450.205C397.253 451.545 395.527 452.215 393.363 452.215C391.198 452.215 389.446 451.545 388.107 450.205C386.818 448.866 386.174 447.217 386.174 445.259ZM399.933 493.182C399.366 493.285 398.516 493.414 397.382 493.568C396.3 493.775 395.192 493.878 394.058 493.878C392.925 493.878 391.894 493.8 390.967 493.646C390.091 493.491 389.343 493.182 388.725 492.718C388.107 492.254 387.617 491.636 387.256 490.863C386.947 490.039 386.793 488.982 386.793 487.694V456.235C387.359 456.131 388.184 456.003 389.266 455.848C390.4 455.642 391.533 455.539 392.667 455.539C393.801 455.539 394.806 455.616 395.682 455.771C396.609 455.925 397.382 456.235 398.001 456.698C398.619 457.162 399.083 457.806 399.392 458.631C399.753 459.404 399.933 460.434 399.933 461.723V493.182Z" fill="white"/>
<path d="M430.25 464.892C428.962 464.892 427.725 465.098 426.54 465.51C425.407 465.922 424.402 466.541 423.526 467.365C422.701 468.138 422.031 469.117 421.516 470.302C421.001 471.488 420.743 472.879 420.743 474.476C420.743 477.671 421.645 480.067 423.448 481.665C425.303 483.262 427.545 484.061 430.173 484.061C431.719 484.061 433.059 483.881 434.193 483.52C435.326 483.159 436.331 482.773 437.207 482.361C438.238 483.082 439.011 483.881 439.526 484.757C440.041 485.581 440.299 486.586 440.299 487.771C440.299 489.884 439.294 491.533 437.284 492.718C435.275 493.852 432.492 494.419 428.936 494.419C425.69 494.419 422.753 493.955 420.125 493.027C417.497 492.048 415.229 490.708 413.323 489.008C411.468 487.256 410.025 485.169 408.994 482.747C407.963 480.325 407.448 477.645 407.448 474.708C407.448 471.307 407.989 468.344 409.071 465.819C410.205 463.243 411.725 461.13 413.632 459.481C415.538 457.832 417.728 456.595 420.202 455.771C422.727 454.946 425.381 454.534 428.163 454.534C431.874 454.534 434.734 455.204 436.743 456.544C438.753 457.884 439.758 459.61 439.758 461.723C439.758 462.702 439.526 463.629 439.062 464.505C438.598 465.33 438.057 466.051 437.439 466.669C436.563 466.257 435.507 465.871 434.27 465.51C433.033 465.098 431.693 464.892 430.25 464.892Z" fill="white"/>
<path d="M485.409 474.476C485.409 477.671 484.92 480.531 483.941 483.056C482.962 485.53 481.57 487.617 479.767 489.317C478.015 491.018 475.902 492.306 473.429 493.182C470.955 494.058 468.198 494.496 465.158 494.496C462.118 494.496 459.361 494.032 456.887 493.105C454.414 492.177 452.275 490.863 450.472 489.163C448.72 487.411 447.354 485.298 446.375 482.824C445.396 480.351 444.906 477.568 444.906 474.476C444.906 471.436 445.396 468.679 446.375 466.206C447.354 463.732 448.72 461.645 450.472 459.945C452.275 458.193 454.414 456.853 456.887 455.925C459.361 454.998 462.118 454.534 465.158 454.534C468.198 454.534 470.955 455.024 473.429 456.003C475.902 456.93 478.015 458.27 479.767 460.022C481.57 461.723 482.962 463.81 483.941 466.283C484.92 468.756 485.409 471.488 485.409 474.476ZM458.356 474.476C458.356 477.62 458.949 480.042 460.134 481.742C461.37 483.391 463.071 484.216 465.235 484.216C467.4 484.216 469.049 483.365 470.182 481.665C471.367 479.964 471.96 477.568 471.96 474.476C471.96 471.385 471.367 469.014 470.182 467.365C468.997 465.665 467.322 464.814 465.158 464.814C462.994 464.814 461.319 465.665 460.134 467.365C458.949 469.014 458.356 471.385 458.356 474.476Z" fill="white"/>
<path d="M516.4 469.452C516.4 467.855 515.937 466.695 515.009 465.974C514.133 465.201 512.922 464.814 511.376 464.814C510.345 464.814 509.315 464.943 508.284 465.201C507.305 465.458 506.455 465.845 505.733 466.36V493.182C505.218 493.337 504.394 493.491 503.26 493.646C502.178 493.8 501.044 493.878 499.859 493.878C498.725 493.878 497.695 493.8 496.767 493.646C495.891 493.491 495.144 493.182 494.526 492.718C493.907 492.254 493.418 491.636 493.057 490.863C492.748 490.039 492.593 488.982 492.593 487.694V464.505C492.593 463.114 492.877 461.98 493.443 461.104C494.062 460.228 494.886 459.429 495.917 458.708C497.669 457.471 499.859 456.466 502.487 455.693C505.167 454.92 508.13 454.534 511.376 454.534C517.199 454.534 521.682 455.822 524.826 458.399C527.969 460.924 529.541 464.454 529.541 468.988V493.182C529.025 493.337 528.201 493.491 527.067 493.646C525.985 493.8 524.851 493.878 523.666 493.878C522.532 493.878 521.502 493.8 520.574 493.646C519.698 493.491 518.951 493.182 518.333 492.718C517.714 492.254 517.225 491.636 516.864 490.863C516.555 490.039 516.4 488.982 516.4 487.694V469.452Z" fill="white"/>
<path d="M567.818 480.351C567.818 481.691 568.23 482.644 569.054 483.211C569.93 483.778 571.141 484.061 572.687 484.061C573.46 484.061 574.259 484.01 575.084 483.906C575.908 483.752 576.629 483.571 577.248 483.365C577.712 483.932 578.098 484.576 578.407 485.298C578.768 485.968 578.948 486.792 578.948 487.771C578.948 489.729 578.201 491.327 576.707 492.564C575.264 493.8 572.687 494.419 568.977 494.419C564.442 494.419 560.938 493.388 558.465 491.327C556.043 489.266 554.832 485.916 554.832 481.278V448.196C555.399 448.041 556.198 447.887 557.228 447.732C558.31 447.526 559.444 447.423 560.629 447.423C562.897 447.423 564.649 447.835 565.885 448.66C567.174 449.432 567.818 451.107 567.818 453.684V458.631H577.944C578.253 459.198 578.536 459.919 578.794 460.795C579.103 461.619 579.258 462.547 579.258 463.578C579.258 465.381 578.845 466.695 578.021 467.52C577.248 468.293 576.191 468.679 574.852 468.679H567.818V480.351Z" fill="white"/>
<path d="M624.826 474.476C624.826 477.671 624.336 480.531 623.357 483.056C622.378 485.53 620.987 487.617 619.183 489.317C617.431 491.018 615.319 492.306 612.845 493.182C610.372 494.058 607.615 494.496 604.574 494.496C601.534 494.496 598.777 494.032 596.304 493.105C593.83 492.177 591.692 490.863 589.888 489.163C588.136 487.411 586.771 485.298 585.791 482.824C584.812 480.351 584.323 477.568 584.323 474.476C584.323 471.436 584.812 468.679 585.791 466.206C586.771 463.732 588.136 461.645 589.888 459.945C591.692 458.193 593.83 456.853 596.304 455.925C598.777 454.998 601.534 454.534 604.574 454.534C607.615 454.534 610.372 455.024 612.845 456.003C615.319 456.93 617.431 458.27 619.183 460.022C620.987 461.723 622.378 463.81 623.357 466.283C624.336 468.756 624.826 471.488 624.826 474.476ZM597.772 474.476C597.772 477.62 598.365 480.042 599.55 481.742C600.787 483.391 602.487 484.216 604.652 484.216C606.816 484.216 608.465 483.365 609.599 481.665C610.784 479.964 611.376 477.568 611.376 474.476C611.376 471.385 610.784 469.014 609.599 467.365C608.413 465.665 606.739 464.814 604.574 464.814C602.41 464.814 600.735 465.665 599.55 467.365C598.365 469.014 597.772 471.385 597.772 474.476Z" fill="white"/>
<path d="M647.948 445.259C647.948 443.3 648.592 441.651 649.88 440.312C651.22 438.972 652.972 438.302 655.136 438.302C657.3 438.302 659.027 438.972 660.315 440.312C661.655 441.651 662.325 443.3 662.325 445.259C662.325 447.217 661.655 448.866 660.315 450.205C659.027 451.545 657.3 452.215 655.136 452.215C652.972 452.215 651.22 451.545 649.88 450.205C648.592 448.866 647.948 447.217 647.948 445.259ZM661.706 493.182C661.139 493.285 660.289 493.414 659.156 493.568C658.073 493.775 656.965 493.878 655.832 493.878C654.698 493.878 653.667 493.8 652.74 493.646C651.864 493.491 651.117 493.182 650.498 492.718C649.88 492.254 649.39 491.636 649.03 490.863C648.721 490.039 648.566 488.982 648.566 487.694V456.235C649.133 456.131 649.957 456.003 651.039 455.848C652.173 455.642 653.307 455.539 654.44 455.539C655.574 455.539 656.579 455.616 657.455 455.771C658.383 455.925 659.155 456.235 659.774 456.698C660.392 457.162 660.856 457.806 661.165 458.631C661.526 459.404 661.706 460.434 661.706 461.723V493.182Z" fill="white"/>
<path d="M694.652 469.452C694.652 467.855 694.188 466.695 693.261 465.974C692.385 465.201 691.174 464.814 689.628 464.814C688.597 464.814 687.566 464.943 686.536 465.201C685.557 465.458 684.706 465.845 683.985 466.36V493.182C683.47 493.337 682.645 493.491 681.512 493.646C680.429 493.8 679.296 493.878 678.111 493.878C676.977 493.878 675.946 493.8 675.019 493.646C674.143 493.491 673.396 493.182 672.777 492.718C672.159 492.254 671.669 491.636 671.309 490.863C670.999 490.039 670.845 488.982 670.845 487.694V464.505C670.845 463.114 671.128 461.98 671.695 461.104C672.313 460.228 673.138 459.429 674.168 458.708C675.92 457.471 678.111 456.466 680.739 455.693C683.418 454.92 686.381 454.534 689.628 454.534C695.451 454.534 699.934 455.822 703.077 458.399C706.22 460.924 707.792 464.454 707.792 468.988V493.182C707.277 493.337 706.452 493.491 705.319 493.646C704.237 493.8 703.103 493.878 701.918 493.878C700.784 493.878 699.753 493.8 698.826 493.646C697.95 493.491 697.203 493.182 696.584 492.718C695.966 492.254 695.476 491.636 695.116 490.863C694.806 490.039 694.652 488.982 694.652 487.694V469.452Z" fill="white"/>
<path d="M729.822 480.351C729.822 481.691 730.234 482.644 731.059 483.211C731.935 483.778 733.146 484.061 734.692 484.061C735.465 484.061 736.263 484.01 737.088 483.906C737.912 483.752 738.634 483.571 739.252 483.365C739.716 483.932 740.102 484.576 740.412 485.298C740.772 485.968 740.953 486.792 740.953 487.771C740.953 489.729 740.206 491.327 738.711 492.564C737.268 493.8 734.692 494.419 730.982 494.419C726.447 494.419 722.943 493.388 720.469 491.327C718.047 489.266 716.836 485.916 716.836 481.278V448.196C717.403 448.041 718.202 447.887 719.233 447.732C720.315 447.526 721.448 447.423 722.634 447.423C724.901 447.423 726.653 447.835 727.89 448.66C729.178 449.432 729.822 451.107 729.822 453.684V458.631H739.948C740.257 459.198 740.54 459.919 740.798 460.795C741.107 461.619 741.262 462.547 741.262 463.578C741.262 465.381 740.85 466.695 740.025 467.52C739.252 468.293 738.196 468.679 736.856 468.679H729.822V480.351Z" fill="white"/>
<path d="M767.815 494.496C764.775 494.496 761.941 494.084 759.313 493.259C756.736 492.383 754.469 491.095 752.511 489.394C750.604 487.694 749.084 485.555 747.95 482.979C746.868 480.402 746.327 477.388 746.327 473.935C746.327 470.534 746.868 467.623 747.95 465.201C749.084 462.727 750.553 460.718 752.356 459.172C754.16 457.574 756.221 456.415 758.54 455.693C760.859 454.92 763.229 454.534 765.651 454.534C768.382 454.534 770.856 454.946 773.072 455.771C775.339 456.595 777.271 457.729 778.869 459.172C780.518 460.615 781.78 462.341 782.656 464.351C783.584 466.36 784.048 468.55 784.048 470.921C784.048 472.673 783.558 474.013 782.579 474.94C781.6 475.868 780.234 476.46 778.482 476.718L759.39 479.578C759.957 481.278 761.116 482.567 762.868 483.443C764.621 484.267 766.63 484.679 768.898 484.679C771.01 484.679 772.994 484.422 774.849 483.906C776.756 483.34 778.302 482.695 779.487 481.974C780.312 482.489 781.007 483.211 781.574 484.138C782.141 485.066 782.424 486.045 782.424 487.076C782.424 489.394 781.342 491.121 779.178 492.254C777.529 493.13 775.674 493.723 773.613 494.032C771.551 494.341 769.619 494.496 767.815 494.496ZM765.651 464.119C764.414 464.119 763.332 464.325 762.405 464.737C761.529 465.149 760.807 465.69 760.24 466.36C759.674 466.979 759.236 467.7 758.926 468.525C758.669 469.298 758.514 470.096 758.463 470.921L771.68 468.756C771.526 467.726 770.959 466.695 769.98 465.665C769.001 464.634 767.558 464.119 765.651 464.119Z" fill="white"/>
<path d="M804.286 493.182C803.77 493.337 802.946 493.491 801.812 493.646C800.73 493.8 799.596 493.878 798.411 493.878C797.278 493.878 796.247 493.8 795.319 493.646C794.443 493.491 793.696 493.182 793.078 492.718C792.46 492.254 791.97 491.636 791.609 490.863C791.3 490.039 791.145 488.982 791.145 487.694V464.505C791.145 463.32 791.352 462.315 791.764 461.491C792.228 460.615 792.872 459.842 793.696 459.172C794.521 458.502 795.526 457.909 796.711 457.394C797.947 456.827 799.262 456.338 800.653 455.925C802.044 455.513 803.487 455.204 804.981 454.998C806.476 454.74 807.97 454.611 809.465 454.611C811.938 454.611 813.896 455.101 815.339 456.08C816.782 457.007 817.503 458.553 817.503 460.718C817.503 461.439 817.4 462.161 817.194 462.882C816.988 463.552 816.73 464.17 816.421 464.737C815.339 464.737 814.231 464.789 813.097 464.892C811.964 464.995 810.856 465.149 809.774 465.355C808.692 465.562 807.661 465.793 806.682 466.051C805.754 466.257 804.956 466.515 804.286 466.824V493.182Z" fill="white"/>
<path d="M838.643 484.911C839.519 484.911 840.472 484.834 841.503 484.679C842.585 484.473 843.383 484.216 843.899 483.906V477.723L838.333 478.187C836.891 478.29 835.705 478.599 834.778 479.114C833.85 479.629 833.386 480.402 833.386 481.433C833.386 482.464 833.773 483.314 834.546 483.984C835.37 484.602 836.736 484.911 838.643 484.911ZM838.024 454.534C840.807 454.534 843.332 454.817 845.599 455.384C847.918 455.951 849.876 456.827 851.474 458.012C853.123 459.146 854.385 460.615 855.261 462.418C856.137 464.17 856.575 466.257 856.575 468.679V485.993C856.575 487.333 856.189 488.441 855.416 489.317C854.694 490.142 853.818 490.863 852.788 491.481C849.438 493.491 844.723 494.496 838.643 494.496C835.911 494.496 833.438 494.238 831.222 493.723C829.058 493.208 827.177 492.435 825.58 491.404C824.034 490.374 822.823 489.06 821.947 487.462C821.122 485.865 820.71 484.01 820.71 481.897C820.71 478.341 821.766 475.61 823.879 473.703C825.992 471.797 829.264 470.612 833.696 470.148L843.821 469.066V468.525C843.821 467.03 843.152 465.974 841.812 465.355C840.523 464.686 838.643 464.351 836.169 464.351C834.211 464.351 832.304 464.557 830.449 464.969C828.594 465.381 826.919 465.897 825.425 466.515C824.755 466.051 824.188 465.355 823.724 464.428C823.261 463.449 823.029 462.444 823.029 461.413C823.029 460.074 823.338 459.017 823.956 458.244C824.626 457.42 825.631 456.724 826.971 456.157C828.465 455.59 830.217 455.178 832.227 454.92C834.288 454.663 836.221 454.534 838.024 454.534Z" fill="white"/>
<path d="M886.562 464.892C885.274 464.892 884.037 465.098 882.852 465.51C881.718 465.922 880.713 466.541 879.837 467.365C879.013 468.138 878.343 469.117 877.827 470.302C877.312 471.488 877.054 472.879 877.054 474.476C877.054 477.671 877.956 480.067 879.76 481.665C881.615 483.262 883.856 484.061 886.484 484.061C888.03 484.061 889.37 483.881 890.504 483.52C891.638 483.159 892.642 482.773 893.518 482.361C894.549 483.082 895.322 483.881 895.837 484.757C896.353 485.581 896.61 486.586 896.61 487.771C896.61 489.884 895.605 491.533 893.596 492.718C891.586 493.852 888.803 494.419 885.248 494.419C882.001 494.419 879.064 493.955 876.436 493.027C873.808 492.048 871.541 490.708 869.634 489.008C867.779 487.256 866.336 485.169 865.305 482.747C864.275 480.325 863.759 477.645 863.759 474.708C863.759 471.307 864.301 468.344 865.383 465.819C866.516 463.243 868.037 461.13 869.943 459.481C871.85 457.832 874.04 456.595 876.513 455.771C879.038 454.946 881.692 454.534 884.475 454.534C888.185 454.534 891.045 455.204 893.055 456.544C895.064 457.884 896.069 459.61 896.069 461.723C896.069 462.702 895.837 463.629 895.373 464.505C894.91 465.33 894.369 466.051 893.75 466.669C892.874 466.257 891.818 465.871 890.581 465.51C889.344 465.098 888.005 464.892 886.562 464.892Z" fill="white"/>
<path d="M917.114 480.351C917.114 481.691 917.526 482.644 918.35 483.211C919.226 483.778 920.437 484.061 921.983 484.061C922.756 484.061 923.555 484.01 924.379 483.906C925.204 483.752 925.925 483.571 926.544 483.365C927.007 483.932 927.394 484.576 927.703 485.298C928.064 485.968 928.244 486.792 928.244 487.771C928.244 489.729 927.497 491.327 926.003 492.564C924.56 493.8 921.983 494.419 918.273 494.419C913.738 494.419 910.234 493.388 907.761 491.327C905.339 489.266 904.128 485.916 904.128 481.278V448.196C904.695 448.041 905.493 447.887 906.524 447.732C907.606 447.526 908.74 447.423 909.925 447.423C912.192 447.423 913.944 447.835 915.181 448.66C916.469 449.432 917.114 451.107 917.114 453.684V458.631H927.239C927.549 459.198 927.832 459.919 928.09 460.795C928.399 461.619 928.553 462.547 928.553 463.578C928.553 465.381 928.141 466.695 927.317 467.52C926.544 468.293 925.487 468.679 924.148 468.679H917.114V480.351Z" fill="white"/>
<path d="M260.068 577.911C260.944 577.911 261.897 577.834 262.928 577.679C264.01 577.473 264.809 577.216 265.324 576.906V570.723L259.759 571.187C258.316 571.29 257.131 571.599 256.203 572.114C255.275 572.629 254.812 573.402 254.812 574.433C254.812 575.464 255.198 576.314 255.971 576.984C256.796 577.602 258.161 577.911 260.068 577.911ZM259.449 547.534C262.232 547.534 264.757 547.817 267.024 548.384C269.343 548.951 271.302 549.827 272.899 551.012C274.548 552.146 275.81 553.615 276.686 555.418C277.562 557.17 278 559.257 278 561.679V578.993C278 580.333 277.614 581.441 276.841 582.317C276.12 583.142 275.244 583.863 274.213 584.481C270.864 586.491 266.148 587.496 260.068 587.496C257.337 587.496 254.863 587.238 252.647 586.723C250.483 586.208 248.602 585.435 247.005 584.404C245.459 583.374 244.248 582.059 243.372 580.462C242.547 578.865 242.135 577.01 242.135 574.897C242.135 571.341 243.192 568.61 245.304 566.703C247.417 564.797 250.689 563.612 255.121 563.148L265.247 562.066V561.525C265.247 560.03 264.577 558.974 263.237 558.355C261.949 557.686 260.068 557.351 257.594 557.351C255.636 557.351 253.73 557.557 251.874 557.969C250.019 558.381 248.345 558.897 246.85 559.515C246.18 559.051 245.614 558.355 245.15 557.428C244.686 556.449 244.454 555.444 244.454 554.413C244.454 553.074 244.763 552.017 245.382 551.244C246.052 550.42 247.056 549.724 248.396 549.157C249.891 548.59 251.643 548.178 253.652 547.92C255.714 547.663 257.646 547.534 259.449 547.534Z" fill="white"/>
<path d="M310.615 562.452C310.615 560.855 310.151 559.695 309.224 558.974C308.348 558.201 307.137 557.814 305.591 557.814C304.56 557.814 303.53 557.943 302.499 558.201C301.52 558.458 300.67 558.845 299.948 559.36V586.182C299.433 586.337 298.608 586.491 297.475 586.646C296.393 586.8 295.259 586.878 294.074 586.878C292.94 586.878 291.91 586.8 290.982 586.646C290.106 586.491 289.359 586.182 288.74 585.718C288.122 585.254 287.632 584.636 287.272 583.863C286.963 583.039 286.808 581.982 286.808 580.694V557.505C286.808 556.114 287.091 554.98 287.658 554.104C288.277 553.228 289.101 552.429 290.132 551.708C291.884 550.471 294.074 549.466 296.702 548.693C299.381 547.92 302.344 547.534 305.591 547.534C311.414 547.534 315.897 548.822 319.04 551.399C322.184 553.924 323.755 557.454 323.755 561.988V586.182C323.24 586.337 322.416 586.491 321.282 586.646C320.2 586.8 319.066 586.878 317.881 586.878C316.747 586.878 315.717 586.8 314.789 586.646C313.913 586.491 313.166 586.182 312.548 585.718C311.929 585.254 311.44 584.636 311.079 583.863C310.77 583.039 310.615 581.982 310.615 580.694V562.452Z" fill="white"/>
<path d="M331.022 567.476C331.022 564.075 331.537 561.138 332.568 558.665C333.598 556.14 335.015 554.053 336.819 552.404C338.674 550.755 340.813 549.544 343.235 548.771C345.708 547.946 348.362 547.534 351.196 547.534C352.227 547.534 353.232 547.637 354.211 547.843C355.19 547.998 355.988 548.204 356.607 548.462V535.94C357.122 535.785 357.947 535.63 359.08 535.476C360.214 535.27 361.373 535.167 362.559 535.167C363.692 535.167 364.697 535.244 365.573 535.399C366.501 535.553 367.274 535.862 367.892 536.326C368.51 536.79 368.974 537.434 369.283 538.259C369.592 539.031 369.747 540.062 369.747 541.35V577.989C369.747 580.411 368.613 582.343 366.346 583.786C364.852 584.765 362.919 585.615 360.549 586.337C358.178 587.11 355.447 587.496 352.355 587.496C349.006 587.496 345.991 587.032 343.312 586.105C340.684 585.177 338.442 583.837 336.587 582.085C334.784 580.333 333.392 578.246 332.413 575.824C331.486 573.351 331.022 570.568 331.022 567.476ZM352.974 557.814C350.191 557.814 348.053 558.613 346.558 560.211C345.064 561.808 344.317 564.23 344.317 567.476C344.317 570.671 345.012 573.093 346.404 574.742C347.795 576.34 349.805 577.138 352.433 577.138C353.36 577.138 354.185 577.01 354.906 576.752C355.679 576.443 356.272 576.108 356.684 575.747V558.742C355.653 558.124 354.417 557.814 352.974 557.814Z" fill="white"/>
<path d="M408.096 586.182C407.581 586.337 406.756 586.491 405.623 586.646C404.54 586.8 403.407 586.878 402.222 586.878C401.088 586.878 400.057 586.8 399.13 586.646C398.254 586.491 397.507 586.182 396.888 585.718C396.27 585.254 395.78 584.636 395.42 583.863C395.11 583.039 394.956 581.982 394.956 580.694V557.505C394.956 556.32 395.162 555.315 395.574 554.491C396.038 553.615 396.682 552.842 397.507 552.172C398.331 551.502 399.336 550.909 400.521 550.394C401.758 549.827 403.072 549.338 404.463 548.925C405.855 548.513 407.297 548.204 408.792 547.998C410.286 547.74 411.781 547.611 413.275 547.611C415.748 547.611 417.707 548.101 419.149 549.08C420.592 550.007 421.314 551.553 421.314 553.718C421.314 554.439 421.211 555.161 421.004 555.882C420.798 556.552 420.541 557.17 420.232 557.737C419.149 557.737 418.041 557.789 416.908 557.892C415.774 557.995 414.666 558.149 413.584 558.355C412.502 558.562 411.471 558.793 410.492 559.051C409.565 559.257 408.766 559.515 408.096 559.824V586.182Z" fill="white"/>
<path d="M445.938 587.496C442.898 587.496 440.064 587.084 437.436 586.259C434.859 585.383 432.592 584.095 430.634 582.394C428.727 580.694 427.207 578.555 426.073 575.979C424.991 573.402 424.45 570.388 424.45 566.935C424.45 563.534 424.991 560.623 426.073 558.201C427.207 555.727 428.676 553.718 430.479 552.172C432.283 550.574 434.344 549.415 436.663 548.693C438.982 547.92 441.352 547.534 443.774 547.534C446.505 547.534 448.979 547.946 451.195 548.771C453.462 549.595 455.394 550.729 456.992 552.172C458.641 553.615 459.903 555.341 460.779 557.351C461.707 559.36 462.171 561.55 462.171 563.921C462.171 565.673 461.681 567.013 460.702 567.94C459.723 568.868 458.357 569.46 456.605 569.718L437.513 572.578C438.08 574.278 439.24 575.567 440.992 576.443C442.744 577.267 444.753 577.679 447.021 577.679C449.133 577.679 451.117 577.422 452.972 576.906C454.879 576.34 456.425 575.695 457.61 574.974C458.435 575.489 459.13 576.211 459.697 577.138C460.264 578.066 460.547 579.045 460.547 580.076C460.547 582.394 459.465 584.121 457.301 585.254C455.652 586.13 453.797 586.723 451.736 587.032C449.674 587.341 447.742 587.496 445.938 587.496ZM443.774 557.119C442.537 557.119 441.455 557.325 440.528 557.737C439.652 558.149 438.93 558.69 438.363 559.36C437.797 559.979 437.359 560.7 437.049 561.525C436.792 562.298 436.637 563.096 436.586 563.921L449.803 561.756C449.649 560.726 449.082 559.695 448.103 558.665C447.124 557.634 445.681 557.119 443.774 557.119Z" fill="white"/>
<path d="M485.346 577.911C486.222 577.911 487.175 577.834 488.206 577.679C489.288 577.473 490.087 577.216 490.602 576.906V570.723L485.037 571.187C483.594 571.29 482.409 571.599 481.481 572.114C480.554 572.629 480.09 573.402 480.09 574.433C480.09 575.464 480.476 576.314 481.249 576.984C482.074 577.602 483.439 577.911 485.346 577.911ZM484.728 547.534C487.51 547.534 490.035 547.817 492.303 548.384C494.622 548.951 496.58 549.827 498.177 551.012C499.826 552.146 501.089 553.615 501.965 555.418C502.841 557.17 503.279 559.257 503.279 561.679V578.993C503.279 580.333 502.892 581.441 502.119 582.317C501.398 583.142 500.522 583.863 499.491 584.481C496.142 586.491 491.427 587.496 485.346 587.496C482.615 587.496 480.141 587.238 477.926 586.723C475.761 586.208 473.88 585.435 472.283 584.404C470.737 583.374 469.526 582.059 468.65 580.462C467.826 578.865 467.413 577.01 467.413 574.897C467.413 571.341 468.47 568.61 470.583 566.703C472.695 564.797 475.967 563.612 480.399 563.148L490.525 562.066V561.525C490.525 560.03 489.855 558.974 488.515 558.355C487.227 557.686 485.346 557.351 482.873 557.351C480.914 557.351 479.008 557.557 477.153 557.969C475.298 558.381 473.623 558.897 472.128 559.515C471.459 559.051 470.892 558.355 470.428 557.428C469.964 556.449 469.732 555.444 469.732 554.413C469.732 553.074 470.041 552.017 470.66 551.244C471.33 550.42 472.335 549.724 473.674 549.157C475.169 548.59 476.921 548.178 478.93 547.92C480.992 547.663 482.924 547.534 484.728 547.534Z" fill="white"/>
<path d="M510.463 567.476C510.463 564.075 510.978 561.138 512.009 558.665C513.04 556.14 514.457 554.053 516.26 552.404C518.115 550.755 520.254 549.544 522.676 548.771C525.149 547.946 527.803 547.534 530.637 547.534C531.668 547.534 532.673 547.637 533.652 547.843C534.631 547.998 535.43 548.204 536.048 548.462V535.94C536.563 535.785 537.388 535.63 538.521 535.476C539.655 535.27 540.815 535.167 542 535.167C543.133 535.167 544.138 535.244 545.014 535.399C545.942 535.553 546.715 535.862 547.333 536.326C547.951 536.79 548.415 537.434 548.724 538.259C549.034 539.031 549.188 540.062 549.188 541.35V577.989C549.188 580.411 548.055 582.343 545.787 583.786C544.293 584.765 542.36 585.615 539.99 586.337C537.62 587.11 534.888 587.496 531.797 587.496C528.447 587.496 525.433 587.032 522.753 586.105C520.125 585.177 517.883 583.837 516.028 582.085C514.225 580.333 512.833 578.246 511.854 575.824C510.927 573.351 510.463 570.568 510.463 567.476ZM532.415 557.814C529.632 557.814 527.494 558.613 525.999 560.211C524.505 561.808 523.758 564.23 523.758 567.476C523.758 570.671 524.454 573.093 525.845 574.742C527.236 576.34 529.246 577.138 531.874 577.138C532.802 577.138 533.626 577.01 534.347 576.752C535.12 576.443 535.713 576.108 536.125 575.747V558.742C535.095 558.124 533.858 557.814 532.415 557.814Z" fill="white"/>
<path d="M590.474 577.911C591.35 577.911 592.304 577.834 593.334 577.679C594.417 577.473 595.215 577.216 595.731 576.906V570.723L590.165 571.187C588.722 571.29 587.537 571.599 586.61 572.114C585.682 572.629 585.218 573.402 585.218 574.433C585.218 575.464 585.605 576.314 586.378 576.984C587.202 577.602 588.568 577.911 590.474 577.911ZM589.856 547.534C592.639 547.534 595.164 547.817 597.431 548.384C599.75 548.951 601.708 549.827 603.306 551.012C604.955 552.146 606.217 553.615 607.093 555.418C607.969 557.17 608.407 559.257 608.407 561.679V578.993C608.407 580.333 608.021 581.441 607.248 582.317C606.526 583.142 605.65 583.863 604.62 584.481C601.27 586.491 596.555 587.496 590.474 587.496C587.743 587.496 585.27 587.238 583.054 586.723C580.89 586.208 579.009 585.435 577.411 584.404C575.866 583.374 574.655 582.059 573.779 580.462C572.954 578.865 572.542 577.01 572.542 574.897C572.542 571.341 573.598 568.61 575.711 566.703C577.824 564.797 581.096 563.612 585.528 563.148L595.653 562.066V561.525C595.653 560.03 594.983 558.974 593.644 558.355C592.355 557.686 590.474 557.351 588.001 557.351C586.043 557.351 584.136 557.557 582.281 557.969C580.426 558.381 578.751 558.897 577.257 559.515C576.587 559.051 576.02 558.355 575.556 557.428C575.093 556.449 574.861 555.444 574.861 554.413C574.861 553.074 575.17 552.017 575.788 551.244C576.458 550.42 577.463 549.724 578.803 549.157C580.297 548.59 582.049 548.178 584.059 547.92C586.12 547.663 588.053 547.534 589.856 547.534Z" fill="white"/>
<path d="M630.587 586.182C630.02 586.285 629.17 586.414 628.036 586.568C626.954 586.775 625.846 586.878 624.712 586.878C623.579 586.878 622.548 586.8 621.621 586.646C620.745 586.491 619.997 586.182 619.379 585.718C618.761 585.254 618.271 584.636 617.91 583.863C617.601 583.039 617.447 581.982 617.447 580.694V535.862C618.013 535.759 618.838 535.63 619.92 535.476C621.054 535.27 622.187 535.167 623.321 535.167C624.455 535.167 625.46 535.244 626.336 535.399C627.263 535.553 628.036 535.862 628.654 536.326C629.273 536.79 629.737 537.434 630.046 538.259C630.406 539.031 630.587 540.062 630.587 541.35V586.182Z" fill="white"/>
<path d="M678.531 567.476C678.531 570.671 678.042 573.531 677.063 576.056C676.084 578.53 674.692 580.617 672.889 582.317C671.137 584.018 669.024 585.306 666.551 586.182C664.077 587.058 661.32 587.496 658.28 587.496C655.24 587.496 652.483 587.032 650.009 586.105C647.536 585.177 645.397 583.863 643.594 582.163C641.842 580.411 640.476 578.298 639.497 575.824C638.518 573.351 638.028 570.568 638.028 567.476C638.028 564.436 638.518 561.679 639.497 559.206C640.476 556.732 641.842 554.645 643.594 552.945C645.397 551.193 647.536 549.853 650.009 548.925C652.483 547.998 655.24 547.534 658.28 547.534C661.32 547.534 664.077 548.024 666.551 549.003C669.024 549.93 671.137 551.27 672.889 553.022C674.692 554.723 676.084 556.81 677.063 559.283C678.042 561.756 678.531 564.488 678.531 567.476ZM651.478 567.476C651.478 570.62 652.07 573.042 653.256 574.742C654.492 576.391 656.193 577.216 658.357 577.216C660.521 577.216 662.17 576.365 663.304 574.665C664.489 572.964 665.082 570.568 665.082 567.476C665.082 564.385 664.489 562.014 663.304 560.365C662.119 558.665 660.444 557.814 658.28 557.814C656.116 557.814 654.441 558.665 653.256 560.365C652.07 562.014 651.478 564.385 651.478 567.476Z" fill="white"/>
<path d="M709.522 562.452C709.522 560.855 709.058 559.695 708.131 558.974C707.255 558.201 706.044 557.814 704.498 557.814C703.467 557.814 702.437 557.943 701.406 558.201C700.427 558.458 699.577 558.845 698.855 559.36V586.182C698.34 586.337 697.516 586.491 696.382 586.646C695.3 586.8 694.166 586.878 692.981 586.878C691.847 586.878 690.817 586.8 689.889 586.646C689.013 586.491 688.266 586.182 687.648 585.718C687.029 585.254 686.54 584.636 686.179 583.863C685.87 583.039 685.715 581.982 685.715 580.694V557.505C685.715 556.114 685.999 554.98 686.565 554.104C687.184 553.228 688.008 552.429 689.039 551.708C690.791 550.471 692.981 549.466 695.609 548.693C698.289 547.92 701.252 547.534 704.498 547.534C710.321 547.534 714.804 548.822 717.947 551.399C721.091 553.924 722.663 557.454 722.663 561.988V586.182C722.147 586.337 721.323 586.491 720.189 586.646C719.107 586.8 717.973 586.878 716.788 586.878C715.654 586.878 714.624 586.8 713.696 586.646C712.82 586.491 712.073 586.182 711.455 585.718C710.836 585.254 710.347 584.636 709.986 583.863C709.677 583.039 709.522 581.982 709.522 580.694V562.452Z" fill="white"/>
<path d="M749.871 547.534C752.809 547.534 755.462 547.92 757.833 548.693C760.255 549.415 762.29 550.368 763.939 551.553C764.97 552.275 765.768 553.074 766.335 553.95C766.954 554.826 767.263 555.959 767.263 557.351V584.404C767.263 587.135 766.748 589.48 765.717 591.438C764.686 593.448 763.269 595.097 761.466 596.385C759.714 597.725 757.627 598.704 755.205 599.322C752.834 599.941 750.283 600.25 747.552 600.25C742.863 600.25 739.179 599.606 736.499 598.317C733.819 597.081 732.48 595.045 732.48 592.211C732.48 591.026 732.712 589.969 733.175 589.042C733.691 588.166 734.257 587.496 734.876 587.032C736.37 587.857 738.045 588.552 739.9 589.119C741.807 589.686 743.765 589.969 745.775 589.969C748.557 589.969 750.773 589.506 752.422 588.578C754.071 587.651 754.896 586.156 754.896 584.095V582.858C752.783 583.786 750.206 584.25 747.166 584.25C744.847 584.25 742.631 583.915 740.518 583.245C738.457 582.523 736.628 581.441 735.03 579.998C733.485 578.504 732.222 576.597 731.243 574.278C730.315 571.96 729.852 569.203 729.852 566.008C729.852 562.864 730.341 560.133 731.32 557.814C732.351 555.495 733.742 553.589 735.494 552.094C737.298 550.549 739.411 549.415 741.832 548.693C744.306 547.92 746.986 547.534 749.871 547.534ZM754.664 558.742C754.303 558.536 753.762 558.33 753.04 558.124C752.371 557.917 751.52 557.814 750.49 557.814C747.965 557.814 746.058 558.536 744.77 559.979C743.533 561.37 742.915 563.38 742.915 566.008C742.915 568.997 743.533 571.161 744.77 572.501C746.058 573.789 747.681 574.433 749.639 574.433C751.752 574.433 753.427 573.943 754.664 572.964V558.742Z" fill="white"/>
<path d="M773.863 579.998C773.863 577.834 774.532 576.03 775.872 574.588C777.212 573.145 779.041 572.423 781.36 572.423C783.679 572.423 785.509 573.145 786.848 574.588C788.188 576.03 788.858 577.834 788.858 579.998C788.858 582.163 788.188 583.966 786.848 585.409C785.509 586.852 783.679 587.573 781.36 587.573C779.041 587.573 777.212 586.852 775.872 585.409C774.532 583.966 773.863 582.163 773.863 579.998Z" fill="white"/>
</g>
<path d="M98.1842 453.706C97.8235 453.139 97.4885 452.366 97.1794 451.387C96.8702 450.408 96.7156 449.378 96.7156 448.296C96.7156 446.286 97.1536 444.843 98.0296 443.967C98.9572 443.091 100.142 442.653 101.585 442.653H135.286C135.647 443.22 135.982 443.993 136.291 444.972C136.6 445.951 136.755 446.982 136.755 448.064C136.755 450.073 136.291 451.516 135.364 452.392C134.487 453.268 133.328 453.706 131.885 453.706H123.305V489.417C122.739 489.572 121.837 489.726 120.6 489.881C119.415 490.035 118.23 490.113 117.044 490.113C115.859 490.113 114.803 490.01 113.875 489.803C112.999 489.649 112.252 489.34 111.634 488.876C111.015 488.412 110.552 487.768 110.242 486.944C109.933 486.119 109.779 485.037 109.779 483.697V453.706H98.1842Z" fill="white"/>
<path d="M156.805 481.378C157.681 481.378 158.634 481.301 159.665 481.146C160.747 480.94 161.545 480.683 162.061 480.373V474.19L156.495 474.653C155.053 474.757 153.867 475.066 152.94 475.581C152.012 476.096 151.549 476.869 151.549 477.9C151.549 478.931 151.935 479.781 152.708 480.451C153.532 481.069 154.898 481.378 156.805 481.378ZM156.186 451.001C158.969 451.001 161.494 451.284 163.761 451.851C166.08 452.418 168.038 453.294 169.636 454.479C171.285 455.613 172.547 457.082 173.423 458.885C174.299 460.637 174.737 462.724 174.737 465.146V482.46C174.737 483.8 174.351 484.908 173.578 485.784C172.856 486.609 171.98 487.33 170.95 487.948C167.6 489.958 162.885 490.963 156.805 490.963C154.074 490.963 151.6 490.705 149.384 490.19C147.22 489.675 145.339 488.902 143.742 487.871C142.196 486.84 140.985 485.526 140.109 483.929C139.284 482.332 138.872 480.476 138.872 478.364C138.872 474.808 139.928 472.077 142.041 470.17C144.154 468.264 147.426 467.078 151.858 466.615L161.983 465.533V464.991C161.983 463.497 161.314 462.441 159.974 461.822C158.686 461.152 156.805 460.818 154.331 460.818C152.373 460.818 150.466 461.024 148.611 461.436C146.756 461.848 145.081 462.363 143.587 462.982C142.917 462.518 142.35 461.822 141.887 460.895C141.423 459.916 141.191 458.911 141.191 457.88C141.191 456.54 141.5 455.484 142.118 454.711C142.788 453.887 143.793 453.191 145.133 452.624C146.627 452.057 148.379 451.645 150.389 451.387C152.45 451.13 154.383 451.001 156.186 451.001Z" fill="white"/>
<path d="M200.782 451.001C203.874 451.001 206.734 451.413 209.362 452.238C212.041 453.011 214.334 454.222 216.241 455.871C218.148 457.52 219.642 459.607 220.724 462.132C221.806 464.605 222.347 467.568 222.347 471.021C222.347 474.319 221.884 477.204 220.956 479.678C220.028 482.151 218.714 484.238 217.014 485.939C215.313 487.588 213.252 488.824 210.83 489.649C208.46 490.473 205.806 490.886 202.869 490.886C200.653 490.886 198.592 490.551 196.685 489.881V502.712C196.17 502.866 195.345 503.021 194.212 503.176C193.078 503.382 191.919 503.485 190.733 503.485C189.6 503.485 188.569 503.408 187.641 503.253C186.765 503.098 186.018 502.789 185.4 502.325C184.782 501.862 184.318 501.217 184.009 500.393C183.699 499.62 183.545 498.589 183.545 497.301V460.199C183.545 458.808 183.828 457.674 184.395 456.798C185.013 455.922 185.838 455.123 186.869 454.402C188.466 453.371 190.45 452.547 192.82 451.928C195.191 451.31 197.845 451.001 200.782 451.001ZM200.936 480.528C206.244 480.528 208.898 477.359 208.898 471.021C208.898 467.723 208.228 465.275 206.888 463.677C205.6 462.08 203.719 461.281 201.246 461.281C200.266 461.281 199.39 461.41 198.618 461.668C197.845 461.874 197.175 462.132 196.608 462.441V479.446C197.226 479.755 197.896 480.013 198.618 480.219C199.339 480.425 200.112 480.528 200.936 480.528Z" fill="white"/>
<path d="M258.92 476.818C258.92 478.158 259.333 479.111 260.157 479.678C261.033 480.245 262.244 480.528 263.79 480.528C264.563 480.528 265.362 480.476 266.186 480.373C267.011 480.219 267.732 480.038 268.35 479.832C268.814 480.399 269.201 481.043 269.51 481.765C269.871 482.435 270.051 483.259 270.051 484.238C270.051 486.196 269.304 487.794 267.809 489.031C266.367 490.267 263.79 490.886 260.08 490.886C255.545 490.886 252.041 489.855 249.568 487.794C247.146 485.733 245.935 482.383 245.935 477.745V444.663C246.501 444.508 247.3 444.353 248.331 444.199C249.413 443.993 250.547 443.89 251.732 443.89C253.999 443.89 255.751 444.302 256.988 445.126C258.276 445.899 258.92 447.574 258.92 450.151V455.098H269.046C269.355 455.664 269.639 456.386 269.896 457.262C270.206 458.086 270.36 459.014 270.36 460.045C270.36 461.848 269.948 463.162 269.123 463.987C268.35 464.76 267.294 465.146 265.954 465.146H258.92V476.818Z" fill="white"/>
<path d="M314.604 489.649C314.088 489.803 313.264 489.958 312.13 490.113C311.048 490.267 309.914 490.345 308.729 490.345C307.595 490.345 306.565 490.267 305.637 490.113C304.761 489.958 304.014 489.649 303.396 489.185C302.777 488.721 302.288 488.103 301.927 487.33C301.618 486.506 301.463 485.449 301.463 484.161V467.001C301.463 464.888 300.922 463.42 299.84 462.595C298.809 461.719 297.521 461.281 295.975 461.281C294.945 461.281 293.966 461.41 293.038 461.668C292.11 461.925 291.363 462.235 290.796 462.595V489.649C290.281 489.803 289.457 489.958 288.323 490.113C287.241 490.267 286.107 490.345 284.922 490.345C283.788 490.345 282.758 490.267 281.83 490.113C280.954 489.958 280.207 489.649 279.589 489.185C278.97 488.721 278.481 488.103 278.12 487.33C277.811 486.506 277.656 485.449 277.656 484.161V439.329C278.223 439.226 279.047 439.097 280.13 438.943C281.263 438.737 282.397 438.634 283.531 438.634C284.664 438.634 285.669 438.711 286.545 438.865C287.473 439.02 288.246 439.329 288.864 439.793C289.482 440.257 289.946 440.901 290.255 441.725C290.616 442.498 290.796 443.529 290.796 444.817V452.392C291.466 452.135 292.471 451.851 293.811 451.542C295.202 451.181 296.722 451.001 298.371 451.001C303.473 451.001 307.441 452.289 310.275 454.866C313.161 457.391 314.604 461.178 314.604 466.228V489.649Z" fill="white"/>
<path d="M343.355 490.963C340.314 490.963 337.48 490.551 334.852 489.726C332.276 488.85 330.008 487.562 328.05 485.861C326.143 484.161 324.623 482.022 323.49 479.446C322.407 476.869 321.866 473.855 321.866 470.402C321.866 467.001 322.407 464.09 323.49 461.668C324.623 459.194 326.092 457.185 327.895 455.639C329.699 454.041 331.76 452.882 334.079 452.16C336.398 451.387 338.768 451.001 341.19 451.001C343.921 451.001 346.395 451.413 348.611 452.238C350.878 453.062 352.811 454.196 354.408 455.639C356.057 457.082 357.319 458.808 358.195 460.818C359.123 462.827 359.587 465.017 359.587 467.388C359.587 469.14 359.097 470.479 358.118 471.407C357.139 472.335 355.774 472.927 354.021 473.185L334.929 476.045C335.496 477.745 336.656 479.034 338.408 479.91C340.16 480.734 342.169 481.146 344.437 481.146C346.55 481.146 348.533 480.889 350.389 480.373C352.295 479.807 353.841 479.162 355.026 478.441C355.851 478.956 356.546 479.678 357.113 480.605C357.68 481.533 357.964 482.512 357.964 483.542C357.964 485.861 356.881 487.588 354.717 488.721C353.068 489.597 351.213 490.19 349.152 490.499C347.091 490.808 345.158 490.963 343.355 490.963ZM341.19 460.586C339.954 460.586 338.871 460.792 337.944 461.204C337.068 461.616 336.346 462.157 335.78 462.827C335.213 463.446 334.775 464.167 334.466 464.991C334.208 465.764 334.053 466.563 334.002 467.388L347.219 465.223C347.065 464.193 346.498 463.162 345.519 462.132C344.54 461.101 343.097 460.586 341.19 460.586Z" fill="white"/>
<path d="M382.623 441.725C382.623 439.767 383.267 438.118 384.555 436.778C385.895 435.439 387.647 434.769 389.811 434.769C391.976 434.769 393.702 435.439 394.99 436.778C396.33 438.118 397 439.767 397 441.725C397 443.684 396.33 445.333 394.99 446.672C393.702 448.012 391.976 448.682 389.811 448.682C387.647 448.682 385.895 448.012 384.555 446.672C383.267 445.333 382.623 443.684 382.623 441.725ZM396.381 489.649C395.815 489.752 394.964 489.881 393.831 490.035C392.748 490.241 391.641 490.345 390.507 490.345C389.373 490.345 388.343 490.267 387.415 490.113C386.539 489.958 385.792 489.649 385.173 489.185C384.555 488.721 384.066 488.103 383.705 487.33C383.396 486.506 383.241 485.449 383.241 484.161V452.701C383.808 452.598 384.632 452.47 385.715 452.315C386.848 452.109 387.982 452.006 389.116 452.006C390.249 452.006 391.254 452.083 392.13 452.238C393.058 452.392 393.831 452.701 394.449 453.165C395.067 453.629 395.531 454.273 395.84 455.098C396.201 455.871 396.381 456.901 396.381 458.189V489.649Z" fill="white"/>
<path d="M426.699 461.359C425.411 461.359 424.174 461.565 422.989 461.977C421.855 462.389 420.85 463.008 419.974 463.832C419.15 464.605 418.48 465.584 417.964 466.769C417.449 467.954 417.192 469.346 417.192 470.943C417.192 474.138 418.093 476.534 419.897 478.132C421.752 479.729 423.994 480.528 426.622 480.528C428.168 480.528 429.507 480.348 430.641 479.987C431.775 479.626 432.78 479.24 433.656 478.827C434.686 479.549 435.459 480.348 435.974 481.224C436.49 482.048 436.747 483.053 436.747 484.238C436.747 486.351 435.743 488 433.733 489.185C431.723 490.319 428.94 490.886 425.385 490.886C422.138 490.886 419.201 490.422 416.573 489.494C413.945 488.515 411.678 487.175 409.771 485.475C407.916 483.723 406.473 481.636 405.443 479.214C404.412 476.792 403.897 474.112 403.897 471.175C403.897 467.774 404.438 464.811 405.52 462.286C406.654 459.71 408.174 457.597 410.08 455.948C411.987 454.299 414.177 453.062 416.65 452.238C419.175 451.413 421.829 451.001 424.612 451.001C428.322 451.001 431.182 451.671 433.192 453.011C435.201 454.35 436.206 456.077 436.206 458.189C436.206 459.169 435.974 460.096 435.511 460.972C435.047 461.797 434.506 462.518 433.887 463.136C433.011 462.724 431.955 462.338 430.718 461.977C429.482 461.565 428.142 461.359 426.699 461.359Z" fill="white"/>
<path d="M481.858 470.943C481.858 474.138 481.368 476.998 480.389 479.523C479.41 481.997 478.019 484.084 476.215 485.784C474.463 487.485 472.351 488.773 469.877 489.649C467.404 490.525 464.647 490.963 461.606 490.963C458.566 490.963 455.809 490.499 453.336 489.572C450.862 488.644 448.724 487.33 446.92 485.629C445.168 483.877 443.803 481.765 442.824 479.291C441.844 476.818 441.355 474.035 441.355 470.943C441.355 467.903 441.844 465.146 442.824 462.673C443.803 460.199 445.168 458.112 446.92 456.412C448.724 454.66 450.862 453.32 453.336 452.392C455.809 451.465 458.566 451.001 461.606 451.001C464.647 451.001 467.404 451.49 469.877 452.47C472.351 453.397 474.463 454.737 476.215 456.489C478.019 458.189 479.41 460.276 480.389 462.75C481.368 465.223 481.858 467.954 481.858 470.943ZM454.804 470.943C454.804 474.087 455.397 476.509 456.582 478.209C457.819 479.858 459.519 480.683 461.684 480.683C463.848 480.683 465.497 479.832 466.631 478.132C467.816 476.431 468.409 474.035 468.409 470.943C468.409 467.851 467.816 465.481 466.631 463.832C465.446 462.132 463.771 461.281 461.606 461.281C459.442 461.281 457.767 462.132 456.582 463.832C455.397 465.481 454.804 467.851 454.804 470.943Z" fill="white"/>
<path d="M512.849 465.919C512.849 464.322 512.385 463.162 511.457 462.441C510.581 461.668 509.37 461.281 507.825 461.281C506.794 461.281 505.763 461.41 504.733 461.668C503.754 461.925 502.903 462.312 502.182 462.827V489.649C501.667 489.803 500.842 489.958 499.708 490.113C498.626 490.267 497.493 490.345 496.307 490.345C495.174 490.345 494.143 490.267 493.216 490.113C492.34 489.958 491.592 489.649 490.974 489.185C490.356 488.721 489.866 488.103 489.505 487.33C489.196 486.506 489.042 485.449 489.042 484.161V460.972C489.042 459.581 489.325 458.447 489.892 457.571C490.51 456.695 491.335 455.896 492.365 455.175C494.117 453.938 496.307 452.933 498.936 452.16C501.615 451.387 504.578 451.001 507.825 451.001C513.648 451.001 518.131 452.289 521.274 454.866C524.417 457.391 525.989 460.921 525.989 465.455V489.649C525.474 489.803 524.649 489.958 523.516 490.113C522.433 490.267 521.3 490.345 520.115 490.345C518.981 490.345 517.95 490.267 517.023 490.113C516.147 489.958 515.4 489.649 514.781 489.185C514.163 488.721 513.673 488.103 513.313 487.33C513.003 486.506 512.849 485.449 512.849 484.161V465.919Z" fill="white"/>
<path d="M564.266 476.818C564.266 478.158 564.678 479.111 565.503 479.678C566.379 480.245 567.59 480.528 569.136 480.528C569.909 480.528 570.708 480.476 571.532 480.373C572.357 480.219 573.078 480.038 573.696 479.832C574.16 480.399 574.547 481.043 574.856 481.765C575.216 482.435 575.397 483.259 575.397 484.238C575.397 486.196 574.65 487.794 573.155 489.031C571.712 490.267 569.136 490.886 565.426 490.886C560.891 490.886 557.387 489.855 554.913 487.794C552.491 485.733 551.281 482.383 551.281 477.745V444.663C551.847 444.508 552.646 444.353 553.677 444.199C554.759 443.993 555.892 443.89 557.078 443.89C559.345 443.89 561.097 444.302 562.334 445.126C563.622 445.899 564.266 447.574 564.266 450.151V455.098H574.392C574.701 455.664 574.985 456.386 575.242 457.262C575.551 458.086 575.706 459.014 575.706 460.045C575.706 461.848 575.294 463.162 574.469 463.987C573.696 464.76 572.64 465.146 571.3 465.146H564.266V476.818Z" fill="white"/>
<path d="M621.274 470.943C621.274 474.138 620.785 476.998 619.806 479.523C618.827 481.997 617.435 484.084 615.632 485.784C613.88 487.485 611.767 488.773 609.294 489.649C606.82 490.525 604.063 490.963 601.023 490.963C597.983 490.963 595.226 490.499 592.752 489.572C590.279 488.644 588.14 487.33 586.337 485.629C584.585 483.877 583.219 481.765 582.24 479.291C581.261 476.818 580.771 474.035 580.771 470.943C580.771 467.903 581.261 465.146 582.24 462.673C583.219 460.199 584.585 458.112 586.337 456.412C588.14 454.66 590.279 453.32 592.752 452.392C595.226 451.465 597.983 451.001 601.023 451.001C604.063 451.001 606.82 451.49 609.294 452.47C611.767 453.397 613.88 454.737 615.632 456.489C617.435 458.189 618.827 460.276 619.806 462.75C620.785 465.223 621.274 467.954 621.274 470.943ZM594.221 470.943C594.221 474.087 594.813 476.509 595.999 478.209C597.235 479.858 598.936 480.683 601.1 480.683C603.264 480.683 604.913 479.832 606.047 478.132C607.232 476.431 607.825 474.035 607.825 470.943C607.825 467.851 607.232 465.481 606.047 463.832C604.862 462.132 603.187 461.281 601.023 461.281C598.859 461.281 597.184 462.132 595.999 463.832C594.813 465.481 594.221 467.851 594.221 470.943Z" fill="white"/>
<path d="M644.396 441.725C644.396 439.767 645.04 438.118 646.328 436.778C647.668 435.439 649.42 434.769 651.585 434.769C653.749 434.769 655.475 435.439 656.763 436.778C658.103 438.118 658.773 439.767 658.773 441.725C658.773 443.684 658.103 445.333 656.763 446.672C655.475 448.012 653.749 448.682 651.585 448.682C649.42 448.682 647.668 448.012 646.328 446.672C645.04 445.333 644.396 443.684 644.396 441.725ZM658.155 489.649C657.588 489.752 656.738 489.881 655.604 490.035C654.522 490.241 653.414 490.345 652.28 490.345C651.147 490.345 650.116 490.267 649.188 490.113C648.312 489.958 647.565 489.649 646.947 489.185C646.328 488.721 645.839 488.103 645.478 487.33C645.169 486.506 645.014 485.449 645.014 484.161V452.701C645.581 452.598 646.406 452.47 647.488 452.315C648.622 452.109 649.755 452.006 650.889 452.006C652.023 452.006 653.027 452.083 653.904 452.238C654.831 452.392 655.604 452.701 656.222 453.165C656.841 453.629 657.305 454.273 657.614 455.098C657.974 455.871 658.155 456.901 658.155 458.189V489.649Z" fill="white"/>
<path d="M691.1 465.919C691.1 464.322 690.637 463.162 689.709 462.441C688.833 461.668 687.622 461.281 686.076 461.281C685.045 461.281 684.015 461.41 682.984 461.668C682.005 461.925 681.155 462.312 680.434 462.827V489.649C679.918 489.803 679.094 489.958 677.96 490.113C676.878 490.267 675.744 490.345 674.559 490.345C673.425 490.345 672.395 490.267 671.467 490.113C670.591 489.958 669.844 489.649 669.226 489.185C668.607 488.721 668.118 488.103 667.757 487.33C667.448 486.506 667.293 485.449 667.293 484.161V460.972C667.293 459.581 667.577 458.447 668.143 457.571C668.762 456.695 669.586 455.896 670.617 455.175C672.369 453.938 674.559 452.933 677.187 452.16C679.867 451.387 682.83 451.001 686.076 451.001C691.899 451.001 696.382 452.289 699.526 454.866C702.669 457.391 704.241 460.921 704.241 465.455V489.649C703.725 489.803 702.901 489.958 701.767 490.113C700.685 490.267 699.551 490.345 698.366 490.345C697.232 490.345 696.202 490.267 695.274 490.113C694.398 489.958 693.651 489.649 693.033 489.185C692.414 488.721 691.925 488.103 691.564 487.33C691.255 486.506 691.1 485.449 691.1 484.161V465.919Z" fill="white"/>
<path d="M726.271 476.818C726.271 478.158 726.683 479.111 727.507 479.678C728.383 480.245 729.594 480.528 731.14 480.528C731.913 480.528 732.712 480.476 733.536 480.373C734.361 480.219 735.082 480.038 735.701 479.832C736.164 480.399 736.551 481.043 736.86 481.765C737.221 482.435 737.401 483.259 737.401 484.238C737.401 486.196 736.654 487.794 735.16 489.031C733.717 490.267 731.14 490.886 727.43 490.886C722.895 490.886 719.391 489.855 716.918 487.794C714.496 485.733 713.285 482.383 713.285 477.745V444.663C713.852 444.508 714.65 444.353 715.681 444.199C716.763 443.993 717.897 443.89 719.082 443.89C721.349 443.89 723.101 444.302 724.338 445.126C725.626 445.899 726.271 447.574 726.271 450.151V455.098H736.396C736.705 455.664 736.989 456.386 737.247 457.262C737.556 458.086 737.71 459.014 737.71 460.045C737.71 461.848 737.298 463.162 736.474 463.987C735.701 464.76 734.644 465.146 733.305 465.146H726.271V476.818Z" fill="white"/>
<path d="M764.264 490.963C761.224 490.963 758.389 490.551 755.761 489.726C753.185 488.85 750.918 487.562 748.959 485.861C747.053 484.161 745.533 482.022 744.399 479.446C743.317 476.869 742.776 473.855 742.776 470.402C742.776 467.001 743.317 464.09 744.399 461.668C745.533 459.194 747.001 457.185 748.805 455.639C750.608 454.041 752.67 452.882 754.988 452.16C757.307 451.387 759.678 451.001 762.1 451.001C764.831 451.001 767.304 451.413 769.52 452.238C771.787 453.062 773.72 454.196 775.317 455.639C776.966 457.082 778.229 458.808 779.105 460.818C780.032 462.827 780.496 465.017 780.496 467.388C780.496 469.14 780.006 470.479 779.027 471.407C778.048 472.335 776.683 472.927 774.931 473.185L755.839 476.045C756.406 477.745 757.565 479.034 759.317 479.91C761.069 480.734 763.079 481.146 765.346 481.146C767.459 481.146 769.443 480.889 771.298 480.373C773.204 479.807 774.75 479.162 775.936 478.441C776.76 478.956 777.456 479.678 778.023 480.605C778.589 481.533 778.873 482.512 778.873 483.542C778.873 485.861 777.791 487.588 775.626 488.721C773.977 489.597 772.122 490.19 770.061 490.499C768 490.808 766.067 490.963 764.264 490.963ZM762.1 460.586C760.863 460.586 759.781 460.792 758.853 461.204C757.977 461.616 757.256 462.157 756.689 462.827C756.122 463.446 755.684 464.167 755.375 464.991C755.117 465.764 754.963 466.563 754.911 467.388L768.129 465.223C767.974 464.193 767.407 463.162 766.428 462.132C765.449 461.101 764.006 460.586 762.1 460.586Z" fill="white"/>
<path d="M800.734 489.649C800.219 489.803 799.394 489.958 798.261 490.113C797.179 490.267 796.045 490.345 794.86 490.345C793.726 490.345 792.695 490.267 791.768 490.113C790.892 489.958 790.145 489.649 789.526 489.185C788.908 488.721 788.418 488.103 788.058 487.33C787.749 486.506 787.594 485.449 787.594 484.161V460.972C787.594 459.787 787.8 458.782 788.212 457.958C788.676 457.082 789.32 456.309 790.145 455.639C790.969 454.969 791.974 454.376 793.159 453.861C794.396 453.294 795.71 452.805 797.101 452.392C798.493 451.98 799.936 451.671 801.43 451.465C802.924 451.207 804.419 451.078 805.913 451.078C808.387 451.078 810.345 451.568 811.788 452.547C813.23 453.474 813.952 455.02 813.952 457.185C813.952 457.906 813.849 458.627 813.643 459.349C813.437 460.019 813.179 460.637 812.87 461.204C811.788 461.204 810.68 461.256 809.546 461.359C808.412 461.462 807.304 461.616 806.222 461.822C805.14 462.028 804.11 462.26 803.13 462.518C802.203 462.724 801.404 462.982 800.734 463.291V489.649Z" fill="white"/>
<path d="M835.091 481.378C835.967 481.378 836.92 481.301 837.951 481.146C839.033 480.94 839.832 480.683 840.347 480.373V474.19L834.782 474.653C833.339 474.757 832.154 475.066 831.226 475.581C830.299 476.096 829.835 476.869 829.835 477.9C829.835 478.931 830.221 479.781 830.994 480.451C831.819 481.069 833.184 481.378 835.091 481.378ZM834.473 451.001C837.255 451.001 839.78 451.284 842.048 451.851C844.367 452.418 846.325 453.294 847.922 454.479C849.571 455.613 850.834 457.082 851.71 458.885C852.586 460.637 853.024 462.724 853.024 465.146V482.46C853.024 483.8 852.637 484.908 851.864 485.784C851.143 486.609 850.267 487.33 849.236 487.948C845.887 489.958 841.172 490.963 835.091 490.963C832.36 490.963 829.886 490.705 827.671 490.19C825.506 489.675 823.625 488.902 822.028 487.871C820.482 486.84 819.271 485.526 818.395 483.929C817.571 482.332 817.158 480.476 817.158 478.364C817.158 474.808 818.215 472.077 820.328 470.17C822.44 468.264 825.712 467.078 830.144 466.615L840.27 465.533V464.991C840.27 463.497 839.6 462.441 838.26 461.822C836.972 461.152 835.091 460.818 832.618 460.818C830.659 460.818 828.753 461.024 826.898 461.436C825.043 461.848 823.368 462.363 821.873 462.982C821.204 462.518 820.637 461.822 820.173 460.895C819.709 459.916 819.477 458.911 819.477 457.88C819.477 456.54 819.786 455.484 820.405 454.711C821.075 453.887 822.08 453.191 823.419 452.624C824.914 452.057 826.666 451.645 828.675 451.387C830.737 451.13 832.669 451.001 834.473 451.001Z" fill="white"/>
<path d="M883.01 461.359C881.722 461.359 880.485 461.565 879.3 461.977C878.166 462.389 877.162 463.008 876.286 463.832C875.461 464.605 874.791 465.584 874.276 466.769C873.761 467.954 873.503 469.346 873.503 470.943C873.503 474.138 874.405 476.534 876.208 478.132C878.063 479.729 880.305 480.528 882.933 480.528C884.479 480.528 885.819 480.348 886.952 479.987C888.086 479.626 889.091 479.24 889.967 478.827C890.997 479.549 891.77 480.348 892.286 481.224C892.801 482.048 893.059 483.053 893.059 484.238C893.059 486.351 892.054 488 890.044 489.185C888.034 490.319 885.252 490.886 881.696 490.886C878.45 490.886 875.513 490.422 872.885 489.494C870.256 488.515 867.989 487.175 866.082 485.475C864.227 483.723 862.785 481.636 861.754 479.214C860.723 476.792 860.208 474.112 860.208 471.175C860.208 467.774 860.749 464.811 861.831 462.286C862.965 459.71 864.485 457.597 866.392 455.948C868.298 454.299 870.488 453.062 872.962 452.238C875.487 451.413 878.141 451.001 880.923 451.001C884.633 451.001 887.493 451.671 889.503 453.011C891.513 454.35 892.518 456.077 892.518 458.189C892.518 459.169 892.286 460.096 891.822 460.972C891.358 461.797 890.817 462.518 890.199 463.136C889.323 462.724 888.266 462.338 887.03 461.977C885.793 461.565 884.453 461.359 883.01 461.359Z" fill="white"/>
<path d="M913.562 476.818C913.562 478.158 913.974 479.111 914.799 479.678C915.675 480.245 916.886 480.528 918.432 480.528C919.205 480.528 920.003 480.476 920.828 480.373C921.652 480.219 922.374 480.038 922.992 479.832C923.456 480.399 923.842 481.043 924.152 481.765C924.512 482.435 924.693 483.259 924.693 484.238C924.693 486.196 923.945 487.794 922.451 489.031C921.008 490.267 918.432 490.886 914.721 490.886C910.187 490.886 906.683 489.855 904.209 487.794C901.787 485.733 900.576 482.383 900.576 477.745V444.663C901.143 444.508 901.942 444.353 902.973 444.199C904.055 443.993 905.188 443.89 906.374 443.89C908.641 443.89 910.393 444.302 911.63 445.126C912.918 445.899 913.562 447.574 913.562 450.151V455.098H923.688C923.997 455.664 924.28 456.386 924.538 457.262C924.847 458.086 925.002 459.014 925.002 460.045C925.002 461.848 924.59 463.162 923.765 463.987C922.992 464.76 921.936 465.146 920.596 465.146H913.562V476.818Z" fill="white"/>
<path d="M256.516 574.378C257.392 574.378 258.346 574.301 259.376 574.146C260.458 573.94 261.257 573.683 261.772 573.373V567.19L256.207 567.653C254.764 567.757 253.579 568.066 252.652 568.581C251.724 569.096 251.26 569.869 251.26 570.9C251.26 571.931 251.647 572.781 252.42 573.451C253.244 574.069 254.61 574.378 256.516 574.378ZM255.898 544.001C258.681 544.001 261.206 544.284 263.473 544.851C265.792 545.418 267.75 546.294 269.347 547.479C270.996 548.613 272.259 550.082 273.135 551.885C274.011 553.637 274.449 555.724 274.449 558.146V575.46C274.449 576.8 274.062 577.908 273.29 578.784C272.568 579.609 271.692 580.33 270.661 580.948C267.312 582.958 262.597 583.963 256.516 583.963C253.785 583.963 251.312 583.705 249.096 583.19C246.932 582.675 245.051 581.902 243.453 580.871C241.907 579.84 240.696 578.526 239.82 576.929C238.996 575.332 238.584 573.476 238.584 571.364C238.584 567.808 239.64 565.077 241.753 563.17C243.866 561.264 247.138 560.078 251.569 559.615L261.695 558.533V557.991C261.695 556.497 261.025 555.441 259.685 554.822C258.397 554.152 256.516 553.818 254.043 553.818C252.085 553.818 250.178 554.024 248.323 554.436C246.468 554.848 244.793 555.363 243.299 555.982C242.629 555.518 242.062 554.822 241.598 553.895C241.134 552.916 240.903 551.911 240.903 550.88C240.903 549.54 241.212 548.484 241.83 547.711C242.5 546.887 243.505 546.191 244.845 545.624C246.339 545.057 248.091 544.645 250.101 544.387C252.162 544.13 254.094 544.001 255.898 544.001Z" fill="white"/>
<path d="M307.064 558.919C307.064 557.322 306.6 556.162 305.672 555.441C304.796 554.668 303.585 554.281 302.039 554.281C301.009 554.281 299.978 554.41 298.948 554.668C297.968 554.925 297.118 555.312 296.397 555.827V582.649C295.881 582.803 295.057 582.958 293.923 583.113C292.841 583.267 291.707 583.345 290.522 583.345C289.389 583.345 288.358 583.267 287.43 583.113C286.554 582.958 285.807 582.649 285.189 582.185C284.571 581.721 284.081 581.103 283.72 580.33C283.411 579.506 283.256 578.449 283.256 577.161V553.972C283.256 552.581 283.54 551.447 284.107 550.571C284.725 549.695 285.55 548.896 286.58 548.175C288.332 546.938 290.522 545.933 293.15 545.16C295.83 544.387 298.793 544.001 302.039 544.001C307.862 544.001 312.345 545.289 315.489 547.866C318.632 550.391 320.204 553.921 320.204 558.455V582.649C319.689 582.803 318.864 582.958 317.73 583.113C316.648 583.267 315.515 583.345 314.329 583.345C313.196 583.345 312.165 583.267 311.238 583.113C310.362 582.958 309.614 582.649 308.996 582.185C308.378 581.721 307.888 581.103 307.527 580.33C307.218 579.506 307.064 578.449 307.064 577.161V558.919Z" fill="white"/>
<path d="M327.47 563.943C327.47 560.542 327.986 557.605 329.016 555.132C330.047 552.607 331.464 550.52 333.267 548.871C335.123 547.222 337.261 546.011 339.683 545.238C342.157 544.413 344.81 544.001 347.645 544.001C348.675 544.001 349.68 544.104 350.659 544.31C351.638 544.465 352.437 544.671 353.055 544.928V532.407C353.571 532.252 354.395 532.097 355.529 531.943C356.662 531.737 357.822 531.634 359.007 531.634C360.141 531.634 361.146 531.711 362.022 531.865C362.949 532.02 363.722 532.329 364.34 532.793C364.959 533.257 365.423 533.901 365.732 534.725C366.041 535.498 366.196 536.529 366.196 537.817V574.456C366.196 576.877 365.062 578.81 362.795 580.253C361.3 581.232 359.368 582.082 356.997 582.803C354.627 583.576 351.896 583.963 348.804 583.963C345.454 583.963 342.44 583.499 339.76 582.572C337.132 581.644 334.891 580.304 333.036 578.552C331.232 576.8 329.841 574.713 328.862 572.291C327.934 569.818 327.47 567.035 327.47 563.943ZM349.422 554.281C346.64 554.281 344.501 555.08 343.007 556.677C341.512 558.275 340.765 560.697 340.765 563.943C340.765 567.138 341.461 569.56 342.852 571.209C344.243 572.807 346.253 573.605 348.881 573.605C349.809 573.605 350.633 573.476 351.355 573.219C352.128 572.91 352.72 572.575 353.133 572.214V555.209C352.102 554.59 350.865 554.281 349.422 554.281Z" fill="white"/>
<path d="M404.545 582.649C404.029 582.803 403.205 582.958 402.071 583.113C400.989 583.267 399.855 583.345 398.67 583.345C397.536 583.345 396.506 583.267 395.578 583.113C394.702 582.958 393.955 582.649 393.337 582.185C392.718 581.721 392.229 581.103 391.868 580.33C391.559 579.506 391.404 578.449 391.404 577.161V553.972C391.404 552.787 391.61 551.782 392.023 550.958C392.486 550.082 393.131 549.309 393.955 548.639C394.78 547.969 395.784 547.376 396.97 546.861C398.206 546.294 399.52 545.805 400.912 545.392C402.303 544.98 403.746 544.671 405.24 544.465C406.735 544.207 408.229 544.078 409.723 544.078C412.197 544.078 414.155 544.568 415.598 545.547C417.041 546.474 417.762 548.02 417.762 550.185C417.762 550.906 417.659 551.627 417.453 552.349C417.247 553.019 416.989 553.637 416.68 554.204C415.598 554.204 414.49 554.256 413.356 554.359C412.223 554.462 411.115 554.616 410.033 554.822C408.95 555.028 407.92 555.26 406.941 555.518C406.013 555.724 405.214 555.982 404.545 556.291V582.649Z" fill="white"/>
<path d="M442.387 583.963C439.347 583.963 436.512 583.551 433.884 582.726C431.308 581.85 429.041 580.562 427.082 578.861C425.176 577.161 423.656 575.022 422.522 572.446C421.44 569.869 420.899 566.855 420.899 563.402C420.899 560.001 421.44 557.09 422.522 554.668C423.656 552.194 425.124 550.185 426.928 548.639C428.731 547.041 430.793 545.882 433.111 545.16C435.43 544.387 437.801 544.001 440.223 544.001C442.954 544.001 445.427 544.413 447.643 545.238C449.91 546.062 451.843 547.196 453.44 548.639C455.089 550.082 456.352 551.808 457.228 553.818C458.155 555.827 458.619 558.017 458.619 560.388C458.619 562.14 458.13 563.479 457.15 564.407C456.171 565.335 454.806 565.927 453.054 566.185L433.962 569.045C434.529 570.745 435.688 572.034 437.44 572.91C439.192 573.734 441.202 574.146 443.469 574.146C445.582 574.146 447.566 573.889 449.421 573.373C451.328 572.807 452.873 572.162 454.059 571.441C454.883 571.956 455.579 572.678 456.146 573.605C456.712 574.533 456.996 575.512 456.996 576.542C456.996 578.861 455.914 580.588 453.749 581.721C452.1 582.597 450.245 583.19 448.184 583.499C446.123 583.808 444.191 583.963 442.387 583.963ZM440.223 553.586C438.986 553.586 437.904 553.792 436.976 554.204C436.1 554.616 435.379 555.157 434.812 555.827C434.245 556.446 433.807 557.167 433.498 557.991C433.24 558.764 433.086 559.563 433.034 560.388L446.252 558.223C446.097 557.193 445.53 556.162 444.551 555.132C443.572 554.101 442.129 553.586 440.223 553.586Z" fill="white"/>
<path d="M481.795 574.378C482.671 574.378 483.624 574.301 484.654 574.146C485.737 573.94 486.535 573.683 487.051 573.373V567.19L481.485 567.653C480.042 567.757 478.857 568.066 477.93 568.581C477.002 569.096 476.538 569.869 476.538 570.9C476.538 571.931 476.925 572.781 477.698 573.451C478.522 574.069 479.888 574.378 481.795 574.378ZM481.176 544.001C483.959 544.001 486.484 544.284 488.751 544.851C491.07 545.418 493.028 546.294 494.626 547.479C496.275 548.613 497.537 550.082 498.413 551.885C499.289 553.637 499.727 555.724 499.727 558.146V575.46C499.727 576.8 499.341 577.908 498.568 578.784C497.846 579.609 496.97 580.33 495.94 580.948C492.59 582.958 487.875 583.963 481.795 583.963C479.063 583.963 476.59 583.705 474.374 583.19C472.21 582.675 470.329 581.902 468.732 580.871C467.186 579.84 465.975 578.526 465.099 576.929C464.274 575.332 463.862 573.476 463.862 571.364C463.862 567.808 464.918 565.077 467.031 563.17C469.144 561.264 472.416 560.078 476.848 559.615L486.973 558.533V557.991C486.973 556.497 486.303 555.441 484.964 554.822C483.675 554.152 481.795 553.818 479.321 553.818C477.363 553.818 475.456 554.024 473.601 554.436C471.746 554.848 470.071 555.363 468.577 555.982C467.907 555.518 467.34 554.822 466.876 553.895C466.413 552.916 466.181 551.911 466.181 550.88C466.181 549.54 466.49 548.484 467.108 547.711C467.778 546.887 468.783 546.191 470.123 545.624C471.617 545.057 473.369 544.645 475.379 544.387C477.44 544.13 479.373 544.001 481.176 544.001Z" fill="white"/>
<path d="M506.911 563.943C506.911 560.542 507.427 557.605 508.457 555.132C509.488 552.607 510.905 550.52 512.709 548.871C514.564 547.222 516.702 546.011 519.124 545.238C521.598 544.413 524.252 544.001 527.086 544.001C528.116 544.001 529.121 544.104 530.1 544.31C531.079 544.465 531.878 544.671 532.496 544.928V532.407C533.012 532.252 533.836 532.097 534.97 531.943C536.104 531.737 537.263 531.634 538.448 531.634C539.582 531.634 540.587 531.711 541.463 531.865C542.39 532.02 543.163 532.329 543.782 532.793C544.4 533.257 544.864 533.901 545.173 534.725C545.482 535.498 545.637 536.529 545.637 537.817V574.456C545.637 576.877 544.503 578.81 542.236 580.253C540.741 581.232 538.809 582.082 536.439 582.803C534.068 583.576 531.337 583.963 528.245 583.963C524.896 583.963 521.881 583.499 519.202 582.572C516.573 581.644 514.332 580.304 512.477 578.552C510.673 576.8 509.282 574.713 508.303 572.291C507.375 569.818 506.911 567.035 506.911 563.943ZM528.864 554.281C526.081 554.281 523.942 555.08 522.448 556.677C520.954 558.275 520.206 560.697 520.206 563.943C520.206 567.138 520.902 569.56 522.293 571.209C523.685 572.807 525.694 573.605 528.322 573.605C529.25 573.605 530.075 573.476 530.796 573.219C531.569 572.91 532.161 572.575 532.574 572.214V555.209C531.543 554.59 530.306 554.281 528.864 554.281Z" fill="white"/>
<path d="M586.923 574.378C587.799 574.378 588.752 574.301 589.783 574.146C590.865 573.94 591.664 573.683 592.179 573.373V567.19L586.614 567.653C585.171 567.757 583.986 568.066 583.058 568.581C582.131 569.096 581.667 569.869 581.667 570.9C581.667 571.931 582.053 572.781 582.826 573.451C583.651 574.069 585.016 574.378 586.923 574.378ZM586.305 544.001C589.087 544.001 591.612 544.284 593.88 544.851C596.198 545.418 598.157 546.294 599.754 547.479C601.403 548.613 602.666 550.082 603.542 551.885C604.418 553.637 604.856 555.724 604.856 558.146V575.46C604.856 576.8 604.469 577.908 603.696 578.784C602.975 579.609 602.099 580.33 601.068 580.948C597.719 582.958 593.004 583.963 586.923 583.963C584.192 583.963 581.718 583.705 579.503 583.19C577.338 582.675 575.457 581.902 573.86 580.871C572.314 579.84 571.103 578.526 570.227 576.929C569.403 575.332 568.99 573.476 568.99 571.364C568.99 567.808 570.047 565.077 572.159 563.17C574.272 561.264 577.544 560.078 581.976 559.615L592.102 558.533V557.991C592.102 556.497 591.432 555.441 590.092 554.822C588.804 554.152 586.923 553.818 584.449 553.818C582.491 553.818 580.585 554.024 578.73 554.436C576.874 554.848 575.2 555.363 573.705 555.982C573.035 555.518 572.469 554.822 572.005 553.895C571.541 552.916 571.309 551.911 571.309 550.88C571.309 549.54 571.618 548.484 572.237 547.711C572.907 546.887 573.911 546.191 575.251 545.624C576.746 545.057 578.498 544.645 580.507 544.387C582.569 544.13 584.501 544.001 586.305 544.001Z" fill="white"/>
<path d="M627.035 582.649C626.469 582.752 625.618 582.881 624.485 583.035C623.402 583.241 622.295 583.345 621.161 583.345C620.027 583.345 618.997 583.267 618.069 583.113C617.193 582.958 616.446 582.649 615.827 582.185C615.209 581.721 614.72 581.103 614.359 580.33C614.05 579.506 613.895 578.449 613.895 577.161V532.329C614.462 532.226 615.286 532.097 616.369 531.943C617.502 531.737 618.636 531.634 619.77 531.634C620.903 531.634 621.908 531.711 622.784 531.865C623.712 532.02 624.485 532.329 625.103 532.793C625.721 533.257 626.185 533.901 626.494 534.725C626.855 535.498 627.035 536.529 627.035 537.817V582.649Z" fill="white"/>
<path d="M674.98 563.943C674.98 567.138 674.49 569.998 673.511 572.523C672.532 574.997 671.141 577.084 669.337 578.784C667.585 580.485 665.472 581.773 662.999 582.649C660.526 583.525 657.769 583.963 654.728 583.963C651.688 583.963 648.931 583.499 646.458 582.572C643.984 581.644 641.846 580.33 640.042 578.629C638.29 576.877 636.925 574.765 635.945 572.291C634.966 569.818 634.477 567.035 634.477 563.943C634.477 560.903 634.966 558.146 635.945 555.673C636.925 553.199 638.29 551.112 640.042 549.412C641.846 547.66 643.984 546.32 646.458 545.392C648.931 544.465 651.688 544.001 654.728 544.001C657.769 544.001 660.526 544.49 662.999 545.47C665.472 546.397 667.585 547.737 669.337 549.489C671.141 551.189 672.532 553.276 673.511 555.75C674.49 558.223 674.98 560.954 674.98 563.943ZM647.926 563.943C647.926 567.087 648.519 569.509 649.704 571.209C650.941 572.858 652.641 573.683 654.806 573.683C656.97 573.683 658.619 572.832 659.753 571.132C660.938 569.431 661.53 567.035 661.53 563.943C661.53 560.851 660.938 558.481 659.753 556.832C658.567 555.132 656.893 554.281 654.728 554.281C652.564 554.281 650.889 555.132 649.704 556.832C648.519 558.481 647.926 560.851 647.926 563.943Z" fill="white"/>
<path d="M705.971 558.919C705.971 557.322 705.507 556.162 704.579 555.441C703.703 554.668 702.492 554.281 700.946 554.281C699.916 554.281 698.885 554.41 697.855 554.668C696.876 554.925 696.025 555.312 695.304 555.827V582.649C694.789 582.803 693.964 582.958 692.83 583.113C691.748 583.267 690.615 583.345 689.429 583.345C688.296 583.345 687.265 583.267 686.338 583.113C685.462 582.958 684.714 582.649 684.096 582.185C683.478 581.721 682.988 581.103 682.627 580.33C682.318 579.506 682.164 578.449 682.164 577.161V553.972C682.164 552.581 682.447 551.447 683.014 550.571C683.632 549.695 684.457 548.896 685.487 548.175C687.239 546.938 689.429 545.933 692.057 545.16C694.737 544.387 697.7 544.001 700.946 544.001C706.769 544.001 711.253 545.289 714.396 547.866C717.539 550.391 719.111 553.921 719.111 558.455V582.649C718.596 582.803 717.771 582.958 716.638 583.113C715.555 583.267 714.422 583.345 713.237 583.345C712.103 583.345 711.072 583.267 710.145 583.113C709.269 582.958 708.522 582.649 707.903 582.185C707.285 581.721 706.795 581.103 706.435 580.33C706.125 579.506 705.971 578.449 705.971 577.161V558.919Z" fill="white"/>
<path d="M746.32 544.001C749.257 544.001 751.911 544.387 754.281 545.16C756.703 545.882 758.739 546.835 760.388 548.02C761.418 548.742 762.217 549.54 762.784 550.416C763.402 551.293 763.711 552.426 763.711 553.818V580.871C763.711 583.602 763.196 585.947 762.165 587.905C761.135 589.915 759.718 591.564 757.914 592.852C756.162 594.192 754.075 595.171 751.653 595.789C749.283 596.408 746.732 596.717 744.001 596.717C739.312 596.717 735.627 596.073 732.948 594.784C730.268 593.548 728.928 591.512 728.928 588.678C728.928 587.493 729.16 586.436 729.624 585.509C730.139 584.633 730.706 583.963 731.324 583.499C732.819 584.324 734.493 585.019 736.349 585.586C738.255 586.153 740.213 586.436 742.223 586.436C745.006 586.436 747.222 585.973 748.87 585.045C750.519 584.117 751.344 582.623 751.344 580.562V579.325C749.231 580.253 746.655 580.716 743.614 580.716C741.296 580.716 739.08 580.382 736.967 579.712C734.906 578.99 733.076 577.908 731.479 576.465C729.933 574.971 728.67 573.064 727.691 570.745C726.764 568.426 726.3 565.67 726.3 562.475C726.3 559.331 726.79 556.6 727.769 554.281C728.799 551.962 730.191 550.056 731.943 548.561C733.746 547.015 735.859 545.882 738.281 545.16C740.754 544.387 743.434 544.001 746.32 544.001ZM751.112 555.209C750.751 555.003 750.21 554.797 749.489 554.59C748.819 554.384 747.969 554.281 746.938 554.281C744.413 554.281 742.506 555.003 741.218 556.446C739.981 557.837 739.363 559.847 739.363 562.475C739.363 565.463 739.981 567.628 741.218 568.967C742.506 570.256 744.13 570.9 746.088 570.9C748.201 570.9 749.875 570.41 751.112 569.431V555.209Z" fill="white"/>
<path d="M770.311 576.465C770.311 574.301 770.981 572.497 772.321 571.054C773.661 569.612 775.49 568.89 777.809 568.89C780.128 568.89 781.957 569.612 783.297 571.054C784.637 572.497 785.306 574.301 785.306 576.465C785.306 578.629 784.637 580.433 783.297 581.876C781.957 583.319 780.128 584.04 777.809 584.04C775.49 584.04 773.661 583.319 772.321 581.876C770.981 580.433 770.311 578.629 770.311 576.465Z" fill="white"/>
</svg>
