<?xml version="1.0" encoding="utf-8"?>
<!-- Generator: Adobe Illustrator 22.1.0, SVG Export Plug-In . SVG Version: 6.00 Build 0)  -->
<svg version="1.1" id="Capa_1" xmlns="http://www.w3.org/2000/svg" xmlns:xlink="http://www.w3.org/1999/xlink" x="0px" y="0px"
	 viewBox="0 0 336.7 152.7" style="enable-background:new 0 0 336.7 152.7;" xml:space="preserve">
<style type="text/css">
	.st0{enable-background:new    ;}
</style>
<g>
	<g class="st0">
		<path d="M82.4,58.7c0.2-0.1,0.4-0.2,0.7-0.3c1.1-0.4,2.6,0.3,3,1.5c0.5,1.2,0,2.1-1.4,2.7l-14.4,6.8c-0.5,0.2-1.2,0.6-1.4,0.6
			c-0.9,0.4-2.4,0.4-3-1c-0.1-0.3-0.1-1.1-0.2-1.4L54.8,39c-0.5-1.2,0.4-2.6,1.9-3.2c2.2-0.8,2.7-0.1,3.1,1.1l10.5,27.5L82.4,58.7z"
			/>
	</g>
	<g class="st0">
		<path d="M93.1,52.4c1,2.6,3.6,3.3,5.6,2.5c1.6-0.6,2.4-1.5,3-2.3c0.7-0.9,0.9-1.4,1.4-1.6c1-0.4,2.4,0.1,3,1.5
			c0.2,0.6,0.2,1.2-0.4,1.8c-1.7,2.1-3.3,3.4-5.8,4.3c-5,1.8-10,1.1-12.5-5.7c-2.3-6.2,0.4-13.9,5.8-15.8c4.6-1.7,7.2,0,8.2,2.5
			c2,5.4-5.4,11-8.5,12.1L93.1,52.4z M94.5,40.8c-2.7,1-3.3,4.5-2.6,7.8c3.6-1.7,5.3-5.5,4.7-7C96.5,41.3,95.8,40.4,94.5,40.8z"/>
	</g>
	<g class="st0">
		<path d="M116,42.7c0.5,1.8,1.8,5.4,3.8,4.8c0.8-0.2,1.2-0.9,2.1-2.1c0.4-0.5,0.6-0.7,1.4-0.9c1-0.3,2.1,0.9,2.3,1.6
			c0.3,0.9,0.2,1.5-0.5,2.2c-1.1,1.3-2.1,2.6-4.8,3.4c-4.7,1.4-7.6-1-9.2-6.4l-2.6-8.9l-0.7,0.2c-0.4,0.1-1,0.4-1.3,0.6
			c-1.2,0.4-1.7,0.3-2-1c-0.3-0.9-0.2-2.6,1-3l1.9-0.8l-2.1-7.2c-0.3-1.1,0.5-2.5,2.2-2.9c1.8-0.5,2.5,0.1,2.9,1.2l2,6.9l3-1.2
			c0.4-0.2,0.5-0.3,0.9-0.4c1.4-0.4,2.3-0.1,2.7,1.3c0.3,1,0,2.1-1.2,2.6l-4.2,1.7L116,42.7z"/>
	</g>
	<g class="st0">
		<path d="M123,13.4c0-2.2,1.1-2.2,2-2.4c1.5-0.4,3.4,0,3.6,1c0.1,0.3,0.1,0.5,0.1,0.8l-0.1,8.2c-0.1,0.6-0.6,1.5-1.3,1.7
			c-1.5,0.4-3.8,0.2-4.1-1c-0.1-0.3-0.1-0.2-0.1-0.6L123,13.4z"/>
	</g>
	<g class="st0">
		<path d="M145.5,32.8c3.5,0.9,5.3,2.1,5.8,5.1c0.8,4.4-2.7,7.3-7.7,8.3c-2.3,0.4-4.2,0.2-6.4-0.4c-0.8-0.2-1.3-0.5-1.5-1.5
			c-0.2-0.9,0.4-2.6,1.8-2.9c0.6-0.1,1.1,0.1,1.6,0.2c1.5,0.5,2.9,0.9,4.1,0.7c1.7-0.3,3.3-1.8,3-3.4c-0.2-1.1-1.6-1.5-2.8-1.8
			l-3.8-1c-2.9-0.7-5.3-1.8-5.9-5c-0.8-4.1,4.2-6.6,6.6-7.1c2.6-0.5,4.4-0.6,6.4-0.2c1.3,0.2,1.6,0.5,1.8,1.6
			c0.2,0.8-0.5,2.6-2.1,2.9c-1.2,0.2-2.9-0.9-5.5-0.5c-0.7,0.1-2.1,1.1-1.9,2.2c0.2,1.2,2,1.6,2.6,1.7L145.5,32.8z"/>
	</g>
	<g class="st0">
		<path d="M171.4,6.2c-0.1-1.1,1.6-2.4,2.7-2.5c1.7-0.2,2.5,0.7,2.6,1.8l3.1,33.3c0.1,1.4-1.4,2.4-2.6,2.5c-1.5,0.1-2.6-0.6-2.7-1.7
			L171.4,6.2z"/>
	</g>
	<g class="st0">
		<path d="M195.3,40.1c-5.7,0.3-10.3-3.2-10.7-10.3c-0.3-6.1,4.5-12.5,10.4-12.7c6.2-0.3,10.6,3.6,10.9,10.4
			C206.2,34.2,200.8,39.9,195.3,40.1z M195.2,21.6c-3.2,0.1-5.3,4.3-5.2,8c0.2,4.1,2.2,6.3,5.1,6.2c3-0.1,5.5-3.9,5.3-8
			C200.3,23.8,198.4,21.4,195.2,21.6z"/>
	</g>
	<g class="st0">
		<path d="M220.4,39.9c-5.7-0.1-10.1-3.9-9.9-11c0.1-6.1,5.3-12.1,11.3-12c6.2,0.2,10.3,4.4,10.1,11.1
			C231.7,34.7,225.9,40,220.4,39.9z M221.6,21.3c-3.2-0.1-5.6,3.9-5.7,7.6c-0.1,4.1,1.7,6.5,4.7,6.5c3,0.1,5.7-3.5,5.8-7.6
			C226.5,23.9,224.8,21.4,221.6,21.3z"/>
	</g>
	<g class="st0">
		<path d="M256.2,37.1c0.5,0.5,0.8,0.8,0.7,1.8c-0.1,1-1.9,2.2-2.6,2.1c-0.7-0.1-1.3-0.1-1.8-0.6l-10.4-10l-0.7,8.1
			c-0.1,1.3-1.8,2-3.1,1.9c-1.8-0.2-2.3-0.9-2.2-2.2l3-33c0.1-1.2,1.9-1.9,2.9-1.8c1.5,0.1,2.5,1.2,2.4,2.1l-1.7,19l8-5.8
			c0.7-0.5,1-0.8,2-0.7c1.8,0.2,2.1,1.7,2,2.6c-0.1,0.6-0.4,1-1,1.4l-8.2,5.5L256.2,37.1z"/>
	</g>
	<g class="st0">
		<path d="M25.5,127.6c0.4-3.5,2.7-7.1,5.1-8.4c4.4-2.3,8.1-0.9,10.5,3.9c3.4,6.7,0.6,17.5-5.6,20.7c-0.4,0.2-0.8,0.2-1.2,0.1
			c-0.4,0-0.6-0.2-0.6-0.2s-1,2.2-2.1,2.7c-1.4,0.7-2.3,0.5-2.9-0.8l-15.3-30.1c-0.5-1,0.8-2.7,1.8-3.2c1.4-0.7,2.3-0.5,2.9,0.8
			L25.5,127.6z M31.3,138.9c0.3,0.6,1.2,1.2,2.2,0.6c3.8-2,5-9.6,2.8-13.9c-1-1.9-2.1-3-3.6-2.2c-3.1,1.6-4.2,7.3-4,10.2L31.3,138.9
			z"/>
	</g>
	<g class="st0">
		<path d="M52,125.9c1.2,2.5,3.9,2.9,5.9,1.9c1.5-0.7,2.2-1.7,2.7-2.6c0.6-1,0.7-1.5,1.2-1.8c1-0.5,2.4-0.2,3.1,1.2
			c0.3,0.6,0.3,1.1-0.2,1.9c-1.5,2.3-2.9,3.7-5.2,4.9c-4.8,2.4-9.8,2.2-13-4.3c-2.9-5.9-1.1-13.8,4-16.4c4.4-2.2,7.2-0.8,8.4,1.6
			c2.6,5.2-4.2,11.5-7.1,13L52,125.9z M52.2,114.2c-2.5,1.3-2.8,4.9-1.7,8.1c3.4-2.1,4.6-6.1,3.9-7.5
			C54.3,114.4,53.4,113.6,52.2,114.2z"/>
	</g>
	<g class="st0">
		<path d="M67.7,106.2c0.5-3.4,2.5-6.1,4.7-7.2c2.6-1.2,7.2-1.7,10.5,5.1l4.9,10.3c0.5,1.1-0.3,2.4-1.6,3s-2.7,0.5-3.3-0.6L77.8,106
			c-1-2.1-2.5-3.4-3.9-2.7c-2.1,1-3.4,5.8-3,9.7l4.1,8.5c0.5,1.1-0.4,2.5-1.6,3.1c-1.1,0.5-2.7,0.4-3.2-0.7L55.7,93.5
			c-0.5-1.1,0.5-2.9,1.5-3.4c1.5-0.7,2.6-0.3,3.1,0.7L67.7,106.2z"/>
	</g>
	<g class="st0">
		<path d="M86.8,85.9c-1.6,0.6-3.6-0.2-4.2-1.6c-0.6-1.5,0.4-3.4,2-4c1.8-0.7,3.6,0,4.2,1.7C89.4,83.5,88.5,85.3,86.8,85.9z
			 M87.1,94.9c-0.4-1.2,0-2.5,1.5-3c1.3-0.5,3-0.4,3.4,0.7l6.7,18c0.5,1.2-0.4,2.5-1.8,3c-1.2,0.4-2.9-0.2-3.1-0.8L87.1,94.9z"/>
	</g>
	<g class="st0">
		<path d="M104.7,91.5c0.9-2.8,3-5.4,5.8-6.3c2.8-0.9,7.5-0.5,9.6,6.3l3.5,11.1c0.3,1.1-1,2.4-2.2,2.8c-1.5,0.5-2.5,0.2-2.9-1.1
			l-3.6-11.6c-0.6-2.1-1.9-3.6-3.5-3.2c-2.8,0.9-4.3,5-4.5,8.8l2.9,9.4c0.3,1.1-0.8,2.3-2,2.7c-1.3,0.4-2.7,0-3-0.8l-5.6-18
			c-0.4-1.2,1.2-2.6,2.3-2.9c1.7-0.5,2.3-0.2,2.8,1.2L104.7,91.5z"/>
	</g>
	<g class="st0">
		<path d="M134.9,65.4c-0.3-1.2,0.9-2.4,2.1-2.7c1.4-0.4,2.7,0.1,3.1,1.4l8,32.2c0.3,1.1,0.1,2.3-2,2.8c-1.3,0.3-2.9-0.1-3.2-1.2
			l-0.8-3.4c-1.2,3.6-3.5,6.7-6.2,7.3c-4.8,1.2-8.1-1.1-9.3-6.1c-1.8-7.4,2.8-17.1,9.5-18.8c0.6-0.1,1.1-0.2,1.6-0.2L134.9,65.4z
			 M139,82.1c-0.1-0.5-0.8-1.2-2-0.9c-4.2,1-6.3,8.4-5.1,13.2c0.5,2,1.6,3.5,3.2,3.2c3.5-0.9,5.4-7.2,5.1-10.8L139,82.1z"/>
	</g>
	<g class="st0">
		<path d="M176.2,83.6c0.3,1.9,1.1,5.6,3.2,5.3c0.8-0.1,1.3-0.7,2.4-1.8c0.5-0.4,0.7-0.6,1.5-0.7c1-0.2,2,1.2,2.1,1.8
			c0.1,0.9,0,1.5-0.8,2.1c-1.3,1.1-2.4,2.3-5.1,2.7c-4.9,0.8-7.5-2-8.3-7.5l-1.5-9.2l-0.7,0.1c-0.4,0.1-1,0.3-1.4,0.4
			c-1.2,0.2-1.7,0.1-1.9-1.2c-0.2-0.9,0.2-2.6,1.3-2.9l2-0.5l-1.2-7.4c-0.2-1.1,0.8-2.4,2.6-2.6c1.9-0.3,2.5,0.4,2.7,1.5l1.1,7.1
			l3.1-0.8c0.4-0.1,0.5-0.2,0.9-0.3c1.4-0.2,2.3,0.2,2.5,1.7c0.2,1-0.3,2.1-1.5,2.4l-4.3,1.1L176.2,83.6z"/>
	</g>
	<g class="st0">
		<path d="M192.7,72.1c1.6-3.1,4.4-4.9,6.8-5.2c2.9-0.3,7.4,0.8,8.2,8.3l1.3,11.4c0.1,1.3-1.1,2.1-2.4,2.3s-2.7-0.4-2.9-1.6l-1.3-12
			c-0.3-2.3-1.2-4-2.8-3.9c-2.3,0.3-5.1,4.3-6,8.2l1,9.4c0.1,1.2-1.2,2.2-2.5,2.4c-1.3,0.1-2.7-0.5-2.8-1.7l-3.7-33.4
			c-0.1-1.2,1.5-2.5,2.6-2.7c1.7-0.2,2.6,0.6,2.7,1.7L192.7,72.1z"/>
	</g>
	<g class="st0">
		<path d="M218.3,80.4c0.2,2.8,2.5,4.2,4.7,4c1.7-0.1,2.7-0.7,3.5-1.4c1-0.6,1.2-1.1,1.8-1.2c1.1-0.1,2.3,0.8,2.4,2.3
			c0,0.7-0.1,1.2-0.9,1.6c-2.3,1.5-4.1,2.3-6.7,2.5c-5.3,0.3-9.9-1.8-10.3-9c-0.4-6.6,4.4-13.2,10.1-13.5c4.9-0.3,6.9,2.1,7.1,4.8
			c0.3,5.8-8.4,9-11.7,9.2L218.3,80.4z M223.1,69.8c-2.8,0.2-4.5,3.4-4.7,6.8c3.9-0.6,6.6-3.8,6.5-5.4
			C224.9,70.8,224.4,69.7,223.1,69.8z"/>
	</g>
	<g class="st0">
		<path d="M269.2,85.4c-2.3,2-5,2.4-7.7,2.3c-4.8-0.1-9.2-3.1-9-9.8c0.2-7.7,5.1-12.8,11.1-12.6c2.1,0,3.3,0.3,4.6,1.4
			c0.9,0.7,1.6,1.5,1.5,2.6c-0.2,1.2-1.5,2.1-2.8,2.1c-0.8,0-1.1-0.8-2.1-1.6c-0.3-0.3-0.8-0.4-1.4-0.5c-4.2-0.1-5.3,5-5.4,8.8
			c-0.1,3.9,2,5.8,3.7,5.8c1.9,0,2.8-1,4.1-1.6c0.9-0.5,0.7-0.5,1.6-0.4c0.6,0,2.5,0.6,2.5,2.4C270,84.5,269.6,85,269.2,85.4z"/>
	</g>
	<g class="st0">
		<path d="M282.9,88.8c-5.7-0.5-9.8-4.5-9.2-11.6c0.5-6.1,6.1-11.8,12-11.3c6.2,0.5,10,5,9.4,11.7C294.6,84.4,288.4,89.3,282.9,88.8
			z M285.3,70.4c-3.2-0.3-5.8,3.6-6.2,7.2c-0.3,4.1,1.3,6.5,4.3,6.8c3,0.3,5.9-3.1,6.3-7.2C290,73.2,288.5,70.7,285.3,70.4z"/>
	</g>
	<g class="st0">
		<path d="M307.1,81.5c-0.3,1.9-0.6,5.7,1.5,6c0.8,0.1,1.4-0.3,2.8-1c0.6-0.3,0.8-0.4,1.6-0.2c1,0.1,1.6,1.7,1.5,2.4
			c-0.1,0.9-0.4,1.4-1.4,1.8c-1.5,0.7-3,1.5-5.7,1.1c-4.9-0.7-6.5-4.1-5.8-9.6l1.3-9.2l-0.7-0.1c-0.4-0.1-1.1,0-1.4,0
			c-1.2-0.2-1.6-0.4-1.5-1.7c0.1-0.9,0.9-2.4,2.1-2.4l2.1,0.1l1-7.4c0.2-1.1,1.5-2,3.2-1.8c1.9,0.3,2.3,1.1,2.1,2.3l-1,7.1l3.2,0.1
			c0.4,0,0.5,0,1,0c1.4,0.2,2.1,0.9,1.9,2.3c-0.1,1-0.9,1.9-2.2,1.9l-4.5-0.2L307.1,81.5z"/>
	</g>
	<g class="st0">
		<path d="M320.9,93.8c-1.5-0.3-3-1.3-2.6-3.6c0.2-0.9,2.2-2.8,3.7-2.5c1.8,0.3,3,1.4,2.6,3.7C324.5,92.4,322.7,94.1,320.9,93.8z"/>
	</g>
</g>
</svg>
