<?xml version="1.0" encoding="utf-8"?>
<!-- Generator: Adobe Illustrator 22.1.0, SVG Export Plug-In . SVG Version: 6.00 Build 0)  -->
<svg version="1.1" id="Capa_1" xmlns="http://www.w3.org/2000/svg" xmlns:xlink="http://www.w3.org/1999/xlink" x="0px" y="0px"
	 viewBox="0 0 125 104.5" style="enable-background:new 0 0 125 104.5;" xml:space="preserve">
<style type="text/css">
	.st0{enable-background:new    ;}
</style>
<g class="st0">
	<path d="M19.1,93.4c0.6,1.1,1.8,3.4,3.1,2.7c0.5-0.2,0.7-0.7,1.1-1.6c0.2-0.4,0.3-0.5,0.8-0.8c0.6-0.3,1.5,0.3,1.7,0.7
		c0.3,0.5,0.3,0.9-0.1,1.5c-0.6,1-1.1,1.9-2.7,2.8c-2.9,1.5-5.1,0.2-6.8-3.1l-2.8-5.5L13,90.4c-0.2,0.1-0.6,0.4-0.8,0.5
		c-0.7,0.4-1,0.4-1.5-0.4c-0.3-0.6-0.4-1.7,0.3-2.1l1.2-0.7l-2.2-4.4c-0.3-0.7,0.1-1.7,1.1-2.2c1.1-0.6,1.7-0.3,2,0.4l2.2,4.2
		l1.8-1.2c0.2-0.2,0.3-0.2,0.5-0.3c0.8-0.4,1.5-0.3,1.9,0.6c0.3,0.6,0.2,1.4-0.5,1.9l-2.5,1.6L19.1,93.4z"/>
</g>
<g class="st0">
	<path d="M33,80.4c1.6,1.5,4.2,4.2,5.5,5.5c-0.2-2.5-0.3-7.3-0.3-8.9c0-0.6,0.1-1.2,0.7-1.5c1.1-0.4,2.3-0.1,2.4,0.3
		c0.1,0.4,0.1,0.7,0.1,0.9c-0.1,1.8-0.2,6.7,0,12.6c0,0.4-0.5,1.3-0.9,1.4c-0.6,0.3-1.2,0-1.6-0.4c-1.9-1.8-4.1-4.1-5.8-5.8l0.5,7.9
		c0,0.6-0.3,1.3-0.9,1.5c-0.6,0.2-1.5-0.1-1.8-0.4c-2.7-3-5-5.8-8.4-8.7c-0.3-0.3-0.3-0.3-0.4-0.6c-0.2-0.5,0.1-1.5,1-1.9
		c0.7-0.3,0.9-0.4,1.6,0.2c2,1.8,4.8,4.8,6,6.3l-0.7-7.6c-0.1-0.8,0.2-1.1,1-1.4c0.8-0.3,1.6-0.2,1.8,0.3L33,80.4z"/>
</g>
<g class="st0">
	<path d="M49.7,81.8c0.6,1.8,2.3,2.3,3.7,1.8c1.1-0.3,1.6-0.9,2.1-1.5c0.5-0.6,0.6-0.9,1-1.1c0.7-0.2,1.6,0.1,1.9,1.1
		c0.1,0.4,0.1,0.8-0.3,1.2c-1.2,1.4-2.3,2.2-3.9,2.7c-3.4,1.1-6.7,0.5-8.2-4.1c-1.3-4.2,0.7-9.2,4.3-10.4c3.1-1,4.8,0.2,5.4,1.9
		c1.2,3.7-3.9,7.2-6,7.9L49.7,81.8z M51,74.1c-1.8,0.6-2.3,2.9-1.9,5.1c2.4-1,3.6-3.5,3.3-4.6C52.3,74.5,51.8,73.9,51,74.1z"/>
</g>
<g class="st0">
	<path d="M63.5,77.6c0.5,1.8,2.1,2.4,3.6,2c1.1-0.3,1.7-0.8,2.1-1.4c0.5-0.5,0.7-0.9,1-1c0.7-0.2,1.6,0.2,1.9,1.2
		c0.1,0.4,0.1,0.8-0.4,1.2c-1.3,1.3-2.4,2-4.1,2.5c-3.4,0.9-6.7,0.1-7.9-4.6c-1.1-4.2,1.2-9.2,4.9-10.1c3.2-0.8,4.8,0.5,5.2,2.2
		c1,3.7-4.3,6.9-6.4,7.5L63.5,77.6z M65.3,70c-1.8,0.5-2.5,2.8-2.2,5c2.5-0.9,3.8-3.3,3.6-4.4C66.6,70.4,66.1,69.8,65.3,70z"/>
</g>
<g class="st0">
	<path d="M79,72.8c0.3,1.2,0.9,3.7,2.3,3.4c0.5-0.1,0.8-0.5,1.5-1.3c0.3-0.3,0.5-0.4,1-0.5c0.7-0.1,1.4,0.7,1.5,1.2
		c0.1,0.6,0.1,1-0.5,1.5c-0.8,0.8-1.5,1.6-3.3,2c-3.2,0.7-5-1.1-5.8-4.7l-1.3-6.1l-0.5,0.1c-0.3,0.1-0.7,0.2-0.9,0.3
		c-0.8,0.2-1.1,0.1-1.3-0.8c-0.1-0.6,0-1.7,0.8-2l1.3-0.4l-1-4.9c-0.2-0.8,0.5-1.6,1.6-1.8c1.2-0.3,1.7,0.2,1.8,0.9l1,4.7l2-0.6
		c0.3-0.1,0.3-0.1,0.6-0.2c0.9-0.2,1.5,0.1,1.7,1c0.1,0.7-0.1,1.4-0.9,1.7l-2.9,0.9L79,72.8z"/>
</g>
<g class="st0">
	<path d="M91.5,69.2c0.2,1.1-0.5,1.7-1.6,1.8c-1.1,0.2-1.8-0.2-1.9-1l-2.3-13.3c-0.2-1.1,0.8-1.6,1.7-1.8c1.3-0.2,1.7,0.3,1.9,1.3
		L91.5,69.2z M91,77.2c-1,0.2-2.2-0.2-2.5-1.8c-0.1-0.7,0.7-2.3,1.7-2.5c1.2-0.2,2.2,0.2,2.5,1.8C92.9,75.5,92.2,77,91,77.2z"/>
</g>
<g class="st0">
	<path d="M45.1,42.4c0.6,1.1,1.8,3.4,3.1,2.7c0.5-0.2,0.7-0.7,1.1-1.6c0.2-0.4,0.3-0.5,0.8-0.8c0.6-0.3,1.5,0.3,1.7,0.7
		c0.3,0.5,0.3,0.9-0.1,1.5c-0.6,1-1.1,1.9-2.7,2.8c-2.9,1.5-5.1,0.2-6.8-3.1l-2.8-5.5L39,39.4c-0.2,0.1-0.6,0.4-0.8,0.5
		c-0.7,0.4-1,0.4-1.5-0.4c-0.3-0.6-0.4-1.7,0.3-2.1l1.2-0.7l-2.2-4.4c-0.3-0.7,0.1-1.7,1.1-2.2c1.1-0.6,1.7-0.3,2,0.4l2.2,4.2
		l1.8-1.2c0.2-0.2,0.3-0.2,0.5-0.3c0.8-0.4,1.5-0.3,1.9,0.6c0.3,0.6,0.2,1.4-0.5,1.9l-2.5,1.6L45.1,42.4z"/>
</g>
<g class="st0">
	<path d="M59,29.4c1.6,1.5,4.2,4.2,5.5,5.5c-0.2-2.5-0.3-7.3-0.3-8.9c0-0.6,0.1-1.2,0.7-1.5c1.1-0.4,2.3-0.1,2.4,0.3
		c0.1,0.4,0.1,0.7,0.1,0.9c-0.1,1.8-0.2,6.7,0,12.6c0,0.4-0.5,1.3-0.9,1.4c-0.6,0.3-1.2,0-1.6-0.4c-1.9-1.8-4.1-4.1-5.8-5.8l0.5,7.9
		c0,0.6-0.3,1.3-0.9,1.5c-0.6,0.2-1.5-0.1-1.8-0.4c-2.7-3-5-5.8-8.4-8.7c-0.3-0.3-0.3-0.3-0.4-0.6c-0.2-0.5,0.1-1.5,1-1.9
		c0.7-0.3,0.9-0.4,1.6,0.2c2,1.8,4.8,4.8,6,6.3l-0.7-7.6c-0.1-0.8,0.2-1.1,1-1.4c0.8-0.3,1.6-0.2,1.8,0.3L59,29.4z"/>
</g>
<g class="st0">
	<path d="M75.7,30.8c0.6,1.8,2.3,2.3,3.7,1.8c1.1-0.3,1.6-0.9,2.1-1.5c0.5-0.6,0.6-0.9,1-1.1c0.7-0.2,1.6,0.1,1.9,1.1
		c0.1,0.4,0.1,0.8-0.3,1.2c-1.2,1.4-2.3,2.2-3.9,2.7c-3.4,1.1-6.7,0.5-8.2-4.1c-1.3-4.2,0.7-9.2,4.3-10.4c3.1-1,4.8,0.2,5.4,1.9
		c1.2,3.7-3.9,7.2-6,7.9L75.7,30.8z M77,23.1c-1.8,0.6-2.3,2.9-1.9,5.1c2.4-1,3.6-3.5,3.3-4.6C78.3,23.5,77.8,22.9,77,23.1z"/>
</g>
<g class="st0">
	<path d="M89.6,26.6c0.5,1.8,2.1,2.4,3.6,2c1.1-0.3,1.7-0.8,2.1-1.4c0.5-0.5,0.7-0.9,1-1c0.7-0.2,1.6,0.2,1.9,1.2
		c0.1,0.4,0.1,0.8-0.4,1.2c-1.3,1.3-2.4,2-4.1,2.5c-3.4,0.9-6.7,0.1-7.9-4.6c-1.1-4.2,1.2-9.2,4.9-10.1c3.2-0.8,4.8,0.5,5.2,2.2
		c1,3.7-4.3,6.9-6.4,7.5L89.6,26.6z M91.3,19c-1.8,0.5-2.5,2.8-2.2,5c2.5-0.9,3.8-3.3,3.6-4.4C92.6,19.4,92.1,18.8,91.3,19z"/>
</g>
<g class="st0">
	<path d="M105,21.8c0.3,1.2,0.9,3.7,2.3,3.4c0.5-0.1,0.8-0.5,1.5-1.3c0.3-0.3,0.5-0.4,1-0.5c0.7-0.1,1.4,0.7,1.5,1.2
		c0.1,0.6,0.1,1-0.5,1.5c-0.8,0.8-1.5,1.6-3.3,2c-3.2,0.7-5-1.1-5.8-4.7l-1.3-6.1l-0.5,0.1c-0.3,0.1-0.7,0.2-0.9,0.3
		c-0.8,0.2-1.1,0.1-1.3-0.8c-0.1-0.6,0-1.7,0.8-2l1.3-0.4l-1-4.9c-0.2-0.8,0.5-1.6,1.6-1.8c1.2-0.3,1.7,0.2,1.8,0.9l1,4.7l2-0.6
		c0.3-0.1,0.3-0.1,0.6-0.2c0.9-0.2,1.5,0.1,1.7,1c0.1,0.7-0.1,1.4-0.9,1.7l-2.9,0.9L105,21.8z"/>
</g>
<g class="st0">
	<path d="M117.6,18.2c0.2,1.1-0.5,1.7-1.6,1.8c-1.1,0.2-1.8-0.2-1.9-1l-2.3-13.3c-0.2-1.1,0.8-1.6,1.7-1.8c1.3-0.2,1.7,0.3,1.9,1.3
		L117.6,18.2z M117.1,26.2c-1,0.2-2.2-0.2-2.5-1.8c-0.1-0.7,0.7-2.3,1.7-2.5c1.2-0.2,2.2,0.2,2.5,1.8
		C118.9,24.5,118.2,26,117.1,26.2z"/>
</g>
</svg>
