<?xml version="1.0" encoding="utf-8"?>
<!-- Generator: Adobe Illustrator 22.1.0, SVG Export Plug-In . SVG Version: 6.00 Build 0)  -->
<svg version="1.1" id="Capa_1" xmlns="http://www.w3.org/2000/svg" xmlns:xlink="http://www.w3.org/1999/xlink" x="0px" y="0px"
	 viewBox="0 0 528.2 150.5" style="enable-background:new 0 0 528.2 150.5;" xml:space="preserve">
<style type="text/css">
	.st0{enable-background:new    ;}
</style>
<title>TEX_TEXT_1060A</title>
<g class="st0">
	<path d="M2.8,7.3L0,6.5V6h9.2v0.5L5.4,7.3l4.7,14.1h0.1L15,5.5h0.1l5.7,15.8h0.1l3.7-14.1l-4-0.8V6h8.6v0.5l-2.8,0.8l-6.1,19.2H20
		l-5.4-14.5L9.3,26.5H9.2L2.8,7.3z"/>
</g>
<g class="st0">
	<path d="M31.4,25.5l2.8-0.8V5.5h-3.8V5l5.9-1.7V15h0.1c0.7-1.1,2.8-3.9,6.2-3.9c2.9,0,3.7,1.5,3.7,4.2v9.4l2.8,0.8V26h-7.4v-0.5
		l2.5-0.8v-8.3c0-2.1,0-3.8-2.3-3.8c-1.9,0-5.5,1.7-5.5,5.4v6.7l2.5,0.8V26h-7.4V25.5z"/>
	<path d="M60.2,23.4c-0.9,1-2.8,3.1-5.9,3.1c-2,0-3.5-1.2-3.5-3.4c0-4.4,5.4-4.7,9.4-5.6v-2.3c0-1.9-0.6-3-2.5-3
		c-2.5,0-4,1.6-4.5,3.9h-0.6v-3.3c1.2-0.6,3.6-1.6,6-1.6c3.3,0,3.8,1.7,3.8,3.9v9.4h2.8V25l-4.9,1.5V23.4z M60.2,18.4
		c-3.1,0.4-7.3,1.6-7.3,4.5c0,1.3,0.9,2.3,2.3,2.3c1.7,0,5-1.6,5-4.5V18.4z"/>
	<path d="M74.1,26.2c-0.5,0.2-1.2,0.3-1.7,0.3c-2.5,0-3.6-1.6-3.6-3.6v-9.5h-2.8v-0.5l3.1-0.9l1.1-4.9h0.7v5h4.4v1.3h-4.4v8.4
		c0,1.8,0.1,3.2,2.2,3.2c1.1,0,2-0.6,2.7-1.1l0.3,0.4L74.1,26.2z"/>
</g>
<g class="st0">
	<path d="M86.1,25.5l2.8-0.8V13.3h-2.8v-0.5l2.8-0.9c0-2.8,0.3-8.3,5.7-8.3c1.3,0,2.6,0.4,3.7,0.9v3.5h-0.5
		c-0.3-1.3-0.9-3.5-3.5-3.5c-2.6,0-3.3,2.1-3.3,4.7v2.8h4.3v1.3h-4.3v11.4l3.6,0.8V26h-8.5V25.5z"/>
</g>
<g class="st0">
	<path d="M110.7,22.5L110.7,22.5c-0.8,1.1-2.9,3.9-6,3.9c-2.9,0-3.7-1.5-3.7-4.2v-9.4l-2.8-0.3V12l4.9-0.9v10c0,2.1,0,3.8,2.3,3.8
		c1.9,0,5.2-1.7,5.2-5.4v-6.7l-3.5-0.3V12l5.6-0.9v13.1h2.8v0.5l-4.9,1.7V22.5z"/>
</g>
<g class="st0">
	<path d="M117,25.5l2.8-0.8V13.3h-3.3v-0.5l5.4-1.7V15h0.1c0.7-1.1,2.8-3.9,6.2-3.9c2.9,0,3.7,1.5,3.7,4.2v9.4l2.8,0.8V26h-7.4v-0.5
		l2.5-0.8v-8.3c0-2.1,0-3.8-2.3-3.8c-1.9,0-5.5,1.7-5.5,5.4v6.7l2.5,0.8V26H117V25.5z"/>
</g>
<g class="st0">
	<path d="M146.7,12.8l-2.4-0.8v-0.5h8.3v0.5l-3.8,0.8l3,10.1h0.1l5-11.8h0.1l3.9,11.8h0.1l3.7-10.1l-3.8-0.8v-0.5h7.8v0.5l-2.4,0.8
		l-6.2,13.6H160l-3.7-10.9L151,26.5h-0.1L146.7,12.8z"/>
</g>
<g class="st0">
	<path d="M182.4,24.9c-1.6,0.8-3.4,1.6-5.7,1.6c-4.3,0-6.7-2.7-6.7-7.4c0-4.4,2.5-8,7.1-8c5.3,0,5.5,4.2,5.6,6l-10.2,0.5
		c0,0.3-0.1,1-0.1,1.3c0,3.9,1.4,6.6,4.5,6.6c3.5,0,4.9-2.9,5.7-5h0.6L182.4,24.9z M180.3,16.2c-0.1-1.2-0.3-4.2-3.4-4.2
		c-2.3,0-3.9,2-4.4,4.9L180.3,16.2z"/>
</g>
<g class="st0">
	<path d="M186.9,14.5c0.4-1.5,1.2-3.9,1.2-5.5c0-1.1-0.3-1.8-0.7-2.5l1.6-0.9c0.6,0.6,1.2,1.5,1.2,2.7c0,1.4-1.2,3.7-2.7,6.3H186.9z
		"/>
</g>
<g class="st0">
	<path d="M195.2,12.8l-2.1-0.8v-0.5h7.4v0.5l-3.1,0.8l4.2,10.1l4.3-10.1l-3.1-0.8v-0.5h6.8v0.5l-2.1,0.8l-6.6,13.6h-0.1L195.2,12.8z
		"/>
</g>
<g class="st0">
	<path d="M223.3,24.9c-1.6,0.8-3.4,1.6-5.7,1.6c-4.3,0-6.7-2.7-6.7-7.4c0-4.4,2.5-8,7.1-8c5.3,0,5.5,4.2,5.6,6l-10.2,0.5
		c0,0.3-0.1,1-0.1,1.3c0,3.9,1.4,6.6,4.5,6.6c3.5,0,4.9-2.9,5.7-5h0.6L223.3,24.9z M221.3,16.2c-0.1-1.2-0.3-4.2-3.4-4.2
		c-2.3,0-3.9,2-4.4,4.9L221.3,16.2z"/>
	<path d="M235.8,25.5l2.8-0.8V5.5h-3.8V5l5.9-1.7V15h0.1c0.7-1.1,2.8-3.9,6.2-3.9c2.9,0,3.7,1.5,3.7,4.2v9.4l2.8,0.8V26H246v-0.5
		l2.5-0.8v-8.3c0-2.1,0-3.8-2.3-3.8c-1.9,0-5.5,1.7-5.5,5.4v6.7l2.5,0.8V26h-7.4V25.5z"/>
	<path d="M264.6,23.4c-0.9,1-2.8,3.1-5.9,3.1c-2,0-3.5-1.2-3.5-3.4c0-4.4,5.4-4.7,9.4-5.6v-2.3c0-1.9-0.6-3-2.5-3
		c-2.5,0-4,1.6-4.5,3.9h-0.6v-3.3c1.2-0.6,3.6-1.6,6-1.6c3.3,0,3.8,1.7,3.8,3.9v9.4h2.8V25l-4.9,1.5V23.4z M264.6,18.4
		c-3.1,0.4-7.3,1.6-7.3,4.5c0,1.3,0.9,2.3,2.3,2.3c1.7,0,5-1.6,5-4.5V18.4z"/>
	<path d="M282.5,22.6L282.5,22.6c-1,1.5-2.9,3.9-6,3.9c-3.5,0-5.4-2.4-5.4-6.8c0-5.2,3-8.6,7-8.6c1.8,0,3.2,0.7,4.3,1.3V5.5h-4V5
		l6.1-1.7v21.2h2.8V25l-4.9,1.5V22.6z M277.3,24.8c2,0,4.5-1.3,5-4.7c0.1-0.8,0.2-1.9,0.2-2.8c0-0.8-0.1-1.5-0.2-2.4
		c-0.3-2.3-2.3-2.9-3.8-2.9c-3,0-4.9,2.9-4.9,7.3C273.6,22.6,274.8,24.8,277.3,24.8z"/>
	<path d="M299.1,12.8l-2.4-0.8v-0.5h8.3v0.5l-3.8,0.8l3,10.1h0.1l5-11.8h0.1l3.9,11.8h0.1l3.7-10.1l-3.8-0.8v-0.5h7.8v0.5l-2.4,0.8
		l-6.2,13.6h-0.1l-3.7-10.9l-5.3,10.9h-0.1L299.1,12.8z"/>
	<path d="M322.8,25.5l2.8-0.8V13.3h-3.5v-0.5l5.6-1.7v13.6l2.8,0.8V26h-7.7V25.5z M324.8,6.4c0-0.9,0.7-1.6,1.6-1.6
		c0.9,0,1.6,0.7,1.6,1.6c0,0.9-0.7,1.5-1.6,1.5C325.4,7.9,324.8,7.3,324.8,6.4z"/>
	<path d="M339.5,26.2c-0.5,0.2-1.2,0.3-1.7,0.3c-2.5,0-3.6-1.6-3.6-3.6v-9.5h-2.8v-0.5l3.1-0.9l1.1-4.9h0.7v5h4.4v1.3h-4.4v8.4
		c0,1.8,0.1,3.2,2.2,3.2c1.1,0,2-0.6,2.7-1.1l0.3,0.4L339.5,26.2z"/>
	<path d="M342.5,25.5l2.8-0.8V5.5h-3.8V5l5.9-1.7V15h0.1c0.7-1.1,2.8-3.9,6.2-3.9c2.9,0,3.7,1.5,3.7,4.2v9.4l2.8,0.8V26h-7.4v-0.5
		l2.5-0.8v-8.3c0-2.1,0-3.8-2.3-3.8c-1.9,0-5.5,1.7-5.5,5.4v6.7l2.5,0.8V26h-7.4V25.5z"/>
	<path d="M380.2,23.4c-0.9,1-2.8,3.1-5.9,3.1c-2,0-3.5-1.2-3.5-3.4c0-4.4,5.4-4.7,9.4-5.6v-2.3c0-1.9-0.6-3-2.5-3
		c-2.5,0-4,1.6-4.5,3.9h-0.6v-3.3c1.2-0.6,3.6-1.6,6-1.6c3.3,0,3.8,1.7,3.8,3.9v9.4h2.8V25l-4.9,1.5V23.4z M380.2,18.4
		c-3.1,0.4-7.3,1.6-7.3,4.5c0,1.3,0.9,2.3,2.3,2.3c1.7,0,5-1.6,5-4.5V18.4z"/>
	<path d="M386.3,25.5l2.8-0.8V5.5h-3.8V5l5.9-1.7v21.4l2.8,0.8V26h-7.7V25.5z"/>
	<path d="M395.8,25.5l2.8-0.8V5.5h-3.8V5l5.9-1.7v21.4l2.8,0.8V26h-7.7V25.5z"/>
</g>
<g class="st0">
	<path d="M421.8,26.2c-0.5,0.2-1.2,0.3-1.7,0.3c-2.5,0-3.6-1.6-3.6-3.6v-9.5h-2.8v-0.5l3.1-0.9l1.1-4.9h0.7v5h4.4v1.3h-4.4v8.4
		c0,1.8,0.1,3.2,2.2,3.2c1.1,0,2-0.6,2.7-1.1l0.3,0.4L421.8,26.2z"/>
</g>
<g class="st0">
	<path d="M425.5,25.5l2.8-0.8V5.5h-3.8V5l5.9-1.7V15h0.1c0.7-1.1,2.8-3.9,6.2-3.9c2.9,0,3.7,1.5,3.7,4.2v9.4l2.8,0.8V26h-7.4v-0.5
		l2.5-0.8v-8.3c0-2.1,0-3.8-2.3-3.8c-1.9,0-5.5,1.7-5.5,5.4v6.7l2.5,0.8V26h-7.4V25.5z"/>
</g>
<g class="st0">
	<path d="M456.9,24.9c-1.6,0.8-3.4,1.6-5.7,1.6c-4.3,0-6.7-2.7-6.7-7.4c0-4.4,2.5-8,7.1-8c5.3,0,5.5,4.2,5.6,6L447,17.6
		c0,0.3-0.1,1-0.1,1.3c0,3.9,1.4,6.6,4.5,6.6c3.5,0,4.9-2.9,5.7-5h0.6L456.9,24.9z M454.8,16.2c-0.1-1.2-0.3-4.2-3.4-4.2
		c-2.3,0-3.9,2-4.4,4.9L454.8,16.2z"/>
</g>
<g class="st0">
	<path d="M477,26.2c-0.5,0.2-1.2,0.3-1.7,0.3c-2.5,0-3.6-1.6-3.6-3.6v-9.5h-2.8v-0.5l3.1-0.9l1.1-4.9h0.7v5h4.4v1.3h-4.4v8.4
		c0,1.8,0.1,3.2,2.2,3.2c1.1,0,2-0.6,2.7-1.1l0.3,0.4L477,26.2z"/>
</g>
<g class="st0">
	<path d="M481.1,19.2c0-4.6,2.7-8.1,7.3-8.1c4.4,0,6.9,3.1,6.9,7.4c0,4.4-2.6,8-7.3,8C483.9,26.5,481.1,23.8,481.1,19.2z
		 M488.1,25.6c3.2,0,4.8-3.2,4.8-6.9c0-4-1.6-6.7-4.5-6.7c-3.1,0-4.8,3.3-4.8,6.9C483.5,22.9,485.1,25.6,488.1,25.6z"/>
	<path d="M506.7,26.8c-1,2.6-2.5,6.1-6,6.1c-1.5,0-2.2-0.4-3-0.7v-3.7h0.5c0.2,1.2,0.6,3.1,2.9,3.1c2.9,0,3.9-3.3,4.5-4.9l-6.2-13.9
		l-2.6-0.8v-0.5h8.4v0.5l-3.6,0.8l5.1,11.4l3.6-11.4l-2.8-0.8v-0.5h6.9v0.5l-2.6,0.8L506.7,26.8z"/>
	<path d="M525.1,15.8c-0.4-1.2-0.8-3.8-3.8-3.8c-1.5,0-2.7,0.9-2.7,2.2c0,1.6,1.8,2.4,3.8,3.2c2.3,1,4.8,2,4.8,4.5
		c0,2.6-2,4.5-5.7,4.5c-2.3,0-4.4-0.9-5.3-1.2v-4.9h1c0.5,1.8,0.8,5.2,4.5,5.2c2,0,3.4-1.3,3.4-2.9c0-1.7-2-2.5-4-3.4
		c-2.2-0.9-4.6-1.9-4.6-4.5c0-2.3,2-3.7,4.9-3.7c2,0,3.8,0.7,4.5,1.1v3.6H525.1z"/>
</g>
<g class="st0">
	<path d="M1.2,70.4L4,69.6V51.3H0.6v-0.5l5.4-1.7v3.8h0.1c0.7-1.1,2.5-3.8,5.5-3.8c4.4,0,5.5,3.6,5.5,6.9c0,4.7-2.6,8.5-6.8,8.5
		c-1.6,0-3.2-0.7-4.3-1.3v6.5l3.6,0.8v0.5H1.2V70.4z M9.9,63.6c2.8,0,4.8-2.9,4.8-7.1c0-3.6-1.2-5.9-3.5-5.9c-3,0-4.6,2.3-5,4.8
		c-0.1,0.8-0.2,2.7-0.2,3.7C6.1,62.5,8.2,63.6,9.9,63.6z"/>
	<path d="M19.6,63.5l2.8-0.8V43.5h-3.8V43l5.9-1.7v21.4l2.8,0.8V64h-7.7V63.5z"/>
</g>
<g class="st0">
	<path d="M38.9,61.3c-0.9,1-2.8,3.1-5.9,3.1c-2,0-3.5-1.2-3.5-3.4c0-4.4,5.4-4.7,9.4-5.6v-2.3c0-1.9-0.6-3-2.5-3
		c-2.5,0-4,1.6-4.5,3.9h-0.6v-3.3c1.2-0.6,3.6-1.6,6-1.6c3.3,0,3.8,1.7,3.8,3.9v9.4h2.8V63l-4.9,1.5V61.3z M38.9,56.4
		c-3.1,0.4-7.3,1.6-7.3,4.5c0,1.3,0.9,2.3,2.3,2.3c1.7,0,5-1.6,5-4.5V56.4z"/>
</g>
<g class="st0">
	<path d="M54.1,64.8c-1,2.6-2.5,6.1-6,6.1c-1.5,0-2.2-0.4-3-0.7v-3.7h0.5c0.2,1.2,0.6,3.1,2.9,3.1c2.9,0,3.9-3.3,4.5-4.9l-6.2-13.9
		L44.4,50v-0.5h8.4V50l-3.6,0.8l5.1,11.4L58,50.8L55.1,50v-0.5H62V50l-2.6,0.8L54.1,64.8z"/>
	<path d="M63.5,63.5l2.8-0.8V51.3h-3.5v-0.5l5.6-1.7v13.6l2.8,0.8V64h-7.7V63.5z M65.5,44.4c0-0.9,0.7-1.6,1.6-1.6s1.6,0.7,1.6,1.6
		c0,0.9-0.7,1.5-1.6,1.5S65.5,45.3,65.5,44.4z"/>
	<path d="M73,63.5l2.8-0.8V51.3h-3.3v-0.5l5.4-1.7V53H78c0.7-1.1,2.8-3.9,6.2-3.9c2.9,0,3.7,1.5,3.7,4.2v9.4l2.8,0.8V64h-7.4v-0.5
		l2.5-0.8v-8.3c0-2.1,0-3.8-2.3-3.8c-1.9,0-5.5,1.7-5.5,5.4v6.7l2.5,0.8V64H73V63.5z"/>
	<path d="M95.3,61.5c0.5,0.8,1.6,0.8,4,0.8c1.1,0,2.2-0.1,3.3-0.1c2.3,0,3.8,1,3.8,3.4c0,2.8-3.2,5.2-7.7,5.2
		c-5.4,0-6.9-2.5-6.9-4.6l3.1-1.6l0.4,0.3c-0.6,0.6-1.4,1.1-1.4,2.2c0,1.7,2.2,2.6,4.6,2.6c3.5,0,6.1-1.6,6.1-3.6c0-1.9-1.1-2-3.1-2
		c-6.8,0-7.8-0.4-8.6-3.2c1.5-0.1,2.4-0.9,3.8-2.2c-1.3-0.3-3.8-1.3-3.8-4.6c0-3.1,2.5-5.2,5.6-5.2c1.4,0,2.3,0.3,3.2,0.6
		c0.8,0.3,1.7,0.6,3,0.6c0.6,0,1.4-0.1,2-0.1v1.4h-2.9c0.3,0.7,0.5,1.5,0.5,2.2c0,5.1-4.6,5.3-6.5,5.3L95.3,61.5z M98.4,58.1
		c3,0,3.8-2.3,3.8-4.1c0-1.7-0.6-4.1-3.5-4.1c-2.6,0-3.7,2-3.7,4.4C95,56.4,96,58.1,98.4,58.1z"/>
	<path d="M117,63.5l2.8-0.8V43.5H116V43l5.9-1.7V53h0.1c0.7-1.1,2.8-3.9,6.2-3.9c2.9,0,3.7,1.5,3.7,4.2v9.4l2.8,0.8V64h-7.4v-0.5
		l2.5-0.8v-8.3c0-2.1,0-3.8-2.3-3.8c-1.9,0-5.5,1.7-5.5,5.4v6.7l2.5,0.8V64H117V63.5z"/>
	<path d="M136.4,63.5l2.8-0.8V51.3h-3.5v-0.5l5.6-1.7v13.6l2.8,0.8V64h-7.7V63.5z M138.4,44.4c0-0.9,0.7-1.6,1.6-1.6
		s1.6,0.7,1.6,1.6c0,0.9-0.7,1.5-1.6,1.5S138.4,45.3,138.4,44.4z"/>
	<path d="M157.1,60.6L157.1,60.6c-1,1.5-2.9,3.9-6,3.9c-3.5,0-5.4-2.4-5.4-6.8c0-5.2,3-8.6,7-8.6c1.8,0,3.2,0.7,4.3,1.3v-6.9h-4V43
		l6.1-1.7v21.2h2.8V63l-4.9,1.5V60.6z M152,62.8c2,0,4.5-1.3,5-4.7c0.1-0.8,0.2-1.9,0.2-2.8c0-0.8-0.1-1.5-0.2-2.4
		c-0.3-2.3-2.3-2.9-3.8-2.9c-3,0-4.9,2.9-4.9,7.3C148.2,60.6,149.5,62.8,152,62.8z"/>
	<path d="M176.3,62.8c-1.6,0.8-3.4,1.6-5.7,1.6c-4.3,0-6.7-2.7-6.7-7.4c0-4.4,2.5-8,7.1-8c5.3,0,5.5,4.2,5.6,6l-10.2,0.5
		c0,0.3-0.1,1-0.1,1.3c0,3.9,1.4,6.6,4.5,6.6c3.5,0,4.9-2.9,5.7-5h0.6L176.3,62.8z M174.2,54.2c-0.1-1.2-0.3-4.2-3.4-4.2
		c-2.3,0-3.9,2-4.4,4.9L174.2,54.2z"/>
	<path d="M179.5,55.7h7.6v2.1h-7.6V55.7z"/>
	<path d="M198.5,61.3c-0.9,1-2.8,3.1-5.9,3.1c-2,0-3.5-1.2-3.5-3.4c0-4.4,5.4-4.7,9.4-5.6v-2.3c0-1.9-0.6-3-2.5-3
		c-2.5,0-4,1.6-4.5,3.9h-0.6v-3.3c1.2-0.6,3.6-1.6,6-1.6c3.3,0,3.8,1.7,3.8,3.9v9.4h2.8V63l-4.9,1.5V61.3z M198.5,56.4
		c-3.1,0.4-7.3,1.6-7.3,4.5c0,1.3,0.9,2.3,2.3,2.3c1.7,0,5-1.6,5-4.5V56.4z"/>
</g>
<g class="st0">
	<path d="M206.9,63.5l2.8-0.8V51.3h-3.3v-0.5l5.4-1.7V53h0.1c0.7-1.1,2.8-3.9,6.2-3.9c2.9,0,3.7,1.5,3.7,4.2v9.4l2.8,0.8V64h-7.4
		v-0.5l2.5-0.8v-8.3c0-2.1,0-3.8-2.3-3.8c-1.9,0-5.5,1.7-5.5,5.4v6.7l2.5,0.8V64h-7.4V63.5z"/>
</g>
<g class="st0">
	<path d="M237.9,60.6L237.9,60.6c-1,1.5-2.9,3.9-6,3.9c-3.5,0-5.4-2.4-5.4-6.8c0-5.2,3-8.6,7-8.6c1.8,0,3.2,0.7,4.3,1.3v-6.9h-4V43
		l6.1-1.7v21.2h2.8V63l-4.9,1.5V60.6z M232.7,62.8c2,0,4.5-1.3,5-4.7c0.1-0.8,0.2-1.9,0.2-2.8c0-0.8-0.1-1.5-0.2-2.4
		c-0.3-2.3-2.3-2.9-3.8-2.9c-3,0-4.9,2.9-4.9,7.3C229,60.6,230.2,62.8,232.7,62.8z"/>
</g>
<g class="st0">
	<path d="M243.8,55.7h7.6v2.1h-7.6V55.7z"/>
</g>
<g class="st0">
	<path d="M262.7,53.8c-0.4-1.2-0.8-3.8-3.8-3.8c-1.5,0-2.7,0.9-2.7,2.2c0,1.6,1.8,2.4,3.8,3.2c2.3,1,4.8,2,4.8,4.5
		c0,2.6-2,4.5-5.7,4.5c-2.3,0-4.4-0.9-5.3-1.2v-4.9h1c0.5,1.8,0.8,5.2,4.5,5.2c2,0,3.4-1.3,3.4-2.9c0-1.7-2-2.5-4-3.4
		c-2.2-0.9-4.6-1.9-4.6-4.5c0-2.3,2-3.7,4.9-3.7c2,0,3.8,0.7,4.5,1.1v3.6H262.7z"/>
	<path d="M280.1,62.8c-1.6,0.8-3.4,1.6-5.7,1.6c-4.3,0-6.7-2.7-6.7-7.4c0-4.4,2.5-8,7.1-8c5.3,0,5.5,4.2,5.6,6l-10.2,0.5
		c0,0.3-0.1,1-0.1,1.3c0,3.9,1.4,6.6,4.5,6.6c3.5,0,4.9-2.9,5.7-5h0.6L280.1,62.8z M278.1,54.2c-0.1-1.2-0.3-4.2-3.4-4.2
		c-2.3,0-3.9,2-4.4,4.9L278.1,54.2z"/>
	<path d="M297.1,62.8c-1.6,0.8-3.4,1.6-5.7,1.6c-4.3,0-6.7-2.7-6.7-7.4c0-4.4,2.5-8,7.1-8c5.3,0,5.5,4.2,5.6,6l-10.2,0.5
		c0,0.3-0.1,1-0.1,1.3c0,3.9,1.4,6.6,4.5,6.6c3.5,0,4.9-2.9,5.7-5h0.6L297.1,62.8z M295,54.2c-0.1-1.2-0.3-4.2-3.4-4.2
		c-2.3,0-3.9,2-4.4,4.9L295,54.2z"/>
</g>
<g class="st0">
	<path d="M300.4,63.5l2.8-0.8V43.5h-3.6V43l5.8-1.7v15.8l5.8-6.3l-2.8-0.8v-0.5h7.2V50l-2.6,0.8l-4.4,4.2l6.3,7.7l2.4,0.8V64h-7.4
		v-0.5l2.6-0.8l-5.4-6.3l-1.7,1.6v4.7l2.6,0.8V64h-7.5V63.5z"/>
</g>
<g class="st0">
	<path d="M320,62.9c0-0.9,0.7-1.6,1.6-1.6c0.9,0,1.6,0.7,1.6,1.6c0,0.9-0.7,1.6-1.6,1.6C320.7,64.4,320,63.7,320,62.9z"/>
</g>
<g class="st0">
	<path d="M0.4,101.5l3.2-0.8l0.1-17.5l-3.3-0.8v-0.5h5.9l12.6,15.4l0.1-0.1l-0.5-14l-4.4-0.8v-0.5h8.8v0.5l-2.7,0.8L20,102.4h-0.1
		L4.9,83.9L4.9,84l0.5,16.7l4,0.8v0.5H0.4V101.5z"/>
</g>
<g class="st0">
	<path d="M24.6,95.1c0-4.6,2.7-8.1,7.3-8.1c4.4,0,6.9,3.1,6.9,7.4c0,4.4-2.6,8-7.3,8C27.4,102.4,24.6,99.8,24.6,95.1z M31.6,101.5
		c3.2,0,4.8-3.2,4.8-6.9c0-4-1.6-6.7-4.5-6.7c-3.1,0-4.8,3.3-4.8,6.9C27,98.8,28.6,101.5,31.6,101.5z"/>
</g>
<g class="st0">
	<path d="M42.7,88.8L40.3,88v-0.5h8.3V88l-3.8,0.8l3,10.1h0.1l5-11.8H53l3.9,11.8H57l3.7-10.1L56.9,88v-0.5h7.8V88l-2.4,0.8
		l-6.2,13.6H56l-3.7-10.9L47,102.4h-0.1L42.7,88.8z"/>
	<path d="M74.8,101.5l2.8-0.8V81.5h-3.8V81l5.9-1.7V91h0.1c0.7-1.1,2.8-3.9,6.2-3.9c2.9,0,3.7,1.5,3.7,4.2v9.4l2.8,0.8v0.5H85v-0.5
		l2.5-0.8v-8.3c0-2.1,0-3.8-2.3-3.8c-1.9,0-5.5,1.7-5.5,5.4v6.7l2.5,0.8v0.5h-7.4V101.5z"/>
	<path d="M103.6,99.3c-0.9,1-2.8,3.1-5.9,3.1c-2,0-3.5-1.2-3.5-3.4c0-4.4,5.4-4.7,9.4-5.6v-2.3c0-1.9-0.6-3-2.5-3
		c-2.5,0-4,1.6-4.5,3.9h-0.6v-3.3c1.2-0.6,3.6-1.6,6-1.6c3.3,0,3.8,1.7,3.8,3.9v9.4h2.8v0.5l-4.9,1.5V99.3z M103.6,94.3
		c-3.1,0.4-7.3,1.6-7.3,4.5c0,1.3,0.9,2.3,2.3,2.3c1.7,0,5-1.6,5-4.5V94.3z"/>
</g>
<g class="st0">
	<path d="M111.3,88.8l-2.1-0.8v-0.5h7.4V88l-3.1,0.8l4.2,10.1l4.3-10.1l-3.1-0.8v-0.5h6.8V88l-2.1,0.8l-6.6,13.6h-0.1L111.3,88.8z"
		/>
</g>
<g class="st0">
	<path d="M139.1,100.8c-1.6,0.8-3.4,1.6-5.7,1.6c-4.3,0-6.7-2.7-6.7-7.4c0-4.4,2.5-8,7.1-8c5.3,0,5.5,4.2,5.6,6l-10.2,0.5
		c0,0.3-0.1,1-0.1,1.3c0,3.9,1.4,6.6,4.5,6.6c3.5,0,4.9-2.9,5.7-5h0.6L139.1,100.8z M137,92.2c-0.1-1.2-0.3-4.2-3.4-4.2
		c-2.3,0-3.9,2-4.4,4.9L137,92.2z"/>
</g>
<g class="st0">
	<path d="M159.2,102.2c-0.5,0.2-1.2,0.3-1.7,0.3c-2.5,0-3.6-1.6-3.6-3.6v-9.5H151v-0.5l3.1-0.9l1.1-4.9h0.7v5h4.4v1.3H156v8.4
		c0,1.8,0.1,3.2,2.2,3.2c1.1,0,2-0.6,2.7-1.1l0.3,0.4L159.2,102.2z"/>
</g>
<g class="st0">
	<path d="M162.8,101.5l2.8-0.8V81.5h-3.8V81l5.9-1.7V91h0.1c0.7-1.1,2.8-3.9,6.2-3.9c2.9,0,3.7,1.5,3.7,4.2v9.4l2.8,0.8v0.5H173
		v-0.5l2.5-0.8v-8.3c0-2.1,0-3.8-2.3-3.8c-1.9,0-5.5,1.7-5.5,5.4v6.7l2.5,0.8v0.5h-7.4V101.5z"/>
</g>
<g class="st0">
	<path d="M194.5,100.8c-1.6,0.8-3.4,1.6-5.7,1.6c-4.3,0-6.7-2.7-6.7-7.4c0-4.4,2.5-8,7.1-8c5.3,0,5.5,4.2,5.6,6l-10.2,0.5
		c0,0.3-0.1,1-0.1,1.3c0,3.9,1.4,6.6,4.5,6.6c3.5,0,4.9-2.9,5.7-5h0.6L194.5,100.8z M192.5,92.2c-0.1-1.2-0.3-4.2-3.4-4.2
		c-2.3,0-3.9,2-4.4,4.9L192.5,92.2z"/>
</g>
<g class="st0">
	<path d="M206.7,102.7c-1,2.6-2.5,6.1-6,6.1c-1.5,0-2.2-0.4-3-0.7v-3.7h0.5c0.2,1.2,0.6,3.1,2.9,3.1c2.9,0,3.9-3.3,4.5-4.9
		l-6.2-13.9l-2.6-0.8v-0.5h8.4V88l-3.6,0.8l5.1,11.4l3.6-11.4l-2.8-0.8v-0.5h6.9V88l-2.6,0.8L206.7,102.7z"/>
	<path d="M227.6,99.5c0.5,0.8,1.6,0.8,4,0.8c1.1,0,2.2-0.1,3.3-0.1c2.3,0,3.8,1,3.8,3.4c0,2.8-3.2,5.2-7.7,5.2
		c-5.4,0-6.9-2.5-6.9-4.6l3.1-1.6l0.4,0.3c-0.6,0.6-1.4,1.1-1.4,2.2c0,1.7,2.2,2.6,4.6,2.6c3.5,0,6.1-1.6,6.1-3.6c0-1.9-1.1-2-3.1-2
		c-6.8,0-7.8-0.4-8.6-3.2c1.5-0.1,2.4-0.9,3.8-2.2c-1.3-0.3-3.8-1.3-3.8-4.6c0-3.1,2.5-5.2,5.6-5.2c1.4,0,2.3,0.3,3.2,0.6
		c0.8,0.3,1.7,0.6,3,0.6c0.6,0,1.4-0.1,2-0.1v1.4h-2.9c0.3,0.7,0.5,1.5,0.5,2.2c0,5.1-4.6,5.3-6.5,5.3L227.6,99.5z M230.8,96.1
		c3,0,3.8-2.3,3.8-4.1c0-1.7-0.6-4.1-3.5-4.1c-2.6,0-3.7,2-3.7,4.4C227.4,94.4,228.4,96.1,230.8,96.1z"/>
	<path d="M241,95.1c0-4.6,2.7-8.1,7.3-8.1c4.4,0,6.9,3.1,6.9,7.4c0,4.4-2.6,8-7.3,8C243.7,102.4,241,99.8,241,95.1z M247.9,101.5
		c3.2,0,4.8-3.2,4.8-6.9c0-4-1.6-6.7-4.5-6.7c-3.1,0-4.8,3.3-4.8,6.9C243.4,98.8,245,101.5,247.9,101.5z"/>
	<path d="M258.1,101.5l2.8-0.8V89.3h-3.3v-0.5l5.4-1.7V91h0.1c0.7-1.1,2.8-3.9,6.2-3.9c2.9,0,3.7,1.5,3.7,4.2v9.4l2.8,0.8v0.5h-7.4
		v-0.5l2.5-0.8v-8.3c0-2.1,0-3.8-2.3-3.8c-1.9,0-5.5,1.7-5.5,5.4v6.7l2.5,0.8v0.5h-7.4V101.5z"/>
	<path d="M290.2,100.8c-1.6,0.8-3.4,1.6-5.7,1.6c-4.3,0-6.7-2.7-6.7-7.4c0-4.4,2.5-8,7.1-8c5.3,0,5.5,4.2,5.6,6l-10.2,0.5
		c0,0.3-0.1,1-0.1,1.3c0,3.9,1.4,6.6,4.5,6.6c3.5,0,4.9-2.9,5.7-5h0.6L290.2,100.8z M288.2,92.2c-0.1-1.2-0.3-4.2-3.4-4.2
		c-2.3,0-3.9,2-4.4,4.9L288.2,92.2z"/>
</g>
<g class="st0">
	<path d="M310.4,102.2c-0.5,0.2-1.2,0.3-1.7,0.3c-2.5,0-3.6-1.6-3.6-3.6v-9.5h-2.8v-0.5l3.1-0.9l1.1-4.9h0.7v5h4.4v1.3h-4.4v8.4
		c0,1.8,0.1,3.2,2.2,3.2c1.1,0,2-0.6,2.7-1.1l0.3,0.4L310.4,102.2z"/>
</g>
<g class="st0">
	<path d="M314.2,95.1c0-4.6,2.7-8.1,7.3-8.1c4.4,0,6.9,3.1,6.9,7.4c0,4.4-2.6,8-7.3,8C317,102.4,314.2,99.8,314.2,95.1z
		 M321.1,101.5c3.2,0,4.8-3.2,4.8-6.9c0-4-1.6-6.7-4.5-6.7c-3.1,0-4.8,3.3-4.8,6.9C316.6,98.8,318.2,101.5,321.1,101.5z"/>
	<path d="M341.1,102.7V81.5h-3.8V81l5.9-1.7V91h0.1c0.7-1.2,2.3-3.9,5.7-3.9c3.8,0,5.5,2.7,5.5,6.9c0,4.8-2.5,8.5-6.8,8.5
		c-2.2,0-3.9-1-5.1-1.9l-1,2.5L341.1,102.7z M347.2,101.5c2.9,0,4.9-3,4.9-7.2c0-2.9-1-5.6-3.6-5.6c-2.8,0-4.6,1.9-5.1,4.3
		c-0.1,0.3-0.2,1.8-0.2,2.8c0,0.9,0,2.1,0.2,2.7C343.9,100.7,345.2,101.5,347.2,101.5z"/>
	<path d="M370,100.8c-1.6,0.8-3.4,1.6-5.7,1.6c-4.3,0-6.7-2.7-6.7-7.4c0-4.4,2.5-8,7.1-8c5.3,0,5.5,4.2,5.6,6l-10.2,0.5
		c0,0.3-0.1,1-0.1,1.3c0,3.9,1.4,6.6,4.5,6.6c3.5,0,4.9-2.9,5.7-5h0.6L370,100.8z M367.9,92.2c-0.1-1.2-0.3-4.2-3.4-4.2
		c-2.3,0-3.9,2-4.4,4.9L367.9,92.2z"/>
	<path d="M385.2,98.6L385.2,98.6c-1,1.5-2.9,3.9-6,3.9c-3.5,0-5.4-2.4-5.4-6.8c0-5.2,3-8.6,7-8.6c1.8,0,3.2,0.7,4.3,1.3v-6.9h-4V81
		l6.1-1.7v21.2h2.8v0.5l-4.9,1.5V98.6z M380.1,100.8c2,0,4.5-1.3,5-4.7c0.1-0.8,0.2-1.9,0.2-2.8c0-0.8-0.1-1.5-0.2-2.4
		c-0.3-2.3-2.3-2.9-3.8-2.9c-3,0-4.9,2.9-4.9,7.3C376.3,98.6,377.6,100.8,380.1,100.8z"/>
	<path d="M410,99.3c-0.9,1-2.8,3.1-5.9,3.1c-2,0-3.5-1.2-3.5-3.4c0-4.4,5.4-4.7,9.4-5.6v-2.3c0-1.9-0.6-3-2.5-3
		c-2.5,0-4,1.6-4.5,3.9h-0.6v-3.3c1.2-0.6,3.6-1.6,6-1.6c3.3,0,3.8,1.7,3.8,3.9v9.4h2.8v0.5l-4.9,1.5V99.3z M410,94.3
		c-3.1,0.4-7.3,1.6-7.3,4.5c0,1.3,0.9,2.3,2.3,2.3c1.7,0,5-1.6,5-4.5V94.3z"/>
	<path d="M423.9,102.2c-0.5,0.2-1.2,0.3-1.7,0.3c-2.5,0-3.6-1.6-3.6-3.6v-9.5h-2.8v-0.5l3.1-0.9l1.1-4.9h0.7v5h4.4v1.3h-4.4v8.4
		c0,1.8,0.1,3.2,2.2,3.2c1.1,0,2-0.6,2.7-1.1l0.3,0.4L423.9,102.2z"/>
</g>
<g class="st0">
	<path d="M435.7,101.5l2.8-0.8V81.5h-3.8V81l5.9-1.7v21.4l2.8,0.8v0.5h-7.7V101.5z"/>
	<path d="M455.4,99.3c-0.9,1-2.8,3.1-5.9,3.1c-2,0-3.5-1.2-3.5-3.4c0-4.4,5.4-4.7,9.4-5.6v-2.3c0-1.9-0.6-3-2.5-3
		c-2.5,0-4,1.6-4.5,3.9h-0.6v-3.3c1.2-0.6,3.6-1.6,6-1.6c3.3,0,3.8,1.7,3.8,3.9v9.4h2.8v0.5l-4.9,1.5V99.3z M455.4,94.3
		c-3.1,0.4-7.3,1.6-7.3,4.5c0,1.3,0.9,2.3,2.3,2.3c1.7,0,5-1.6,5-4.5V94.3z"/>
	<path d="M471.4,91.8c-0.4-1.2-0.8-3.8-3.8-3.8c-1.5,0-2.7,0.9-2.7,2.2c0,1.6,1.8,2.4,3.8,3.2c2.3,1,4.8,2,4.8,4.5
		c0,2.6-2,4.5-5.7,4.5c-2.3,0-4.4-0.9-5.3-1.2v-4.9h1c0.5,1.8,0.8,5.2,4.5,5.2c2,0,3.4-1.3,3.4-2.9c0-1.7-2-2.5-4-3.4
		c-2.2-0.9-4.6-1.9-4.6-4.5c0-2.3,2-3.7,4.9-3.7c2,0,3.8,0.7,4.5,1.1v3.6H471.4z"/>
</g>
<g class="st0">
	<path d="M483,102.2c-0.5,0.2-1.2,0.3-1.7,0.3c-2.5,0-3.6-1.6-3.6-3.6v-9.5h-2.8v-0.5l3.1-0.9l1.1-4.9h0.7v5h4.4v1.3h-4.4v8.4
		c0,1.8,0.1,3.2,2.2,3.2c1.1,0,2-0.6,2.7-1.1l0.3,0.4L483,102.2z"/>
</g>
<g class="st0">
	<path d="M487.3,108.3c0.4-1.5,1.3-4,1.3-5.7c0-1.2-0.2-1.6-0.6-2.3l1.6-0.9c0.5,0.7,1.1,1.6,1.1,2.5c0,1.6-1.3,3.6-2.8,6.5H487.3z"
		/>
</g>
<g class="st0">
	<path d="M10.8,137.3c-0.9,1-2.8,3.1-5.9,3.1c-2,0-3.5-1.2-3.5-3.4c0-4.4,5.4-4.7,9.4-5.6v-2.3c0-1.9-0.6-3-2.5-3
		c-2.5,0-4,1.6-4.5,3.9H3.1v-3.3c1.2-0.6,3.6-1.6,6-1.6c3.3,0,3.8,1.7,3.8,3.9v9.4h2.8v0.5l-4.9,1.5V137.3z M10.8,132.3
		c-3.1,0.4-7.3,1.6-7.3,4.5c0,1.3,0.9,2.3,2.3,2.3c1.7,0,5-1.6,5-4.5V132.3z"/>
	<path d="M17.4,139.5l2.8-0.8v-11.4h-3.3v-0.5l5.4-1.7v3.9h0.1c0.7-1.1,2.8-3.9,6.2-3.9c2.9,0,3.7,1.5,3.7,4.2v9.4l2.8,0.8v0.5h-7.4
		v-0.5l2.5-0.8v-8.3c0-2.1,0-3.8-2.3-3.8c-1.9,0-5.5,1.7-5.5,5.4v6.7l2.5,0.8v0.5h-7.4V139.5z"/>
	<path d="M48.2,136.5L48.2,136.5c-1,1.5-2.9,3.9-6,3.9c-3.5,0-5.4-2.4-5.4-6.8c0-5.2,3-8.6,7-8.6c1.8,0,3.2,0.7,4.3,1.3v-6.9h-4V119
		l6.1-1.7v21.2h2.8v0.5l-4.9,1.5V136.5z M43.1,138.8c2,0,4.5-1.3,5-4.7c0.1-0.8,0.2-1.9,0.2-2.8c0-0.8-0.1-1.5-0.2-2.4
		c-0.3-2.3-2.3-2.9-3.8-2.9c-3,0-4.9,2.9-4.9,7.3C39.3,136.6,40.6,138.8,43.1,138.8z"/>
</g>
<g class="st0">
	<path d="M63.4,139.5l2.8-0.8v-11.4h-2.8v-0.5l2.8-0.9c0-2.8,0.3-8.3,5.7-8.3c1.3,0,2.6,0.4,3.7,0.9v3.5h-0.5
		c-0.3-1.3-0.9-3.5-3.5-3.5c-2.6,0-3.3,2.1-3.3,4.7v2.8h4.3v1.3h-4.3v11.4l3.6,0.8v0.5h-8.5V139.5z"/>
	<path d="M83.4,137.3c-0.9,1-2.8,3.1-5.9,3.1c-2,0-3.5-1.2-3.5-3.4c0-4.4,5.4-4.7,9.4-5.6v-2.3c0-1.9-0.6-3-2.5-3
		c-2.5,0-4,1.6-4.5,3.9h-0.6v-3.3c1.2-0.6,3.6-1.6,6-1.6c3.3,0,3.8,1.7,3.8,3.9v9.4h2.8v0.5l-4.9,1.5V137.3z M83.4,132.3
		c-3.1,0.4-7.3,1.6-7.3,4.5c0,1.3,0.9,2.3,2.3,2.3c1.7,0,5-1.6,5-4.5V132.3z"/>
</g>
<g class="st0">
	<path d="M90.4,139.5l2.8-0.8v-19.2h-3.8V119l5.9-1.7v21.4l2.8,0.8v0.5h-7.7V139.5z"/>
</g>
<g class="st0">
	<path d="M100.2,139.5l2.8-0.8v-19.2h-3.8V119l5.9-1.7v21.4l2.8,0.8v0.5h-7.7V139.5z"/>
</g>
<g class="st0">
	<path d="M122.7,138.8c-1.6,0.8-3.4,1.6-5.7,1.6c-4.3,0-6.7-2.7-6.7-7.4c0-4.4,2.5-8,7.1-8c5.3,0,5.5,4.2,5.6,6l-10.2,0.5
		c0,0.3-0.1,1-0.1,1.3c0,3.9,1.4,6.6,4.5,6.6c3.5,0,4.9-2.9,5.7-5h0.6L122.7,138.8z M120.7,130.1c-0.1-1.2-0.3-4.2-3.4-4.2
		c-2.3,0-3.9,2-4.4,4.9L120.7,130.1z"/>
</g>
<g class="st0">
	<path d="M126.5,139.5l2.8-0.8v-11.4h-3.3v-0.5l5.4-1.7v3.9h0.1c0.7-1.1,2.8-3.9,6.2-3.9c2.9,0,3.7,1.5,3.7,4.2v9.4l2.8,0.8v0.5
		h-7.4v-0.5l2.5-0.8v-8.3c0-2.1,0-3.8-2.3-3.8c-1.9,0-5.5,1.7-5.5,5.4v6.7l2.5,0.8v0.5h-7.4V139.5z"/>
</g>
<g class="st0">
	<path d="M155.3,139.5l2.8-0.8v-11.4h-2.8v-0.5l2.8-0.9c0-2.8,0.3-8.3,5.7-8.3c1.3,0,2.6,0.4,3.7,0.9v3.5H167
		c-0.3-1.3-0.9-3.5-3.5-3.5c-2.6,0-3.3,2.1-3.3,4.7v2.8h4.3v1.3h-4.3v11.4l3.6,0.8v0.5h-8.5V139.5z"/>
	<path d="M175.3,137.3c-0.9,1-2.8,3.1-5.9,3.1c-2,0-3.5-1.2-3.5-3.4c0-4.4,5.4-4.7,9.4-5.6v-2.3c0-1.9-0.6-3-2.5-3
		c-2.5,0-4,1.6-4.5,3.9h-0.6v-3.3c1.2-0.6,3.6-1.6,6-1.6c3.3,0,3.8,1.7,3.8,3.9v9.4h2.8v0.5l-4.9,1.5V137.3z M175.3,132.3
		c-3.1,0.4-7.3,1.6-7.3,4.5c0,1.3,0.9,2.3,2.3,2.3c1.7,0,5-1.6,5-4.5V132.3z"/>
	<path d="M191.4,129.8c-0.4-1.2-0.8-3.8-3.8-3.8c-1.5,0-2.7,0.9-2.7,2.2c0,1.6,1.8,2.4,3.8,3.2c2.3,1,4.8,2,4.8,4.5
		c0,2.6-2,4.5-5.7,4.5c-2.3,0-4.4-0.9-5.3-1.2v-4.9h1c0.5,1.8,0.8,5.2,4.5,5.2c2,0,3.4-1.3,3.4-2.9c0-1.7-2-2.5-4-3.4
		c-2.2-0.9-4.6-1.9-4.6-4.5c0-2.3,2-3.7,4.9-3.7c2,0,3.8,0.7,4.5,1.1v3.6H191.4z"/>
	<path d="M203.4,140.2c-0.5,0.2-1.2,0.3-1.7,0.3c-2.5,0-3.6-1.6-3.6-3.6v-9.5h-2.8v-0.5l3.1-0.9l1.1-4.9h0.7v5h4.4v1.3h-4.4v8.4
		c0,1.8,0.1,3.2,2.2,3.2c1.1,0,2-0.6,2.7-1.1l0.3,0.4L203.4,140.2z"/>
</g>
<g class="st0">
	<path d="M226.3,137.3c-0.9,1-2.8,3.1-5.9,3.1c-2,0-3.5-1.2-3.5-3.4c0-4.4,5.4-4.7,9.4-5.6v-2.3c0-1.9-0.6-3-2.5-3
		c-2.5,0-4,1.6-4.5,3.9h-0.6v-3.3c1.2-0.6,3.6-1.6,6-1.6c3.3,0,3.8,1.7,3.8,3.9v9.4h2.8v0.5l-4.9,1.5V137.3z M226.3,132.3
		c-3.1,0.4-7.3,1.6-7.3,4.5c0,1.3,0.9,2.3,2.3,2.3c1.7,0,5-1.6,5-4.5V132.3z"/>
</g>
<g class="st0">
	<path d="M243,129.8c-0.4-1.2-0.8-3.8-3.8-3.8c-1.5,0-2.7,0.9-2.7,2.2c0,1.6,1.8,2.4,3.8,3.2c2.3,1,4.8,2,4.8,4.5
		c0,2.6-2,4.5-5.7,4.5c-2.3,0-4.4-0.9-5.3-1.2v-4.9h1c0.5,1.8,0.8,5.2,4.5,5.2c2,0,3.4-1.3,3.4-2.9c0-1.7-2-2.5-4-3.4
		c-2.2-0.9-4.6-1.9-4.6-4.5c0-2.3,2-3.7,4.9-3.7c2,0,3.8,0.7,4.5,1.1v3.6H243z"/>
</g>
<g class="st0">
	<path d="M247.4,139.5l2.8-0.8v-19.2h-3.8V119l5.9-1.7v21.4l2.8,0.8v0.5h-7.7V139.5z"/>
</g>
<g class="st0">
	<path d="M269.6,138.8c-1.6,0.8-3.4,1.6-5.7,1.6c-4.3,0-6.7-2.7-6.7-7.4c0-4.4,2.5-8,7.1-8c5.3,0,5.5,4.2,5.6,6l-10.2,0.5
		c0,0.3-0.1,1-0.1,1.3c0,3.9,1.4,6.6,4.5,6.6c3.5,0,4.9-2.9,5.7-5h0.6L269.6,138.8z M267.6,130.1c-0.1-1.2-0.3-4.2-3.4-4.2
		c-2.3,0-3.9,2-4.4,4.9L267.6,130.1z"/>
	<path d="M285.9,138.8c-1.6,0.8-3.4,1.6-5.7,1.6c-4.3,0-6.7-2.7-6.7-7.4c0-4.4,2.5-8,7.1-8c5.3,0,5.5,4.2,5.6,6l-10.2,0.5
		c0,0.3-0.1,1-0.1,1.3c0,3.9,1.4,6.6,4.5,6.6c3.5,0,4.9-2.9,5.7-5h0.6L285.9,138.8z M283.9,130.1c-0.1-1.2-0.3-4.2-3.4-4.2
		c-2.3,0-3.9,2-4.4,4.9L283.9,130.1z"/>
</g>
<g class="st0">
	<path d="M289.3,146.4l2.8-0.8v-18.3h-3.3v-0.5l5.4-1.7v3.8h0.1c0.7-1.1,2.5-3.8,5.5-3.8c4.4,0,5.5,3.6,5.5,6.9
		c0,4.7-2.6,8.5-6.8,8.5c-1.6,0-3.2-0.7-4.3-1.3v6.5l3.6,0.8v0.5h-8.6V146.4z M298.1,139.5c2.8,0,4.8-2.9,4.8-7.1
		c0-3.6-1.2-5.9-3.5-5.9c-3,0-4.6,2.3-5,4.8c-0.1,0.8-0.2,2.7-0.2,3.7C294.3,138.5,296.4,139.5,298.1,139.5z"/>
	<path d="M312,130.6c1.5-0.8,5.4-2.3,5.4-6c0-2.2-1.4-3.7-3.7-3.7c-3,0-3.7,2.7-4.1,4.2H309v-3.8c1.2-0.5,3.1-1.3,5.5-1.3
		c3,0,5.3,1.7,5.3,4.3c0,3.1-3.1,4.3-4.8,5.5c-1.8,1.2-2,3.6-2.5,4.8H312V130.6z M310.5,138.8c0-0.9,0.7-1.6,1.6-1.6
		c0.9,0,1.6,0.7,1.6,1.6c0,0.9-0.7,1.6-1.6,1.6C311.2,140.4,310.5,139.7,310.5,138.8z"/>
</g>
</svg>
