<?xml version="1.0" encoding="utf-8"?>
<!-- Generator: Adobe Illustrator 22.1.0, SVG Export Plug-In . SVG Version: 6.00 Build 0)  -->
<svg version="1.1" id="Capa_1" xmlns="http://www.w3.org/2000/svg" xmlns:xlink="http://www.w3.org/1999/xlink" x="0px" y="0px"
	 viewBox="0 0 270 190.2" style="enable-background:new 0 0 270 190.2;" xml:space="preserve">
<style type="text/css">
	.st0{enable-background:new    ;}
</style>
<title>TEX_TEXT_1060C</title>
<g class="st0">
	<path d="M47.9,75.9c0.6-0.2,1.1-0.2,1.3,0.8c0.1,0.5-0.3,0.9-0.8,1.1l-5,1.8l3.7,12.9c0.2,0.5-0.1,1.1-1.1,1.3
		c-1,0.3-1.2-0.1-1.3-0.6l-3.6-12.8l-4,1.4c-0.2,0.1-0.5,0.2-0.6,0.3c-0.7,0.2-1.2,0-1.3-0.6c-0.1-0.5,0.1-1.2,0.7-1.4L47.5,76
		L47.9,75.9z"/>
</g>
<g class="st0">
	<path d="M54.6,82.7c0.6-1.5,1.7-2.5,2.8-2.7c1.3-0.3,3.4-0.1,4.2,3.3l1.2,5.1c0.1,0.6-0.4,1-1,1.2s-1.3,0-1.4-0.6l-1.3-5.4
		c-0.2-1-0.8-1.8-1.5-1.6c-1,0.2-2.1,2.2-2.3,4.1l1,4.2c0.1,0.5-0.4,1.1-1,1.2c-0.6,0.1-1.3-0.1-1.4-0.6l-3.6-15
		c-0.1-0.5,0.5-1.2,1-1.4c0.7-0.2,1.2,0.1,1.3,0.6L54.6,82.7z"/>
</g>
<g class="st0">
	<path d="M66.7,84.9c0.3,1.3,1.4,1.7,2.4,1.5c0.8-0.2,1.2-0.5,1.5-0.9c0.4-0.4,0.5-0.6,0.8-0.6c0.5-0.1,1.1,0.2,1.2,0.9
		c0.1,0.3,0,0.5-0.3,0.8c-0.9,0.8-1.7,1.3-2.9,1.6c-2.4,0.5-4.6-0.2-5.3-3.4c-0.6-3,1.2-6.3,3.7-6.8c2.2-0.4,3.3,0.5,3.5,1.7
		c0.5,2.6-3.2,4.6-4.7,4.9L66.7,84.9z M68.2,79.8c-1.3,0.3-1.8,1.8-1.7,3.4c1.7-0.5,2.8-2.1,2.6-2.9C69,80.1,68.7,79.7,68.2,79.8z"
		/>
</g>
<g class="st0">
	<path d="M82.2,77.2c-0.7,1.2-1.3,2.9-2.4,7.4c-1.2,5-1.5,8.1-3.8,8.5c-0.8,0.1-1.5,0.1-2.1-0.1c-0.5-0.2-0.6-0.3-0.7-0.7
		c-0.1-0.4,0.1-1.1,1-1.3c0.3,0,0.8,0.3,1.2,0.2c1.3-0.2,1.6-3.1,1.9-5c-1.3-2.7-2.9-4.9-4.7-7.4c-0.2-0.3-0.2-0.2-0.2-0.5
		c-0.1-0.4,0.8-1.2,1.1-1.2c0.5-0.1,0.8-0.1,1.1,0.4c1.2,1.7,2.8,4.6,3.4,5.8c0.4-1.5,1.1-4.7,1.3-5.4c0.4-0.9,0.4-1.2,0.9-1.9
		c0.2-0.2,0.3-0.2,0.7-0.3c0.5-0.1,1.3,0.5,1.4,0.9C82.4,76.8,82.4,76.9,82.2,77.2z"/>
</g>
<g class="st0">
	<path d="M83.8,68.7c0.1-1,0.6-0.9,1-1c0.7-0.1,1.5,0.1,1.6,0.6c0,0.1,0,0.2,0,0.4l-0.4,3.8c-0.1,0.3-0.3,0.7-0.7,0.7
		c-0.7,0.1-1.7-0.1-1.8-0.6c0-0.1,0-0.1,0-0.3L83.8,68.7z"/>
</g>
<g class="st0">
	<path d="M91.2,75.9c0.7-1.2,1.8-2,3-2.2c0.9-0.1,1.2,0.4,1.3,1c0.1,0.8-0.2,1.1-0.9,1.1c-1.5,0.2-2.7,1.3-3,2.7l0.6,4.7
		c0.1,0.5-0.7,1.1-1.3,1.1c-0.8,0.1-1.1-0.3-1.2-0.7l-1.1-8.4c-0.1-0.6,0.7-1.1,1.2-1.2c1-0.1,1.1,0.2,1.2,0.7L91.2,75.9z"/>
</g>
<g class="st0">
	<path d="M99.4,79.6c0.1,1.3,1.2,1.9,2.2,1.7c0.8-0.1,1.2-0.4,1.6-0.7c0.4-0.3,0.5-0.5,0.8-0.6c0.5-0.1,1.1,0.3,1.2,1
		c0,0.3,0,0.5-0.4,0.8c-1,0.7-1.8,1.1-3,1.3c-2.4,0.3-4.6-0.6-4.9-3.9c-0.3-3,1.7-6.1,4.3-6.4c2.2-0.2,3.2,0.8,3.4,2
		c0.3,2.6-3.6,4.3-5.1,4.5L99.4,79.6z M101.4,74.6c-1.3,0.1-2,1.7-2,3.2c1.8-0.4,2.9-1.9,2.9-2.6C102.2,75,101.9,74.5,101.4,74.6z"
		/>
</g>
<g class="st0">
	<path d="M120.3,75.8c1.5,0.6,2.3,1.3,2.3,2.7c0.1,2.1-1.7,3.2-4,3.3c-1.1,0.1-1.9-0.2-2.9-0.6c-0.4-0.2-0.6-0.3-0.6-0.8
		c0-0.4,0.4-1.2,1-1.2c0.3,0,0.5,0.1,0.7,0.2c0.7,0.3,1.3,0.6,1.8,0.6c0.8,0,1.6-0.6,1.6-1.4c0-0.5-0.6-0.8-1.2-1l-1.7-0.7
		c-1.3-0.5-2.3-1.1-2.4-2.6c-0.1-1.9,2.3-2.8,3.4-2.8c1.2-0.1,2.1,0,2.9,0.3c0.6,0.2,0.7,0.3,0.7,0.8c0,0.4-0.4,1.1-1.2,1.2
		c-0.6,0-1.3-0.6-2.5-0.6c-0.3,0-1,0.4-1,0.9c0,0.6,0.8,0.8,1.1,0.9L120.3,75.8z"/>
</g>
<g class="st0">
	<path d="M127.8,76.9c0,0.9,0.1,2.6,1.1,2.6c0.4,0,0.6-0.3,1.2-0.7c0.2-0.2,0.4-0.2,0.7-0.2c0.5,0,0.8,0.7,0.8,1
		c0,0.4-0.1,0.7-0.5,0.9c-0.6,0.4-1.2,0.9-2.5,0.9c-2.3,0-3.3-1.4-3.3-3.9l-0.1-4.3l-0.3,0c-0.2,0-0.5,0.1-0.6,0.1
		c-0.6,0-0.8-0.1-0.8-0.7c0-0.4,0.2-1.2,0.8-1.2l0.9-0.1l-0.1-3.4c0-0.5,0.5-1,1.3-1c0.9,0,1.1,0.3,1.1,0.9l0.1,3.3l1.5-0.2
		c0.2,0,0.2-0.1,0.4-0.1c0.7,0,1,0.2,1,0.9c0,0.5-0.3,0.9-0.8,1l-2,0.2L127.8,76.9z"/>
</g>
<g class="st0">
	<path d="M134.7,67.6c-0.8,0-1.5-0.7-1.5-1.4c0-0.7,0.7-1.4,1.5-1.4c0.9,0,1.5,0.6,1.5,1.4C136.3,67,135.6,67.6,134.7,67.6z
		 M133.4,71.5c0-0.6,0.4-1.1,1.1-1.1c0.7,0,1.3,0.3,1.3,0.9l-0.1,8.8c0,0.6-0.6,1-1.3,1c-0.6,0-1.2-0.5-1.2-0.9L133.4,71.5z"/>
</g>
<g class="st0">
	<path d="M139.5,65.1c0-0.5,0.9-1,1.4-1c0.8,0,1.1,0.4,1.1,0.9l-0.4,15.3c0,0.6-0.8,1-1.3,1c-0.7,0-1.2-0.4-1.2-0.9L139.5,65.1z"/>
</g>
<g class="st0">
	<path d="M145.4,65.3c0-0.5,0.9-1,1.4-1c0.8,0,1.1,0.5,1.1,1l-0.6,15.3c0,0.6-0.8,1-1.3,1c-0.7,0-1.2-0.4-1.1-1L145.4,65.3z"/>
</g>
<g class="st0">
	<path d="M163.9,76.9l0-0.2c0-0.3,0.3-2.1-0.6-2.2c-0.9-0.1-1.9,0.3-2.2,0.5c-0.2,0.1-0.5,0.3-1,0.2c-0.5-0.1-1-0.7-1-0.9
		c0-0.2-0.1-0.6,0.8-0.9c0.8-0.3,2.3-0.9,3.9-0.7c2.6,0.3,2.8,2.6,2.6,4.5l-0.4,3.6c0,0.4,0.1,0.6,0.3,0.6c0.5,0,0.8,0.4,0.7,1
		c-0.1,0.7-0.2,1.1-1.4,1c-0.8-0.1-1.7-0.8-1.9-2c-0.7,0.7-2.1,1.4-3.5,1.3c-1.6-0.2-3.4-0.6-3.1-2.7c0.2-2,2.8-3.5,6.2-3.2
		C163.4,76.9,163.9,76.9,163.9,76.9z M163.7,78.4c0,0-0.5-0.1-0.8-0.1c-1.8-0.2-3.5,0.8-3.6,2c-0.1,0.5,0.5,0.8,1,0.8
		c1.7,0.2,2.9-0.9,3.3-1.5L163.7,78.4z"/>
</g>
<g class="st0">
	<path d="M177.1,76.3c0.4,1.4,0.9,4,1.2,5.2c0.8-1.5,2.5-4.4,3.1-5.3c0.2-0.4,0.5-0.7,1-0.6c0.8,0.1,1.4,0.8,1.3,1.1
		c0,0.3-0.2,0.5-0.2,0.5c-0.7,1.1-2.6,3.8-4.6,7.4c-0.1,0.2-0.7,0.6-1.1,0.5c-0.5-0.1-0.7-0.4-0.8-0.8c-0.5-1.8-0.9-3.9-1.3-5.5
		l-2.6,4.8c-0.2,0.4-0.6,0.6-1.1,0.6c-0.4-0.1-0.8-0.6-0.9-0.9c-0.5-2.8-0.8-5.2-1.7-8.1c-0.1-0.3-0.1-0.3,0-0.5
		c0.1-0.3,0.6-0.8,1.2-0.7c0.5,0.1,0.7,0.1,0.9,0.7c0.5,1.8,1,4.6,1.2,5.9l2.4-4.7c0.2-0.5,0.5-0.6,1.1-0.5c0.6,0.1,1,0.4,1,0.9
		L177.1,76.3z"/>
</g>
<g class="st0">
	<path d="M190.6,81.7l0.1-0.2c0.1-0.3,0.6-2-0.4-2.2c-0.9-0.2-1.9,0-2.3,0.2c-0.2,0.1-0.5,0.3-1.1,0.1c-0.5-0.1-0.9-0.8-0.8-1
		c0.1-0.2,0-0.6,0.9-0.8c0.9-0.2,2.4-0.6,4-0.2c2.6,0.6,2.4,2.9,2,4.8l-0.8,3.5c-0.1,0.4,0,0.6,0.2,0.7c0.4,0.1,0.8,0.5,0.6,1.1
		c-0.2,0.7-0.4,1.1-1.5,0.8c-0.8-0.2-1.6-1-1.7-2.2c-0.8,0.7-2.3,1.2-3.6,0.8c-1.6-0.4-3.3-1-2.8-3.1c0.5-2,3.3-3.2,6.5-2.4
		C190.1,81.5,190.6,81.7,190.6,81.7z M190.2,83.1c0,0-0.4-0.2-0.8-0.2c-1.7-0.4-3.6,0.3-3.8,1.5c-0.1,0.5,0.4,0.8,0.8,0.9
		c1.6,0.4,3-0.6,3.5-1.1L190.2,83.1z"/>
</g>
<g class="st0">
	<path d="M204.4,89.5c0.2,0.3,0.3,0.4,0.2,0.9c-0.1,0.5-1.1,0.8-1.4,0.7c-0.3-0.1-0.6-0.2-0.7-0.4l-3.8-5.4l-1.1,3.6
		c-0.2,0.6-1,0.7-1.6,0.6c-0.8-0.2-1-0.6-0.8-1.2l4.3-14.6c0.2-0.5,1-0.7,1.5-0.5c0.7,0.2,1,0.8,0.9,1.2l-2.5,8.4l4.1-1.9
		c0.3-0.1,0.5-0.3,1-0.1c0.8,0.2,0.8,1,0.7,1.3c-0.1,0.3-0.3,0.4-0.6,0.5l-4.2,1.7L204.4,89.5z"/>
</g>
<g class="st0">
	<path d="M208.5,89.4c-0.4,1.2,0.3,2.2,1.3,2.5c0.7,0.3,1.3,0.2,1.7,0c0.5-0.1,0.7-0.3,1-0.2c0.5,0.2,0.8,0.7,0.6,1.4
		c-0.1,0.3-0.3,0.5-0.7,0.5c-1.2,0.2-2.2,0.2-3.3-0.1c-2.3-0.8-3.9-2.5-2.8-5.6c1-2.8,4.2-4.8,6.7-3.9c2.1,0.7,2.6,2.1,2.2,3.3
		c-0.9,2.5-5.1,2.3-6.6,1.8L208.5,89.4z M212.4,85.7c-1.2-0.4-2.5,0.6-3.2,2c1.8,0.4,3.5-0.4,3.7-1.1C213,86.5,213,85.9,212.4,85.7z
		"/>
</g>
<g class="st0">
	<path d="M216.6,96.5c-0.6-0.3-1.2-0.9-0.8-1.9c0.2-0.4,1.3-1.1,1.9-0.8c0.8,0.3,1.2,0.9,0.8,1.9C218.3,96.1,217.4,96.8,216.6,96.5z
		 M219.8,91.9c-0.3,0.7-0.9,0.8-1.6,0.5c-0.7-0.3-1-0.8-0.8-1.3l3.5-8.6c0.3-0.7,1-0.7,1.6-0.4c0.8,0.3,0.9,0.8,0.6,1.4L219.8,91.9z
		"/>
</g>
<g class="st0">
	<path d="M16.7,29.3C16,29.2,15.4,28.9,15,27c-0.6-2.4,2.3-3.5,2.3-3.5c3.9-1.8,7.2-2.6,8.5-2.9c4.2-1,17.7-3,20.3,8.3
		c2.7,11.5-11.4,17-17.9,18.9l3.6,15.4c0.3,1.4-1.5,3.4-3,3.7c-3,0.7-3.3-0.6-3.6-1.7L16.7,29.3z M26.9,42.5c4.9-1.2,14-4.6,12.3-12
		c-1.5-6.5-10.3-5-12.2-4.6c-1.2,0.3-2.4,0.6-3.7,1.2L26.9,42.5z"/>
</g>
<g class="st0">
	<path d="M55.3,50.7c0.6,3.6,3.8,5.1,6.7,4.7c2.2-0.4,3.4-1.3,4.5-2.3c1.2-1,1.5-1.6,2.2-1.8c1.4-0.2,3.1,0.7,3.5,2.7
		c0.1,0.9,0,1.5-1,2.3c-2.8,2.3-5.1,3.6-8.5,4.1c-6.9,1.1-13.2-1.1-14.7-10.5c-1.4-8.6,4.1-17.9,11.5-19.1c6.4-1,9.4,1.9,9.9,5.3
		c1.2,7.5-9.8,12.9-14.1,13.6L55.3,50.7z M60.1,36.1c-3.7,0.6-5.4,5-5.3,9.5c5.1-1.3,8.2-5.8,7.8-7.9C62.6,37.1,61.9,35.8,60.1,36.1
		z"/>
</g>
<g class="st0">
	<path d="M80.5,42.5c0.3,3.1,3,4.5,5.4,4.2c1.9-0.2,3-1,3.9-1.7c1-0.8,1.3-1.3,2-1.4c1.2-0.1,2.6,0.7,2.8,2.5
		c0.1,0.8-0.1,1.3-0.9,1.9c-2.5,1.8-4.5,2.8-7.4,3.1c-5.9,0.7-11.1-1.5-12-9.5c-0.8-7.3,4.2-14.9,10.5-15.6c5.4-0.6,7.8,2,8.2,4.9
		c0.7,6.4-8.8,10.5-12.5,10.9L80.5,42.5z M85.2,30.4c-3.1,0.3-4.8,4-4.9,7.8c4.3-0.9,7.2-4.6,7-6.4C87.3,31.4,86.7,30.2,85.2,30.4z"
		/>
</g>
<g class="st0">
	<path d="M122.7,48.8c0.6,0.4,1,0.8,1.1,1.8c0.1,1.2-1.8,2.7-2.5,2.8c-0.8,0-1.4,0.1-2.1-0.4L106,43.6l0.4,9
		c0.1,1.5-1.7,2.5-3.2,2.6c-2.1,0.1-2.7-0.7-2.8-2.1l-1.8-37c-0.1-1.4,1.8-2.4,2.9-2.4c1.7-0.1,3,0.9,3,2l1,21.3l8-7.6
		c0.7-0.6,1-1,2.1-1c2.1-0.1,2.6,1.6,2.7,2.5c0,0.7-0.3,1.2-0.9,1.7l-8.2,7.3L122.7,48.8z"/>
</g>
<g class="st0">
	<path d="M141.5,37.4l0-0.5c0-0.7,0.2-4.9-1.9-4.9s-4.4,1.1-5.1,1.7c-0.4,0.3-1,0.8-2.4,0.8c-1.1,0-2.4-1.4-2.4-1.9
		s-0.3-1.3,1.6-2.2c1.9-0.9,5.1-2.6,8.9-2.5c6.1,0.1,7,5.4,6.9,9.8l-0.1,8.3c0,0.9,0.4,1.3,0.9,1.4c1.1,0,1.9,0.6,1.9,2.1
		c0,1.7-0.3,2.7-3.1,2.6c-2,0-4.2-1.4-4.9-4.2c-1.4,1.9-4.6,3.8-7.8,3.7c-3.7-0.1-7.9-0.7-7.8-5.7c0.1-4.7,5.8-8.8,13.5-8.7
		C140.4,37.3,141.5,37.4,141.5,37.4z M141.5,40.8c0,0-1.1-0.1-1.8-0.1c-4.1-0.1-7.9,2.6-7.9,5.3c0,1.2,1.3,1.6,2.4,1.7
		c3.9,0.1,6.6-2.8,7.3-4.3L141.5,40.8z"/>
</g>
<g class="st0">
	<path d="M162.1,34c2.5-3.2,7-5.5,10.2-5.2c5.8,0.5,8.5,4.1,8,10.2c-0.7,8.8-10.1,17.7-18.2,17.1c-0.5,0-0.9-0.3-1.2-0.6
		c-0.3-0.3-0.5-0.5-0.5-0.5s-2.3,1.5-3.7,1.4c-1.8-0.1-2.6-0.9-2.4-2.6l3.1-39.2c0.1-1.3,2.4-2.2,3.8-2.1c1.8,0.1,2.6,0.9,2.4,2.6
		L162.1,34z M160.9,48.7c-0.1,0.8,0.5,1.9,1.8,2c5,0.4,10.8-6.4,11.2-12.1c0.2-2.5-0.2-4.3-2.2-4.4c-4.1-0.3-8.7,4.7-10.3,7.7
		L160.9,48.7z"/>
</g>
<g class="st0">
	<path d="M193.2,56.1c-6.3-0.9-10.6-5.7-9.5-13.5c1-6.7,7.5-12.7,14-11.7c6.8,1,10.8,6.2,9.7,13.6C206.4,51.9,199.3,56.9,193.2,56.1
		z M197,35.8c-3.5-0.5-6.7,3.6-7.3,7.6c-0.6,4.5,1.1,7.3,4.3,7.8c3.3,0.5,6.8-3.1,7.4-7.6C202.1,39.2,200.6,36.3,197,35.8z"/>
</g>
<g class="st0">
	<path d="M217.1,63.2c-5.7-1.2-9.3-5.7-7.9-12.7c1.2-6,7.5-11.1,13.3-9.9c6.1,1.3,9.5,6.2,8.1,12.9
		C229.3,60.1,222.6,64.3,217.1,63.2z M221.6,45c-3.2-0.6-6.3,2.9-7,6.5c-0.8,4.1,0.6,6.7,3.5,7.3c3,0.6,6.3-2.5,7.1-6.5
		C226,48.4,224.8,45.6,221.6,45z"/>
</g>
<g class="st0">
	<path d="M234.1,67.3c-1.5-0.4-2.9-1.6-2.1-3.9c0.3-1,2.7-2.7,4.2-2.3c1.8,0.5,2.9,1.7,2.1,3.9C238,66.1,235.8,67.8,234.1,67.3z
		 M240.8,56.8c-0.6,1.7-2,1.9-3.5,1.5c-1.6-0.4-2.3-1.4-1.9-2.6l6.8-19.3c0.6-1.7,2.2-1.7,3.6-1.4c2,0.5,2.1,1.5,1.6,2.9L240.8,56.8
		z"/>
</g>
<g class="st0">
	<path d="M65.2,100.6c0-0.8,0.1-0.9,0.8-1.1c0.6-0.2,1.4,0.1,1.6,0.5c0.1,0.3,0,0.5,0,0.8l-1.4,15.5c0,0.5-0.1,1-0.8,1.1
		c-0.2,0.1-0.8,0-1.2-0.5l-8-10.7l-1.6,13.2c-0.1,0.6-0.6,0.9-0.8,1c-0.4,0.1-0.9-0.3-1.2-0.6L43.3,107c-0.2-0.2-0.2-0.3-0.3-0.5
		c-0.1-0.6,0.5-1.1,1-1.3c0.3-0.1,0.7-0.1,1.1,0.4l7.7,10.7l1.5-13c0.1-0.5,0.5-0.8,0.8-0.9c0.3-0.1,0.7-0.1,1.1,0.3l8,10.8
		L65.2,100.6z"/>
</g>
<g class="st0">
	<path d="M73.7,106.9c0.6-1.5,1.8-2.4,2.9-2.6c1.3-0.2,3.4,0.1,4.1,3.5l1,5.2c0.1,0.6-0.4,1-1,1.1c-0.6,0.1-1.3-0.1-1.4-0.6l-1-5.5
		c-0.2-1-0.7-1.8-1.4-1.7c-1,0.2-2.2,2.2-2.5,4l0.8,4.3c0.1,0.5-0.5,1.1-1.1,1.2c-0.6,0.1-1.3-0.2-1.4-0.7l-2.9-15.2
		c-0.1-0.5,0.6-1.2,1.1-1.3c0.8-0.1,1.2,0.2,1.3,0.7L73.7,106.9z"/>
</g>
<g class="st0">
	<path d="M89.3,106.8l0-0.2c0-0.3-0.2-2.1-1.2-1.9c-0.9,0.1-1.8,0.8-2,1.1c-0.1,0.2-0.4,0.4-0.9,0.5c-0.5,0.1-1.1-0.4-1.2-0.7
		c0-0.2-0.2-0.5,0.5-1c0.7-0.5,2-1.4,3.6-1.7c2.6-0.4,3.4,1.8,3.7,3.7l0.5,3.6c0.1,0.4,0.3,0.5,0.5,0.5c0.5-0.1,0.9,0.1,1,0.8
		c0.1,0.7,0.1,1.2-1.1,1.3c-0.8,0.1-1.9-0.3-2.4-1.4c-0.5,0.9-1.7,1.9-3.1,2.1c-1.6,0.2-3.4,0.3-3.7-1.9c-0.3-2,1.8-4.2,5.2-4.7
		C88.8,106.8,89.3,106.8,89.3,106.8z M89.5,108.2c0,0-0.5,0-0.8,0.1c-1.8,0.3-3.2,1.7-3,2.8c0.1,0.5,0.7,0.6,1.1,0.5
		c1.6-0.2,2.6-1.7,2.8-2.4L89.5,108.2z"/>
</g>
<g class="st0">
	<path d="M98.9,107.2c0.1,0.9,0.4,2.6,1.4,2.5c0.4,0,0.6-0.3,1.1-0.8c0.2-0.2,0.3-0.3,0.7-0.3c0.5-0.1,0.9,0.6,0.9,0.9
		c0,0.4,0,0.7-0.4,1c-0.6,0.5-1.1,1-2.4,1.2c-2.3,0.3-3.4-1-3.7-3.6l-0.5-4.2l-0.3,0c-0.2,0-0.5,0.1-0.6,0.2c-0.6,0.1-0.8,0-0.9-0.6
		c-0.1-0.4,0.1-1.2,0.7-1.3l0.9-0.2l-0.4-3.4c-0.1-0.5,0.4-1.1,1.2-1.2c0.9-0.1,1.1,0.2,1.2,0.8l0.4,3.3l1.4-0.3
		c0.2,0,0.2-0.1,0.4-0.1c0.6-0.1,1,0.1,1.1,0.8c0.1,0.5-0.2,1-0.7,1.1l-2,0.4L98.9,107.2z"/>
</g>
<g class="st0">
	<path d="M119.2,108.7c-1,1-2.2,1.3-3.4,1.4c-2.2,0.2-4.3-1-4.5-4.1c-0.2-3.5,1.8-6,4.5-6.2c1-0.1,1.5,0,2.2,0.4
		c0.4,0.3,0.8,0.6,0.8,1.1c-0.1,0.6-0.6,1-1.2,1.1c-0.4,0-0.6-0.3-1-0.7c-0.2-0.1-0.4-0.2-0.7-0.1c-1.9,0.1-2.2,2.5-2.1,4.2
		c0.1,1.8,1.1,2.6,2,2.5c0.9-0.1,1.2-0.6,1.8-0.9c0.4-0.2,0.3-0.2,0.7-0.3c0.3,0,1.2,0.2,1.2,1C119.5,108.3,119.4,108.5,119.2,108.7
		z"/>
</g>
<g class="st0">
	<path d="M127.1,103.4l0-0.2c0-0.3,0-2.1-0.9-2.1c-0.9,0-1.9,0.5-2.1,0.8c-0.2,0.2-0.4,0.4-1,0.4c-0.5,0-1.1-0.6-1.1-0.8
		s-0.1-0.6,0.6-1c0.8-0.4,2.1-1.2,3.8-1.3c2.7-0.1,3.1,2.2,3.2,4.1l0.1,3.6c0,0.4,0.2,0.6,0.4,0.6c0.5,0,0.9,0.2,0.9,0.9
		c0,0.7-0.1,1.2-1.3,1.2c-0.8,0-1.8-0.5-2.2-1.7c-0.6,0.8-1.9,1.7-3.3,1.8c-1.6,0.1-3.4-0.1-3.5-2.3c-0.1-2,2.3-3.9,5.7-4
		C126.6,103.3,127.1,103.4,127.1,103.4z M127.1,104.8c0,0-0.5,0-0.8,0c-1.8,0.1-3.3,1.3-3.3,2.4c0,0.5,0.6,0.7,1.1,0.7
		c1.7-0.1,2.8-1.3,3.1-2L127.1,104.8z"/>
</g>
<g class="st0">
	<path d="M135.8,100.8c0.8-1.1,2.1-1.9,3.4-1.9c1.3,0,3.3,0.9,3.3,4.1l-0.1,5.3c0,0.5-0.8,0.9-1.4,0.9c-0.7,0-1.1-0.3-1.1-0.9
		l0.1-5.6c0-1-0.3-1.9-1.1-1.9c-1.4,0-2.6,1.6-3.2,3.2l0,4.5c0,0.5-0.7,0.9-1.3,0.9s-1.2-0.4-1.2-0.8l0.1-8.6c0-0.6,0.9-1,1.4-1
		c0.8,0,1.1,0.2,1.1,0.9L135.8,100.8z"/>
</g>
<g class="st0">
	<path d="M160.7,101.9c0.5,1.4,1.2,3.9,1.6,5.1c0.7-1.6,2.2-4.5,2.7-5.5c0.2-0.4,0.4-0.7,0.9-0.7c0.8,0.1,1.4,0.7,1.4,1
		c0,0.3-0.1,0.5-0.2,0.6c-0.6,1.1-2.3,4-4.1,7.7c-0.1,0.3-0.7,0.6-1,0.6c-0.5,0-0.8-0.4-0.8-0.8c-0.6-1.7-1.1-3.8-1.7-5.4l-2.3,5
		c-0.2,0.4-0.6,0.7-1,0.6c-0.4,0-0.9-0.5-0.9-0.8c-0.7-2.7-1.2-5.1-2.3-8c-0.1-0.3-0.1-0.3-0.1-0.5c0-0.3,0.6-0.9,1.2-0.8
		c0.6,0.1,0.7,0,0.9,0.6c0.7,1.8,1.3,4.5,1.6,5.8l2.1-4.9c0.2-0.5,0.5-0.6,1.1-0.6c0.6,0.1,1.1,0.4,1,0.8L160.7,101.9z"/>
</g>
<g class="st0">
	<path d="M169.8,108c-0.2,1.3,0.7,2.1,1.7,2.3c0.8,0.1,1.3-0.1,1.7-0.3c0.5-0.2,0.7-0.4,0.9-0.3c0.5,0.1,1,0.6,0.9,1.3
		c0,0.3-0.2,0.5-0.6,0.6c-1.2,0.5-2.1,0.6-3.3,0.5c-2.4-0.4-4.3-1.8-3.8-5c0.4-3,3.2-5.5,5.8-5.1c2.2,0.3,2.9,1.6,2.7,2.8
		c-0.4,2.6-4.6,3.2-6.1,3L169.8,108z M173,103.6c-1.3-0.2-2.3,1.1-2.8,2.6c1.8,0.1,3.3-1.1,3.4-1.8
		C173.7,104.2,173.6,103.7,173,103.6z"/>
</g>
<g class="st0">
	<path d="M194.9,99.9c0.1-0.5,0.9-0.8,1.4-0.6c0.7,0.2,1.1,0.6,0.9,1.2l-3.5,14.8c-0.1,0.5-0.5,1-1.4,0.7c-0.6-0.1-1.2-0.7-1-1.2
		l0.4-1.5c-1.2,1.2-2.9,2-4.1,1.7c-2.2-0.5-3.1-2.1-2.5-4.4c0.8-3.4,4.7-6.4,7.8-5.6c0.3,0.1,0.5,0.1,0.7,0.3L194.9,99.9z
		 M193,107.6c0.1-0.2-0.1-0.7-0.6-0.8c-1.9-0.5-4.3,2.1-4.9,4.3c-0.2,0.9-0.1,1.8,0.6,2c1.6,0.4,3.7-1.8,4.3-3.3L193,107.6z"/>
</g>
<g class="st0">
	<path d="M199.7,118.2c-2.5-0.7-4-2.9-3.1-6.1c0.8-2.7,3.8-4.7,6.4-4c2.7,0.8,4,3.2,3.2,6.1C205.3,117.3,202.1,118.9,199.7,118.2z
		 M202.5,110.2c-1.4-0.4-3,1.1-3.4,2.7c-0.5,1.8,0,3.1,1.3,3.4c1.3,0.4,2.9-0.9,3.5-2.7C204.3,111.9,203.9,110.6,202.5,110.2z"/>
</g>
<g class="st0">
	<path d="M210.2,121.7c-0.7-0.2-1.3-0.8-0.9-1.9c0.2-0.4,1.2-1.2,1.9-0.9c0.8,0.3,1.2,0.9,0.9,1.9
		C211.9,121.3,210.9,122,210.2,121.7z M213.9,114c-0.9,0.2-1.7,0.3-2,1.1c-0.2,0.4,0.1,0.9,0.4,1c0.7,0.2,1.1,0,1.6-0.2
		c0.4-0.1,0.7-0.2,1-0.1c0.4,0.1,0.8,0.8,0.7,1.2c-0.1,0.3-0.2,0.5-0.5,0.6c-1.1,0.5-2,0.9-3.6,0.3c-0.9-0.3-2.6-1.6-1.9-3.6
		c0.6-1.7,2-1.8,3.7-2.2c1.2-0.2,2.5-0.4,2.9-1.6c0.4-1.2-0.8-2.2-1.3-2.3c-0.8-0.3-1.3-0.3-2-0.2c-0.3,0-0.6,0.2-0.8,0.1
		c-0.4-0.1-0.8-0.9-0.6-1.5c0.2-0.5,0.3-0.5,0.8-0.6c1.3-0.2,2-0.1,3.2,0.3c1.1,0.4,4.2,2,3.1,5C217.8,113.4,215.7,113.6,213.9,114z
		"/>
</g>
<g class="st0">
	<path d="M11.6,152.3c2.6,0,4.4,0.1,5.4,2.5c1.5,3.4-0.9,5.8-2.8,6.6c-1.9,0.8-3.2,1-4.9,0.7c-0.5-0.1-0.7-0.4-0.8-0.7
		c-0.2-0.4,0-1.3,0.4-1.5c0.6-0.3,0.8-0.1,1.2-0.1c1.3,0.2,2.2,0.2,3.3-0.2c0.7-0.3,2.2-1.8,1.4-3.7c-0.6-1.4-2-1.4-3.4-1.4l-1.9,0
		c-2.3,0-4.3-0.2-5.3-2.5c-1.5-3.4,1.7-5.5,3.2-6.1c1.2-0.5,2.2-0.7,3.8-0.7c0.5-0.1,0.8,0.3,1,0.6c0.1,0.3,0.1,1.2-0.5,1.4
		c-0.2,0.1-0.4,0.1-0.9,0.1c-1.1,0.1-1.7-0.1-2.6,0.3c-0.7,0.3-2.5,1.6-1.7,3.4c0.5,1.2,1.9,1.2,3.2,1.2L11.6,152.3z"/>
</g>
<g class="st0">
	<path d="M24.1,150.7l-0.1-0.2c-0.1-0.3-0.7-2-1.6-1.6s-1.6,1.1-1.8,1.5c-0.1,0.2-0.3,0.5-0.8,0.7c-0.4,0.2-1.2-0.2-1.3-0.4
		c-0.1-0.2-0.3-0.5,0.3-1.1c0.6-0.7,1.6-1.8,3.2-2.4c2.5-1,3.7,1,4.4,2.8l1.3,3.4c0.1,0.4,0.4,0.5,0.6,0.4c0.4-0.2,0.9-0.1,1.1,0.5
		c0.3,0.7,0.3,1.1-0.8,1.6c-0.8,0.3-1.9,0.1-2.6-0.9c-0.3,1-1.2,2.3-2.5,2.8c-1.5,0.6-3.3,1-4-1c-0.7-1.9,0.9-4.5,4-5.7
		C23.6,150.9,24.1,150.7,24.1,150.7z M24.6,152.1c0,0-0.4,0.1-0.8,0.2c-1.7,0.6-2.7,2.3-2.3,3.4c0.2,0.5,0.8,0.4,1.2,0.3
		c1.6-0.6,2.2-2.2,2.2-2.9L24.6,152.1z"/>
</g>
<g class="st0">
	<path d="M37.3,143.7c-0.5,1.3-0.9,3-1.3,7.7c-0.4,5.1-0.2,8.3-2.5,9c-0.7,0.2-1.5,0.3-2.1,0.2c-0.5-0.1-0.6-0.2-0.8-0.6
		c-0.1-0.4-0.1-1.1,0.8-1.4c0.3-0.1,0.8,0.1,1.2,0c1.2-0.4,1.1-3.3,1.1-5.3c-1.7-2.4-3.6-4.4-5.7-6.6c-0.2-0.2-0.2-0.2-0.3-0.5
		c-0.1-0.3,0.6-1.3,0.9-1.4c0.5-0.2,0.7-0.2,1.2,0.2c1.4,1.5,3.4,4.1,4.3,5.2c0.2-1.5,0.3-4.8,0.5-5.6c0.2-1,0.2-1.2,0.6-2
		c0.1-0.2,0.2-0.3,0.7-0.4c0.5-0.2,1.3,0.3,1.5,0.7C37.4,143.2,37.4,143.3,37.3,143.7z"/>
</g>
<g class="st0">
	<path d="M39.9,150c-0.1-1,0.4-1,0.8-1.1c0.7-0.2,1.5-0.1,1.7,0.4c0,0.1,0,0.2,0.1,0.4l0.2,3.8c0,0.3-0.1,0.7-0.6,0.8
		c-0.8,0.2-1.7,0.2-1.9-0.3c0-0.1,0-0.1-0.1-0.3L39.9,150z"/>
</g>
<g class="st0">
	<path d="M49.5,135.3c0.1,0.2,0.1,0.2,0.1,0.3c0.1,0.5-0.7,1.1-1.4,1.3c-0.3,0.1-0.7-0.2-0.9-0.4l-1.8-3.3c-0.1-0.1-0.1-0.2-0.2-0.4
		c-0.1-0.5,1.1-1.2,1.2-1.2c0.4-0.1,0.8-0.4,1.3,0.5L49.5,135.3z M53.8,134.1c0.1,0.2,0.1,0.2,0.1,0.3c0.1,0.5-0.7,1.1-1.4,1.3
		c-0.3,0.1-0.7-0.2-0.9-0.4l-1.8-3.3c-0.1-0.1-0.1-0.2-0.1-0.4c-0.1-0.5,1.1-1.2,1.2-1.2c0.4-0.1,0.8-0.4,1.3,0.5L53.8,134.1z"/>
</g>
<g class="st0">
	<path d="M56.9,132c-0.3,0-0.5-0.1-0.6-0.8c-0.2-0.9,0.8-1.3,0.8-1.3c1.4-0.6,2.6-0.9,3.1-1c1.5-0.3,6.4-1,7.4,3.1
		c1,4.2-4.2,6.2-6.6,6.8l1.3,5.6c0.1,0.5-0.6,1.2-1.1,1.3c-1.1,0.2-1.2-0.2-1.3-0.6L56.9,132z M60.5,136.9c1.8-0.4,5.1-1.6,4.5-4.3
		c-0.5-2.4-3.7-1.9-4.4-1.7c-0.4,0.1-0.9,0.2-1.4,0.4L60.5,136.9z"/>
</g>
<g class="st0">
	<path d="M69.3,127.4c-0.1-0.5,0.6-1.2,1.1-1.2c0.8-0.1,1.2,0.2,1.3,0.7l2.9,15c0.1,0.6-0.5,1.2-1.1,1.3c-0.7,0.1-1.2-0.2-1.3-0.7
		L69.3,127.4z"/>
</g>
<g class="st0">
	<path d="M79.2,138.3c0.2,1.3,1.3,1.8,2.3,1.6c0.8-0.1,1.2-0.5,1.5-0.8c0.4-0.3,0.5-0.6,0.8-0.6c0.5-0.1,1.1,0.2,1.2,0.9
		c0.1,0.3,0,0.5-0.3,0.8c-1,0.8-1.8,1.3-3,1.5c-2.4,0.4-4.6-0.3-5.2-3.6c-0.5-3,1.3-6.2,3.9-6.7c2.2-0.4,3.3,0.6,3.5,1.8
		c0.5,2.6-3.3,4.5-4.8,4.8L79.2,138.3z M80.8,133.2c-1.3,0.2-1.9,1.8-1.8,3.3c1.8-0.5,2.8-2.1,2.7-2.8
		C81.7,133.6,81.4,133.1,80.8,133.2z"/>
</g>
<g class="st0">
	<path d="M92.4,133.8l0-0.2c0-0.3-0.2-2.1-1.2-2c-0.9,0.1-1.8,0.7-2,1c-0.1,0.2-0.4,0.4-1,0.5c-0.5,0.1-1.1-0.4-1.2-0.7
		c0-0.2-0.2-0.5,0.5-1c0.7-0.5,2-1.4,3.6-1.7c2.6-0.4,3.4,1.8,3.6,3.7l0.5,3.6c0.1,0.4,0.2,0.6,0.5,0.5c0.5-0.1,0.9,0.1,1,0.8
		c0.1,0.7,0.1,1.2-1.1,1.3c-0.8,0.1-1.9-0.3-2.4-1.5c-0.5,0.9-1.7,1.9-3.1,2.1c-1.6,0.2-3.4,0.2-3.7-1.9c-0.3-2,1.9-4.1,5.2-4.6
		C91.9,133.9,92.4,133.8,92.4,133.8z M92.6,135.3c0,0-0.5,0-0.8,0.1c-1.8,0.3-3.2,1.6-3,2.8c0.1,0.5,0.7,0.6,1.1,0.5
		c1.6-0.2,2.6-1.6,2.8-2.3L92.6,135.3z"/>
</g>
<g class="st0">
	<path d="M102.9,132.8c1.6,0.5,2.3,1.1,2.5,2.5c0.2,2-1.5,3.3-3.8,3.5c-1.1,0.1-1.9,0-2.9-0.4c-0.4-0.1-0.6-0.3-0.6-0.8
		c0-0.4,0.3-1.2,0.9-1.2c0.3,0,0.5,0.1,0.7,0.2c0.7,0.3,1.3,0.5,1.8,0.4c0.8-0.1,1.6-0.7,1.5-1.5c-0.1-0.5-0.7-0.7-1.2-0.9l-1.7-0.6
		c-1.3-0.4-2.3-1-2.5-2.5c-0.2-1.9,2.1-2.9,3.2-3c1.2-0.1,2.1-0.1,2.9,0.1c0.6,0.1,0.7,0.3,0.8,0.8c0,0.4-0.3,1.2-1.1,1.2
		c-0.6,0.1-1.3-0.5-2.5-0.4c-0.3,0-1,0.4-0.9,1c0.1,0.6,0.8,0.8,1.1,0.9L102.9,132.8z"/>
</g>
<g class="st0">
	<path d="M109.6,134.3c0.1,1.3,1.2,1.9,2.2,1.8c0.8-0.1,1.2-0.4,1.6-0.7c0.4-0.3,0.6-0.5,0.8-0.6c0.5,0,1.1,0.3,1.1,1
		c0,0.3,0,0.5-0.4,0.8c-1,0.7-1.9,1.1-3.1,1.2c-2.4,0.2-4.6-0.7-4.9-4c-0.3-3,1.9-6.1,4.4-6.3c2.2-0.2,3.2,0.9,3.3,2.1
		c0.2,2.6-3.7,4.2-5.2,4.4L109.6,134.3z M111.7,129.3c-1.3,0.1-2,1.6-2.1,3.2c1.8-0.3,3-1.8,2.9-2.6
		C112.5,129.7,112.3,129.3,111.7,129.3z"/>
</g>
<g class="st0">
	<path d="M130.5,130.9c1.5,0.6,2.2,1.3,2.3,2.7c0.1,2-1.7,3.1-4.1,3.2c-1.1,0-1.9-0.2-2.9-0.6c-0.4-0.2-0.6-0.3-0.6-0.8
		c0-0.4,0.4-1.1,1-1.2c0.3,0,0.5,0.1,0.7,0.2c0.7,0.3,1.3,0.6,1.8,0.6c0.8,0,1.6-0.6,1.6-1.3c0-0.5-0.6-0.8-1.1-1l-1.6-0.7
		c-1.2-0.5-2.3-1.2-2.3-2.7c-0.1-1.9,2.3-2.7,3.5-2.7c1.2,0,2.1,0,2.9,0.4c0.6,0.2,0.7,0.3,0.7,0.8c0,0.4-0.4,1.1-1.2,1.2
		c-0.6,0-1.3-0.6-2.5-0.6c-0.3,0-1,0.3-1,0.9c0,0.6,0.8,0.8,1,1L130.5,130.9z"/>
</g>
<g class="st0">
	<path d="M137.6,127.9c0.9-1.3,2.2-2,3.4-2.1c1.3,0,3.3,0.7,3.4,4.2l0.1,5.3c0,0.6-0.6,0.9-1.2,0.9s-1.2-0.3-1.2-0.9l-0.1-5.5
		c0-1.1-0.4-1.9-1.1-1.9c-1.1,0-2.5,1.7-3.1,3.5l0,4.3c0,0.6-0.6,1-1.2,1c-0.6,0-1.2-0.4-1.2-0.9l-0.2-15.4c0-0.6,0.8-1.1,1.3-1.1
		c0.8,0,1.2,0.4,1.2,0.9L137.6,127.9z"/>
</g>
<g class="st0">
	<path d="M154.3,126.9c0-0.5,0.8-0.9,1.3-0.9c0.6,0,1.1,0.4,1.1,0.9l-0.4,8.8c0,0.6-0.8,1-1.4,0.9c-0.8,0-1.1-0.4-1.1-0.9l0-1.2
		c-1,1.1-2.3,1.9-3.5,1.8c-1.6-0.1-3.3-0.8-3.1-4.1l0.2-5.5c0-0.5,0.8-0.9,1.4-0.8c0.7,0,1.1,0.3,1.1,0.9l-0.2,5.7
		c0,1,0.3,1.8,1,1.8c1.1,0,2.6-1.2,3.3-3L154.3,126.9z"/>
</g>
<g class="st0">
	<path d="M162.6,132.8c-0.1,0.9-0.1,2.6,0.9,2.7c0.4,0,0.6-0.2,1.3-0.6c0.3-0.2,0.4-0.2,0.7-0.2c0.5,0,0.8,0.7,0.7,1
		c0,0.4-0.1,0.7-0.6,0.9c-0.7,0.4-1.3,0.8-2.6,0.7c-2.3-0.2-3.1-1.7-2.9-4.2l0.3-4.3l-0.3,0c-0.2,0-0.5,0-0.7,0
		c-0.6,0-0.8-0.1-0.7-0.8c0-0.4,0.4-1.1,0.9-1.1l0.9,0l0.3-3.4c0-0.5,0.6-1,1.4-0.9c0.9,0.1,1.1,0.4,1,1l-0.2,3.3l1.5,0
		c0.2,0,0.2,0,0.4,0c0.6,0,1,0.3,0.9,1c0,0.5-0.4,0.9-0.9,0.9l-2.1,0L162.6,132.8z"/>
</g>
<g class="st0">
	<path d="M184.2,131.2c-1,0.9-2.1,2.3-4.5,6.3c-2.6,4.4-3.8,7.3-6.2,7c-0.8-0.1-1.4-0.4-1.9-0.7c-0.4-0.3-0.5-0.5-0.4-0.9
		c0.1-0.4,0.4-1.1,1.3-0.9c0.3,0,0.7,0.5,1,0.5c1.3,0.2,2.4-2.5,3.3-4.2c-0.5-2.9-1.3-5.5-2.2-8.5c-0.1-0.3-0.1-0.3,0-0.5
		c0-0.4,1.1-0.9,1.4-0.8c0.5,0.1,0.8,0.1,0.9,0.7c0.6,2,1.3,5.2,1.5,6.5c0.8-1.3,2.4-4.2,2.9-4.7c0.6-0.8,0.7-1,1.4-1.5
		c0.2-0.1,0.3-0.2,0.8-0.1c0.5,0.1,1.1,0.8,1,1.3C184.5,130.9,184.5,130.9,184.2,131.2z"/>
</g>
<g class="st0">
	<path d="M188.4,140.5c-2.6-0.4-4.3-2.5-3.8-5.7c0.5-2.8,3.2-5.1,5.9-4.7c2.8,0.5,4.4,2.7,3.9,5.7
		C193.9,138.9,190.9,140.9,188.4,140.5z M190.2,132.1c-1.5-0.2-2.8,1.4-3.1,3.1c-0.3,1.9,0.4,3,1.7,3.3c1.4,0.2,2.8-1.2,3.1-3.1
		C192.2,133.6,191.6,132.4,190.2,132.1z"/>
</g>
<g class="st0">
	<path d="M204.2,133.5c0.1-0.5,0.9-0.7,1.5-0.6c0.6,0.1,1.1,0.6,0.9,1.1l-1.9,8.6c-0.1,0.6-1,0.8-1.5,0.7c-0.8-0.2-1-0.6-1-1.1
		l0.3-1.2c-1.2,0.9-2.6,1.5-3.8,1.2c-1.5-0.3-3.1-1.4-2.4-4.5l1.2-5.4c0.1-0.5,0.9-0.7,1.5-0.6c0.7,0.1,1,0.5,0.9,1.1l-1.2,5.6
		c-0.2,1-0.1,1.8,0.7,2c1,0.2,2.8-0.7,3.8-2.4L204.2,133.5z"/>
</g>
<g class="st0">
	<path d="M211.6,136.8c1.1-0.9,2.4-1.2,3.6-0.8c0.9,0.2,0.9,0.9,0.8,1.4c-0.2,0.7-0.6,0.9-1.2,0.7c-1.4-0.4-3,0.1-3.9,1.3l-1.2,4.6
		c-0.1,0.5-1.1,0.7-1.6,0.6c-0.8-0.2-0.9-0.7-0.8-1.1l2.2-8.2c0.2-0.6,1.1-0.7,1.6-0.6c1,0.3,1,0.6,0.8,1.1L211.6,136.8z"/>
</g>
<g class="st0">
	<path d="M224.5,145.6c-0.4,1.2,0.3,2.2,1.3,2.5c0.7,0.3,1.3,0.2,1.7,0c0.5-0.1,0.7-0.3,1-0.2c0.5,0.2,0.8,0.7,0.6,1.4
		c-0.1,0.3-0.3,0.5-0.7,0.5c-1.2,0.2-2.2,0.2-3.3-0.2c-2.3-0.8-3.9-2.5-2.8-5.6c1-2.8,4.2-4.8,6.7-3.9c2.1,0.7,2.6,2.1,2.2,3.3
		c-0.9,2.5-5.1,2.3-6.6,1.8L224.5,145.6z M228.4,141.9c-1.2-0.4-2.5,0.6-3.2,2c1.8,0.4,3.5-0.4,3.7-1.1
		C229,142.7,228.9,142.1,228.4,141.9z"/>
</g>
<g class="st0">
	<path d="M242,147.2c-1.2,0.6-2.6,1.7-5.9,5c-3.6,3.6-5.5,6.1-7.8,5.2c-0.7-0.3-1.3-0.7-1.7-1.2c-0.3-0.4-0.3-0.6-0.2-0.9
		c0.2-0.4,0.7-0.9,1.5-0.6c0.3,0.1,0.5,0.6,0.9,0.8c1.2,0.5,3-1.8,4.3-3.3c0.3-3,0.1-5.7-0.1-8.8c0-0.3,0-0.3,0.1-0.5
		c0.1-0.3,1.2-0.6,1.6-0.5c0.5,0.2,0.7,0.3,0.7,0.9c0.1,2,0,5.3-0.1,6.7c1.1-1,3.4-3.4,4-3.9c0.8-0.6,0.9-0.8,1.7-1.1
		c0.2-0.1,0.3-0.1,0.8,0.1c0.4,0.2,0.8,1.1,0.7,1.5C242.4,147,242.4,147,242,147.2z"/>
</g>
<g class="st0">
	<path d="M243.4,153c-0.5,1.2,0.1,2.2,1,2.6c0.7,0.3,1.3,0.3,1.7,0.2c0.5-0.1,0.7-0.2,1-0.1c0.5,0.2,0.8,0.8,0.5,1.5
		c-0.1,0.3-0.3,0.4-0.7,0.5c-1.2,0.1-2.2,0.1-3.3-0.4c-2.2-1-3.6-2.9-2.3-5.9c1.2-2.7,4.6-4.4,7-3.3c2,0.9,2.4,2.3,1.8,3.5
		c-1.1,2.4-5.3,1.9-6.7,1.2L243.4,153z M247.6,149.7c-1.2-0.5-2.5,0.4-3.4,1.7c1.7,0.6,3.5-0.1,3.8-0.8
		C248.1,150.5,248.1,149.9,247.6,149.7z"/>
</g>
<g class="st0">
	<path d="M255.9,156.7c1,1.3,1.3,2.2,0.7,3.5c-0.9,1.8-3,1.9-5.1,0.8c-1-0.5-1.6-1.1-2.2-2c-0.2-0.3-0.3-0.6-0.1-1
		c0.2-0.4,0.9-0.8,1.5-0.5c0.2,0.1,0.4,0.3,0.5,0.5c0.4,0.6,0.8,1.2,1.3,1.4c0.7,0.4,1.7,0.3,2-0.4c0.2-0.5-0.2-1-0.5-1.5l-1.1-1.4
		c-0.8-1.1-1.4-2.1-0.7-3.5c0.9-1.7,3.4-1.2,4.4-0.7c1.1,0.5,1.8,1,2.4,1.7c0.4,0.4,0.4,0.6,0.2,1.1c-0.2,0.3-0.9,0.8-1.6,0.4
		c-0.5-0.3-0.8-1.2-1.9-1.7c-0.3-0.2-1.1-0.2-1.3,0.3c-0.3,0.5,0.3,1.1,0.5,1.3L255.9,156.7z"/>
</g>
<g class="st0">
	<path d="M258.1,164.6c-0.6-0.3-1.1-1-0.6-2c0.2-0.4,1.4-0.9,2-0.5c0.7,0.4,1.1,1.1,0.6,2C259.9,164.5,258.8,165,258.1,164.6z"/>
</g>
<g class="st0">
	<path d="M32.4,167.5c-0.3-0.8,0.4-1.2,1-1.4c0.9-0.3,1.2,0,1.4,0.7l4.6,13.6c0.3,0.8-0.3,1.2-1,1.4c-0.7,0.2-1.2,0.1-1.4-0.5
		L32.4,167.5z"/>
</g>
<g class="st0">
	<path d="M45.2,175.1c0.3,0.8,0.8,2.5,1.8,2.2c0.3-0.1,0.5-0.4,1-1c0.2-0.2,0.3-0.3,0.6-0.4c0.5-0.1,1,0.4,1.1,0.7
		c0.1,0.4,0.1,0.7-0.2,1c-0.5,0.6-0.9,1.2-2.2,1.6c-2.2,0.7-3.5-0.4-4.3-2.9l-1.2-4.1l-0.3,0.1c-0.2,0.1-0.4,0.2-0.6,0.3
		c-0.6,0.2-0.8,0.2-0.9-0.4c-0.1-0.4-0.1-1.2,0.4-1.4l0.9-0.4l-1-3.3c-0.2-0.5,0.2-1.1,1-1.4c0.8-0.3,1.2,0,1.3,0.5l1,3.1l1.4-0.6
		c0.2-0.1,0.2-0.1,0.4-0.2c0.6-0.2,1,0,1.2,0.6c0.1,0.4,0,1-0.5,1.2l-1.9,0.8L45.2,175.1z"/>
</g>
<g class="st0">
	<path d="M47.4,161.8c0-1,0.5-1,0.9-1.1c0.7-0.2,1.5-0.1,1.7,0.4c0,0.1,0,0.2,0.1,0.4l0.1,3.8c0,0.3-0.2,0.7-0.6,0.8
		c-0.7,0.2-1.7,0.1-1.9-0.4c0-0.1-0.1-0.1-0.1-0.3L47.4,161.8z"/>
</g>
<g class="st0">
	<path d="M57.8,170.2c1.6,0.3,2.5,0.8,2.8,2.1c0.5,2-1,3.5-3.2,4.1c-1,0.3-1.9,0.2-3,0c-0.4-0.1-0.6-0.2-0.7-0.7
		c-0.1-0.4,0.1-1.2,0.7-1.4c0.3-0.1,0.5,0,0.7,0.1c0.7,0.2,1.4,0.3,1.9,0.2c0.8-0.2,1.4-0.9,1.3-1.7c-0.1-0.5-0.8-0.6-1.3-0.7
		l-1.8-0.3c-1.3-0.2-2.5-0.6-2.9-2.1c-0.5-1.8,1.7-3.2,2.8-3.5c1.2-0.3,2-0.4,2.9-0.3c0.6,0,0.7,0.2,0.9,0.7
		c0.1,0.4-0.2,1.2-0.9,1.4c-0.6,0.1-1.4-0.3-2.6,0c-0.3,0.1-0.9,0.6-0.8,1.1c0.1,0.6,0.9,0.6,1.2,0.7L57.8,170.2z"/>
</g>
<g class="st0">
	<path d="M71.6,164.2c0.6-1.5,2.1-2.8,3.3-3.1c2.2-0.5,3.7,0.6,4.2,3c0.7,3.4-1.9,7.8-5,8.5c-0.2,0-0.4,0-0.5-0.1
		c-0.2-0.1-0.3-0.1-0.3-0.1s-0.7,0.8-1.3,0.9c-0.7,0.1-1.1-0.1-1.2-0.7l-3.1-15.2c-0.1-0.5,0.7-1.1,1.2-1.2c0.7-0.1,1.1,0.1,1.2,0.7
		L71.6,164.2z M72.7,169.9c0.1,0.3,0.4,0.7,0.9,0.6c1.9-0.4,3.4-3.6,2.9-5.8c-0.2-1-0.5-1.6-1.3-1.4c-1.6,0.3-2.8,2.7-3,4
		L72.7,169.9z"/>
</g>
<g class="st0">
	<path d="M83.9,166.7c0.2,1.3,1.3,1.8,2.3,1.6c0.8-0.1,1.2-0.5,1.6-0.8c0.4-0.3,0.5-0.6,0.8-0.6c0.5-0.1,1.1,0.2,1.2,0.9
		c0.1,0.3,0,0.5-0.3,0.8c-1,0.8-1.8,1.3-3,1.5c-2.4,0.4-4.6-0.3-5.2-3.6c-0.5-3,1.4-6.2,3.9-6.7c2.2-0.4,3.3,0.6,3.5,1.8
		c0.4,2.6-3.4,4.5-4.9,4.8L83.9,166.7z M85.5,161.6c-1.3,0.2-1.9,1.8-1.8,3.3c1.8-0.5,2.8-2.1,2.7-2.8
		C86.3,162,86.1,161.5,85.5,161.6z"/>
</g>
<g class="st0">
	<path d="M96.7,152c-0.1-0.5,0.5-1,1.1-1.1c0.7-0.1,1.2,0.2,1.3,0.8l2.1,15.1c0.1,0.5-0.1,1.1-1,1.2c-0.6,0.1-1.3-0.2-1.4-0.7
		l-0.2-1.6c-0.7,1.6-1.9,2.9-3.2,3c-2.3,0.3-3.6-0.9-3.9-3.2c-0.5-3.5,2.1-7.7,5.3-8.1c0.3,0,0.5,0,0.7,0L96.7,152z M97.7,159.8
		c0-0.2-0.3-0.6-0.8-0.5c-2,0.3-3.3,3.5-3,5.8c0.1,0.9,0.6,1.7,1.3,1.6c1.6-0.2,2.8-3,2.8-4.7L97.7,159.8z"/>
</g>
<g class="st0">
	<path d="M107.2,162.7c0.1,0.9,0.4,2.6,1.3,2.5c0.4,0,0.6-0.3,1.1-0.8c0.2-0.2,0.3-0.3,0.7-0.3c0.5-0.1,0.9,0.6,0.9,0.9
		c0,0.4,0,0.7-0.4,1c-0.6,0.5-1.1,1-2.4,1.1c-2.2,0.2-3.4-1.1-3.6-3.6l-0.5-4.2l-0.3,0c-0.2,0-0.5,0.1-0.6,0.1
		c-0.6,0.1-0.8,0-0.8-0.6c0-0.4,0.1-1.2,0.7-1.3l0.9-0.2l-0.4-3.4c-0.1-0.5,0.4-1.1,1.2-1.2c0.9-0.1,1.1,0.2,1.2,0.8l0.4,3.2
		l1.4-0.3c0.2,0,0.2-0.1,0.4-0.1c0.6-0.1,1,0.2,1.1,0.8c0.1,0.5-0.2,1-0.8,1.1l-2,0.4L107.2,162.7z"/>
</g>
<g class="st0">
	<path d="M113.2,152.8c-0.8,0.1-1.6-0.5-1.6-1.2c-0.1-0.7,0.6-1.5,1.4-1.5c0.9-0.1,1.6,0.5,1.7,1.3
		C114.7,152,114.1,152.7,113.2,152.8z M112.3,156.8c-0.1-0.6,0.3-1.1,1-1.2c0.6-0.1,1.4,0.2,1.4,0.7l0.8,8.8
		c0.1,0.6-0.5,1.1-1.2,1.1c-0.6,0.1-1.2-0.4-1.3-0.8L112.3,156.8z"/>
</g>
<g class="st0">
	<path d="M127.4,164.6c0,0.6-0.6,1-1.2,1c-0.7,0-1.2-0.2-1.2-0.8l-0.3-5.6c0-1-0.2-1.8-1-1.7c-1.3,0.1-2.5,1.8-2.8,3.3l0.2,4.3
		c0,0.6-0.7,1-1.4,1c-0.7,0-1.1-0.3-1.1-0.8l-0.4-8.3c0-0.6,0.8-1.1,1.3-1.1c0.8,0,1.1,0.3,1.1,0.8l0,0.7c0.7-1,1.8-1.8,3.1-1.8
		c1.1-0.1,2.4,0.3,3,1.7c0.7-1,1.9-1.9,3.3-2c1.3-0.1,3.2,0.6,3.4,3.8l0.2,5.2c0,0.5-0.7,1-1.3,1c-0.7,0-1.1-0.2-1.1-0.8l-0.3-5.4
		c0-1-0.3-1.8-1-1.8c-1.3,0.1-2.2,1.8-2.8,3.4L127.4,164.6z"/>
</g>
<g class="st0">
	<path d="M138.7,161.6c0,1.3,1,2,2,2c0.8,0,1.3-0.3,1.7-0.5c0.5-0.3,0.6-0.5,0.9-0.5c0.5,0,1,0.4,1,1.1c0,0.3-0.1,0.5-0.5,0.7
		c-1.1,0.6-2,0.9-3.2,0.9c-2.4,0-4.5-1.1-4.5-4.4c0-3,2.4-5.9,5-5.9c2.2,0,3.1,1.2,3.1,2.4c0,2.7-4.1,3.9-5.6,3.9V161.6z
		 M141.1,156.9c-1.3,0-2.1,1.4-2.3,3c1.8-0.2,3.1-1.5,3.1-2.3C141.9,157.4,141.8,156.9,141.1,156.9z"/>
</g>
<g class="st0">
	<path d="M155.5,153.3c0.1-2,0.6-4.4,3.3-4.2c1.7,0.1,2.5,0.6,3.4,1.2c0.5,0.3,0.5,0.6,0.5,0.9c0,0.5-0.9,1.1-1.3,1.1
		c-0.7,0-0.7-0.2-0.9-0.4c-0.3-0.3-1-0.8-1.6-0.8c-0.7,0-0.9,1.5-0.9,2.4l-0.1,1.9l1.4-0.1c0.3,0,0.5,0,0.7,0c0.6,0,0.8,0.4,0.8,1.1
		c0,0.5-0.4,0.8-0.9,0.9l-2.1,0.1l-0.5,7.6c0,0.3-0.5,0.9-1.4,0.8c-0.6,0-1.1-0.5-1.1-1l0.5-7.3l-0.5,0c0,0-0.4,0.1-0.5,0
		c-0.6,0-0.8-0.3-0.8-0.9c0-0.5,0.2-1,0.7-1l1.1-0.1L155.5,153.3z"/>
</g>
<g class="st0">
	<path d="M165.1,166.6c-2.6-0.3-4.5-2.2-4.2-5.4c0.3-2.8,2.9-5.4,5.6-5.1c2.8,0.3,4.6,2.4,4.2,5.5
		C170.5,164.7,167.6,166.9,165.1,166.6z M166.3,158.2c-1.5-0.2-2.7,1.6-2.9,3.3c-0.2,1.9,0.6,3,1.9,3.2c1.4,0.1,2.7-1.4,2.9-3.3
		C168.5,159.5,167.8,158.3,166.3,158.2z"/>
</g>
<g class="st0">
	<path d="M176.3,159.4c1-1,2.2-1.4,3.5-1.3c0.9,0.1,1,0.7,0.9,1.3c-0.1,0.8-0.5,1-1.1,0.9c-1.5-0.2-3,0.5-3.7,1.8l-0.6,4.7
		c-0.1,0.5-1,0.8-1.5,0.8c-0.8-0.1-1-0.6-0.9-1l1.2-8.4c0.1-0.6,0.9-0.9,1.5-0.8c1,0.1,1,0.5,1,1L176.3,159.4z"/>
</g>
<g class="st0">
	<path d="M198.2,163.5c-1.1,0.8-2.3,2.1-5,5.9c-3,4.1-4.4,7-6.8,6.5c-0.8-0.2-1.4-0.5-1.9-0.9c-0.4-0.4-0.4-0.5-0.4-0.9
		c0.1-0.4,0.5-1,1.4-0.8c0.3,0.1,0.6,0.5,1,0.6c1.3,0.3,2.6-2.3,3.7-4c-0.2-3-0.8-5.6-1.5-8.6c-0.1-0.3-0.1-0.3,0-0.5
		c0.1-0.4,1.1-0.8,1.5-0.7c0.5,0.1,0.8,0.2,0.9,0.8c0.5,2,0.9,5.3,1,6.7c1-1.2,2.7-3.9,3.3-4.5c0.7-0.7,0.8-1,1.5-1.4
		c0.2-0.1,0.3-0.1,0.8,0c0.5,0.1,1,0.9,0.9,1.3C198.6,163.2,198.5,163.2,198.2,163.5z"/>
</g>
<g class="st0">
	<path d="M201.6,173.2c-2.5-0.7-4.1-2.8-3.2-6c0.7-2.7,3.7-4.8,6.3-4.1c2.7,0.7,4.1,3.1,3.3,6.1
		C207.2,172.1,204.1,173.8,201.6,173.2z M204.2,165c-1.4-0.4-2.9,1.1-3.4,2.8c-0.5,1.8,0.1,3.1,1.4,3.4c1.3,0.4,2.9-0.9,3.4-2.8
		C206.1,166.7,205.6,165.4,204.2,165z"/>
</g>
<g class="st0">
	<path d="M218.1,167.8c0.2-0.5,1-0.6,1.5-0.5c0.6,0.2,1,0.7,0.8,1.2l-2.7,8.4c-0.2,0.6-1.1,0.7-1.6,0.5c-0.7-0.2-1-0.7-0.8-1.2
		l0.4-1.1c-1.3,0.8-2.8,1.2-3.9,0.8c-1.5-0.5-2.9-1.7-1.9-4.8l1.7-5.2c0.2-0.5,1-0.6,1.6-0.4c0.7,0.2,1,0.6,0.8,1.2l-1.8,5.4
		c-0.3,1-0.2,1.8,0.5,2c1,0.3,2.9-0.5,4-2L218.1,167.8z"/>
</g>
<g class="st0">
	<path d="M221.7,179.8c-0.7-0.3-1.2-0.9-0.8-1.9c0.2-0.4,1.3-1.1,1.9-0.9c0.8,0.3,1.2,0.9,0.8,1.9
		C223.4,179.4,222.5,180.1,221.7,179.8z M224.8,175.2c-0.3,0.7-0.9,0.8-1.6,0.5c-0.7-0.3-1-0.8-0.8-1.3l3.3-8.6
		c0.3-0.7,1-0.7,1.6-0.5c0.9,0.3,0.9,0.8,0.7,1.4L224.8,175.2z"/>
</g>
<g class="st0">
	<path d="M233,166.2c0.6-0.8,1-0.5,1.4-0.3c0.2,0.1,1.2,0.9,1,1.4c-0.1,0.1-0.1,0.2-0.2,0.3l-2.3,3c-0.2,0.2-0.6,0.4-0.9,0.2
		c-0.7-0.3-1.4-1-1.2-1.5c0-0.1,0-0.1,0.1-0.3L233,166.2z M237.1,168c0.6-0.8,1-0.5,1.4-0.3c0.2,0.1,1.2,0.9,1,1.4
		c-0.1,0.1-0.1,0.2-0.2,0.3l-2.3,3c-0.2,0.2-0.6,0.4-0.9,0.2c-0.7-0.3-1.4-1-1.2-1.5c0-0.1,0-0.1,0.1-0.3L237.1,168z"/>
</g>
</svg>
