<?xml version="1.0" encoding="utf-8"?>
<!-- Generator: Adobe Illustrator 22.1.0, SVG Export Plug-In . SVG Version: 6.00 Build 0)  -->
<svg version="1.1" id="Capa_1" xmlns="http://www.w3.org/2000/svg" xmlns:xlink="http://www.w3.org/1999/xlink" x="0px" y="0px"
	 viewBox="0 0 188.5 131.6" style="enable-background:new 0 0 188.5 131.6;" xml:space="preserve">
<style type="text/css">
	.st0{enable-background:new    ;}
</style>
<title>TEX_TEXT_1030B</title>
<g class="st0">
	<path d="M7.4,29.7c0,1.5,0.1,4.4,1.7,4.5c0.6,0,1.1-0.4,2-1.1c0.4-0.3,0.6-0.4,1.2-0.4c0.8,0,1.4,1.2,1.4,1.7
		c0,0.7-0.2,1.1-0.9,1.5c-1.1,0.7-2.1,1.4-4.3,1.4c-3.8,0-5.4-2.5-5.4-6.8l0.1-7.2l-0.6,0c-0.3,0-0.8,0.1-1.1,0.1
		c-1,0-1.3-0.1-1.3-1.2c0-0.7,0.5-1.9,1.4-2l1.6-0.1l0.1-5.8c0-0.9,1-1.7,2.3-1.7c1.5,0,1.9,0.6,1.9,1.5l-0.1,5.5l2.5-0.2
		c0.3,0,0.4-0.1,0.7-0.1c1.1,0,1.7,0.5,1.7,1.6c0,0.8-0.5,1.6-1.5,1.7l-3.5,0.3L7.4,29.7z"/>
</g>
<g class="st0">
	<path d="M21.6,22.8c1.6-1.9,3.8-2.8,6.1-2.7c1.6,0.1,1.9,1.2,1.8,2.2c-0.1,1.4-0.8,1.8-1.9,1.7c-2.6-0.2-5.2,1.3-6.3,3.6L20.7,36
		c-0.1,0.9-1.6,1.6-2.6,1.5c-1.5-0.1-1.8-0.9-1.8-1.7l1.1-15.1c0.1-1,1.6-1.7,2.6-1.6c1.8,0.1,1.9,0.7,1.8,1.7L21.6,22.8z"/>
</g>
<g class="st0">
	<path d="M45.4,22.1c0.1-0.9,1.6-1.5,2.7-1.4c1.1,0.2,2.1,1,1.9,1.9L47.7,39c-0.2,1.1-1.7,1.6-2.7,1.5c-1.4-0.2-2-1-1.9-1.9l0.3-2.2
		c-2.1,1.8-4.7,3.1-6.9,2.8c-2.9-0.4-5.9-2.1-5-8.2l1.5-10.2c0.1-0.9,1.6-1.5,2.8-1.3c1.3,0.2,2,0.7,1.8,1.9l-1.5,10.6
		c-0.3,1.9,0.1,3.4,1.5,3.6c2,0.3,5.2-1.8,6.8-4.9L45.4,22.1z"/>
</g>
<g class="st0">
	<path d="M69.7,44.1c-0.3,1.1-1.7,1.5-2.9,1.2c-1.3-0.3-2.1-1.1-1.9-2.2l2.7-10.8c0.5-1.9,0.6-3.5-0.9-3.8c-2.5-0.6-5.7,2-7.2,4.7
		l-2,8.3c-0.3,1.1-1.9,1.4-3.1,1.1c-1.2-0.3-1.9-1.1-1.6-2.2l3.9-15.9c0.3-1.2,2.2-1.6,3.1-1.3c1.6,0.4,1.9,1.1,1.6,2.1l-0.3,1.3
		c2-1.5,4.5-2.3,7-1.7c2,0.5,4.3,1.9,4.8,4.9c2-1.5,4.6-2.5,7.3-1.9c2.6,0.6,5.8,2.9,4.3,9.1L82,46.9c-0.3,1-1.9,1.4-3.1,1.1
		c-1.3-0.3-2-1-1.7-2.2l2.6-10.4c0.5-1.9,0.4-3.6-1-3.9c-2.5-0.6-5.2,2.2-7.2,4.8L69.7,44.1z"/>
</g>
<g class="st0">
	<path d="M97.2,36.1c2.8-2.2,6.1-2.8,8.6-1.9c4.5,1.6,5.8,4.8,4.1,9.6c-2.4,6.7-11.1,12-17.3,9.8c-0.5-0.2-0.9-0.4-1.3-0.7l-3.2,9
		c-0.4,1.1-1.8,1.4-3,1c-1.2-0.4-2.1-1.7-1.7-2.7L93.2,32c0.4-1,2-1.5,3.2-1.1c1.6,0.6,2,1.6,1.7,2.5L97.2,36.1z M93,47.9
		c0,0.5,0,1.4,1.1,1.8c3.9,1.4,9.4-3.2,10.9-7.5c0.7-1.9,0.8-3.5-0.7-4.1c-2.9-1-7.6,2.5-9.3,4.4L93,47.9z"/>
</g>
<g class="st0">
	<path d="M115.6,53.1c-1.1,2.6,0.3,4.8,2.4,5.7c1.5,0.7,2.7,0.5,3.8,0.3c1.1-0.1,1.6-0.5,2.1-0.2c1,0.4,1.7,1.7,1.1,3.1
		c-0.3,0.6-0.6,1-1.5,1.1c-2.7,0.3-4.7,0.2-7.1-0.8c-4.9-2.1-8-6-5.2-12.6c2.5-6,9.8-9.8,15-7.6c4.5,1.9,5.2,4.9,4.2,7.4
		c-2.2,5.3-11.4,4.3-14.4,3L115.6,53.1z M124.5,45.7c-2.6-1.1-5.5,1-7.2,3.9c3.8,1.2,7.6-0.4,8.2-1.9
		C125.7,47.4,125.7,46.2,124.5,45.7z"/>
</g>
<g class="st0">
	<path d="M139.8,61.7c-0.9,1.8-2.5,5.4-0.5,6.4c0.7,0.4,1.5,0.1,3.1-0.1c0.7-0.1,1-0.1,1.7,0.3c1,0.5,1,2.2,0.7,2.8
		c-0.4,0.8-0.9,1.3-1.9,1.4c-1.7,0.2-3.4,0.5-6-0.8c-4.6-2.3-5.1-6.2-2.6-11.4l4.3-8.7l-0.7-0.3c-0.4-0.2-1.1-0.3-1.4-0.5
		c-1.2-0.6-1.5-0.9-0.9-2.2c0.4-0.9,1.7-2.1,2.9-1.6l2,0.7l3.4-7c0.5-1.1,2.1-1.5,3.8-0.7c1.8,0.9,1.9,1.8,1.4,2.9l-3.3,6.7l3.1,1.2
		c0.4,0.1,0.5,0.1,0.9,0.3c1.3,0.7,1.8,1.6,1.1,2.9c-0.5,0.9-1.5,1.6-2.8,1.1l-4.4-1.7L139.8,61.7z"/>
</g>
<g class="st0">
	<path d="M173.9,69c-3.1,1-6.7,3.2-15.4,9.8c-9.6,7.3-14.9,12.6-19.8,9.8c-1.6-0.9-2.8-2.1-3.6-3.3c-0.6-1.1-0.6-1.5-0.2-2.2
		c0.5-0.9,1.8-2,3.7-0.9c0.6,0.3,1,1.6,1.8,2.1c2.6,1.5,7.5-3.3,11-6.3c1.6-6.8,2.1-13.2,2.6-20.5c0.1-0.7,0.1-0.7,0.4-1.2
		c0.4-0.7,3.1-1,3.9-0.5c1,0.6,1.6,0.9,1.4,2.4c-0.4,4.8-1.7,12.5-2.4,15.7c3-2.1,9-7,10.5-7.9c2-1.1,2.4-1.6,4.4-2.1
		c0.6-0.1,0.8-0.1,1.8,0.5c1,0.6,1.6,2.8,1.1,3.6C174.9,68.6,174.7,68.7,173.9,69z"/>
</g>
<g class="st0">
	<path d="M10.5,76.3c-0.2,1.4-0.4,4.4,1.2,4.6c0.6,0.1,1.1-0.3,2.1-0.8c0.4-0.2,0.6-0.3,1.3-0.2c0.8,0.1,1.2,1.3,1.2,1.8
		c-0.1,0.7-0.3,1.1-1,1.4c-1.2,0.6-2.3,1.2-4.4,0.9c-3.8-0.5-5.1-3.1-4.6-7.3l0.9-7.1l-0.6-0.1c-0.3,0-0.8,0-1.1,0
		c-1-0.1-1.3-0.3-1.1-1.3c0.1-0.7,0.7-1.9,1.6-1.8l1.6,0l0.7-5.7c0.1-0.9,1.1-1.6,2.5-1.4c1.5,0.2,1.8,0.8,1.7,1.7l-0.7,5.5l2.5,0.1
		c0.3,0,0.4,0,0.7,0c1.1,0.1,1.6,0.6,1.5,1.8c-0.1,0.8-0.7,1.5-1.7,1.5l-3.5-0.1L10.5,76.3z"/>
</g>
<g class="st0">
	<path d="M25.4,70.9c1.8-1.7,4.1-2.4,6.3-2c1.6,0.3,1.8,1.4,1.6,2.4c-0.2,1.4-1,1.7-2.1,1.5c-2.6-0.5-5.3,0.7-6.6,2.9L23,84
		c-0.2,0.9-1.8,1.4-2.8,1.3c-1.4-0.3-1.7-1.1-1.6-1.9l2.7-14.9c0.2-1,1.8-1.5,2.7-1.3c1.8,0.3,1.8,0.9,1.6,1.9L25.4,70.9z"/>
</g>
<g class="st0">
	<path d="M49.2,72.7c0.2-0.9,1.8-1.3,2.8-1.1c1.1,0.3,1.9,1.2,1.7,2.1l-4.1,16c-0.3,1.1-1.9,1.4-2.9,1.2c-1.4-0.4-1.9-1.2-1.7-2.1
		l0.6-2.2c-2.3,1.6-5.1,2.5-7.2,2c-2.9-0.7-5.7-2.8-4.1-8.7l2.6-10c0.2-0.9,1.7-1.3,2.9-1c1.3,0.3,1.9,1,1.6,2.1l-2.7,10.4
		c-0.5,1.8-0.2,3.4,1.1,3.8c1.9,0.5,5.3-1.2,7.3-4.2L49.2,72.7z"/>
</g>
<g class="st0">
	<path d="M70.1,96.8c-0.4,1-1.9,1.3-3,0.9c-1.3-0.5-2-1.3-1.6-2.4l3.8-10.4c0.7-1.8,0.9-3.4-0.5-3.9c-2.5-0.9-5.9,1.4-7.7,3.9
		l-2.9,8c-0.4,1-2,1.2-3.2,0.8c-1.2-0.4-1.8-1.3-1.4-2.3l5.6-15.4c0.4-1.1,2.3-1.3,3.2-1c1.6,0.6,1.8,1.3,1.4,2.3l-0.5,1.3
		c2.1-1.3,4.7-1.8,7.1-1c2,0.7,4.1,2.3,4.3,5.3c2.1-1.3,4.8-2,7.5-1.1c2.5,0.9,5.5,3.5,3.3,9.5l-3.5,9.6c-0.4,1-2,1.2-3.2,0.8
		c-1.3-0.5-1.8-1.2-1.4-2.4l3.7-10.1c0.7-1.8,0.8-3.5-0.6-4c-2.4-0.9-5.4,1.7-7.7,4.1L70.1,96.8z"/>
</g>
<g class="st0">
	<path d="M97.3,91.2c3-2,6.4-2.2,8.8-1.1c4.3,2,5.4,5.3,3.2,10c-3,6.5-12.3,10.9-18.2,8.1c-0.5-0.2-0.9-0.5-1.2-0.8l-4,8.7
		c-0.5,1.1-2,1.2-3.1,0.7c-1.1-0.5-1.9-1.9-1.5-2.9l12.6-27.2c0.5-1,2.1-1.3,3.3-0.8c1.5,0.7,1.9,1.8,1.4,2.7L97.3,91.2z M92,102.5
		c-0.1,0.5-0.1,1.4,0.9,1.9c3.7,1.7,9.7-2.3,11.6-6.5c0.8-1.8,1.1-3.5-0.4-4.1c-2.8-1.3-7.8,1.7-9.7,3.5L92,102.5z"/>
</g>
<g class="st0">
	<path d="M109.8,117.2c-1.3-0.7-2.4-2.2-1.3-4.4c0.5-0.9,3-2.1,4.3-1.4c1.6,0.8,2.4,2.3,1.3,4.4C113.6,116.8,111.3,118,109.8,117.2z
		 M117.7,108.1c-0.8,1.5-2.1,1.5-3.5,0.7c-1.4-0.8-1.9-1.9-1.4-3l9.5-17.7c0.8-1.5,2.4-1.2,3.6-0.6c1.7,0.9,1.7,1.9,1.1,3.2
		L117.7,108.1z"/>
</g>
</svg>
