<?xml version="1.0" encoding="utf-8"?>
<!-- Generator: Adobe Illustrator 22.1.0, SVG Export Plug-In . SVG Version: 6.00 Build 0)  -->
<svg version="1.1" id="Capa_1" xmlns="http://www.w3.org/2000/svg" xmlns:xlink="http://www.w3.org/1999/xlink" x="0px" y="0px"
	 viewBox="0 0 154.4 98.2" style="enable-background:new 0 0 154.4 98.2;" xml:space="preserve">
<style type="text/css">
	.st0{enable-background:new    ;}
</style>
<title>TEX_TEXT_1060D</title>
<g class="st0">
	<path d="M21.5,6.9c-0.1-0.7,0.7-1.2,1.5-1.3c0.9-0.1,1.4,0.5,1.4,1l1.4,17.4c0.1,0.6-0.2,1.1-1,1.2c-0.3,0-0.7-0.1-1.1-0.4
		L9.1,11.5l1.1,13.3c0.1,0.7-0.7,1.3-1.5,1.4c-0.9,0.1-1.3-0.2-1.4-1L5.9,7.7c0-0.5,0.5-1.1,1.1-1.1c0.4,0,0.9,0.1,1.1,0.4l14.5,13
		L21.5,6.9z"/>
</g>
<g class="st0">
	<path d="M30.8,8.5c-0.9,0-1.8-0.7-1.9-1.5c0-0.9,0.8-1.7,1.7-1.7c1-0.1,1.8,0.6,1.9,1.5C32.5,7.7,31.8,8.5,30.8,8.5z M29.5,13.2
		c0-0.7,0.4-1.3,1.2-1.3c0.8,0,1.6,0.3,1.6,0.9l0.5,10.3c0,0.7-0.6,1.2-1.4,1.3c-0.7,0-1.4-0.6-1.5-0.9L29.5,13.2z"/>
</g>
<g class="st0">
	<path d="M43.1,11.4c0.4,0,0.8,0.1,0.8,0.1l0-0.1c0-0.3,0.6-0.7,1.5-0.7c0.8,0,1.4,0.5,1.4,1.1l0.1,6.2c0.1,3.9,0.4,3.4,0.4,6.5
		c0.1,2.6-2,5.9-5.7,6c-2.9,0.1-5.2-1.3-6.3-2.6c-0.2-0.3-0.3-0.3-0.3-0.8c0-0.5,1-1.2,1.4-1.2c0.6,0,0.6,0,0.9,0.3
		c0.7,0.6,1.8,2,4.1,2c2.6-0.1,3.1-2.6,3.1-3.7c0-0.9-0.2-2.1-0.3-3.2c-1.3,1.8-2.8,3.1-4.5,3.1c-2.6,0.1-4.1-1.2-4.1-4.3
		C35.5,16,39.4,11.5,43.1,11.4z M44,14.2c-0.1-0.2-0.3-0.5-0.9-0.5c-2.3,0-4.6,3.7-4.5,6.3c0,1.1,0.2,2.1,1.2,2
		c1.9,0,3.8-3.1,4.3-4.9L44,14.2z"/>
</g>
<g class="st0">
	<path d="M53.8,14c1.1-1.5,2.7-2.3,4-2.3c1.6,0,3.9,0.9,3.8,5l-0.1,6.2c0,0.7-0.7,1.1-1.5,1.1s-1.4-0.4-1.4-1.1l0.1-6.5
		c0-1.2-0.4-2.2-1.2-2.2c-1.2,0-3,2-3.8,4l-0.1,5.1c0,0.6-0.8,1.1-1.5,1.1c-0.7,0-1.4-0.5-1.4-1.1l0.2-18.1c0-0.6,0.9-1.3,1.5-1.3
		c0.9,0,1.4,0.5,1.3,1.1L53.8,14z"/>
</g>
<g class="st0">
	<path d="M68.8,19.2c0,1,0,3.1,1.1,3.1c0.4,0,0.7-0.3,1.4-0.7c0.3-0.2,0.4-0.2,0.9-0.2c0.6,0,0.9,0.8,0.9,1.2c0,0.5-0.1,0.8-0.6,1
		c-0.8,0.5-1.5,1-3,0.9c-2.7-0.1-3.7-1.8-3.6-4.8l0.2-5l-0.4,0c-0.2,0-0.6,0.1-0.8,0.1c-0.7,0-0.9-0.1-0.9-0.9c0-0.5,0.4-1.3,1-1.4
		l1.1-0.1l0.2-4c0-0.6,0.7-1.2,1.6-1.1c1,0,1.3,0.5,1.3,1.1l-0.2,3.8l1.7-0.1c0.2,0,0.3,0,0.5,0c0.8,0,1.2,0.4,1.1,1.1
		c0,0.5-0.4,1.1-1.1,1.1L69,14.6L68.8,19.2z"/>
</g>
<g class="st0">
	<path d="M81.2,16.7c0.1,0,0.3,0,0.4,0c0.7,0,1,0.9,1,1.4c0,0.5-0.6,0.9-1.2,0.9L75,18.9c-0.1,0-0.2,0-0.3,0c-0.6,0-1-0.8-1-1.2
		c0-0.5,0.5-1.1,1.2-1.1L81.2,16.7z"/>
</g>
<g class="st0">
	<path d="M88.1,15.5c1-1.2,2.6-2.1,4.1-2c1.6,0.1,3.8,1.3,3.5,5.1l-0.5,6.2c0,0.6-1,1-1.7,0.9c-0.8-0.1-1.3-0.4-1.2-1.1l0.5-6.6
		c0.1-1.2-0.2-2.2-1.1-2.3c-1.6-0.1-3.2,1.7-4,3.5l-0.4,5.3c0,0.6-0.8,1-1.6,1c-0.7-0.1-1.4-0.5-1.3-1l0.8-10.1c0.1-0.7,1.1-1,1.7-1
		c1,0.1,1.2,0.4,1.2,1.1L88.1,15.5z"/>
</g>
<g class="st0">
	<path d="M100,15.1c0.1-0.7,0.6-1.2,1.4-1.1c0.8,0.1,1.5,0.5,1.5,1.1l-1,10.3c-0.1,0.7-0.8,1.1-1.6,1c-0.7-0.1-1.3-0.8-1.3-1.2
		L100,15.1z M102,10.7c-0.9-0.1-1.7-0.9-1.6-1.8c0.1-0.9,1-1.5,1.9-1.5c1,0.1,1.7,0.9,1.6,1.8C103.8,10.2,103,10.8,102,10.7z"/>
</g>
<g class="st0">
	<path d="M114,15.3c0.4,0.1,0.8,0.2,0.8,0.2l0-0.1c0-0.3,0.7-0.6,1.5-0.5c0.8,0.1,1.3,0.7,1.3,1.3l-0.8,6.1
		c-0.5,3.8-0.1,3.4-0.5,6.5c-0.3,2.6-2.8,5.6-6.5,5.1c-2.9-0.4-4.9-2-5.8-3.5c-0.2-0.3-0.2-0.4-0.2-0.8c0.1-0.5,1.1-1.1,1.6-1
		c0.6,0.1,0.6,0.1,0.8,0.4c0.6,0.7,1.5,2.3,3.7,2.5c2.6,0.3,3.4-2.2,3.6-3.3c0.1-0.9,0.1-2.1,0.2-3.2c-1.5,1.6-3.2,2.6-4.9,2.4
		c-2.6-0.3-3.9-1.8-3.5-4.8C105.8,18.8,110.3,14.8,114,15.3z M114.4,18.1c-0.1-0.2-0.2-0.6-0.8-0.6c-2.3-0.3-5.1,3-5.4,5.6
		c-0.1,1.1-0.1,2.1,0.9,2.2c1.9,0.2,4.2-2.6,5-4.2L114.4,18.1z"/>
</g>
<g class="st0">
	<path d="M124.2,19.4c1.3-1.4,3-2,4.3-1.8c1.5,0.2,3.7,1.4,3.1,5.5l-0.9,6.1c-0.1,0.7-0.9,1-1.6,0.8c-0.7-0.1-1.4-0.6-1.3-1.3l1-6.4
		c0.2-1.2-0.1-2.3-0.9-2.4c-1.2-0.2-3.3,1.5-4.3,3.4l-0.8,5c-0.1,0.6-0.9,1-1.6,0.9c-0.7-0.1-1.3-0.7-1.2-1.3l2.7-17.9
		c0.1-0.6,1.1-1.1,1.7-1c0.9,0.1,1.3,0.7,1.2,1.2L124.2,19.4z"/>
</g>
<g class="st0">
	<path d="M138.2,26.6c-0.2,1-0.4,3,0.7,3.2c0.4,0.1,0.8-0.2,1.5-0.5c0.3-0.1,0.5-0.2,0.9-0.1c0.6,0.1,0.8,0.9,0.7,1.3
		c-0.1,0.5-0.2,0.8-0.8,1c-0.8,0.3-1.6,0.7-3.1,0.5c-2.6-0.5-3.4-2.3-2.9-5.2l0.8-4.9l-0.4-0.1c-0.2,0-0.6,0-0.8,0
		c-0.7-0.1-0.9-0.2-0.7-1c0.1-0.5,0.5-1.3,1.2-1.2l1.1,0.1l0.7-3.9c0.1-0.6,0.8-1.1,1.8-0.9c1,0.2,1.2,0.6,1.1,1.2l-0.7,3.8l1.7,0.1
		c0.2,0,0.3,0,0.5,0c0.7,0.1,1.1,0.5,1,1.3c-0.1,0.5-0.5,1-1.2,1L139,22L138.2,26.6z"/>
</g>
<g class="st0">
	<path d="M145.3,31.2c0.5-1.1,1-0.8,1.5-0.7c0.8,0.1,1.6,0.7,1.5,1.3c0,0.2-0.1,0.3-0.1,0.4l-1.9,4c-0.2,0.3-0.5,0.6-1,0.5
		c-0.9-0.2-1.9-0.7-1.8-1.3c0-0.1,0-0.1,0.1-0.3L145.3,31.2z"/>
</g>
<g class="st0">
	<path d="M13.6,47.1c0.1,0,0.2-0.1,0.4-0.1c0.8-0.1,1.3,0.5,1.4,1.2c0.1,0.7-0.4,1.1-1.1,1.2l-7,1.2l0.7,6.6
		c0.1,0.8-0.7,1.5-1.5,1.5C5.2,58.9,5,58.3,5,57.7L3.4,42.1c-0.2-0.2-0.5-0.7-0.5-1c-0.1-0.8,0.3-1.1,1-1.2l7.9-1.2
		c0.4-0.1,0.7-0.1,1-0.2c0.8-0.1,1.4,0.3,1.4,1c0.1,1-0.4,1.2-1.1,1.3l-6.8,1.1L7,48.3L13.6,47.1z"/>
</g>
<g class="st0">
	<path d="M17.6,38.8c0-0.6,0.9-1.3,1.5-1.3c0.9-0.1,1.3,0.4,1.4,1l1.3,17.9c0.1,0.7-0.8,1.3-1.4,1.3c-0.8,0.1-1.4-0.3-1.5-1
		L17.6,38.8z"/>
</g>
<g class="st0">
	<path d="M32.6,45.3c0-0.6,0.8-1.1,1.5-1.2c0.7,0,1.4,0.3,1.4,0.9L36,55.4c0,0.7-0.9,1.2-1.5,1.2c-0.9,0.1-1.4-0.4-1.4-0.9L33,54.4
		c-1.1,1.4-2.5,2.5-3.9,2.5c-1.8,0.1-3.9-0.6-4.1-4.4l-0.4-6.4c0-0.6,0.8-1.1,1.5-1.1c0.8,0,1.3,0.2,1.3,0.9l0.4,6.7
		c0.1,1.2,0.5,2.1,1.4,2c1.2-0.1,2.9-1.7,3.5-3.8L32.6,45.3z"/>
</g>
<g class="st0">
	<path d="M40,42c-0.1-2.3,0.3-5.2,3.4-5.3c2,0,3,0.5,4.1,1.1c0.6,0.3,0.7,0.7,0.7,1c0,0.6-0.9,1.4-1.4,1.4c-0.8,0-0.8-0.2-1.1-0.4
		c-0.3-0.3-1.2-0.8-2-0.8c-0.9,0-0.9,1.9-0.8,2.9l0,2.2l1.7-0.2c0.3,0,0.5-0.1,0.8-0.1c0.7,0,1,0.4,1,1.2c0,0.6-0.3,1-1,1.1L43,46.4
		l0.2,8.9c0,0.4-0.5,1.1-1.5,1.1c-0.6,0-1.4-0.5-1.4-1l-0.2-8.5l-0.5,0c0,0-0.4,0.1-0.5,0.1c-0.7,0-1-0.3-1-1c0-0.6,0.1-1.2,0.7-1.2
		l1.3-0.2L40,42z"/>
</g>
<g class="st0">
	<path d="M50.6,41.9c0-2.3,0.4-5.2,3.5-5.2c2,0,3,0.6,4.1,1.2c0.6,0.3,0.6,0.7,0.6,1c0,0.6-0.9,1.4-1.4,1.4c-0.8,0-0.8-0.2-1.1-0.4
		c-0.3-0.3-1.2-0.9-1.9-0.9c-0.9,0-0.9,1.8-0.9,2.9v2.2l1.7-0.2c0.3,0,0.5-0.1,0.8-0.1c0.7,0,1,0.4,1,1.2c0,0.6-0.4,1-1,1.1
		l-2.4,0.3v8.9c0,0.4-0.5,1.1-1.5,1.1c-0.6,0-1.4-0.5-1.4-1v-8.5h-0.5c0,0-0.4,0.1-0.5,0.1c-0.7,0-1-0.3-1-1c0-0.6,0.2-1.2,0.7-1.2
		l1.3-0.1V41.9z"/>
</g>
<g class="st0">
	<path d="M70.1,46.8c-1.1,1.2-2.2,3-4.4,7.9c-2.5,5.4-3.6,9-6.4,8.9c-0.9,0-1.7-0.3-2.4-0.6c-0.5-0.4-0.6-0.5-0.6-0.9
		c0-0.5,0.3-1.3,1.4-1.3c0.3,0,0.8,0.5,1.3,0.5c1.5,0,2.5-3.2,3.3-5.4c-0.9-3.4-2.2-6.3-3.7-9.6c-0.1-0.3-0.1-0.3-0.1-0.6
		c0-0.4,1.1-1.2,1.6-1.2c0.6,0,0.9,0,1.2,0.7c1,2.2,2.2,5.9,2.6,7.4c0.8-1.6,2.3-5.1,2.8-5.9c0.6-1,0.7-1.3,1.5-1.9
		c0.2-0.2,0.3-0.2,0.9-0.2s1.4,0.8,1.4,1.3C70.4,46.4,70.4,46.5,70.1,46.8z"/>
</g>
<g class="st0">
	<path d="M97.8,57.5c-1.2,0.4-2.6,0.8-5.3,0.6c-6.1-0.5-11.1-4.7-10.6-10.8c0.4-5.4,5.2-9.4,11.6-8.9c2.9,0.2,4.1,0.8,5.4,1.4
		c0.7,0.4,0.9,0.8,0.9,1.3c0,0.6-0.8,1.3-1.5,1.2c-0.4,0-0.6-0.2-1.2-0.4c-1.3-0.6-1.8-1.1-3.8-1.2c-4.6-0.3-8.2,2.9-8.5,6.9
		c-0.3,4.5,3.8,8,7.8,8.3c1.6,0.1,2.1-0.1,3.6-0.6c0.4-0.1,0.8-0.3,1.1-0.3c0.9,0.1,1.4,0.8,1.4,1.4C98.8,57,98.5,57.2,97.8,57.5z"
		/>
</g>
<g class="st0">
	<path d="M105.4,49.2c1.2-1.4,2.9-2.1,4.2-1.9c1.5,0.2,3.8,1.3,3.3,5.3l-0.7,6.1c-0.1,0.7-0.8,1-1.5,0.9c-0.7-0.1-1.4-0.5-1.3-1.2
		l0.7-6.4c0.1-1.2-0.1-2.3-1-2.3c-1.2-0.1-3.2,1.7-4.1,3.6l-0.6,5c-0.1,0.6-0.9,1-1.6,1c-0.7-0.1-1.3-0.6-1.3-1.2l2-17.9
		c0.1-0.6,1.1-1.2,1.7-1.1c0.9,0.1,1.3,0.6,1.2,1.2L105.4,49.2z"/>
</g>
<g class="st0">
	<path d="M117.1,49.1c0.1-0.7,0.6-1.2,1.5-1.1c0.8,0.1,1.5,0.5,1.4,1.2l-1.4,10.2c-0.1,0.7-0.8,1.1-1.6,1c-0.7-0.1-1.3-0.8-1.3-1.2
		L117.1,49.1z M119.2,44.7c-0.9-0.1-1.7-1-1.6-1.8c0.1-0.9,1.1-1.5,2-1.4c1,0.1,1.7,0.9,1.6,1.9C121.1,44.3,120.2,44.9,119.2,44.7z"
		/>
</g>
<g class="st0">
	<path d="M130.4,61.2c-1.4,0.9-2.8,1-4.3,0.8c-2.6-0.4-4.7-2.2-4.2-5.8c0.6-4.1,3.5-6.5,6.7-6c1.1,0.2,1.7,0.4,2.4,1
		c0.4,0.4,0.8,0.9,0.6,1.5c-0.2,0.6-0.9,1-1.6,0.9c-0.4-0.1-0.6-0.5-1-1c-0.1-0.2-0.4-0.3-0.7-0.3c-2.2-0.3-3.2,2.3-3.4,4.3
		c-0.3,2.1,0.7,3.2,1.6,3.3c1,0.1,1.6-0.3,2.3-0.6c0.5-0.2,0.4-0.2,0.9-0.1c0.3,0,1.3,0.5,1.2,1.4C130.8,60.8,130.6,61,130.4,61.2z"
		/>
</g>
<g class="st0">
	<path d="M144.2,62c0.2,0.3,0.4,0.5,0.3,1c-0.1,0.6-1.1,1.1-1.5,1.1c-0.4-0.1-0.7-0.1-0.9-0.4l-5.2-5.8l-0.7,4.3
		c-0.1,0.7-1.1,1-1.8,0.9c-1-0.2-1.2-0.6-1.1-1.3l2.8-17.6c0.1-0.6,1.1-0.9,1.6-0.9c0.8,0.1,1.3,0.7,1.2,1.2l-1.6,10.2l4.5-2.8
		c0.4-0.2,0.5-0.4,1.1-0.3c1,0.2,1.1,1,1,1.5c-0.1,0.3-0.3,0.5-0.6,0.7l-4.6,2.6L144.2,62z"/>
</g>
<g class="st0">
	<path d="M147.6,65.6c-0.8-0.1-1.6-0.7-1.4-2c0.1-0.5,1.2-1.5,2-1.4c0.9,0.2,1.6,0.8,1.4,2C149.5,64.8,148.6,65.8,147.6,65.6z"/>
</g>
</svg>
