<?xml version="1.0" encoding="utf-8"?>
<!-- Generator: Adobe Illustrator 22.1.0, SVG Export Plug-In . SVG Version: 6.00 Build 0)  -->
<svg version="1.1" id="Capa_1" xmlns="http://www.w3.org/2000/svg" xmlns:xlink="http://www.w3.org/1999/xlink" x="0px" y="0px"
	 viewBox="0 0 478.1 150.5" style="enable-background:new 0 0 478.1 150.5;" xml:space="preserve">
<style type="text/css">
	.st0{enable-background:new    ;}
</style>
<title>TEX_TEXT_1020A</title>
<g class="st0">
	<path d="M1.4,25.5l3.3-0.8V7.3L1.4,6.5V6h9.8c3.1,0,6.1,1,6.1,4.6c0,3-3.5,4.4-5.2,4.8v0.1c1.8,0.2,6.3,0.7,6.3,5
		c0,3.6-3.3,5.6-8.4,5.6H1.4V25.5z M7.1,15.1c4.2,0,7.6-0.8,7.6-4.7c0-2.8-2.3-3.5-5-3.5C8.8,6.9,7.9,7,7.1,7.1V15.1z M7.1,24.7
		c1,0.1,2,0.3,2.9,0.3c3.7,0,5.8-1.7,5.8-4.4c0-4.2-4.5-4.8-7.6-4.8c-0.2,0-0.8,0-1.1,0.1V24.7z"/>
</g>
<g class="st0">
	<path d="M21.2,25.5l2.8-0.8V13.3h-3.5v-0.5l5.6-1.7v13.6l2.8,0.8V26h-7.7V25.5z M23.2,6.4c0-0.9,0.7-1.6,1.6-1.6s1.6,0.7,1.6,1.6
		c0,0.9-0.7,1.5-1.6,1.5S23.2,7.3,23.2,6.4z"/>
</g>
<g class="st0">
	<path d="M33.8,23.5c0.5,0.8,1.6,0.8,4,0.8c1.1,0,2.2-0.1,3.3-0.1c2.3,0,3.8,1,3.8,3.4c0,2.8-3.2,5.2-7.7,5.2
		c-5.4,0-6.9-2.5-6.9-4.6l3.1-1.6l0.4,0.3c-0.6,0.6-1.4,1.1-1.4,2.2c0,1.7,2.2,2.6,4.6,2.6c3.5,0,6.1-1.6,6.1-3.6c0-1.9-1.1-2-3.1-2
		c-6.8,0-7.8-0.4-8.6-3.2c1.5-0.1,2.4-0.9,3.8-2.2c-1.3-0.3-3.8-1.3-3.8-4.6c0-3.1,2.5-5.2,5.6-5.2c1.4,0,2.3,0.3,3.2,0.6
		c0.8,0.3,1.7,0.6,3,0.6c0.6,0,1.4-0.1,2-0.1v1.4h-2.9c0.3,0.7,0.5,1.5,0.5,2.2c0,5.1-4.6,5.3-6.5,5.3L33.8,23.5z M37,20.2
		c3,0,3.8-2.3,3.8-4.1c0-1.7-0.6-4.1-3.5-4.1c-2.6,0-3.7,2-3.7,4.4C33.5,18.4,34.5,20.2,37,20.2z"/>
	<path d="M56.5,25.5l3.3-0.8V7.3l-3.3-0.8V6h9.8c3.1,0,6.1,1,6.1,4.6c0,3-3.5,4.4-5.2,4.8v0.1c1.8,0.2,6.3,0.7,6.3,5
		c0,3.6-3.3,5.6-8.4,5.6h-8.7V25.5z M62.3,15.1c4.2,0,7.6-0.8,7.6-4.7c0-2.8-2.3-3.5-5-3.5c-0.9,0-1.8,0.1-2.6,0.3V15.1z M62.3,24.7
		c1,0.1,2,0.3,2.9,0.3c3.7,0,5.8-1.7,5.8-4.4c0-4.2-4.5-4.8-7.6-4.8c-0.2,0-0.8,0-1.1,0.1V24.7z"/>
</g>
<g class="st0">
	<path d="M88.1,22.5L88.1,22.5c-0.8,1.1-2.9,3.9-6,3.9c-2.9,0-3.7-1.5-3.7-4.2v-9.4l-2.8-0.3V12l4.9-0.9v10c0,2.1,0,3.8,2.3,3.8
		c1.9,0,5.2-1.7,5.2-5.4v-6.7l-3.5-0.3V12l5.6-0.9v13.1H93v0.5l-4.9,1.7V22.5z"/>
</g>
<g class="st0">
	<path d="M95.6,25.5l2.8-0.8V13.3h-3.3v-0.5l5.4-1.7V15h0.1c0.7-1.1,2.8-3.9,6.2-3.9c2.9,0,3.7,1.5,3.7,4.2v9.4l2.8,0.8V26h-7.4
		v-0.5l2.5-0.8v-8.3c0-2.1,0-3.8-2.3-3.8c-1.9,0-5.5,1.7-5.5,5.4v6.7l2.5,0.8V26h-7.4V25.5z"/>
</g>
<g class="st0">
	<path d="M115.5,25.5l2.8-0.8V13.3H115v-0.5l5.4-1.7V15h0.1c0.7-1.1,2.8-3.9,6.2-3.9c2.9,0,3.7,1.5,3.7,4.2v9.4l2.8,0.8V26h-7.4
		v-0.5l2.5-0.8v-8.3c0-2.1,0-3.8-2.3-3.8c-1.9,0-5.5,1.7-5.5,5.4v6.7l2.5,0.8V26h-7.4V25.5z"/>
	<path d="M143.8,26.8c-1,2.6-2.5,6.1-6,6.1c-1.5,0-2.2-0.4-3-0.7v-3.7h0.5c0.2,1.2,0.6,3.1,2.9,3.1c2.9,0,3.9-3.3,4.5-4.9l-6.2-13.9
		l-2.6-0.8v-0.5h8.4v0.5l-3.6,0.8l5.1,11.4l3.6-11.4l-2.8-0.8v-0.5h6.9v0.5l-2.6,0.8L143.8,26.8z"/>
	<path d="M171.8,15.8c-0.4-1.2-0.8-3.8-3.8-3.8c-1.5,0-2.7,0.9-2.7,2.2c0,1.6,1.8,2.4,3.8,3.2c2.3,1,4.8,2,4.8,4.5
		c0,2.6-2,4.5-5.7,4.5c-2.3,0-4.4-0.9-5.3-1.2v-4.9h1c0.5,1.8,0.8,5.2,4.5,5.2c2,0,3.4-1.3,3.4-2.9c0-1.7-2-2.5-4-3.4
		c-2.2-0.9-4.6-1.9-4.6-4.5c0-2.3,2-3.7,4.9-3.7c2,0,3.8,0.7,4.5,1.1v3.6H171.8z"/>
	<path d="M186,23.4c-0.9,1-2.8,3.1-5.9,3.1c-2,0-3.5-1.2-3.5-3.4c0-4.4,5.4-4.7,9.4-5.6v-2.3c0-1.9-0.6-3-2.5-3
		c-2.5,0-4,1.6-4.5,3.9h-0.6v-3.3c1.2-0.6,3.6-1.6,6-1.6c3.3,0,3.8,1.7,3.8,3.9v9.4h2.8V25l-4.9,1.5V23.4z M186,18.4
		c-3.1,0.4-7.3,1.6-7.3,4.5c0,1.3,0.9,2.3,2.3,2.3c1.7,0,5-1.6,5-4.5V18.4z"/>
	<path d="M201.4,26.8c-1,2.6-2.5,6.1-6,6.1c-1.5,0-2.2-0.4-3-0.7v-3.7h0.5c0.2,1.2,0.6,3.1,2.9,3.1c2.9,0,3.9-3.3,4.5-4.9l-6.2-13.9
		l-2.6-0.8v-0.5h8.4v0.5l-3.6,0.8l5.1,11.4l3.6-11.4l-2.8-0.8v-0.5h6.9v0.5l-2.6,0.8L201.4,26.8z"/>
</g>
<g class="st0">
	<path d="M220.2,15.8c-0.4-1.2-0.8-3.8-3.8-3.8c-1.5,0-2.7,0.9-2.7,2.2c0,1.6,1.8,2.4,3.8,3.2c2.3,1,4.8,2,4.8,4.5
		c0,2.6-2,4.5-5.7,4.5c-2.3,0-4.4-0.9-5.3-1.2v-4.9h1c0.5,1.8,0.8,5.2,4.5,5.2c2,0,3.4-1.3,3.4-2.9c0-1.7-2-2.5-4-3.4
		c-2.2-0.9-4.6-1.9-4.6-4.5c0-2.3,2-3.7,4.9-3.7c2,0,3.8,0.7,4.5,1.1v3.6H220.2z"/>
</g>
<g class="st0">
	<path d="M225.2,32.3c0.4-1.5,1.3-4,1.3-5.7c0-1.2-0.2-1.6-0.6-2.3l1.6-0.9c0.5,0.7,1.1,1.6,1.1,2.5c0,1.6-1.3,3.6-2.8,6.5H225.2z"
		/>
</g>
<g class="st0">
	<path d="M244.4,14.5c-0.6-0.6-1.2-1.5-1.2-2.7c0-1.4,1.2-3.7,2.7-6.3h0.6c-0.4,1.5-1.2,3.9-1.2,5.5c0,1.1,0.3,1.8,0.7,2.5
		L244.4,14.5z M248.8,14.5c-0.6-0.6-1.2-1.5-1.2-2.7c0-1.4,1.2-3.7,2.7-6.3h0.6c-0.4,1.5-1.2,3.9-1.2,5.5c0,1.1,0.3,1.8,0.7,2.5
		L248.8,14.5z"/>
	<path d="M254.4,25.5l3.3-0.8V7.3l-3.3-0.8V6h9.1v0.5l-3.3,0.8v17.5l3.3,0.8V26h-9.1V25.5z"/>
</g>
<g class="st0">
	<path d="M273.8,26.2c-0.5,0.2-1.2,0.3-1.7,0.3c-2.5,0-3.6-1.6-3.6-3.6v-9.5h-2.8v-0.5l3.1-0.9l1.1-4.9h0.7v5h4.4v1.3h-4.4v8.4
		c0,1.8,0.1,3.2,2.2,3.2c1.1,0,2-0.6,2.7-1.1l0.3,0.4L273.8,26.2z"/>
</g>
<g class="st0">
	<path d="M279,14.5c0.4-1.5,1.2-3.9,1.2-5.5c0-1.1-0.3-1.8-0.7-2.5l1.6-0.9c0.6,0.6,1.2,1.5,1.2,2.7c0,1.4-1.2,3.7-2.7,6.3H279z"/>
</g>
<g class="st0">
	<path d="M294.1,15.8c-0.4-1.2-0.8-3.8-3.8-3.8c-1.5,0-2.7,0.9-2.7,2.2c0,1.6,1.8,2.4,3.8,3.2c2.3,1,4.8,2,4.8,4.5
		c0,2.6-2,4.5-5.7,4.5c-2.3,0-4.4-0.9-5.3-1.2v-4.9h1c0.5,1.8,0.8,5.2,4.5,5.2c2,0,3.4-1.3,3.4-2.9c0-1.7-2-2.5-4-3.4
		c-2.2-0.9-4.6-1.9-4.6-4.5c0-2.3,2-3.7,4.9-3.7c2,0,3.8,0.7,4.5,1.1v3.6H294.1z"/>
	<path d="M310.9,23.5c0.5,0.8,1.6,0.8,4,0.8c1.1,0,2.2-0.1,3.3-0.1c2.3,0,3.8,1,3.8,3.4c0,2.8-3.2,5.2-7.7,5.2
		c-5.4,0-6.9-2.5-6.9-4.6l3.1-1.6L311,27c-0.6,0.6-1.4,1.1-1.4,2.2c0,1.7,2.2,2.6,4.6,2.6c3.5,0,6.1-1.6,6.1-3.6c0-1.9-1.1-2-3.1-2
		c-6.8,0-7.8-0.4-8.6-3.2c1.5-0.1,2.4-0.9,3.8-2.2c-1.3-0.3-3.8-1.3-3.8-4.6c0-3.1,2.5-5.2,5.6-5.2c1.4,0,2.3,0.3,3.2,0.6
		c0.8,0.3,1.7,0.6,3,0.6c0.6,0,1.4-0.1,2-0.1v1.4h-2.9c0.3,0.7,0.5,1.5,0.5,2.2c0,5.1-4.6,5.3-6.5,5.3L310.9,23.5z M314.1,20.2
		c3,0,3.8-2.3,3.8-4.1c0-1.7-0.6-4.1-3.5-4.1c-2.6,0-3.7,2-3.7,4.4C310.7,18.4,311.7,20.2,314.1,20.2z"/>
</g>
<g class="st0">
	<path d="M337.1,24.9c-1.6,0.8-3.4,1.6-5.7,1.6c-4.3,0-6.7-2.7-6.7-7.4c0-4.4,2.5-8,7.1-8c5.3,0,5.5,4.2,5.6,6l-10.2,0.5
		c0,0.3-0.1,1-0.1,1.3c0,3.9,1.4,6.6,4.5,6.6c3.5,0,4.9-2.9,5.7-5h0.6L337.1,24.9z M335.1,16.2c-0.1-1.2-0.3-4.2-3.4-4.2
		c-2.3,0-3.9,2-4.4,4.9L335.1,16.2z"/>
</g>
<g class="st0">
	<path d="M347.7,26.2c-0.5,0.2-1.2,0.3-1.7,0.3c-2.5,0-3.6-1.6-3.6-3.6v-9.5h-2.8v-0.5l3.1-0.9l1.1-4.9h0.7v5h4.4v1.3h-4.4v8.4
		c0,1.8,0.1,3.2,2.2,3.2c1.1,0,2-0.6,2.7-1.1l0.3,0.4L347.7,26.2z"/>
</g>
<g class="st0">
	<path d="M359.6,26.2c-0.5,0.2-1.2,0.3-1.7,0.3c-2.5,0-3.6-1.6-3.6-3.6v-9.5h-2.8v-0.5l3.1-0.9l1.1-4.9h0.7v5h4.4v1.3h-4.4v8.4
		c0,1.8,0.1,3.2,2.2,3.2c1.1,0,2-0.6,2.7-1.1l0.3,0.4L359.6,26.2z"/>
</g>
<g class="st0">
	<path d="M363.6,25.5l2.8-0.8V13.3H363v-0.5l5.6-1.7v13.6l2.8,0.8V26h-7.7V25.5z M365.6,6.4c0-0.9,0.7-1.6,1.6-1.6
		c0.9,0,1.6,0.7,1.6,1.6c0,0.9-0.7,1.5-1.6,1.5C366.3,7.9,365.6,7.3,365.6,6.4z"/>
	<path d="M373.4,25.5l2.8-0.8V13.3h-3.3v-0.5l5.4-1.7V15h0.1c0.7-1.1,2.8-3.9,6.2-3.9c2.9,0,3.7,1.5,3.7,4.2v9.4l2.8,0.8V26h-7.4
		v-0.5l2.5-0.8v-8.3c0-2.1,0-3.8-2.3-3.8c-1.9,0-5.5,1.7-5.5,5.4v6.7l2.5,0.8V26h-7.4V25.5z"/>
	<path d="M396.1,23.5c0.5,0.8,1.6,0.8,4,0.8c1.1,0,2.2-0.1,3.3-0.1c2.3,0,3.8,1,3.8,3.4c0,2.8-3.2,5.2-7.7,5.2
		c-5.4,0-6.9-2.5-6.9-4.6l3.1-1.6l0.4,0.3c-0.6,0.6-1.4,1.1-1.4,2.2c0,1.7,2.2,2.6,4.6,2.6c3.5,0,6.1-1.6,6.1-3.6c0-1.9-1.1-2-3.1-2
		c-6.8,0-7.8-0.4-8.6-3.2c1.5-0.1,2.4-0.9,3.8-2.2c-1.3-0.3-3.8-1.3-3.8-4.6c0-3.1,2.5-5.2,5.6-5.2c1.4,0,2.3,0.3,3.2,0.6
		c0.8,0.3,1.7,0.6,3,0.6c0.6,0,1.4-0.1,2-0.1v1.4h-2.9c0.3,0.7,0.5,1.5,0.5,2.2c0,5.1-4.6,5.3-6.5,5.3L396.1,23.5z M399.2,20.2
		c3,0,3.8-2.3,3.8-4.1c0-1.7-0.6-4.1-3.5-4.1c-2.6,0-3.7,2-3.7,4.4C395.8,18.4,396.8,20.2,399.2,20.2z"/>
	<path d="M418.4,25.5l2.8-0.8V5.5h-3.8V5l5.9-1.7v21.4l2.8,0.8V26h-7.7V25.5z"/>
	<path d="M438,23.4c-0.9,1-2.8,3.1-5.9,3.1c-2,0-3.5-1.2-3.5-3.4c0-4.4,5.4-4.7,9.4-5.6v-2.3c0-1.9-0.6-3-2.5-3
		c-2.5,0-4,1.6-4.5,3.9h-0.6v-3.3c1.2-0.6,3.6-1.6,6-1.6c3.3,0,3.8,1.7,3.8,3.9v9.4h2.8V25l-4.9,1.5V23.4z M438,18.4
		c-3.1,0.4-7.3,1.6-7.3,4.5c0,1.3,0.9,2.3,2.3,2.3c1.7,0,5-1.6,5-4.5V18.4z"/>
	<path d="M452.2,26.2c-0.5,0.2-1.2,0.3-1.7,0.3c-2.5,0-3.6-1.6-3.6-3.6v-9.5H444v-0.5l3.1-0.9l1.1-4.9h0.7v5h4.4v1.3H449v8.4
		c0,1.8,0.1,3.2,2.2,3.2c1.1,0,2-0.6,2.7-1.1l0.3,0.4L452.2,26.2z"/>
</g>
<g class="st0">
	<path d="M468.5,24.9c-1.6,0.8-3.4,1.6-5.7,1.6c-4.3,0-6.7-2.7-6.7-7.4c0-4.4,2.5-8,7.1-8c5.3,0,5.5,4.2,5.6,6l-10.2,0.5
		c0,0.3-0.1,1-0.1,1.3c0,3.9,1.4,6.6,4.5,6.6c3.5,0,4.9-2.9,5.7-5h0.6L468.5,24.9z M466.5,16.2c-0.1-1.2-0.3-4.2-3.4-4.2
		c-2.3,0-3.9,2-4.4,4.9L466.5,16.2z"/>
</g>
<g class="st0">
	<path d="M472.1,24.9c0-0.9,0.7-1.6,1.6-1.6c0.9,0,1.6,0.7,1.6,1.6c0,0.9-0.7,1.6-1.6,1.6C472.8,26.5,472.1,25.8,472.1,24.9z"/>
</g>
<g class="st0">
	<path d="M2.8,45.2L0,44.5V44h9.2v0.5l-3.8,0.8l4.7,14.1h0.1L15,43.5h0.1l5.7,15.8h0.1l3.7-14.1l-4-0.8V44h8.6v0.5l-2.8,0.8
		l-6.1,19.2H20l-5.4-14.5L9.3,64.4H9.2L2.8,45.2z"/>
	<path d="M40.4,62.8c-1.6,0.8-3.4,1.6-5.7,1.6c-4.3,0-6.7-2.7-6.7-7.4c0-4.4,2.5-8,7.1-8c5.3,0,5.5,4.2,5.6,6l-10.2,0.5
		c0,0.3-0.1,1-0.1,1.3c0,3.9,1.4,6.6,4.5,6.6c3.5,0,4.9-2.9,5.7-5h0.6L40.4,62.8z M38.4,54.2C38.3,52.9,38.1,50,35,50
		c-2.3,0-3.9,2-4.4,4.9L38.4,54.2z"/>
	<path d="M54,63.5l2.8-0.8V51.3h-3.3v-0.5l5.4-1.7V53h0.1c0.7-1.1,2.8-3.9,6.2-3.9c2.9,0,3.7,1.5,3.7,4.2v9.4l2.8,0.8V64h-7.4v-0.5
		l2.5-0.8v-8.3c0-2.1,0-3.8-2.3-3.8c-1.9,0-5.5,1.7-5.5,5.4v6.7l2.5,0.8V64H54V63.5z"/>
	<path d="M86.4,62.8c-1.6,0.8-3.4,1.6-5.7,1.6c-4.3,0-6.7-2.7-6.7-7.4c0-4.4,2.5-8,7.1-8c5.3,0,5.5,4.2,5.6,6l-10.2,0.5
		c0,0.3-0.1,1-0.1,1.3c0,3.9,1.4,6.6,4.5,6.6c3.5,0,4.9-2.9,5.7-5h0.6L86.4,62.8z M84.4,54.2C84.3,52.9,84.1,50,81,50
		c-2.3,0-3.9,2-4.4,4.9L84.4,54.2z"/>
	<path d="M103.4,62.8c-1.6,0.8-3.4,1.6-5.7,1.6c-4.3,0-6.7-2.7-6.7-7.4c0-4.4,2.5-8,7.1-8c5.3,0,5.5,4.2,5.6,6l-10.2,0.5
		c0,0.3-0.1,1-0.1,1.3c0,3.9,1.4,6.6,4.5,6.6c3.5,0,4.9-2.9,5.7-5h0.6L103.4,62.8z M101.3,54.2c-0.1-1.2-0.3-4.2-3.4-4.2
		c-2.3,0-3.9,2-4.4,4.9L101.3,54.2z"/>
	<path d="M118.9,60.6L118.9,60.6c-1,1.5-2.9,3.9-6,3.9c-3.5,0-5.4-2.4-5.4-6.8c0-5.2,3-8.6,7-8.6c1.8,0,3.2,0.7,4.3,1.3v-6.9h-4V43
		l6.1-1.7v21.2h2.8V63l-4.9,1.5V60.6z M113.8,62.8c2,0,4.5-1.3,5-4.7c0.1-0.8,0.2-1.9,0.2-2.8c0-0.8-0.1-1.5-0.2-2.4
		c-0.3-2.3-2.3-2.9-3.8-2.9c-3,0-4.9,2.9-4.9,7.3C110,60.6,111.3,62.8,113.8,62.8z"/>
	<path d="M142.2,64.2c-0.5,0.2-1.2,0.3-1.7,0.3c-2.5,0-3.6-1.6-3.6-3.6v-9.5h-2.8v-0.5l3.1-0.9l1.1-4.9h0.7v5h4.4v1.3H139v8.4
		c0,1.8,0.1,3.2,2.2,3.2c1.1,0,2-0.6,2.7-1.1l0.3,0.4L142.2,64.2z"/>
	<path d="M145.5,57.2c0-4.6,2.7-8.1,7.3-8.1c4.4,0,6.9,3.1,6.9,7.4c0,4.4-2.6,8-7.3,8C148.3,64.4,145.5,61.8,145.5,57.2z
		 M152.4,63.6c3.2,0,4.8-3.2,4.8-6.9c0-4-1.6-6.7-4.5-6.7c-3.1,0-4.8,3.3-4.8,6.9C147.9,60.9,149.5,63.6,152.4,63.6z"/>
	<path d="M174.9,61.5c0.5,0.8,1.6,0.8,4,0.8c1.1,0,2.2-0.1,3.3-0.1c2.3,0,3.8,1,3.8,3.4c0,2.8-3.2,5.2-7.7,5.2
		c-5.4,0-6.9-2.5-6.9-4.6l3.1-1.6l0.4,0.3c-0.6,0.6-1.4,1.1-1.4,2.2c0,1.7,2.2,2.6,4.6,2.6c3.5,0,6.1-1.6,6.1-3.6c0-1.9-1.1-2-3.1-2
		c-6.8,0-7.8-0.4-8.6-3.2c1.5-0.1,2.4-0.9,3.8-2.2c-1.3-0.3-3.8-1.3-3.8-4.6c0-3.1,2.5-5.2,5.6-5.2c1.4,0,2.3,0.3,3.2,0.6
		c0.8,0.3,1.7,0.6,3,0.6c0.6,0,1.4-0.1,2-0.1v1.4h-2.9c0.3,0.7,0.5,1.5,0.5,2.2c0,5.1-4.6,5.3-6.5,5.3L174.9,61.5z M178,58.1
		c3,0,3.8-2.3,3.8-4.1c0-1.7-0.6-4.1-3.5-4.1c-2.6,0-3.7,2-3.7,4.4C174.6,56.4,175.6,58.1,178,58.1z"/>
	<path d="M188.5,57.2c0-4.6,2.7-8.1,7.3-8.1c4.4,0,6.9,3.1,6.9,7.4c0,4.4-2.6,8-7.3,8C191.3,64.4,188.5,61.8,188.5,57.2z
		 M195.5,63.6c3.2,0,4.8-3.2,4.8-6.9c0-4-1.6-6.7-4.5-6.7c-3.1,0-4.8,3.3-4.8,6.9C190.9,60.9,192.5,63.6,195.5,63.6z"/>
	<path d="M222.4,64.2c-0.5,0.2-1.2,0.3-1.7,0.3c-2.5,0-3.6-1.6-3.6-3.6v-9.5h-2.8v-0.5l3.1-0.9l1.1-4.9h0.7v5h4.4v1.3h-4.4v8.4
		c0,1.8,0.1,3.2,2.2,3.2c1.1,0,2-0.6,2.7-1.1l0.3,0.4L222.4,64.2z"/>
	<path d="M225.6,57.2c0-4.6,2.7-8.1,7.3-8.1c4.4,0,6.9,3.1,6.9,7.4c0,4.4-2.6,8-7.3,8C228.4,64.4,225.6,61.8,225.6,57.2z
		 M232.6,63.6c3.2,0,4.8-3.2,4.8-6.9c0-4-1.6-6.7-4.5-6.7c-3.1,0-4.8,3.3-4.8,6.9C228.1,60.9,229.7,63.6,232.6,63.6z"/>
	<path d="M253.2,64.8V43.5h-3.8V43l5.9-1.7V53h0.1c0.7-1.2,2.3-3.9,5.7-3.9c3.8,0,5.5,2.7,5.5,6.9c0,4.8-2.5,8.5-6.8,8.5
		c-2.2,0-3.9-1-5.1-1.9l-1,2.5L253.2,64.8z M259.3,63.6c2.9,0,4.9-3,4.9-7.2c0-2.9-1-5.6-3.6-5.6c-2.8,0-4.6,1.9-5.1,4.3
		c-0.1,0.3-0.2,1.8-0.2,2.8c0,0.9,0,2.1,0.2,2.7C256,62.7,257.3,63.6,259.3,63.6z"/>
	<path d="M282.4,62.8c-1.6,0.8-3.4,1.6-5.7,1.6c-4.3,0-6.7-2.7-6.7-7.4c0-4.4,2.5-8,7.1-8c5.3,0,5.5,4.2,5.6,6l-10.2,0.5
		c0,0.3-0.1,1-0.1,1.3c0,3.9,1.4,6.6,4.5,6.6c3.5,0,4.9-2.9,5.7-5h0.6L282.4,62.8z M280.3,54.2c-0.1-1.2-0.3-4.2-3.4-4.2
		c-2.3,0-3.9,2-4.4,4.9L280.3,54.2z"/>
	<path d="M298,60.6L298,60.6c-1,1.5-2.9,3.9-6,3.9c-3.5,0-5.4-2.4-5.4-6.8c0-5.2,3-8.6,7-8.6c1.8,0,3.2,0.7,4.3,1.3v-6.9h-4V43
		l6.1-1.7v21.2h2.8V63l-4.9,1.5V60.6z M292.8,62.8c2,0,4.5-1.3,5-4.7c0.1-0.8,0.2-1.9,0.2-2.8c0-0.8-0.1-1.5-0.2-2.4
		c-0.3-2.3-2.3-2.9-3.8-2.9c-3,0-4.9,2.9-4.9,7.3C289.1,60.6,290.3,62.8,292.8,62.8z"/>
	<path d="M306.3,62.9c0-0.9,0.7-1.6,1.6-1.6c0.9,0,1.6,0.7,1.6,1.6c0,0.9-0.7,1.6-1.6,1.6C307,64.4,306.3,63.7,306.3,62.9z"/>
	<path d="M314.6,52.5c0.4-1.5,1.2-3.9,1.2-5.5c0-1.1-0.3-1.8-0.7-2.5l1.6-0.9c0.6,0.6,1.2,1.5,1.2,2.7c0,1.4-1.2,3.7-2.7,6.3H314.6z
		 M318.9,52.5c0.4-1.5,1.2-3.9,1.2-5.5c0-1.1-0.3-1.8-0.7-2.5l1.6-0.9c0.6,0.6,1.2,1.5,1.2,2.7c0,1.4-1.2,3.7-2.7,6.3H318.9z"/>
</g>
<g class="st0">
	<path d="M1.4,101.5l3.3-0.8V83.2l-3.3-0.8v-0.5h9.8c3.1,0,6.1,1,6.1,4.6c0,3-3.5,4.4-5.2,4.8v0.1c1.8,0.2,6.3,0.7,6.3,5
		c0,3.6-3.3,5.6-8.4,5.6H1.4V101.5z M7.1,91.1c4.2,0,7.6-0.8,7.6-4.7c0-2.8-2.3-3.5-5-3.5c-0.9,0-1.8,0.1-2.6,0.3V91.1z M7.1,100.7
		c1,0.1,2,0.3,2.9,0.3c3.7,0,5.8-1.7,5.8-4.4c0-4.2-4.5-4.8-7.6-4.8c-0.2,0-0.8,0-1.1,0.1V100.7z"/>
	<path d="M33,98.5L33,98.5c-0.8,1.1-2.9,3.9-6,3.9c-2.9,0-3.7-1.5-3.7-4.2v-9.4l-2.8-0.3V88l4.9-0.9v10c0,2.1,0,3.8,2.3,3.8
		c1.9,0,5.2-1.7,5.2-5.4v-6.7l-3.5-0.3V88l5.6-0.9v13.1h2.8v0.5l-4.9,1.7V98.5z"/>
	<path d="M47.8,102.2c-0.5,0.2-1.2,0.3-1.7,0.3c-2.5,0-3.6-1.6-3.6-3.6v-9.5h-2.8v-0.5l3.1-0.9l1.1-4.9h0.7v5h4.4v1.3h-4.4v8.4
		c0,1.8,0.1,3.2,2.2,3.2c1.1,0,2-0.6,2.7-1.1l0.3,0.4L47.8,102.2z"/>
	<path d="M68,102.2c-0.5,0.2-1.2,0.3-1.7,0.3c-2.5,0-3.6-1.6-3.6-3.6v-9.5h-2.8v-0.5l3.1-0.9L64,83h0.7v5h4.4v1.3h-4.4v8.4
		c0,1.8,0.1,3.2,2.2,3.2c1.1,0,2-0.6,2.7-1.1l0.3,0.4L68,102.2z"/>
	<path d="M71.3,101.5l2.8-0.8V81.5h-3.8V81l5.9-1.7V91h0.1c0.7-1.1,2.8-3.9,6.2-3.9c2.9,0,3.7,1.5,3.7,4.2v9.4l2.8,0.8v0.5h-7.4
		v-0.5l2.5-0.8v-8.3c0-2.1,0-3.8-2.3-3.8c-1.9,0-5.5,1.7-5.5,5.4v6.7l2.5,0.8v0.5h-7.4V101.5z"/>
	<path d="M103.6,100.8c-1.6,0.8-3.4,1.6-5.7,1.6c-4.3,0-6.7-2.7-6.7-7.4c0-4.4,2.5-8,7.1-8c5.3,0,5.5,4.2,5.6,6l-10.2,0.5
		c0,0.3-0.1,1-0.1,1.3c0,3.9,1.4,6.6,4.5,6.6c3.5,0,4.9-2.9,5.7-5h0.6L103.6,100.8z M101.6,92.2c-0.1-1.2-0.3-4.2-3.4-4.2
		c-2.3,0-3.9,2-4.4,4.9L101.6,92.2z"/>
	<path d="M117.2,95.1c0-4.6,2.7-8.1,7.3-8.1c4.4,0,6.9,3.1,6.9,7.4c0,4.4-2.6,8-7.3,8C120,102.4,117.2,99.8,117.2,95.1z
		 M124.2,101.5c3.2,0,4.8-3.2,4.8-6.9c0-4-1.6-6.7-4.5-6.7c-3.1,0-4.8,3.3-4.8,6.9C119.7,98.8,121.3,101.5,124.2,101.5z"/>
	<path d="M141.9,102.2c-0.5,0.2-1.2,0.3-1.7,0.3c-2.5,0-3.6-1.6-3.6-3.6v-9.5h-2.8v-0.5l3.1-0.9l1.1-4.9h0.7v5h4.4v1.3h-4.4v8.4
		c0,1.8,0.1,3.2,2.2,3.2c1.1,0,2-0.6,2.7-1.1l0.3,0.4L141.9,102.2z"/>
	<path d="M145.2,101.5l2.8-0.8V81.5h-3.8V81l5.9-1.7V91h0.1c0.7-1.1,2.8-3.9,6.2-3.9c2.9,0,3.7,1.5,3.7,4.2v9.4l2.8,0.8v0.5h-7.4
		v-0.5l2.5-0.8v-8.3c0-2.1,0-3.8-2.3-3.8c-1.9,0-5.5,1.7-5.5,5.4v6.7l2.5,0.8v0.5h-7.4V101.5z"/>
	<path d="M177.6,100.8c-1.6,0.8-3.4,1.6-5.7,1.6c-4.3,0-6.7-2.7-6.7-7.4c0-4.4,2.5-8,7.1-8c5.3,0,5.5,4.2,5.6,6l-10.2,0.5
		c0,0.3-0.1,1-0.1,1.3c0,3.9,1.4,6.6,4.5,6.6c3.5,0,4.9-2.9,5.7-5h0.6L177.6,100.8z M175.5,92.2c-0.1-1.2-0.3-4.2-3.4-4.2
		c-2.3,0-3.9,2-4.4,4.9L175.5,92.2z"/>
	<path d="M181.7,101.5l2.8-0.8V89.3h-3.5v-0.5l5.6-1.7v4h0.1c0.8-1.3,2-4,4.4-4c0.7,0,1.5,0.4,2,0.8l-0.2,3.1h-0.5
		c-0.3-1.2-0.6-2.2-1.8-2.2c-2.2,0-4,3-4,6v6l3.5,0.8v0.5h-8.4V101.5z"/>
	<path d="M211.7,102.2c-0.5,0.2-1.2,0.3-1.7,0.3c-2.5,0-3.6-1.6-3.6-3.6v-9.5h-2.8v-0.5l3.1-0.9l1.1-4.9h0.7v5h4.4v1.3h-4.4v8.4
		c0,1.8,0.1,3.2,2.2,3.2c1.1,0,2-0.6,2.7-1.1l0.3,0.4L211.7,102.2z"/>
	<path d="M214.9,95.1c0-4.6,2.7-8.1,7.3-8.1c4.4,0,6.9,3.1,6.9,7.4c0,4.4-2.6,8-7.3,8C217.7,102.4,214.9,99.8,214.9,95.1z
		 M221.9,101.5c3.2,0,4.8-3.2,4.8-6.9c0-4-1.6-6.7-4.5-6.7c-3.1,0-4.8,3.3-4.8,6.9C217.3,98.8,218.9,101.5,221.9,101.5z"/>
	<path d="M240.8,102.7c-1,2.6-2.5,6.1-6,6.1c-1.5,0-2.2-0.4-3-0.7v-3.7h0.5c0.2,1.2,0.6,3.1,2.9,3.1c2.9,0,3.9-3.3,4.5-4.9
		l-6.2-13.9L231,88v-0.5h8.4V88l-3.6,0.8l5.1,11.4l3.6-11.4l-2.8-0.8v-0.5h6.9V88l-2.6,0.8L240.8,102.7z"/>
	<path d="M259.6,91.8c-0.4-1.2-0.8-3.8-3.8-3.8c-1.5,0-2.7,0.9-2.7,2.2c0,1.6,1.8,2.4,3.8,3.2c2.3,1,4.8,2,4.8,4.5
		c0,2.6-2,4.5-5.7,4.5c-2.3,0-4.4-0.9-5.3-1.2v-4.9h1c0.5,1.8,0.8,5.2,4.5,5.2c2,0,3.4-1.3,3.4-2.9c0-1.7-2-2.5-4-3.4
		c-2.2-0.9-4.6-1.9-4.6-4.5c0-2.3,2-3.7,4.9-3.7c2,0,3.8,0.7,4.5,1.1v3.6H259.6z"/>
	<path d="M283,99.3c-0.9,1-2.8,3.1-5.9,3.1c-2,0-3.5-1.2-3.5-3.4c0-4.4,5.4-4.7,9.4-5.6v-2.3c0-1.9-0.6-3-2.5-3
		c-2.5,0-4,1.6-4.5,3.9h-0.6v-3.3c1.2-0.6,3.6-1.6,6-1.6c3.3,0,3.8,1.7,3.8,3.9v9.4h2.8v0.5l-4.9,1.5V99.3z M283,94.3
		c-3.1,0.4-7.3,1.6-7.3,4.5c0,1.3,0.9,2.3,2.3,2.3c1.7,0,5-1.6,5-4.5V94.3z"/>
	<path d="M289.8,101.5l2.8-0.8V89.3h-3.5v-0.5l5.6-1.7v4h0.1c0.8-1.3,2-4,4.4-4c0.7,0,1.5,0.4,2,0.8l-0.2,3.1h-0.5
		c-0.3-1.2-0.6-2.2-1.8-2.2c-2.2,0-4,3-4,6v6l3.5,0.8v0.5h-8.4V101.5z"/>
	<path d="M315.3,100.8c-1.6,0.8-3.4,1.6-5.7,1.6c-4.3,0-6.7-2.7-6.7-7.4c0-4.4,2.5-8,7.1-8c5.3,0,5.5,4.2,5.6,6l-10.2,0.5
		c0,0.3-0.1,1-0.1,1.3c0,3.9,1.4,6.6,4.5,6.6c3.5,0,4.9-2.9,5.7-5h0.6L315.3,100.8z M313.3,92.2c-0.1-1.2-0.3-4.2-3.4-4.2
		c-2.3,0-3.9,2-4.4,4.9L313.3,92.2z"/>
	<path d="M328.4,101.5l2.8-0.8V81.5h-3.8V81l5.9-1.7V91h0.1c0.7-1.1,2.8-3.9,6.2-3.9c2.9,0,3.7,1.5,3.7,4.2v9.4l2.8,0.8v0.5h-7.4
		v-0.5l2.5-0.8v-8.3c0-2.1,0-3.8-2.3-3.8c-1.9,0-5.5,1.7-5.5,5.4v6.7l2.5,0.8v0.5h-7.4V101.5z"/>
	<path d="M348.2,101.5l2.8-0.8V89.3h-3.5v-0.5l5.6-1.7v13.6l2.8,0.8v0.5h-7.7V101.5z M350.1,82.4c0-0.9,0.7-1.6,1.6-1.6
		s1.6,0.7,1.6,1.6s-0.7,1.5-1.6,1.5S350.1,83.3,350.1,82.4z"/>
	<path d="M369.2,98.6L369.2,98.6c-1,1.5-2.9,3.9-6,3.9c-3.5,0-5.4-2.4-5.4-6.8c0-5.2,3-8.6,7-8.6c1.8,0,3.2,0.7,4.3,1.3v-6.9h-4V81
		l6.1-1.7v21.2h2.8v0.5l-4.9,1.5V98.6z M364.1,100.8c2,0,4.5-1.3,5-4.7c0.1-0.8,0.2-1.9,0.2-2.8c0-0.8-0.1-1.5-0.2-2.4
		c-0.3-2.3-2.3-2.9-3.8-2.9c-3,0-4.9,2.9-4.9,7.3C360.3,98.6,361.6,100.8,364.1,100.8z"/>
	<path d="M376.1,101.5l2.8-0.8V89.3h-3.5v-0.5l5.6-1.7v13.6l2.8,0.8v0.5h-7.7V101.5z M378,82.4c0-0.9,0.7-1.6,1.6-1.6
		s1.6,0.7,1.6,1.6s-0.7,1.5-1.6,1.5S378,83.3,378,82.4z"/>
	<path d="M385.9,101.5l2.8-0.8V89.3h-3.3v-0.5l5.4-1.7V91h0.1c0.7-1.1,2.8-3.9,6.2-3.9c2.9,0,3.7,1.5,3.7,4.2v9.4l2.8,0.8v0.5h-7.4
		v-0.5l2.5-0.8v-8.3c0-2.1,0-3.8-2.3-3.8c-1.9,0-5.5,1.7-5.5,5.4v6.7l2.5,0.8v0.5h-7.4V101.5z"/>
	<path d="M408.5,99.5c0.5,0.8,1.6,0.8,4,0.8c1.1,0,2.2-0.1,3.3-0.1c2.3,0,3.8,1,3.8,3.4c0,2.8-3.2,5.2-7.7,5.2
		c-5.4,0-6.9-2.5-6.9-4.6l3.1-1.6l0.4,0.3c-0.6,0.6-1.4,1.1-1.4,2.2c0,1.7,2.2,2.6,4.6,2.6c3.5,0,6.1-1.6,6.1-3.6c0-1.9-1.1-2-3.1-2
		c-6.8,0-7.8-0.4-8.6-3.2c1.5-0.1,2.4-0.9,3.8-2.2c-1.3-0.3-3.8-1.3-3.8-4.6c0-3.1,2.5-5.2,5.6-5.2c1.4,0,2.3,0.3,3.2,0.6
		c0.8,0.3,1.7,0.6,3,0.6c0.6,0,1.4-0.1,2-0.1v1.4H417c0.3,0.7,0.5,1.5,0.5,2.2c0,5.1-4.6,5.3-6.5,5.3L408.5,99.5z M411.6,96.1
		c3,0,3.8-2.3,3.8-4.1c0-1.7-0.6-4.1-3.5-4.1c-2.6,0-3.7,2-3.7,4.4C408.2,94.4,409.2,96.1,411.6,96.1z"/>
	<path d="M423.5,100.9c0-0.9,0.7-1.6,1.6-1.6s1.6,0.7,1.6,1.6c0,0.9-0.7,1.6-1.6,1.6S423.5,101.7,423.5,100.9z"/>
</g>
<g class="st0">
	<path d="M1.4,139.5l3.3-0.8v-17.5l-3.3-0.8v-0.5h9.8c3.1,0,6.1,1,6.1,4.6c0,3-3.5,4.4-5.2,4.8v0.1c1.8,0.2,6.3,0.7,6.3,5
		c0,3.6-3.3,5.6-8.4,5.6H1.4V139.5z M7.1,129.1c4.2,0,7.6-0.8,7.6-4.7c0-2.8-2.3-3.5-5-3.5c-0.9,0-1.8,0.1-2.6,0.3V129.1z
		 M7.1,138.7c1,0.1,2,0.3,2.9,0.3c3.7,0,5.8-1.7,5.8-4.4c0-4.2-4.5-4.8-7.6-4.8c-0.2,0-0.8,0-1.1,0.1V138.7z"/>
	<path d="M33,136.5L33,136.5c-0.8,1.1-2.9,3.9-6,3.9c-2.9,0-3.7-1.5-3.7-4.2v-9.4l-2.8-0.3V126l4.9-0.9v10c0,2.1,0,3.8,2.3,3.8
		c1.9,0,5.2-1.7,5.2-5.4v-6.7l-3.5-0.3V126l5.6-0.9v13.1h2.8v0.5l-4.9,1.7V136.5z"/>
	<path d="M40.6,139.5l2.8-0.8v-11.4h-3.3v-0.5l5.4-1.7v3.9h0.1c0.7-1.1,2.8-3.9,6.2-3.9c2.9,0,3.7,1.5,3.7,4.2v9.4l2.8,0.8v0.5h-7.4
		v-0.5l2.5-0.8v-8.3c0-2.1,0-3.8-2.3-3.8c-1.9,0-5.5,1.7-5.5,5.4v6.7l2.5,0.8v0.5h-7.4V139.5z"/>
	<path d="M60.4,139.5l2.8-0.8v-11.4h-3.3v-0.5l5.4-1.7v3.9h0.1c0.7-1.1,2.8-3.9,6.2-3.9c2.9,0,3.7,1.5,3.7,4.2v9.4l2.8,0.8v0.5h-7.4
		v-0.5l2.5-0.8v-8.3c0-2.1,0-3.8-2.3-3.8c-1.9,0-5.5,1.7-5.5,5.4v6.7l2.5,0.8v0.5h-7.4V139.5z"/>
	<path d="M88.8,140.7c-1,2.6-2.5,6.1-6,6.1c-1.5,0-2.2-0.4-3-0.7v-3.7h0.5c0.2,1.2,0.6,3.1,2.9,3.1c2.9,0,3.9-3.3,4.5-4.9l-6.2-13.9
		L79,126v-0.5h8.4v0.5l-3.6,0.8l5.1,11.4l3.6-11.4l-2.8-0.8v-0.5h6.9v0.5l-2.6,0.8L88.8,140.7z"/>
	<path d="M120.1,138.8c-1.6,0.8-3.2,1.6-5.5,1.6c-4.3,0-6.7-2.7-6.7-7.4c0-4.4,2.5-8,7.2-8c2.2,0,3.9,0.7,4.7,1.2v3.6h-0.5
		c-0.4-1.6-1.3-3.8-4.2-3.8c-3.2,0-4.7,2.9-4.7,7c0,3.9,1.4,6.6,4.5,6.6c3.3,0,4.7-2.9,5.5-5h0.6L120.1,138.8z"/>
	<path d="M132.7,137.3c-0.9,1-2.8,3.1-5.9,3.1c-2,0-3.5-1.2-3.5-3.4c0-4.4,5.4-4.7,9.4-5.6v-2.3c0-1.9-0.6-3-2.5-3
		c-2.5,0-4,1.6-4.5,3.9h-0.6v-3.3c1.2-0.6,3.6-1.6,6-1.6c3.3,0,3.8,1.7,3.8,3.9v9.4h2.8v0.5l-4.9,1.5V137.3z M132.7,132.3
		c-3.1,0.4-7.3,1.6-7.3,4.5c0,1.3,0.9,2.3,2.3,2.3c1.7,0,5-1.6,5-4.5V132.3z"/>
	<path d="M139.7,139.5l2.8-0.8v-11.4h-3.3v-0.5l5.4-1.7v3.9h0.1c0.7-1.1,2.8-3.9,6.2-3.9c2.9,0,3.7,1.5,3.7,4.2v9.4l2.8,0.8v0.5
		h-7.4v-0.5l2.5-0.8v-8.3c0-2.1,0-3.8-2.3-3.8c-1.9,0-5.5,1.7-5.5,5.4v6.7l2.5,0.8v0.5h-7.4V139.5z"/>
	<path d="M160.1,128.5c0.4-1.5,1.2-3.9,1.2-5.5c0-1.1-0.3-1.8-0.7-2.5l1.6-0.9c0.6,0.6,1.2,1.5,1.2,2.7c0,1.4-1.2,3.7-2.7,6.3H160.1
		z"/>
	<path d="M174.2,140.2c-0.5,0.2-1.2,0.3-1.7,0.3c-2.5,0-3.6-1.6-3.6-3.6v-9.5H166v-0.5l3.1-0.9l1.1-4.9h0.7v5h4.4v1.3H171v8.4
		c0,1.8,0.1,3.2,2.2,3.2c1.1,0,2-0.6,2.7-1.1l0.3,0.4L174.2,140.2z"/>
	<path d="M196.3,129.8c-0.4-1.2-0.8-3.8-3.8-3.8c-1.5,0-2.7,0.9-2.7,2.2c0,1.6,1.8,2.4,3.8,3.2c2.3,1,4.8,2,4.8,4.5
		c0,2.6-2,4.5-5.7,4.5c-2.3,0-4.4-0.9-5.3-1.2v-4.9h1c0.5,1.8,0.8,5.2,4.5,5.2c2,0,3.4-1.3,3.4-2.9c0-1.7-2-2.5-4-3.4
		c-2.2-0.9-4.6-1.9-4.6-4.5c0-2.3,2-3.7,4.9-3.7c2,0,3.8,0.7,4.5,1.1v3.6H196.3z"/>
	<path d="M213.7,138.8c-1.6,0.8-3.4,1.6-5.7,1.6c-4.3,0-6.7-2.7-6.7-7.4c0-4.4,2.5-8,7.1-8c5.3,0,5.5,4.2,5.6,6l-10.2,0.5
		c0,0.3-0.1,1-0.1,1.3c0,3.9,1.4,6.6,4.5,6.6c3.5,0,4.9-2.9,5.7-5h0.6L213.7,138.8z M211.7,130.1c-0.1-1.2-0.3-4.2-3.4-4.2
		c-2.3,0-3.9,2-4.4,4.9L211.7,130.1z"/>
	<path d="M230.7,138.8c-1.6,0.8-3.4,1.6-5.7,1.6c-4.3,0-6.7-2.7-6.7-7.4c0-4.4,2.5-8,7.1-8c5.3,0,5.5,4.2,5.6,6l-10.2,0.5
		c0,0.3-0.1,1-0.1,1.3c0,3.9,1.4,6.6,4.5,6.6c3.5,0,4.9-2.9,5.7-5h0.6L230.7,138.8z M228.6,130.1c-0.1-1.2-0.3-4.2-3.4-4.2
		c-2.3,0-3.9,2-4.4,4.9L228.6,130.1z"/>
	<path d="M261.9,138.6c-1.2,0.5-3.6,1.9-7.3,1.9c-6.8,0-10.2-4.3-10.2-10c0-6.7,4.4-10.9,10.6-10.9c2.8,0,5.4,1.1,6.7,1.8v4.7h-0.6
		c-0.4-1.8-0.9-5.4-5.7-5.4c-5.2,0-8.2,4-8.2,9.8c0,5.2,2.9,9.1,7.7,9.1c5.5,0,6-3.6,6.8-6.3h0.6L261.9,138.6z"/>
	<path d="M277.6,136.5L277.6,136.5c-0.8,1.1-2.9,3.9-6,3.9c-2.9,0-3.7-1.5-3.7-4.2v-9.4l-2.8-0.3V126l4.9-0.9v10
		c0,2.1,0,3.8,2.3,3.8c1.9,0,5.2-1.7,5.2-5.4v-6.7l-3.5-0.3V126l5.6-0.9v13.1h2.8v0.5l-4.9,1.7V136.5z"/>
	<path d="M296.4,136.5L296.4,136.5c-1,1.5-2.9,3.9-6,3.9c-3.5,0-5.4-2.4-5.4-6.8c0-5.2,3-8.6,7-8.6c1.8,0,3.2,0.7,4.3,1.3v-6.9h-4
		V119l6.1-1.7v21.2h2.8v0.5l-4.9,1.5V136.5z M291.3,138.8c2,0,4.5-1.3,5-4.7c0.1-0.8,0.2-1.9,0.2-2.8c0-0.8-0.1-1.5-0.2-2.4
		c-0.3-2.3-2.3-2.9-3.8-2.9c-3,0-4.9,2.9-4.9,7.3C287.5,136.6,288.8,138.8,291.3,138.8z"/>
	<path d="M314.5,136.5L314.5,136.5c-1,1.5-2.9,3.9-6,3.9c-3.5,0-5.4-2.4-5.4-6.8c0-5.2,3-8.6,7-8.6c1.8,0,3.2,0.7,4.3,1.3v-6.9h-4
		V119l6.1-1.7v21.2h2.8v0.5l-4.9,1.5V136.5z M309.4,138.8c2,0,4.5-1.3,5-4.7c0.1-0.8,0.2-1.9,0.2-2.8c0-0.8-0.1-1.5-0.2-2.4
		c-0.3-2.3-2.3-2.9-3.8-2.9c-3,0-4.9,2.9-4.9,7.3C305.6,136.6,306.9,138.8,309.4,138.8z"/>
	<path d="M320.9,139.5l2.8-0.8v-19.2h-3.8V119l5.9-1.7v21.4l2.8,0.8v0.5h-7.7V139.5z"/>
	<path d="M339.6,140.7c-1,2.6-2.5,6.1-6,6.1c-1.5,0-2.2-0.4-3-0.7v-3.7h0.5c0.2,1.2,0.6,3.1,2.9,3.1c2.9,0,3.9-3.3,4.5-4.9
		l-6.2-13.9l-2.6-0.8v-0.5h8.4v0.5l-3.6,0.8l5.1,11.4l3.6-11.4l-2.8-0.8v-0.5h6.9v0.5l-2.6,0.8L339.6,140.7z"/>
	<path d="M362.7,139.5l3.8-0.8v-17.6H362c-2.5,0-3,0.9-3.6,5h-0.6v-6.2h19.8v6.2h-0.6c-0.6-4.2-1.1-5-3.6-5H369v17.6l3.8,0.8v0.5
		h-10.1V139.5z"/>
	<path d="M388.1,138.8c-1.6,0.8-3.4,1.6-5.7,1.6c-4.3,0-6.7-2.7-6.7-7.4c0-4.4,2.5-8,7.1-8c5.3,0,5.5,4.2,5.6,6l-10.2,0.5
		c0,0.3-0.1,1-0.1,1.3c0,3.9,1.4,6.6,4.5,6.6c3.5,0,4.9-2.9,5.7-5h0.6L388.1,138.8z M386,130.1c-0.1-1.2-0.3-4.2-3.4-4.2
		c-2.3,0-3.9,2-4.4,4.9L386,130.1z"/>
	<path d="M403.6,136.5L403.6,136.5c-1,1.5-2.9,3.9-6,3.9c-3.5,0-5.4-2.4-5.4-6.8c0-5.2,3-8.6,7-8.6c1.8,0,3.2,0.7,4.3,1.3v-6.9h-4
		V119l6.1-1.7v21.2h2.8v0.5l-4.9,1.5V136.5z M398.5,138.8c2,0,4.5-1.3,5-4.7c0.1-0.8,0.2-1.9,0.2-2.8c0-0.8-0.1-1.5-0.2-2.4
		c-0.3-2.3-2.3-2.9-3.8-2.9c-3,0-4.9,2.9-4.9,7.3C394.7,136.6,396,138.8,398.5,138.8z"/>
	<path d="M412,138.8c0-0.9,0.7-1.6,1.6-1.6c0.9,0,1.6,0.7,1.6,1.6c0,0.9-0.7,1.6-1.6,1.6C412.7,140.4,412,139.7,412,138.8z"/>
</g>
</svg>
