<?xml version="1.0" encoding="utf-8"?>
<!-- Generator: Adobe Illustrator 22.1.0, SVG Export Plug-In . SVG Version: 6.00 Build 0)  -->
<svg version="1.1" id="Capa_1" xmlns="http://www.w3.org/2000/svg" xmlns:xlink="http://www.w3.org/1999/xlink" x="0px" y="0px"
	 viewBox="0 0 260.2 142.1" style="enable-background:new 0 0 260.2 142.1;" xml:space="preserve">
<style type="text/css">
	.st0{enable-background:new    ;}
</style>
<title>TEX_TEXT_1060B</title>
<g class="st0">
	<path d="M19.2,91.4c0.2,0,0.3-0.1,0.5-0.1c0.8-0.1,1.6,0.6,1.7,1.4c0.1,0.9-0.3,1.3-1.3,1.6L9.7,96.5c-0.3,0.1-0.9,0.2-1,0.2
		c-0.7,0.1-1.6-0.1-1.8-1.1c0-0.2,0.1-0.7,0.1-0.9L4.3,74.6C4.2,73.7,4.9,73,6,72.8c1.5-0.2,1.7,0.3,1.9,1.2l2.6,19.4L19.2,91.4z"/>
</g>
<g class="st0">
	<path d="M26.8,88.8c0.3,1.8,1.9,2.6,3.3,2.4c1.1-0.2,1.7-0.7,2.3-1.1c0.6-0.5,0.8-0.8,1.1-0.9c0.7-0.1,1.6,0.4,1.7,1.4
		c0.1,0.4,0,0.8-0.5,1.1c-1.4,1.1-2.6,1.8-4.3,2c-3.5,0.5-6.7-0.6-7.4-5.3c-0.7-4.3,2.1-9,5.8-9.5c3.2-0.5,4.7,1,5,2.7
		c0.6,3.8-5,6.5-7.1,6.8L26.8,88.8z M29.3,81.5c-1.9,0.3-2.8,2.5-2.7,4.8c2.5-0.6,4.1-2.9,4-4C30.6,82,30.2,81.3,29.3,81.5z"/>
</g>
<g class="st0">
	<path d="M42.5,85.2c0.2,1.2,0.7,3.7,2.2,3.5c0.5-0.1,0.8-0.5,1.6-1.2c0.3-0.3,0.5-0.4,1-0.5c0.7-0.1,1.3,0.8,1.4,1.2
		c0.1,0.6,0,1-0.5,1.4c-0.8,0.7-1.6,1.5-3.4,1.9c-3.2,0.6-5-1.3-5.6-4.9l-1-6.1l-0.5,0.1c-0.3,0-0.7,0.2-0.9,0.3
		c-0.8,0.1-1.1,0.1-1.3-0.8c-0.1-0.6,0.1-1.7,0.9-1.9l1.3-0.4l-0.8-4.9c-0.1-0.8,0.5-1.6,1.7-1.8c1.2-0.2,1.7,0.2,1.8,1l0.8,4.7
		l2.1-0.6c0.3-0.1,0.3-0.1,0.6-0.2c0.9-0.2,1.5,0.1,1.7,1.1c0.1,0.7-0.2,1.4-1,1.6l-2.9,0.8L42.5,85.2z"/>
</g>
<g class="st0">
	<path d="M48.2,66.4c0.1-1.5,0.8-1.4,1.4-1.5c1-0.2,2.2,0.1,2.3,0.8c0,0.2,0,0.3,0,0.6l-0.4,5.4c-0.1,0.4-0.4,1-0.9,1.1
		c-1,0.2-2.5,0-2.7-0.8c0-0.2-0.1-0.2,0-0.4L48.2,66.4z"/>
</g>
<g class="st0">
	<path d="M62.2,79.6c2.3,0.6,3.5,1.4,3.9,3.4c0.6,2.9-1.8,4.9-5.1,5.5c-1.5,0.3-2.8,0.1-4.3-0.2c-0.6-0.1-0.9-0.3-1-1
		c-0.1-0.6,0.3-1.7,1.2-1.9c0.4-0.1,0.7,0,1.1,0.2c1,0.3,2,0.6,2.7,0.4c1.1-0.2,2.2-1.2,2-2.3c-0.1-0.8-1-1-1.9-1.2l-2.5-0.7
		c-1.9-0.5-3.5-1.2-3.9-3.3c-0.5-2.7,2.7-4.4,4.4-4.7c1.7-0.3,2.9-0.4,4.2-0.1c0.8,0.1,1.1,0.3,1.2,1c0.1,0.5-0.3,1.7-1.4,1.9
		c-0.8,0.2-1.9-0.6-3.7-0.3c-0.5,0.1-1.4,0.7-1.2,1.5c0.2,0.8,1.3,1,1.7,1.1L62.2,79.6z"/>
</g>
<g class="st0">
	<path d="M82.9,71.4c0.8-2.2,2.9-4.1,4.7-4.5c3.2-0.7,5.3,0.8,6.1,4.2c1.1,4.9-2.5,11.4-7,12.4c-0.3,0.1-0.5,0-0.8-0.2
		c-0.2-0.1-0.4-0.2-0.4-0.2s-1,1.2-1.8,1.4c-1,0.2-1.6-0.1-1.8-1l-4.9-21.9c-0.2-0.7,0.9-1.6,1.7-1.8c1-0.2,1.6,0.1,1.8,1L82.9,71.4
		z M84.7,79.6c0.1,0.4,0.6,0.9,1.3,0.8c2.8-0.6,4.8-5.3,4.1-8.4c-0.3-1.4-0.8-2.3-2-2c-2.3,0.5-3.9,4-4.3,5.9L84.7,79.6z"/>
</g>
<g class="st0">
	<path d="M100,74.5c0.4,1.8,2.1,2.4,3.5,2.1c1.1-0.3,1.7-0.8,2.2-1.3c0.6-0.5,0.7-0.9,1.1-1c0.7-0.2,1.6,0.2,1.8,1.2
		c0.1,0.4,0,0.8-0.4,1.2c-1.3,1.2-2.4,2-4.1,2.4c-3.4,0.8-6.7,0-7.8-4.7c-1-4.2,1.3-9.1,5-10c3.2-0.8,4.8,0.6,5.2,2.3
		c0.9,3.7-4.4,6.8-6.5,7.4L100,74.5z M101.9,67c-1.8,0.4-2.5,2.7-2.3,5c2.5-0.9,3.9-3.2,3.6-4.3C103.2,67.4,102.7,66.8,101.9,67z"/>
</g>
<g class="st0">
	<path d="M132.7,58.6c-1.2,4.7-1.9,8.2-2.9,12.8c-0.1,0.4-0.4,1-1.1,1.2c-0.7,0.2-1.4-0.1-1.6-0.6c-3-3.9-5.1-6.2-7.9-9.5
		c-0.3-0.3-0.3-0.4-0.4-0.7c-0.2-0.7,1-1.6,1.5-1.8c0.6-0.2,1-0.2,1.5,0.5c1.8,2.1,4.6,5.4,5.9,7.2c0.3-2.2,1-7,1.6-9.6
		c0.1-0.6,0.2-1,1.1-1.3c0.6-0.2,2.1,0.2,2.3,1C132.8,58.2,132.7,58.5,132.7,58.6z"/>
</g>
<g class="st0">
	<path d="M139.4,64c0.5,1.8,2.2,2.3,3.6,1.9c1.1-0.3,1.6-0.9,2.1-1.4c0.5-0.6,0.6-0.9,1-1c0.7-0.2,1.6,0.1,1.9,1.1
		c0.1,0.4,0.1,0.8-0.3,1.2c-1.2,1.3-2.3,2.1-4,2.6c-3.4,1-6.7,0.3-8-4.3c-1.2-4.2,0.9-9.2,4.5-10.2c3.1-0.9,4.8,0.3,5.3,2
		c1.1,3.7-4,7.1-6.2,7.7L139.4,64z M140.9,56.4c-1.8,0.5-2.4,2.9-2,5.1c2.4-1,3.7-3.4,3.4-4.5C142.2,56.8,141.7,56.1,140.9,56.4z"/>
</g>
<g class="st0">
	<path d="M151.2,53.3c0.6-1.9,2-3.3,3.8-3.8c1.2-0.4,1.8,0.3,2,1.1c0.3,1.1-0.1,1.6-1,1.8c-2,0.6-3.5,2.5-3.7,4.5l2.1,6.5
		c0.2,0.7-0.7,1.7-1.5,1.9c-1.1,0.4-1.6-0.1-1.8-0.7l-3.7-11.6c-0.3-0.8,0.7-1.7,1.5-2c1.4-0.4,1.6,0,1.9,0.7L151.2,53.3z"/>
</g>
<g class="st0">
	<path d="M172.3,46.3c-0.8,1.8-1.3,4.4-1.8,11.1c-0.6,7.4-0.4,12-3.6,13.1c-1.1,0.4-2.1,0.4-3,0.3c-0.8-0.2-0.9-0.3-1.1-0.8
		c-0.2-0.6-0.1-1.6,1.1-2.1c0.4-0.1,1.2,0.2,1.7,0c1.8-0.6,1.6-4.8,1.6-7.6c-2.5-3.5-5.2-6.4-8.3-9.6c-0.3-0.3-0.3-0.3-0.4-0.7
		c-0.2-0.5,0.8-1.8,1.4-2c0.7-0.2,1.1-0.3,1.7,0.3c2.1,2.1,5,5.9,6.2,7.6c0.3-2.2,0.5-7,0.7-8c0.3-1.4,0.2-1.8,0.9-2.9
		c0.2-0.3,0.3-0.4,1-0.6c0.7-0.2,1.9,0.4,2.1,1C172.5,45.7,172.5,45.8,172.3,46.3z"/>
</g>
<g class="st0">
	<path d="M196,47.3c-0.7,2.4-2,4.4-3.6,5c-2.7,1-5.3,0.1-6.6-3.2c-1.8-4.7,0.5-11.4,4.8-13c0.6-0.2,1.1,0,1.1,0s0.2-1.2,1.6-1.7
		c1-0.4,1.7,0.3,2,1.1l7.6,19.8c0.2,0.6-0.4,1.6-1.4,2c-1,0.4-1.6,0.2-1.9-0.6L196,47.3z M192.9,39.1c-0.2-0.3-0.7-0.6-1.4-0.4
		c-2.7,1-3.5,6-2.3,9.1c0.5,1.3,1.3,2.2,2.2,1.8c2.2-0.8,2.9-4.1,3.1-6.3L192.9,39.1z"/>
</g>
<g class="st0">
	<path d="M208.2,30.4c-0.3-0.6,0.5-1.6,1.2-1.9c0.8-0.3,1.7-0.2,2,0.5l4.8,11.7c0.3,0.8-0.5,1.8-1.2,2c-1,0.4-1.8,0.1-2-0.5
		l-0.7-1.6c-0.7,2-1.9,3.9-3.5,4.5c-2.1,0.9-4.7,0.9-6.5-3.4l-3-7.3c-0.3-0.6,0.5-1.6,1.3-1.9c0.9-0.4,1.6-0.3,1.9,0.6l3.1,7.6
		c0.6,1.3,1.4,2.2,2.4,1.8c1.4-0.6,2.7-3.2,2.5-5.9L208.2,30.4z"/>
</g>
<g class="st0">
	<path d="M214.6,21.4c-1.1,0.5-2.4,0-2.8-0.9c-0.4-1,0.2-2.3,1.2-2.7c1.2-0.5,2.4-0.1,2.9,1C216.3,19.7,215.8,20.9,214.6,21.4z
		 M215.2,27.4c-0.3-0.8-0.1-1.6,0.9-2.1c0.9-0.4,2-0.4,2.3,0.3l5.1,11.7c0.3,0.8-0.2,1.7-1.1,2.1c-0.8,0.3-1.9,0-2.1-0.5L215.2,27.4
		z"/>
</g>
<g class="st0">
	<path d="M228.3,31.3c0.8,1.7,2.5,2,3.9,1.4c1-0.5,1.5-1.1,1.9-1.7c0.4-0.6,0.5-1,0.8-1.2c0.7-0.3,1.6-0.1,2,0.9
		c0.2,0.4,0.2,0.8-0.2,1.2c-1,1.5-2,2.4-3.6,3.2c-3.2,1.5-6.6,1.3-8.6-3.1c-1.8-4-0.5-9.2,3-10.8c2.9-1.4,4.8-0.4,5.5,1.2
		c1.6,3.5-3,7.6-5,8.5L228.3,31.3z M228.6,23.5c-1.7,0.8-2,3.2-1.3,5.3c2.3-1.3,3.2-3.9,2.7-4.9C230,23.7,229.4,23.2,228.6,23.5z"/>
</g>
<g class="st0">
	<path d="M242.6,23.3c0.6,1.1,1.8,3.4,3.1,2.7c0.5-0.2,0.7-0.7,1.2-1.6c0.2-0.4,0.3-0.5,0.8-0.7c0.6-0.3,1.5,0.4,1.7,0.8
		c0.3,0.5,0.3,0.9-0.1,1.5c-0.6,0.9-1.1,1.9-2.7,2.7c-2.9,1.4-5.1,0.2-6.8-3.2L237,20l-0.4,0.2c-0.3,0.1-0.6,0.4-0.8,0.5
		c-0.8,0.4-1.1,0.4-1.4-0.4c-0.3-0.6-0.4-1.7,0.3-2.1l1.2-0.7l-2.2-4.5c-0.3-0.7,0.1-1.7,1.1-2.2c1.1-0.6,1.7-0.2,2,0.5l2.1,4.3
		l1.8-1.1c0.2-0.2,0.3-0.2,0.5-0.3c0.8-0.4,1.5-0.3,1.9,0.6c0.3,0.6,0.2,1.4-0.5,1.8l-2.5,1.6L242.6,23.3z"/>
</g>
<g class="st0">
	<path d="M29.9,123.2l0-0.3c-0.1-0.4-0.3-3-1.6-2.8c-1.3,0.2-2.6,1.1-3,1.5c-0.2,0.2-0.6,0.6-1.4,0.7c-0.7,0.1-1.6-0.7-1.7-1
		c0-0.3-0.3-0.8,0.8-1.5c1.1-0.7,2.9-2,5.3-2.4c3.8-0.5,4.8,2.7,5.2,5.4l0.7,5.1c0.1,0.6,0.4,0.8,0.7,0.8c0.7-0.1,1.3,0.2,1.4,1.1
		c0.1,1,0.1,1.7-1.6,1.9c-1.2,0.2-2.7-0.5-3.4-2.1c-0.7,1.3-2.5,2.8-4.5,3c-2.3,0.3-4.9,0.3-5.3-2.8c-0.4-2.9,2.8-6,7.6-6.6
		C29.2,123.2,29.9,123.2,29.9,123.2z M30.2,125.3c0,0-0.7,0-1.1,0.1c-2.6,0.3-4.6,2.3-4.4,4c0.1,0.7,1,0.9,1.6,0.8
		c2.4-0.3,3.8-2.3,4.1-3.3L30.2,125.3z"/>
</g>
<g class="st0">
	<path d="M41,118c0.9-1.8,2.5-3.2,4.4-3.5c1.9-0.3,4.9,0.4,5.6,5.1l1.2,7.6c0.1,0.7-0.9,1.5-1.7,1.6c-1,0.2-1.6-0.1-1.8-1l-1.2-8
		c-0.2-1.4-0.9-2.6-2-2.4c-1.9,0.3-3.3,2.9-3.8,5.3l1,6.4c0.1,0.7-0.7,1.5-1.6,1.6c-0.9,0.1-1.8-0.3-1.9-0.8l-1.9-12.3
		c-0.1-0.8,1.1-1.6,1.8-1.7c1.2-0.2,1.6,0.1,1.7,1L41,118z"/>
</g>
<g class="st0">
	<path d="M61.8,103.3c-0.1-0.8,0.7-1.5,1.5-1.7c1-0.2,1.8,0.2,2,1.1l3.7,21.7c0.1,0.8-0.1,1.5-1.4,1.8c-0.9,0.1-1.9-0.2-2-1
		l-0.4-2.3c-0.9,2.4-2.7,4.2-4.5,4.6c-3.3,0.6-5.3-1.1-5.9-4.5c-0.9-5,2.7-11.2,7.2-12c0.4-0.1,0.7-0.1,1.1,0L61.8,103.3z
		 M63.7,114.5c-0.1-0.3-0.5-0.8-1.3-0.7c-2.8,0.5-4.6,5.3-4,8.5c0.2,1.3,0.9,2.4,1.9,2.2c2.3-0.4,3.9-4.5,3.9-6.9L63.7,114.5z"/>
</g>
<g class="st0">
	<path d="M86.7,116c0.3,1.2,0.9,3.7,2.3,3.4c0.5-0.1,0.8-0.5,1.5-1.3c0.3-0.3,0.5-0.4,1-0.5c0.7-0.1,1.4,0.7,1.4,1.2
		c0.1,0.6,0.1,1-0.5,1.4c-0.8,0.8-1.5,1.6-3.3,2c-3.2,0.7-5-1.1-5.7-4.7l-1.2-6l-0.5,0.1c-0.3,0.1-0.7,0.2-0.9,0.3
		c-0.8,0.2-1.1,0.1-1.3-0.8c-0.1-0.6,0-1.7,0.8-1.9l1.3-0.4l-1-4.9c-0.2-0.8,0.5-1.6,1.6-1.8c1.2-0.3,1.7,0.2,1.8,0.9l0.9,4.6l2-0.6
		c0.3-0.1,0.3-0.1,0.6-0.2c0.9-0.2,1.5,0.1,1.7,1c0.1,0.6-0.1,1.4-0.9,1.7l-2.8,0.9L86.7,116z"/>
</g>
<g class="st0">
	<path d="M102,110.3L102,110c-0.1-0.4-0.5-3-1.9-2.7c-1.3,0.3-2.5,1.3-2.8,1.7c-0.2,0.3-0.5,0.6-1.3,0.8c-0.7,0.1-1.7-0.5-1.8-0.8
		c-0.1-0.3-0.3-0.7,0.7-1.5c1-0.8,2.7-2.3,5.1-2.8c3.7-0.8,5,2.3,5.6,5l1.1,5.1c0.1,0.5,0.4,0.8,0.7,0.7c0.6-0.1,1.3,0.1,1.5,1
		c0.2,1,0.2,1.7-1.5,2c-1.2,0.3-2.7-0.3-3.6-1.9c-0.6,1.3-2.2,3-4.2,3.4c-2.3,0.5-4.9,0.7-5.5-2.3c-0.6-2.9,2.3-6.2,7-7.2
		C101.3,110.4,102,110.3,102,110.3z M102.5,112.4c0,0-0.7,0.1-1.1,0.2c-2.5,0.6-4.4,2.7-4,4.3c0.2,0.7,1,0.8,1.7,0.7
		c2.3-0.5,3.6-2.6,3.8-3.7L102.5,112.4z"/>
</g>
<g class="st0">
	<path d="M124.7,110.7c0.4,0.2,0.7,0.3,0.8,0.9c0.2,0.7-0.8,1.8-1.2,1.9c-0.5,0.1-0.8,0.2-1.3,0l-8.7-4l1.3,5.2
		c0.2,0.8-0.7,1.6-1.6,1.8c-1.2,0.3-1.7-0.1-1.9-0.9l-5.2-21.4c-0.2-0.8,0.8-1.6,1.4-1.7c1-0.2,1.8,0.2,2,0.8l3,12.3l3.8-5.3
		c0.3-0.4,0.4-0.7,1.1-0.8c1.2-0.3,1.7,0.6,1.8,1.2c0.1,0.4,0,0.7-0.3,1.1l-4,5.2L124.7,110.7z"/>
</g>
<g class="st0">
	<path d="M129.2,107.4c0.5,1.8,2.1,2.4,3.6,2c1.1-0.3,1.7-0.8,2.1-1.3c0.5-0.5,0.7-0.9,1-1c0.7-0.2,1.6,0.2,1.9,1.2
		c0.1,0.4,0.1,0.8-0.4,1.2c-1.3,1.3-2.4,2-4.1,2.5c-3.4,0.9-6.7,0.1-7.9-4.6c-1.1-4.2,1.2-9.1,4.9-10.1c3.1-0.8,4.8,0.5,5.2,2.2
		c1,3.7-4.3,6.9-6.4,7.5L129.2,107.4z M131,99.8c-1.8,0.5-2.5,2.8-2.2,5c2.5-0.9,3.8-3.3,3.6-4.3C132.3,100.3,131.8,99.6,131,99.8z"
		/>
</g>
<g class="st0">
	<path d="M157.1,96.1l-0.1-0.3c-0.1-0.4-0.8-2.9-2.1-2.6c-1.3,0.4-2.4,1.4-2.7,1.9c-0.2,0.3-0.5,0.7-1.3,0.9
		c-0.7,0.2-1.7-0.4-1.8-0.7c-0.1-0.3-0.4-0.7,0.6-1.6c0.9-0.9,2.6-2.5,4.9-3.1c3.7-1.1,5.2,1.9,6,4.6l1.5,5c0.2,0.5,0.5,0.7,0.8,0.6
		c0.6-0.2,1.3,0,1.5,0.9c0.3,1,0.3,1.6-1.3,2.1c-1.2,0.3-2.7-0.1-3.7-1.6c-0.5,1.4-2,3.1-4,3.7c-2.2,0.7-4.8,1-5.7-1.9
		c-0.8-2.8,1.8-6.3,6.5-7.7C156.4,96.2,157.1,96.1,157.1,96.1z M157.7,98.1c0,0-0.7,0.1-1.1,0.3c-2.5,0.7-4.2,3-3.7,4.6
		c0.2,0.7,1.1,0.7,1.7,0.6c2.3-0.7,3.4-2.9,3.6-3.9L157.7,98.1z"/>
</g>
<g class="st0">
	<path d="M170.2,76.6c-0.2-0.7,0.7-1.8,1.4-2c1.1-0.3,1.7,0.1,1.9,0.8l6.9,21.1c0.3,0.9-0.6,1.8-1.3,2c-1,0.3-1.8,0-2-0.7
		L170.2,76.6z"/>
</g>
<g class="st0">
	<path d="M190.6,94.7c-3.6,1.2-7.2-0.1-8.7-4.5c-1.3-3.8,0.5-8.8,4.2-10.1c3.9-1.3,7.4,0.3,8.9,4.6C196.4,88.9,194,93.5,190.6,94.7z
		 M187,82.9c-2,0.7-2.6,3.7-1.8,6c0.9,2.6,2.6,3.6,4.4,3c1.9-0.7,2.7-3.5,1.8-6.1C190.7,83.4,189.1,82.2,187,82.9z"/>
</g>
<g class="st0">
	<path d="M206.3,89.1c-3.6,1.3-7.2,0.1-8.8-4.3c-1.4-3.8,0.3-8.8,4-10.2c3.9-1.4,7.4,0.1,9,4.3C212,83.1,209.7,87.8,206.3,89.1z
		 M202.5,77.4c-2,0.7-2.5,3.8-1.6,6.1c1,2.5,2.7,3.5,4.5,2.9c1.9-0.7,2.7-3.6,1.7-6.1C206.1,77.7,204.5,76.6,202.5,77.4z"/>
</g>
<g class="st0">
	<path d="M227.5,77.2c0.4,0.1,0.7,0.2,1,0.8c0.3,0.6-0.5,1.9-0.9,2c-0.5,0.2-0.8,0.3-1.2,0.2l-9.2-2.7l2,5c0.3,0.8-0.5,1.7-1.3,2.1
		c-1.1,0.5-1.7,0.1-2-0.6l-8.2-20.4c-0.3-0.7,0.6-1.7,1.2-1.9c0.9-0.4,1.9-0.1,2.1,0.5l4.7,11.7l3-5.8c0.3-0.5,0.3-0.7,1-1
		c1.1-0.5,1.8,0.4,2,0.9c0.2,0.4,0.1,0.7-0.2,1.1l-3.2,5.7L227.5,77.2z"/>
</g>
<g class="st0">
	<path d="M236.3,77.2c-0.9,0.4-2.2,0.4-2.8-1c-0.3-0.6,0.2-2.4,1.1-2.8c1.1-0.5,2.2-0.3,2.8,1.1C237.7,75.1,237.4,76.8,236.3,77.2z"
		/>
</g>
<g class="st0">
	<path d="M245.1,73.4c-0.9,0.4-2.1,0.4-2.8-1c-0.3-0.6,0.2-2.4,1.1-2.8c1.1-0.5,2.2-0.3,2.8,1C246.5,71.3,246.2,72.9,245.1,73.4z"/>
</g>
<g class="st0">
	<path d="M253.8,69.4c-0.9,0.4-2.1,0.5-2.8-1c-0.3-0.6,0.1-2.4,1-2.8c1.1-0.5,2.2-0.4,2.8,1C255.1,67.3,254.9,68.9,253.8,69.4z"/>
</g>
</svg>
