<?xml version="1.0" encoding="utf-8"?>
<!-- Generator: Adobe Illustrator 22.1.0, SVG Export Plug-In . SVG Version: 6.00 Build 0)  -->
<svg version="1.1" id="Capa_1" xmlns="http://www.w3.org/2000/svg" xmlns:xlink="http://www.w3.org/1999/xlink" x="0px" y="0px"
	 viewBox="0 0 473.9 150.5" style="enable-background:new 0 0 473.9 150.5;" xml:space="preserve">
<style type="text/css">
	.st0{enable-background:new    ;}
</style>
<title>TEX_TEXT_1040A</title>
<g class="st0">
	<path d="M1.4,25.5l3.3-0.8V7.3L1.4,6.5V6h9.8c3.1,0,6.1,1,6.1,4.6c0,3-3.5,4.4-5.2,4.8v0.1c1.8,0.2,6.3,0.7,6.3,5
		c0,3.6-3.3,5.6-8.4,5.6H1.4V25.5z M7.1,15.1c4.2,0,7.6-0.8,7.6-4.7c0-2.8-2.3-3.5-5-3.5C8.8,6.9,7.9,7,7.1,7.1V15.1z M7.1,24.7
		c1,0.1,2,0.3,2.9,0.3c3.7,0,5.8-1.7,5.8-4.4c0-4.2-4.5-4.8-7.6-4.8c-0.2,0-0.8,0-1.1,0.1V24.7z"/>
	<path d="M21,25.5l2.8-0.8V13.3h-3.5v-0.5l5.6-1.7v13.6l2.8,0.8V26H21V25.5z M22.9,6.4c0-0.9,0.7-1.6,1.6-1.6s1.6,0.7,1.6,1.6
		c0,0.9-0.7,1.5-1.6,1.5S22.9,7.3,22.9,6.4z"/>
	<path d="M33.2,23.5c0.5,0.8,1.6,0.8,4,0.8c1.1,0,2.2-0.1,3.3-0.1c2.3,0,3.8,1,3.8,3.4c0,2.8-3.2,5.2-7.7,5.2
		c-5.4,0-6.9-2.5-6.9-4.6l3.1-1.6l0.4,0.3c-0.6,0.6-1.4,1.1-1.4,2.2c0,1.7,2.2,2.6,4.6,2.6c3.5,0,6.1-1.6,6.1-3.6c0-1.9-1.1-2-3.1-2
		c-6.8,0-7.8-0.4-8.6-3.2c1.5-0.1,2.4-0.9,3.8-2.2c-1.3-0.3-3.8-1.3-3.8-4.6c0-3.1,2.5-5.2,5.6-5.2c1.4,0,2.3,0.3,3.2,0.6
		c0.8,0.3,1.7,0.6,3,0.6c0.6,0,1.4-0.1,2-0.1v1.4h-2.9c0.3,0.7,0.5,1.5,0.5,2.2c0,5.1-4.6,5.3-6.5,5.3L33.2,23.5z M36.4,20.2
		c3,0,3.8-2.3,3.8-4.1c0-1.7-0.6-4.1-3.5-4.1c-2.6,0-3.7,2-3.7,4.4C32.9,18.4,33.9,20.2,36.4,20.2z"/>
	<path d="M55.3,25.5l3.3-0.8V7.3l-3.3-0.8V6h9.8c3.1,0,6.1,1,6.1,4.6c0,3-3.5,4.4-5.2,4.8v0.1c1.8,0.2,6.3,0.7,6.3,5
		c0,3.6-3.3,5.6-8.4,5.6h-8.7V25.5z M61.1,15.1c4.2,0,7.6-0.8,7.6-4.7c0-2.8-2.3-3.5-5-3.5c-0.9,0-1.8,0.1-2.6,0.3V15.1z M61.1,24.7
		c1,0.1,2,0.3,2.9,0.3c3.7,0,5.8-1.7,5.8-4.4c0-4.2-4.5-4.8-7.6-4.8c-0.2,0-0.8,0-1.1,0.1V24.7z"/>
	<path d="M86.6,22.5L86.6,22.5c-0.8,1.1-2.9,3.9-6,3.9c-2.9,0-3.7-1.5-3.7-4.2v-9.4l-2.8-0.3V12l4.9-0.9v10c0,2.1,0,3.8,2.3,3.8
		c1.9,0,5.2-1.7,5.2-5.4v-6.7l-3.5-0.3V12l5.6-0.9v13.1h2.8v0.5l-4.9,1.7V22.5z"/>
	<path d="M93.9,25.5l2.8-0.8V13.3h-3.3v-0.5l5.4-1.7V15h0.1c0.7-1.1,2.8-3.9,6.2-3.9c2.9,0,3.7,1.5,3.7,4.2v9.4l2.8,0.8V26h-7.4
		v-0.5l2.5-0.8v-8.3c0-2.1,0-3.8-2.3-3.8c-1.9,0-5.5,1.7-5.5,5.4v6.7l2.5,0.8V26h-7.4V25.5z"/>
	<path d="M113.4,25.5l2.8-0.8V13.3h-3.3v-0.5l5.4-1.7V15h0.1c0.7-1.1,2.8-3.9,6.2-3.9c2.9,0,3.7,1.5,3.7,4.2v9.4l2.8,0.8V26h-7.4
		v-0.5l2.5-0.8v-8.3c0-2.1,0-3.8-2.3-3.8c-1.9,0-5.5,1.7-5.5,5.4v6.7l2.5,0.8V26h-7.4V25.5z"/>
	<path d="M141.4,26.8c-1,2.6-2.5,6.1-6,6.1c-1.5,0-2.2-0.4-3-0.7v-3.7h0.5c0.2,1.2,0.6,3.1,2.9,3.1c2.9,0,3.9-3.3,4.5-4.9l-6.2-13.9
		l-2.6-0.8v-0.5h8.4v0.5l-3.6,0.8l5.1,11.4l3.6-11.4l-2.8-0.8v-0.5h6.9v0.5l-2.6,0.8L141.4,26.8z"/>
	<path d="M168.8,15.8c-0.4-1.2-0.8-3.8-3.8-3.8c-1.5,0-2.7,0.9-2.7,2.2c0,1.6,1.8,2.4,3.8,3.2c2.3,1,4.8,2,4.8,4.5
		c0,2.6-2,4.5-5.7,4.5c-2.3,0-4.4-0.9-5.3-1.2v-4.9h1c0.5,1.8,0.8,5.2,4.5,5.2c2,0,3.4-1.3,3.4-2.9c0-1.7-2-2.5-4-3.4
		c-2.2-0.9-4.6-1.9-4.6-4.5c0-2.3,2-3.7,4.9-3.7c2,0,3.8,0.7,4.5,1.1v3.6H168.8z"/>
</g>
<g class="st0">
	<path d="M173,32.4l2.8-0.8V13.3h-3.3v-0.5l5.4-1.7v3.8h0.1c0.7-1.1,2.5-3.8,5.5-3.8c4.4,0,5.5,3.6,5.5,6.9c0,4.7-2.6,8.5-6.8,8.5
		c-1.6,0-3.2-0.7-4.3-1.3v6.5l3.6,0.8v0.5H173V32.4z M181.8,25.6c2.8,0,4.8-2.9,4.8-7.1c0-3.6-1.2-5.9-3.5-5.9c-3,0-4.6,2.3-5,4.8
		c-0.1,0.8-0.2,2.7-0.2,3.7C177.9,24.5,180.1,25.6,181.8,25.6z"/>
</g>
<g class="st0">
	<path d="M191.8,25.5l2.8-0.8V13.3h-3.5v-0.5l5.6-1.7v13.6l2.8,0.8V26h-7.7V25.5z M193.8,6.4c0-0.9,0.7-1.6,1.6-1.6s1.6,0.7,1.6,1.6
		c0,0.9-0.7,1.5-1.6,1.5S193.8,7.3,193.8,6.4z"/>
</g>
<g class="st0">
	<path d="M213.7,24.9c-1.6,0.8-3.4,1.6-5.7,1.6c-4.3,0-6.7-2.7-6.7-7.4c0-4.4,2.5-8,7.1-8c5.3,0,5.5,4.2,5.6,6l-10.2,0.5
		c0,0.3-0.1,1-0.1,1.3c0,3.9,1.4,6.6,4.5,6.6c3.5,0,4.9-2.9,5.7-5h0.6L213.7,24.9z M211.7,16.2c-0.1-1.2-0.3-4.2-3.4-4.2
		c-2.3,0-3.9,2-4.4,4.9L211.7,16.2z"/>
	<path d="M226.8,15.8c-0.4-1.2-0.8-3.8-3.8-3.8c-1.5,0-2.7,0.9-2.7,2.2c0,1.6,1.8,2.4,3.8,3.2c2.3,1,4.8,2,4.8,4.5
		c0,2.6-2,4.5-5.7,4.5c-2.3,0-4.4-0.9-5.3-1.2v-4.9h1c0.5,1.8,0.8,5.2,4.5,5.2c2,0,3.4-1.3,3.4-2.9c0-1.7-2-2.5-4-3.4
		c-2.2-0.9-4.6-1.9-4.6-4.5c0-2.3,2-3.7,4.9-3.7c2,0,3.8,0.7,4.5,1.1v3.6H226.8z"/>
	<path d="M249.6,23.4c-0.9,1-2.8,3.1-5.9,3.1c-2,0-3.5-1.2-3.5-3.4c0-4.4,5.4-4.7,9.4-5.6v-2.3c0-1.9-0.6-3-2.5-3
		c-2.5,0-4,1.6-4.5,3.9H242v-3.3c1.2-0.6,3.6-1.6,6-1.6c3.3,0,3.8,1.7,3.8,3.9v9.4h2.8V25l-4.9,1.5V23.4z M249.6,18.4
		c-3.1,0.4-7.3,1.6-7.3,4.5c0,1.3,0.9,2.3,2.3,2.3c1.7,0,5-1.6,5-4.5V18.4z"/>
	<path d="M256.3,25.5l2.8-0.8V13.3h-3.3v-0.5l5.4-1.7V15h0.1c0.7-1.1,2.8-3.9,6.2-3.9c2.9,0,3.7,1.5,3.7,4.2v9.4l2.8,0.8V26h-7.4
		v-0.5l2.5-0.8v-8.3c0-2.1,0-3.8-2.3-3.8c-1.9,0-5.5,1.7-5.5,5.4v6.7l2.5,0.8V26h-7.4V25.5z"/>
	<path d="M275.9,19.2c0-4.6,2.7-8.1,7.3-8.1c4.4,0,6.9,3.1,6.9,7.4c0,4.4-2.6,8-7.3,8C278.7,26.5,275.9,23.8,275.9,19.2z
		 M282.8,25.6c3.2,0,4.8-3.2,4.8-6.9c0-4-1.6-6.7-4.5-6.7c-3.1,0-4.8,3.3-4.8,6.9C278.3,22.9,279.9,25.6,282.8,25.6z"/>
	<path d="M300.2,26.2c-0.5,0.2-1.2,0.3-1.7,0.3c-2.5,0-3.6-1.6-3.6-3.6v-9.5h-2.8v-0.5l3.1-0.9l1.1-4.9h0.7v5h4.4v1.3H297v8.4
		c0,1.8,0.1,3.2,2.2,3.2c1.1,0,2-0.6,2.7-1.1l0.3,0.4L300.2,26.2z"/>
	<path d="M303.2,25.5l2.8-0.8V5.5h-3.8V5l5.9-1.7V15h0.1c0.7-1.1,2.8-3.9,6.2-3.9c2.9,0,3.7,1.5,3.7,4.2v9.4l2.8,0.8V26h-7.4v-0.5
		l2.5-0.8v-8.3c0-2.1,0-3.8-2.3-3.8c-1.9,0-5.5,1.7-5.5,5.4v6.7l2.5,0.8V26h-7.4V25.5z"/>
	<path d="M335.2,24.9c-1.6,0.8-3.4,1.6-5.7,1.6c-4.3,0-6.7-2.7-6.7-7.4c0-4.4,2.5-8,7.1-8c5.3,0,5.5,4.2,5.6,6l-10.2,0.5
		c0,0.3-0.1,1-0.1,1.3c0,3.9,1.4,6.6,4.5,6.6c3.5,0,4.9-2.9,5.7-5h0.6L335.2,24.9z M333.2,16.2c-0.1-1.2-0.3-4.2-3.4-4.2
		c-2.3,0-3.9,2-4.4,4.9L333.2,16.2z"/>
	<path d="M339.1,25.5l2.8-0.8V13.3h-3.5v-0.5l5.6-1.7v4h0.1c0.8-1.3,2-4,4.4-4c0.7,0,1.5,0.4,2,0.8l-0.2,3.1h-0.5
		c-0.3-1.2-0.6-2.2-1.8-2.2c-2.2,0-4,3-4,6v6l3.5,0.8V26h-8.4V25.5z"/>
</g>
<g class="st0">
	<path d="M360.9,25.5l2.8-0.8V13.3h-2.8v-0.5l2.8-0.9c0-2.8,0.3-8.3,5.7-8.3c1.3,0,2.6,0.4,3.7,0.9v3.5h-0.5
		c-0.3-1.3-0.9-3.5-3.5-3.5c-2.6,0-3.3,2.1-3.3,4.7v2.8h4.3v1.3h-4.3v11.4l3.6,0.8V26h-8.5V25.5z"/>
</g>
<g class="st0">
	<path d="M373.1,25.5l2.8-0.8V13.3h-3.5v-0.5l5.6-1.7v4h0.1c0.8-1.3,2-4,4.4-4c0.7,0,1.5,0.4,2,0.8l-0.2,3.1h-0.5
		c-0.3-1.2-0.6-2.2-1.8-2.2c-2.2,0-4,3-4,6v6l3.5,0.8V26h-8.4V25.5z"/>
</g>
<g class="st0">
	<path d="M386.9,25.5l2.8-0.8V13.3h-3.5v-0.5l5.6-1.7v13.6l2.8,0.8V26h-7.7V25.5z M388.9,6.4c0-0.9,0.7-1.6,1.6-1.6
		c0.9,0,1.6,0.7,1.6,1.6c0,0.9-0.7,1.5-1.6,1.5C389.6,7.9,388.9,7.3,388.9,6.4z"/>
	<path d="M409,24.9c-1.6,0.8-3.4,1.6-5.7,1.6c-4.3,0-6.7-2.7-6.7-7.4c0-4.4,2.5-8,7.1-8c5.3,0,5.5,4.2,5.6,6l-10.2,0.5
		c0,0.3-0.1,1-0.1,1.3c0,3.9,1.4,6.6,4.5,6.6c3.5,0,4.9-2.9,5.7-5h0.6L409,24.9z M406.9,16.2c-0.1-1.2-0.3-4.2-3.4-4.2
		c-2.3,0-3.9,2-4.4,4.9L406.9,16.2z"/>
	<path d="M413,25.5l2.8-0.8V13.3h-3.3v-0.5l5.4-1.7V15h0.1c0.7-1.1,2.8-3.9,6.2-3.9c2.9,0,3.7,1.5,3.7,4.2v9.4l2.8,0.8V26h-7.4v-0.5
		l2.5-0.8v-8.3c0-2.1,0-3.8-2.3-3.8c-1.9,0-5.5,1.7-5.5,5.4v6.7l2.5,0.8V26H413V25.5z"/>
	<path d="M443.8,22.6L443.8,22.6c-1,1.5-2.9,3.9-6,3.9c-3.5,0-5.4-2.4-5.4-6.8c0-5.2,3-8.6,7-8.6c1.8,0,3.2,0.7,4.3,1.3V5.5h-4V5
		l6.1-1.7v21.2h2.8V25l-4.9,1.5V22.6z M438.7,24.8c2,0,4.5-1.3,5-4.7c0.1-0.8,0.2-1.9,0.2-2.8c0-0.8-0.1-1.5-0.2-2.4
		c-0.3-2.3-2.3-2.9-3.8-2.9c-3,0-4.9,2.9-4.9,7.3C434.9,22.6,436.2,24.8,438.7,24.8z"/>
</g>
<g class="st0">
	<path d="M1.4,63.5l2.8-0.8V51.3H0.8v-0.5l5.6-1.7v13.6l2.8,0.8V64H1.4V63.5z M3.4,44.4c0-0.9,0.7-1.6,1.6-1.6s1.6,0.7,1.6,1.6
		c0,0.9-0.7,1.5-1.6,1.5S3.4,45.3,3.4,44.4z"/>
</g>
<g class="st0">
	<path d="M11.2,63.5l2.8-0.8V51.3h-3.3v-0.5l5.4-1.7V53h0.1c0.7-1.1,2.8-3.9,6.2-3.9c2.9,0,3.7,1.5,3.7,4.2v9.4l2.8,0.8V64h-7.4
		v-0.5l2.5-0.8v-8.3c0-2.1,0-3.8-2.3-3.8c-1.9,0-5.5,1.7-5.5,5.4v6.7l2.5,0.8V64h-7.4V63.5z"/>
</g>
<g class="st0">
	<path d="M46.9,64.2c-0.5,0.2-1.2,0.3-1.7,0.3c-2.5,0-3.6-1.6-3.6-3.6v-9.5h-2.8v-0.5l3.1-0.9l1.1-4.9h0.7v5H48v1.3h-4.4v8.4
		c0,1.8,0.1,3.2,2.2,3.2c1.1,0,2-0.6,2.7-1.1l0.3,0.4L46.9,64.2z"/>
</g>
<g class="st0">
	<path d="M50.1,63.5l2.8-0.8V43.5h-3.8V43l5.9-1.7V53h0.1c0.7-1.1,2.8-3.9,6.2-3.9c2.9,0,3.7,1.5,3.7,4.2v9.4l2.8,0.8V64h-7.4v-0.5
		l2.5-0.8v-8.3c0-2.1,0-3.8-2.3-3.8c-1.9,0-5.5,1.7-5.5,5.4v6.7l2.5,0.8V64h-7.4V63.5z"/>
</g>
<g class="st0">
	<path d="M81.6,62.8c-1.6,0.8-3.4,1.6-5.7,1.6c-4.3,0-6.7-2.7-6.7-7.4c0-4.4,2.5-8,7.1-8c5.3,0,5.5,4.2,5.6,6l-10.2,0.5
		c0,0.3-0.1,1-0.1,1.3c0,3.9,1.4,6.6,4.5,6.6c3.5,0,4.9-2.9,5.7-5h0.6L81.6,62.8z M79.5,54.2c-0.1-1.2-0.3-4.2-3.4-4.2
		c-2.3,0-3.9,2-4.4,4.9L79.5,54.2z"/>
</g>
<g class="st0">
	<path d="M95.7,50.8L93.3,50v-0.5h8.3V50l-3.8,0.8l3,10.1h0.1l5-11.8h0.1l3.9,11.8h0.1l3.7-10.1l-3.8-0.8v-0.5h7.8V50l-2.4,0.8
		l-6.2,13.6H109l-3.7-10.9L100,64.4h-0.1L95.7,50.8z"/>
</g>
<g class="st0">
	<path d="M128.5,61.3c-0.9,1-2.8,3.1-5.9,3.1c-2,0-3.5-1.2-3.5-3.4c0-4.4,5.4-4.7,9.4-5.6v-2.3c0-1.9-0.6-3-2.5-3
		c-2.5,0-4,1.6-4.5,3.9h-0.6v-3.3c1.2-0.6,3.6-1.6,6-1.6c3.3,0,3.8,1.7,3.8,3.9v9.4h2.8V63l-4.9,1.5V61.3z M128.5,56.4
		c-3.1,0.4-7.3,1.6-7.3,4.5c0,1.3,0.9,2.3,2.3,2.3c1.7,0,5-1.6,5-4.5V56.4z"/>
</g>
<g class="st0">
	<path d="M135.3,63.5l2.8-0.8V51.3h-3.5v-0.5l5.6-1.7v4h0.1c0.8-1.3,2-4,4.4-4c0.7,0,1.5,0.4,2,0.8l-0.2,3.1h-0.5
		c-0.3-1.2-0.6-2.2-1.8-2.2c-2.2,0-4,3-4,6v6l3.5,0.8V64h-8.4V63.5z"/>
</g>
<g class="st0">
	<path d="M159.5,60.6L159.5,60.6c-1,1.5-2.9,3.9-6,3.9c-3.5,0-5.4-2.4-5.4-6.8c0-5.2,3-8.6,7-8.6c1.8,0,3.2,0.7,4.3,1.3v-6.9h-4V43
		l6.1-1.7v21.2h2.8V63l-4.9,1.5V60.6z M154.3,62.8c2,0,4.5-1.3,5-4.7c0.1-0.8,0.2-1.9,0.2-2.8c0-0.8-0.1-1.5-0.2-2.4
		c-0.3-2.3-2.3-2.9-3.8-2.9c-3,0-4.9,2.9-4.9,7.3C150.6,60.6,151.8,62.8,154.3,62.8z"/>
</g>
<g class="st0">
	<path d="M166.1,63.5l2.8-0.8V51.3h-3.5v-0.5l5.6-1.7v4h0.1c0.8-1.3,2-4,4.4-4c0.7,0,1.5,0.4,2,0.8l-0.2,3.1h-0.5
		c-0.3-1.2-0.6-2.2-1.8-2.2c-2.2,0-4,3-4,6v6l3.5,0.8V64h-8.4V63.5z"/>
</g>
<g class="st0">
	<path d="M179.2,57.2c0-4.6,2.7-8.1,7.3-8.1c4.4,0,6.9,3.1,6.9,7.4c0,4.4-2.6,8-7.3,8C181.9,64.4,179.2,61.8,179.2,57.2z
		 M186.1,63.6c3.2,0,4.8-3.2,4.8-6.9c0-4-1.6-6.7-4.5-6.7c-3.1,0-4.8,3.3-4.8,6.9C181.6,60.9,183.2,63.6,186.1,63.6z"/>
</g>
<g class="st0">
	<path d="M197.2,64.8V43.5h-3.8V43l5.9-1.7V53h0.1c0.7-1.2,2.3-3.9,5.7-3.9c3.8,0,5.5,2.7,5.5,6.9c0,4.8-2.5,8.5-6.8,8.5
		c-2.2,0-3.9-1-5.1-1.9l-1,2.5L197.2,64.8z M203.3,63.6c2.9,0,4.9-3,4.9-7.2c0-2.9-1-5.6-3.6-5.6c-2.8,0-4.6,1.9-5.1,4.3
		c-0.1,0.3-0.2,1.8-0.2,2.8c0,0.9,0,2.1,0.2,2.7C200,62.7,201.3,63.6,203.3,63.6z"/>
</g>
<g class="st0">
	<path d="M225.9,62.8c-1.6,0.8-3.4,1.6-5.7,1.6c-4.3,0-6.7-2.7-6.7-7.4c0-4.4,2.5-8,7.1-8c5.3,0,5.5,4.2,5.6,6l-10.2,0.5
		c0,0.3-0.1,1-0.1,1.3c0,3.9,1.4,6.6,4.5,6.6c3.5,0,4.9-2.9,5.7-5h0.6L225.9,62.8z M223.9,54.2c-0.1-1.2-0.3-4.2-3.4-4.2
		c-2.3,0-3.9,2-4.4,4.9L223.9,54.2z"/>
</g>
<g class="st0">
	<path d="M229.9,70.3c0.4-1.5,1.3-4,1.3-5.7c0-1.2-0.2-1.6-0.6-2.3l1.6-0.9c0.5,0.7,1.1,1.6,1.1,2.5c0,1.6-1.3,3.6-2.8,6.5H229.9z"
		/>
</g>
<g class="st0">
	<path d="M254.2,64.2c-0.5,0.2-1.2,0.3-1.7,0.3c-2.5,0-3.6-1.6-3.6-3.6v-9.5H246v-0.5l3.1-0.9l1.1-4.9h0.7v5h4.4v1.3h-4.4v8.4
		c0,1.8,0.1,3.2,2.2,3.2c1.1,0,2-0.6,2.7-1.1l0.3,0.4L254.2,64.2z"/>
	<path d="M258.7,63.5l2.8-0.8V51.3h-3.5v-0.5l5.6-1.7v4h0.1c0.8-1.3,2-4,4.4-4c0.7,0,1.5,0.4,2,0.8l-0.2,3.1h-0.5
		c-0.3-1.2-0.6-2.2-1.8-2.2c-2.2,0-4,3-4,6v6l3.5,0.8V64h-8.4V63.5z"/>
</g>
<g class="st0">
	<path d="M281.6,64.8c-1,2.6-2.5,6.1-6,6.1c-1.5,0-2.2-0.4-3-0.7v-3.7h0.5c0.2,1.2,0.6,3.1,2.9,3.1c2.9,0,3.9-3.3,4.5-4.9l-6.2-13.9
		l-2.6-0.8v-0.5h8.4V50l-3.6,0.8l5.1,11.4l3.6-11.4l-2.8-0.8v-0.5h6.9V50l-2.6,0.8L281.6,64.8z"/>
	<path d="M291.2,63.5l2.8-0.8V51.3h-3.5v-0.5l5.6-1.7v13.6l2.8,0.8V64h-7.7V63.5z M293.2,44.4c0-0.9,0.7-1.6,1.6-1.6
		s1.6,0.7,1.6,1.6c0,0.9-0.7,1.5-1.6,1.5S293.2,45.3,293.2,44.4z"/>
	<path d="M301,63.5l2.8-0.8V51.3h-3.3v-0.5l5.4-1.7V53h0.1c0.7-1.1,2.8-3.9,6.2-3.9c2.9,0,3.7,1.5,3.7,4.2v9.4l2.8,0.8V64h-7.4v-0.5
		l2.5-0.8v-8.3c0-2.1,0-3.8-2.3-3.8c-1.9,0-5.5,1.7-5.5,5.4v6.7l2.5,0.8V64H301V63.5z"/>
	<path d="M323.6,61.5c0.5,0.8,1.6,0.8,4,0.8c1.1,0,2.2-0.1,3.3-0.1c2.3,0,3.8,1,3.8,3.4c0,2.8-3.2,5.2-7.7,5.2
		c-5.4,0-6.9-2.5-6.9-4.6l3.1-1.6l0.4,0.3c-0.6,0.6-1.4,1.1-1.4,2.2c0,1.7,2.2,2.6,4.6,2.6c3.5,0,6.1-1.6,6.1-3.6c0-1.9-1.1-2-3.1-2
		c-6.8,0-7.8-0.4-8.6-3.2c1.5-0.1,2.4-0.9,3.8-2.2c-1.3-0.3-3.8-1.3-3.8-4.6c0-3.1,2.5-5.2,5.6-5.2c1.4,0,2.3,0.3,3.2,0.6
		c0.8,0.3,1.7,0.6,3,0.6c0.6,0,1.4-0.1,2-0.1v1.4h-2.9c0.3,0.7,0.5,1.5,0.5,2.2c0,5.1-4.6,5.3-6.5,5.3L323.6,61.5z M326.8,58.1
		c3,0,3.8-2.3,3.8-4.1c0-1.7-0.6-4.1-3.5-4.1c-2.6,0-3.7,2-3.7,4.4C323.4,56.4,324.4,58.1,326.8,58.1z"/>
</g>
<g class="st0">
</g>
<g class="st0">
	<path d="M353.3,64.2c-0.5,0.2-1.2,0.3-1.7,0.3c-2.5,0-3.6-1.6-3.6-3.6v-9.5h-2.8v-0.5l3.1-0.9l1.1-4.9h0.7v5h4.4v1.3h-4.4v8.4
		c0,1.8,0.1,3.2,2.2,3.2c1.1,0,2-0.6,2.7-1.1l0.3,0.4L353.3,64.2z"/>
</g>
<g class="st0">
	<path d="M357.2,57.2c0-4.6,2.7-8.1,7.3-8.1c4.4,0,6.9,3.1,6.9,7.4c0,4.4-2.6,8-7.3,8C359.9,64.4,357.2,61.8,357.2,57.2z
		 M364.1,63.6c3.2,0,4.8-3.2,4.8-6.9c0-4-1.6-6.7-4.5-6.7c-3.1,0-4.8,3.3-4.8,6.9C359.6,60.9,361.2,63.6,364.1,63.6z"/>
	<path d="M382.7,63.5l2.8-0.8V43.5h-3.8V43l5.9-1.7V53h0.1c0.7-1.1,2.8-3.9,6.2-3.9c2.9,0,3.7,1.5,3.7,4.2v9.4l2.8,0.8V64H393v-0.5
		l2.5-0.8v-8.3c0-2.1,0-3.8-2.3-3.8c-1.9,0-5.5,1.7-5.5,5.4v6.7l2.5,0.8V64h-7.4V63.5z"/>
	<path d="M402.1,63.5l2.8-0.8V51.3h-3.5v-0.5l5.6-1.7v13.6l2.8,0.8V64h-7.7V63.5z M404.1,44.4c0-0.9,0.7-1.6,1.6-1.6
		c0.9,0,1.6,0.7,1.6,1.6c0,0.9-0.7,1.5-1.6,1.5C404.8,45.9,404.1,45.3,404.1,44.4z"/>
	<path d="M422.9,60.6L422.9,60.6c-1,1.5-2.9,3.9-6,3.9c-3.5,0-5.4-2.4-5.4-6.8c0-5.2,3-8.6,7-8.6c1.8,0,3.2,0.7,4.3,1.3v-6.9h-4V43
		l6.1-1.7v21.2h2.8V63l-4.9,1.5V60.6z M417.7,62.8c2,0,4.5-1.3,5-4.7c0.1-0.8,0.2-1.9,0.2-2.8c0-0.8-0.1-1.5-0.2-2.4
		c-0.3-2.3-2.3-2.9-3.8-2.9c-3,0-4.9,2.9-4.9,7.3C414,60.6,415.2,62.8,417.7,62.8z"/>
</g>
<g class="st0">
	<path d="M442,62.8c-1.6,0.8-3.4,1.6-5.7,1.6c-4.3,0-6.7-2.7-6.7-7.4c0-4.4,2.5-8,7.1-8c5.3,0,5.5,4.2,5.6,6l-10.2,0.5
		c0,0.3-0.1,1-0.1,1.3c0,3.9,1.4,6.6,4.5,6.6c3.5,0,4.9-2.9,5.7-5h0.6L442,62.8z M440,54.2c-0.1-1.2-0.3-4.2-3.4-4.2
		c-2.3,0-3.9,2-4.4,4.9L440,54.2z"/>
</g>
<g class="st0">
	<path d="M447.8,62.9c0-0.9,0.7-1.6,1.6-1.6c0.9,0,1.6,0.7,1.6,1.6c0,0.9-0.7,1.6-1.6,1.6C448.5,64.4,447.8,63.7,447.8,62.9z
		 M449,58.6c-0.5-2.8-0.9-5.7-0.9-9.2v-3.8c0-0.6,0.1-1.6,1.2-1.6c1.2,0,1.2,1,1.2,1.6v3.8c0,3.5-0.4,6.4-0.9,9.2H449z"/>
</g>
<g class="st0">
	<path d="M1.4,101.4l3.3-0.7V83.2l-3.3-0.8v-0.5h9.3v0.5l-3.6,0.8v17.5h6c3.1,0,3.6-1.7,4.2-5.9H18v7.2H1.4V101.4z"/>
	<path d="M33,100.8c-1.6,0.8-3.4,1.6-5.7,1.6c-4.3,0-6.7-2.7-6.7-7.4c0-4.4,2.5-8,7.1-8c5.3,0,5.5,4.2,5.6,6l-10.2,0.5
		c0,0.3-0.1,1-0.1,1.3c0,3.9,1.4,6.6,4.5,6.6c3.5,0,4.9-2.9,5.7-5h0.6L33,100.8z M30.9,92.2c-0.1-1.2-0.3-4.2-3.4-4.2
		c-2.3,0-3.9,2-4.4,4.9L30.9,92.2z"/>
</g>
<g class="st0">
	<path d="M44.2,102.2c-0.5,0.2-1.2,0.3-1.7,0.3c-2.5,0-3.6-1.6-3.6-3.6v-9.5h-2.8v-0.5l3.1-0.9l1.1-4.9H41v5h4.4v1.3H41v8.4
		c0,1.8,0.1,3.2,2.2,3.2c1.1,0,2-0.6,2.7-1.1l0.3,0.4L44.2,102.2z"/>
</g>
<g class="st0">
	<path d="M49.4,90.5c0.4-1.5,1.2-3.9,1.2-5.5c0-1.1-0.3-1.8-0.7-2.5l1.6-0.9c0.6,0.6,1.2,1.5,1.2,2.7c0,1.4-1.2,3.7-2.7,6.3H49.4z"
		/>
</g>
<g class="st0">
	<path d="M64.6,91.8c-0.4-1.2-0.8-3.8-3.8-3.8c-1.5,0-2.7,0.9-2.7,2.2c0,1.6,1.8,2.4,3.8,3.2c2.3,1,4.8,2,4.8,4.5
		c0,2.6-2,4.5-5.7,4.5c-2.3,0-4.4-0.9-5.3-1.2v-4.9h1c0.5,1.8,0.8,5.2,4.5,5.2c2,0,3.4-1.3,3.4-2.9c0-1.7-2-2.5-4-3.4
		c-2.2-0.9-4.6-1.9-4.6-4.5c0-2.3,2-3.7,4.9-3.7c2,0,3.8,0.7,4.5,1.1v3.6H64.6z"/>
	<path d="M77.5,101.5l2.8-0.8V81.5h-3.8V81l5.9-1.7V91h0.1c0.7-1.1,2.8-3.9,6.2-3.9c2.9,0,3.7,1.5,3.7,4.2v9.4l2.8,0.8v0.5h-7.4
		v-0.5l2.5-0.8v-8.3c0-2.1,0-3.8-2.3-3.8c-1.9,0-5.5,1.7-5.5,5.4v6.7l2.5,0.8v0.5h-7.4V101.5z"/>
	<path d="M109.6,100.8c-1.6,0.8-3.4,1.6-5.7,1.6c-4.3,0-6.7-2.7-6.7-7.4c0-4.4,2.5-8,7.1-8c5.3,0,5.5,4.2,5.6,6l-10.2,0.5
		c0,0.3-0.1,1-0.1,1.3c0,3.9,1.4,6.6,4.5,6.6c3.5,0,4.9-2.9,5.7-5h0.6L109.6,100.8z M107.5,92.2c-0.1-1.2-0.3-4.2-3.4-4.2
		c-2.3,0-3.9,2-4.4,4.9L107.5,92.2z"/>
	<path d="M113.1,101.5l2.8-0.8V81.5h-3.8V81l5.9-1.7v21.4l2.8,0.8v0.5h-7.7V101.5z"/>
	<path d="M122.8,108.4l2.8-0.8V89.3h-3.3v-0.5l5.4-1.7v3.8h0.1c0.7-1.1,2.5-3.8,5.5-3.8c4.4,0,5.5,3.6,5.5,6.9
		c0,4.7-2.6,8.5-6.8,8.5c-1.6,0-3.2-0.7-4.3-1.3v6.5l3.6,0.8v0.5h-8.6V108.4z M131.5,101.5c2.8,0,4.8-2.9,4.8-7.1
		c0-3.6-1.2-5.9-3.5-5.9c-3,0-4.6,2.3-5,4.8c-0.1,0.8-0.2,2.7-0.2,3.7C127.7,100.5,129.8,101.5,131.5,101.5z"/>
	<path d="M150.3,101.5l3.3-0.8V83.2l-3.3-0.8v-0.5h9.8c3.1,0,6.1,1,6.1,4.6c0,3-3.5,4.4-5.2,4.8v0.1c1.8,0.2,6.3,0.7,6.3,5
		c0,3.6-3.3,5.6-8.4,5.6h-8.7V101.5z M156,91.1c4.2,0,7.6-0.8,7.6-4.7c0-2.8-2.3-3.5-5-3.5c-0.9,0-1.8,0.1-2.6,0.3V91.1z M156,100.7
		c1,0.1,2,0.3,2.9,0.3c3.7,0,5.8-1.7,5.8-4.4c0-4.2-4.5-4.8-7.6-4.8c-0.2,0-0.8,0-1.1,0.1V100.7z"/>
	<path d="M169.9,101.5l2.8-0.8V89.3h-3.5v-0.5l5.6-1.7v13.6l2.8,0.8v0.5h-7.7V101.5z M171.8,82.4c0-0.9,0.7-1.6,1.6-1.6
		s1.6,0.7,1.6,1.6s-0.7,1.5-1.6,1.5S171.8,83.3,171.8,82.4z"/>
	<path d="M182.1,99.5c0.5,0.8,1.6,0.8,4,0.8c1.1,0,2.2-0.1,3.3-0.1c2.3,0,3.8,1,3.8,3.4c0,2.8-3.2,5.2-7.7,5.2
		c-5.4,0-6.9-2.5-6.9-4.6l3.1-1.6l0.4,0.3c-0.6,0.6-1.4,1.1-1.4,2.2c0,1.7,2.2,2.6,4.6,2.6c3.5,0,6.1-1.6,6.1-3.6c0-1.9-1.1-2-3.1-2
		c-6.8,0-7.8-0.4-8.6-3.2c1.5-0.1,2.4-0.9,3.8-2.2c-1.3-0.3-3.8-1.3-3.8-4.6c0-3.1,2.5-5.2,5.6-5.2c1.4,0,2.3,0.3,3.2,0.6
		c0.8,0.3,1.7,0.6,3,0.6c0.6,0,1.4-0.1,2-0.1v1.4h-2.9c0.3,0.7,0.5,1.5,0.5,2.2c0,5.1-4.6,5.3-6.5,5.3L182.1,99.5z M185.2,96.1
		c3,0,3.8-2.3,3.8-4.1c0-1.7-0.6-4.1-3.5-4.1c-2.6,0-3.7,2-3.7,4.4C181.8,94.4,182.8,96.1,185.2,96.1z"/>
	<path d="M204.2,101.5l3.3-0.8V83.2l-3.3-0.8v-0.5h9.8c3.1,0,6.1,1,6.1,4.6c0,3-3.5,4.4-5.2,4.8v0.1c1.8,0.2,6.3,0.7,6.3,5
		c0,3.6-3.3,5.6-8.4,5.6h-8.7V101.5z M210,91.1c4.2,0,7.6-0.8,7.6-4.7c0-2.8-2.3-3.5-5-3.5c-0.9,0-1.8,0.1-2.6,0.3V91.1z M210,100.7
		c1,0.1,2,0.3,2.9,0.3c3.7,0,5.8-1.7,5.8-4.4c0-4.2-4.5-4.8-7.6-4.8c-0.2,0-0.8,0-1.1,0.1V100.7z"/>
	<path d="M235.5,98.5L235.5,98.5c-0.8,1.1-2.9,3.9-6,3.9c-2.9,0-3.7-1.5-3.7-4.2v-9.4l-2.8-0.3V88l4.9-0.9v10c0,2.1,0,3.8,2.3,3.8
		c1.9,0,5.2-1.7,5.2-5.4v-6.7l-3.5-0.3V88l5.6-0.9v13.1h2.8v0.5l-4.9,1.7V98.5z"/>
	<path d="M242.8,101.5l2.8-0.8V89.3h-3.3v-0.5l5.4-1.7V91h0.1c0.7-1.1,2.8-3.9,6.2-3.9c2.9,0,3.7,1.5,3.7,4.2v9.4l2.8,0.8v0.5H253
		v-0.5l2.5-0.8v-8.3c0-2.1,0-3.8-2.3-3.8c-1.9,0-5.5,1.7-5.5,5.4v6.7l2.5,0.8v0.5h-7.4V101.5z"/>
	<path d="M262.3,101.5l2.8-0.8V89.3h-3.3v-0.5l5.4-1.7V91h0.1c0.7-1.1,2.8-3.9,6.2-3.9c2.9,0,3.7,1.5,3.7,4.2v9.4l2.8,0.8v0.5h-7.4
		v-0.5l2.5-0.8v-8.3c0-2.1,0-3.8-2.3-3.8c-1.9,0-5.5,1.7-5.5,5.4v6.7l2.5,0.8v0.5h-7.4V101.5z"/>
	<path d="M290.3,102.7c-1,2.6-2.5,6.1-6,6.1c-1.5,0-2.2-0.4-3-0.7v-3.7h0.5c0.2,1.2,0.6,3.1,2.9,3.1c2.9,0,3.9-3.3,4.5-4.9
		l-6.2-13.9l-2.6-0.8v-0.5h8.4V88l-3.6,0.8l5.1,11.4l3.6-11.4l-2.8-0.8v-0.5h6.9V88l-2.6,0.8L290.3,102.7z"/>
</g>
<g class="st0">
	<path d="M315.8,102.2c-0.5,0.2-1.2,0.3-1.7,0.3c-2.5,0-3.6-1.6-3.6-3.6v-9.5h-2.8v-0.5l3.1-0.9l1.1-4.9h0.7v5h4.4v1.3h-4.4v8.4
		c0,1.8,0.1,3.2,2.2,3.2c1.1,0,2-0.6,2.7-1.1l0.3,0.4L315.8,102.2z"/>
	<path d="M328.6,99.3c-0.9,1-2.8,3.1-5.9,3.1c-2,0-3.5-1.2-3.5-3.4c0-4.4,5.4-4.7,9.4-5.6v-2.3c0-1.9-0.6-3-2.5-3
		c-2.5,0-4,1.6-4.5,3.9H321v-3.3c1.2-0.6,3.6-1.6,6-1.6c3.3,0,3.8,1.7,3.8,3.9v9.4h2.8v0.5l-4.9,1.5V99.3z M328.6,94.3
		c-3.1,0.4-7.3,1.6-7.3,4.5c0,1.3,0.9,2.3,2.3,2.3c1.7,0,5-1.6,5-4.5V94.3z"/>
</g>
<g class="st0">
	<path d="M335.9,101.5l2.8-0.8V81.5h-3.6V81l5.8-1.7v15.8l5.8-6.3l-2.8-0.8v-0.5h7.2V88l-2.6,0.8L344,93l6.3,7.7l2.4,0.8v0.5h-7.4
		v-0.5l2.6-0.8l-5.4-6.3l-1.7,1.6v4.7l2.6,0.8v0.5h-7.5V101.5z"/>
</g>
<g class="st0">
	<path d="M366.3,100.8c-1.6,0.8-3.4,1.6-5.7,1.6c-4.3,0-6.7-2.7-6.7-7.4c0-4.4,2.5-8,7.1-8c5.3,0,5.5,4.2,5.6,6l-10.2,0.5
		c0,0.3-0.1,1-0.1,1.3c0,3.9,1.4,6.6,4.5,6.6c3.5,0,4.9-2.9,5.7-5h0.6L366.3,100.8z M364.3,92.2c-0.1-1.2-0.3-4.2-3.4-4.2
		c-2.3,0-3.9,2-4.4,4.9L364.3,92.2z"/>
</g>
<g class="st0">
	<path d="M389.2,99.3c-0.9,1-2.8,3.1-5.9,3.1c-2,0-3.5-1.2-3.5-3.4c0-4.4,5.4-4.7,9.4-5.6v-2.3c0-1.9-0.6-3-2.5-3
		c-2.5,0-4,1.6-4.5,3.9h-0.6v-3.3c1.2-0.6,3.6-1.6,6-1.6c3.3,0,3.8,1.7,3.8,3.9v9.4h2.8v0.5l-4.9,1.5V99.3z M389.2,94.3
		c-3.1,0.4-7.3,1.6-7.3,4.5c0,1.3,0.9,2.3,2.3,2.3c1.7,0,5-1.6,5-4.5V94.3z"/>
	<path d="M404.2,101.5l2.8-0.8V81.5h-3.8V81l5.9-1.7v21.4l2.8,0.8v0.5h-7.7V101.5z"/>
	<path d="M414.3,95.1c0-4.6,2.7-8.1,7.3-8.1c4.4,0,6.9,3.1,6.9,7.4c0,4.4-2.6,8-7.3,8C417,102.4,414.3,99.8,414.3,95.1z
		 M421.2,101.5c3.2,0,4.8-3.2,4.8-6.9c0-4-1.6-6.7-4.5-6.7c-3.1,0-4.8,3.3-4.8,6.9C416.7,98.8,418.3,101.5,421.2,101.5z"/>
	<path d="M431.4,95.1c0-4.6,2.7-8.1,7.3-8.1c4.4,0,6.9,3.1,6.9,7.4c0,4.4-2.6,8-7.3,8C434.2,102.4,431.4,99.8,431.4,95.1z
		 M438.4,101.5c3.2,0,4.8-3.2,4.8-6.9c0-4-1.6-6.7-4.5-6.7c-3.1,0-4.8,3.3-4.8,6.9C433.9,98.8,435.5,101.5,438.4,101.5z"/>
	<path d="M448.1,101.5l2.8-0.8V81.5h-3.6V81l5.8-1.7v15.8l5.8-6.3L456,88v-0.5h7.2V88l-2.6,0.8l-4.4,4.2l6.3,7.7l2.4,0.8v0.5h-7.4
		v-0.5l2.6-0.8l-5.4-6.3L453,96v4.7l2.6,0.8v0.5h-7.5V101.5z"/>
	<path d="M467.1,108.3c0.4-1.5,1.3-4,1.3-5.7c0-1.2-0.2-1.6-0.6-2.3l1.6-0.9c0.5,0.7,1.1,1.6,1.1,2.5c0,1.6-1.3,3.6-2.8,6.5H467.1z"
		/>
</g>
<g class="st0">
	<path d="M10.8,137.3c-0.9,1-2.8,3.1-5.9,3.1c-2,0-3.5-1.2-3.5-3.4c0-4.4,5.4-4.7,9.4-5.6v-2.3c0-1.9-0.6-3-2.5-3
		c-2.5,0-4,1.6-4.5,3.9H3.1v-3.3c1.2-0.6,3.6-1.6,6-1.6c3.3,0,3.8,1.7,3.8,3.9v9.4h2.8v0.5l-4.9,1.5V137.3z M10.8,132.3
		c-3.1,0.4-7.3,1.6-7.3,4.5c0,1.3,0.9,2.3,2.3,2.3c1.7,0,5-1.6,5-4.5V132.3z"/>
	<path d="M17.4,139.5l2.8-0.8v-11.4h-3.3v-0.5l5.4-1.7v3.9h0.1c0.7-1.1,2.8-3.9,6.2-3.9c2.9,0,3.7,1.5,3.7,4.2v9.4l2.8,0.8v0.5h-7.4
		v-0.5l2.5-0.8v-8.3c0-2.1,0-3.8-2.3-3.8c-1.9,0-5.5,1.7-5.5,5.4v6.7l2.5,0.8v0.5h-7.4V139.5z"/>
	<path d="M48.2,136.5L48.2,136.5c-1,1.5-2.9,3.9-6,3.9c-3.5,0-5.4-2.4-5.4-6.8c0-5.2,3-8.6,7-8.6c1.8,0,3.2,0.7,4.3,1.3v-6.9h-4V119
		l6.1-1.7v21.2h2.8v0.5l-4.9,1.5V136.5z M43.1,138.8c2,0,4.5-1.3,5-4.7c0.1-0.8,0.2-1.9,0.2-2.8c0-0.8-0.1-1.5-0.2-2.4
		c-0.3-2.3-2.3-2.9-3.8-2.9c-3,0-4.9,2.9-4.9,7.3C39.3,136.6,40.6,138.8,43.1,138.8z"/>
</g>
<g class="st0">
	<path d="M63.4,139.5l2.8-0.8v-11.4h-2.8v-0.5l2.8-0.9c0-2.8,0.3-8.3,5.7-8.3c1.3,0,2.6,0.4,3.7,0.9v3.5h-0.5
		c-0.3-1.3-0.9-3.5-3.5-3.5c-2.6,0-3.3,2.1-3.3,4.7v2.8h4.3v1.3h-4.3v11.4l3.6,0.8v0.5h-8.5V139.5z"/>
</g>
<g class="st0">
	<path d="M76.2,139.5l2.8-0.8v-11.4h-3.5v-0.5l5.6-1.7v13.6l2.8,0.8v0.5h-7.7V139.5z M78.2,120.4c0-0.9,0.7-1.6,1.6-1.6
		c0.9,0,1.6,0.7,1.6,1.6c0,0.9-0.7,1.5-1.6,1.5C78.8,121.9,78.2,121.3,78.2,120.4z"/>
</g>
<g class="st0">
	<path d="M86,139.5l2.8-0.8v-11.4h-3.3v-0.5l5.4-1.7v3.9H91c0.7-1.1,2.8-3.9,6.2-3.9c2.9,0,3.7,1.5,3.7,4.2v9.4l2.8,0.8v0.5h-7.4
		v-0.5l2.5-0.8v-8.3c0-2.1,0-3.8-2.3-3.8c-1.9,0-5.5,1.7-5.5,5.4v6.7l2.5,0.8v0.5H86V139.5z"/>
	<path d="M116.8,136.5L116.8,136.5c-1,1.5-2.9,3.9-6,3.9c-3.5,0-5.4-2.4-5.4-6.8c0-5.2,3-8.6,7-8.6c1.8,0,3.2,0.7,4.3,1.3v-6.9h-4
		V119l6.1-1.7v21.2h2.8v0.5l-4.9,1.5V136.5z M111.7,138.8c2,0,4.5-1.3,5-4.7c0.1-0.8,0.2-1.9,0.2-2.8c0-0.8-0.1-1.5-0.2-2.4
		c-0.3-2.3-2.3-2.9-3.8-2.9c-3,0-4.9,2.9-4.9,7.3C107.9,136.6,109.2,138.8,111.7,138.8z"/>
	<path d="M132.3,133.1c0-4.6,2.7-8.1,7.3-8.1c4.4,0,6.9,3.1,6.9,7.4c0,4.4-2.6,8-7.3,8C135.1,140.4,132.3,137.8,132.3,133.1z
		 M139.2,139.5c3.2,0,4.8-3.2,4.8-6.9c0-4-1.6-6.7-4.5-6.7c-3.1,0-4.8,3.3-4.8,6.9C134.7,136.8,136.3,139.5,139.2,139.5z"/>
	<path d="M161.1,136.5L161.1,136.5c-0.8,1.1-2.9,3.9-6,3.9c-2.9,0-3.7-1.5-3.7-4.2v-9.4l-2.8-0.3V126l4.9-0.9v10
		c0,2.1,0,3.8,2.3,3.8c1.9,0,5.2-1.7,5.2-5.4v-6.7l-3.5-0.3V126l5.6-0.9v13.1h2.8v0.5l-4.9,1.7V136.5z"/>
	<path d="M175.6,140.2c-0.5,0.2-1.2,0.3-1.7,0.3c-2.5,0-3.6-1.6-3.6-3.6v-9.5h-2.8v-0.5l3.1-0.9l1.1-4.9h0.7v5h4.4v1.3h-4.4v8.4
		c0,1.8,0.1,3.2,2.2,3.2c1.1,0,2-0.6,2.7-1.1l0.3,0.4L175.6,140.2z"/>
	<path d="M189.2,126.8l-2.4-0.8v-0.5h8.3v0.5l-3.8,0.8l3,10.1h0.1l5-11.8h0.1l3.9,11.8h0.1l3.7-10.1l-3.8-0.8v-0.5h7.8v0.5l-2.4,0.8
		l-6.2,13.6h-0.1l-3.7-10.9l-5.3,10.9h-0.1L189.2,126.8z"/>
	<path d="M212.4,139.5l2.8-0.8v-19.2h-3.8V119l5.9-1.7V129h0.1c0.7-1.1,2.8-3.9,6.2-3.9c2.9,0,3.7,1.5,3.7,4.2v9.4l2.8,0.8v0.5h-7.4
		v-0.5l2.5-0.8v-8.3c0-2.1,0-3.8-2.3-3.8c-1.9,0-5.5,1.7-5.5,5.4v6.7l2.5,0.8v0.5h-7.4V139.5z"/>
</g>
<g class="st0">
	<path d="M231.9,133.1c0-4.6,2.7-8.1,7.3-8.1c4.4,0,6.9,3.1,6.9,7.4c0,4.4-2.6,8-7.3,8C234.7,140.4,231.9,137.8,231.9,133.1z
		 M238.8,139.5c3.2,0,4.8-3.2,4.8-6.9c0-4-1.6-6.7-4.5-6.7c-3.1,0-4.8,3.3-4.8,6.9C234.3,136.8,235.9,139.5,238.8,139.5z"/>
</g>
<g class="st0">
	<path d="M250.1,128.5c0.4-1.5,1.2-3.9,1.2-5.5c0-1.1-0.3-1.8-0.7-2.5l1.6-0.9c0.6,0.6,1.2,1.5,1.2,2.7c0,1.4-1.2,3.7-2.7,6.3H250.1
		z"/>
</g>
<g class="st0">
	<path d="M265.3,129.8c-0.4-1.2-0.8-3.8-3.8-3.8c-1.5,0-2.7,0.9-2.7,2.2c0,1.6,1.8,2.4,3.8,3.2c2.3,1,4.8,2,4.8,4.5
		c0,2.6-2,4.5-5.7,4.5c-2.3,0-4.4-0.9-5.3-1.2v-4.9h1c0.5,1.8,0.8,5.2,4.5,5.2c2,0,3.4-1.3,3.4-2.9c0-1.7-2-2.5-4-3.4
		c-2.2-0.9-4.6-1.9-4.6-4.5c0-2.3,2-3.7,4.9-3.7c2,0,3.8,0.7,4.5,1.1v3.6H265.3z"/>
</g>
<g class="st0">
	<path d="M278.7,139.5l2.8-0.8v-11.4H278v-0.5l5.6-1.7v13.6l2.8,0.8v0.5h-7.7V139.5z M280.7,120.4c0-0.9,0.7-1.6,1.6-1.6
		c0.9,0,1.6,0.7,1.6,1.6c0,0.9-0.7,1.5-1.6,1.5C281.3,121.9,280.7,121.3,280.7,120.4z"/>
	<path d="M288.5,139.5l2.8-0.8v-11.4H288v-0.5l5.4-1.7v3.9h0.1c0.7-1.1,2.8-3.9,6.2-3.9c2.9,0,3.7,1.5,3.7,4.2v9.4l2.8,0.8v0.5h-7.4
		v-0.5l2.5-0.8v-8.3c0-2.1,0-3.8-2.3-3.8c-1.9,0-5.5,1.7-5.5,5.4v6.7l2.5,0.8v0.5h-7.4V139.5z"/>
	<path d="M317.5,129.8c-0.4-1.2-0.8-3.8-3.8-3.8c-1.5,0-2.7,0.9-2.7,2.2c0,1.6,1.8,2.4,3.8,3.2c2.3,1,4.8,2,4.8,4.5
		c0,2.6-2,4.5-5.7,4.5c-2.3,0-4.4-0.9-5.3-1.2v-4.9h1c0.5,1.8,0.8,5.2,4.5,5.2c2,0,3.4-1.3,3.4-2.9c0-1.7-2-2.5-4-3.4
		c-2.2-0.9-4.6-1.9-4.6-4.5c0-2.3,2-3.7,4.9-3.7c2,0,3.8,0.7,4.5,1.1v3.6H317.5z"/>
	<path d="M322.3,139.5l2.8-0.8v-11.4h-3.5v-0.5l5.6-1.7v13.6l2.8,0.8v0.5h-7.7V139.5z M324.3,120.4c0-0.9,0.7-1.6,1.6-1.6
		c0.9,0,1.6,0.7,1.6,1.6c0,0.9-0.7,1.5-1.6,1.5C325,121.9,324.3,121.3,324.3,120.4z"/>
	<path d="M343.4,136.5L343.4,136.5c-1,1.5-2.9,3.9-6,3.9c-3.5,0-5.4-2.4-5.4-6.8c0-5.2,3-8.6,7-8.6c1.8,0,3.2,0.7,4.3,1.3v-6.9h-4
		V119l6.1-1.7v21.2h2.8v0.5l-4.9,1.5V136.5z M338.2,138.8c2,0,4.5-1.3,5-4.7c0.1-0.8,0.2-1.9,0.2-2.8c0-0.8-0.1-1.5-0.2-2.4
		c-0.3-2.3-2.3-2.9-3.8-2.9c-3,0-4.9,2.9-4.9,7.3C334.5,136.6,335.7,138.8,338.2,138.8z"/>
</g>
<g class="st0">
	<path d="M362.8,138.8c-1.6,0.8-3.4,1.6-5.7,1.6c-4.3,0-6.7-2.7-6.7-7.4c0-4.4,2.5-8,7.1-8c5.3,0,5.5,4.2,5.6,6l-10.2,0.5
		c0,0.3-0.1,1-0.1,1.3c0,3.9,1.4,6.6,4.5,6.6c3.5,0,4.9-2.9,5.7-5h0.6L362.8,138.8z M360.8,130.1c-0.1-1.2-0.3-4.2-3.4-4.2
		c-2.3,0-3.9,2-4.4,4.9L360.8,130.1z"/>
</g>
<g class="st0">
	<path d="M367.5,138.8c0-0.9,0.7-1.6,1.6-1.6c0.9,0,1.6,0.7,1.6,1.6c0,0.9-0.7,1.6-1.6,1.6C368.2,140.4,367.5,139.7,367.5,138.8z"/>
</g>
</svg>
