<?xml version="1.0" encoding="utf-8"?>
<!-- Generator: Adobe Illustrator 22.1.0, SVG Export Plug-In . SVG Version: 6.00 Build 0)  -->
<svg version="1.1" id="Capa_1" xmlns="http://www.w3.org/2000/svg" xmlns:xlink="http://www.w3.org/1999/xlink" x="0px" y="0px"
	 viewBox="0 0 261 137" style="enable-background:new 0 0 261 137;" xml:space="preserve">
<style type="text/css">
	.st0{enable-background:new    ;}
</style>
<g class="st0">
	<path d="M22.2,124.6c0.8,1,2.4,3,3.5,2.1c0.4-0.3,0.5-0.8,0.8-1.8c0.1-0.4,0.2-0.6,0.6-0.9c0.6-0.4,1.5,0.1,1.8,0.4
		c0.4,0.5,0.5,0.9,0.2,1.5c-0.4,1-0.7,2.1-2.2,3.2c-2.6,2-5,1.2-7.2-1.8l-3.7-4.9l-0.4,0.3c-0.2,0.2-0.5,0.5-0.7,0.7
		c-0.7,0.5-1,0.6-1.5-0.1c-0.4-0.5-0.7-1.6-0.1-2.1l1-0.9l-3-4c-0.5-0.6-0.2-1.7,0.7-2.4c1-0.8,1.6-0.6,2.1,0.1l2.9,3.8l1.6-1.5
		c0.2-0.2,0.2-0.3,0.5-0.4c0.8-0.6,1.4-0.6,2,0.2c0.4,0.5,0.5,1.3-0.1,1.9l-2.2,2L22.2,124.6z"/>
</g>
<g class="st0">
	<path d="M28.2,112.7c0-2.3,1-4.3,2.4-5.2c1.6-1.1,4.6-1.9,7.4,2.3l4.3,6.3c0.5,0.7,0,1.6-0.7,2.1c-0.7,0.5-1.7,0.6-2.2-0.1
		l-4.6-6.6c-0.9-1.3-2-2-2.9-1.4c-1.3,0.9-1.6,4.2-0.9,6.7l3.6,5.2c0.5,0.7,0,1.7-0.7,2.2c-0.7,0.5-1.8,0.5-2.2-0.1L19,105.7
		c-0.5-0.7,0.1-2,0.7-2.4c0.9-0.6,1.7-0.5,2.1,0.1L28.2,112.7z"/>
</g>
<g class="st0">
	<path d="M45.7,109.7c1,1.6,2.8,1.7,4,0.9c1-0.6,1.3-1.3,1.7-1.9c0.4-0.7,0.4-1.1,0.7-1.3c0.6-0.4,1.6-0.3,2.1,0.6
		c0.2,0.4,0.3,0.7,0,1.2c-0.9,1.6-1.7,2.6-3.2,3.6c-3,1.9-6.4,2-8.9-2c-2.3-3.7-1.5-9.1,1.7-11.1c2.8-1.7,4.7-0.9,5.7,0.6
		c2,3.3-2.1,7.9-4,9.1L45.7,109.7z M45.1,102c-1.6,1-1.6,3.4-0.6,5.4c2.1-1.6,2.7-4.3,2.1-5.2C46.5,102,45.8,101.5,45.1,102z"/>
</g>
<g class="st0">
	<path d="M70.3,92.3c2.4-0.1,3.7,0.3,4.7,2.1c1.4,2.6-0.3,5.2-3.3,6.8c-1.4,0.7-2.7,1-4.2,1c-0.6,0-0.9-0.1-1.3-0.7
		c-0.3-0.5-0.2-1.7,0.6-2.2c0.3-0.2,0.7-0.2,1.1-0.2c1.1,0,2.1,0,2.7-0.4c1-0.5,1.8-1.8,1.3-2.7c-0.4-0.7-1.3-0.6-2.1-0.6l-2.6,0.1
		c-2,0.1-3.7-0.1-4.7-2.1c-1.3-2.5,1.4-5,2.8-5.8c1.6-0.8,2.7-1.2,4-1.3c0.8-0.1,1.1,0,1.5,0.7c0.3,0.5,0.2,1.7-0.8,2.2
		c-0.7,0.4-2,0-3.6,0.8c-0.4,0.2-1.1,1.1-0.8,1.8c0.4,0.7,1.5,0.6,2,0.6L70.3,92.3z"/>
</g>
<g class="st0">
	<path d="M77.4,84.5c0.3-2.5,1.7-4.4,3.4-5.2c3-1.4,5.3-0.4,6.8,2.8c2.1,4.5,0.3,11.5-3.9,13.4c-0.3,0.1-0.6,0.3-1,0.3l2.8,6.1
		c0.4,0.8-0.2,1.6-1,2c-0.8,0.4-1.9,0.1-2.2-0.5l-8.8-19.1c-0.3-0.7,0.2-1.7,1.1-2.1c1.1-0.5,1.8-0.2,2.1,0.5L77.4,84.5z M81.1,92.5
		c0.2,0.2,0.7,0.7,1.4,0.4c2.6-1.2,3.1-6.2,1.8-9.1c-0.6-1.3-1.3-2.2-2.4-1.7c-2,0.9-2.6,5-2.5,6.8L81.1,92.5z"/>
</g>
<g class="st0">
	<path d="M95.1,84.2c0.7,1.7,2.4,2.1,3.8,1.5c1-0.4,1.5-1,1.9-1.6c0.5-0.6,0.5-1,0.9-1.1c0.7-0.3,1.6,0,2,1c0.2,0.4,0.2,0.8-0.2,1.2
		c-1.1,1.4-2.1,2.3-3.7,3c-3.3,1.3-6.6,1-8.5-3.5c-1.7-4.1,0-9.3,3.5-10.7c3-1.2,4.8-0.2,5.5,1.5c1.5,3.6-3.3,7.5-5.4,8.3L95.1,84.2
		z M95.8,76.4c-1.7,0.7-2.1,3.1-1.5,5.3c2.3-1.2,3.4-3.8,3-4.8C97.1,76.7,96.6,76.1,95.8,76.4z"/>
</g>
<g class="st0">
	<path d="M108.4,78.9c0.6,1.7,2.4,2.2,3.8,1.7c1.1-0.4,1.6-1,2-1.6c0.5-0.6,0.6-1,0.9-1.1c0.7-0.3,1.6,0,2,1
		c0.2,0.4,0.1,0.8-0.3,1.2c-1.2,1.4-2.2,2.3-3.8,2.9c-3.3,1.2-6.7,0.7-8.3-3.8c-1.5-4.1,0.3-9.2,3.8-10.5c3.1-1.1,4.8,0,5.4,1.7
		c1.3,3.6-3.6,7.3-5.7,8.1L108.4,78.9z M109.4,71.1c-1.8,0.7-2.2,3-1.7,5.2c2.4-1.1,3.5-3.7,3.1-4.7
		C110.7,71.4,110.2,70.8,109.4,71.1z"/>
</g>
<g class="st0">
	<path d="M122.2,54.7c-0.2-0.8,0.5-1.6,1.3-1.9c0.9-0.3,1.8-0.1,2.1,0.8l6.9,21c0.2,0.7,0.2,1.5-1.2,2c-0.8,0.3-1.9,0-2.2-0.7
		l-0.7-2.2c-0.6,2.5-2,4.6-3.8,5.2c-3.2,1-5.4-0.3-6.5-3.6c-1.6-4.8,1-11.5,5.4-12.9c0.4-0.1,0.7-0.2,1-0.2L122.2,54.7z M125.8,65.6
		c-0.1-0.3-0.6-0.8-1.3-0.5c-2.7,0.9-3.8,5.9-2.8,9c0.4,1.3,1.3,2.3,2.3,1.9c2.3-0.7,3.3-5,2.8-7.4L125.8,65.6z"/>
</g>
<g class="st0">
	<path d="M145.1,60c-0.9,1.8-1.5,4.3-2.4,11c-1,7.3-1,11.9-4.3,12.9c-1.1,0.3-2.1,0.3-3,0.1c-0.8-0.2-0.9-0.4-1.1-0.9
		c-0.2-0.6-0.1-1.7,1.2-2c0.4-0.1,1.2,0.3,1.7,0.1c1.8-0.5,1.8-4.7,2-7.6c-2.3-3.6-4.9-6.7-7.8-10c-0.3-0.4-0.3-0.3-0.4-0.7
		c-0.1-0.5,0.9-1.8,1.5-1.9c0.7-0.2,1.1-0.3,1.7,0.4c1.9,2.3,4.7,6.2,5.8,7.9c0.4-2.2,0.9-6.9,1.1-8c0.4-1.4,0.3-1.8,1-2.8
		c0.2-0.3,0.3-0.4,1-0.6c0.7-0.2,1.9,0.5,2.1,1.1C145.4,59.3,145.3,59.4,145.1,60z"/>
</g>
<g class="st0">
	<path d="M161.6,56.1c0.8-1.9,2.3-3.1,4.1-3.5c1.3-0.3,1.8,0.5,1.9,1.3c0.2,1.1-0.2,1.6-1.1,1.7c-2.1,0.4-3.8,2.2-4.1,4.2l1.4,6.7
		c0.2,0.8-0.9,1.6-1.7,1.8c-1.2,0.2-1.6-0.3-1.8-0.9l-2.6-12c-0.2-0.8,0.9-1.7,1.7-1.8c1.5-0.3,1.6,0.2,1.8,0.9L161.6,56.1z"/>
</g>
<g class="st0">
	<path d="M173.3,60.8c0.3,1.8,1.9,2.6,3.4,2.3c1.1-0.2,1.7-0.7,2.3-1.2c0.6-0.5,0.7-0.8,1.1-0.9c0.7-0.1,1.6,0.3,1.8,1.4
		c0.1,0.4,0,0.8-0.5,1.1c-1.4,1.2-2.6,1.8-4.3,2.1c-3.5,0.6-6.7-0.5-7.5-5.2c-0.7-4.3,2-9,5.7-9.7c3.2-0.5,4.7,0.9,5,2.7
		c0.6,3.8-4.9,6.5-7.1,6.9L173.3,60.8z M175.7,53.4c-1.9,0.3-2.7,2.6-2.6,4.8c2.5-0.7,4.1-3,3.9-4C177,53.9,176.6,53.3,175.7,53.4z"
		/>
</g>
<g class="st0">
	<path d="M191.6,39.8c-0.1-0.8,0.8-1.5,1.6-1.6c1-0.1,1.8,0.3,1.9,1.2l2.5,22c0.1,0.8-0.1,1.5-1.5,1.7c-0.9,0.1-1.9-0.3-2-1.1
		l-0.3-2.3c-1.1,2.3-2.9,4.1-4.7,4.3c-3.3,0.4-5.2-1.4-5.6-4.8c-0.6-5,3.3-11.1,7.9-11.6c0.4,0,0.7,0,1.1,0L191.6,39.8z M192.9,51.1
		c0-0.3-0.5-0.9-1.2-0.8c-2.9,0.3-4.9,5-4.5,8.3c0.2,1.4,0.8,2.5,1.8,2.4c2.4-0.3,4.2-4.3,4.3-6.7L192.9,51.1z"/>
</g>
<g class="st0">
	<path d="M223.1,60.3c-1.5,1.4-3.3,1.7-5.1,1.7c-3.2,0-6.2-1.8-6.2-6.3c-0.1-5.1,3.1-8.6,7.1-8.7c1.4,0,2.2,0.1,3.1,0.8
		c0.6,0.4,1.1,0.9,1,1.7c-0.1,0.8-0.9,1.4-1.8,1.5c-0.5,0-0.8-0.5-1.4-1c-0.2-0.2-0.5-0.3-0.9-0.3c-2.8,0-3.4,3.5-3.4,6
		c0,2.6,1.5,3.8,2.6,3.8c1.3,0,1.8-0.7,2.7-1.2c0.6-0.3,0.5-0.3,1.1-0.3c0.4,0,1.7,0.4,1.7,1.5C223.6,59.7,223.4,60,223.1,60.3z"/>
</g>
<g class="st0">
	<path d="M234.8,53.4l0-0.3c0-0.4,0.3-3-1.1-3.1s-2.8,0.6-3.2,0.9c-0.3,0.2-0.7,0.5-1.5,0.5c-0.7,0-1.5-1-1.5-1.3
		c0-0.3-0.1-0.8,1-1.3c1.2-0.5,3.2-1.5,5.6-1.4c3.8,0.2,4.3,3.5,4.1,6.3l-0.3,5.2c0,0.6,0.2,0.9,0.5,0.9c0.7,0,1.2,0.4,1.2,1.4
		c-0.1,1-0.2,1.7-2,1.6c-1.2-0.1-2.6-1-3-2.7c-0.9,1.1-3,2.3-5,2.2c-2.3-0.1-4.9-0.6-4.8-3.7c0.1-3,3.8-5.4,8.7-5.1
		C234,53.4,234.8,53.4,234.8,53.4z M234.7,55.6c0,0-0.7-0.1-1.2-0.1c-2.6-0.1-5,1.4-5.1,3.1c0,0.7,0.8,1.1,1.5,1.1
		c2.4,0.1,4.2-1.6,4.7-2.5L234.7,55.6z"/>
</g>
<g class="st0">
	<path d="M247.3,51.2c1.4-1.5,3.2-2.2,5-1.9c1.3,0.2,1.5,1,1.4,1.9c-0.1,1.1-0.7,1.4-1.6,1.3c-2.1-0.3-4.3,0.8-5.3,2.7l-0.8,6.8
		c-0.1,0.8-1.4,1.2-2.2,1.1c-1.2-0.1-1.5-0.8-1.4-1.4l1.5-12.2c0.1-0.8,1.4-1.3,2.2-1.2c1.5,0.2,1.5,0.7,1.4,1.4L247.3,51.2z"/>
</g>
<g class="st0">
	<path d="M254.2,64.7c-1-0.2-2-0.8-1.8-2.4c0.1-0.6,1.4-1.9,2.4-1.7c1.2,0.2,2,0.9,1.8,2.4C256.5,63.6,255.4,64.8,254.2,64.7z"/>
</g>
<g class="st0">
	<path d="M27.9,80.4c0.1-0.1,0.2-0.2,0.4-0.3c0.7-0.4,1.7-0.2,2.2,0.6c0.5,0.7,0.2,1.4-0.6,2l-8.6,6.2c-0.3,0.2-0.7,0.5-0.8,0.6
		c-0.6,0.3-1.6,0.5-2-0.3c-0.1-0.2-0.2-0.7-0.3-0.9L7.3,70.9c-0.5-0.7,0-1.7,0.9-2.3c1.3-0.8,1.7-0.4,2.2,0.3l10.3,16.7L27.9,80.4z"
		/>
</g>
<g class="st0">
	<path d="M34.2,75.1c0.9,1.6,2.7,1.8,4,1.1c1-0.5,1.4-1.2,1.8-1.8c0.4-0.7,0.4-1,0.8-1.2c0.6-0.4,1.6-0.2,2.1,0.7
		c0.2,0.4,0.2,0.7-0.1,1.2c-0.9,1.6-1.8,2.6-3.4,3.4c-3.1,1.7-6.5,1.7-8.8-2.5c-2.1-3.8-1.1-9.2,2.3-11c2.9-1.6,4.8-0.7,5.6,0.9
		c1.8,3.4-2.5,7.8-4.4,8.8L34.2,75.1z M34,67.4c-1.7,0.9-1.7,3.3-0.9,5.4c2.2-1.5,2.9-4.1,2.4-5.1C35.4,67.5,34.8,67,34,67.4z"/>
</g>
<g class="st0">
	<path d="M48.4,66.5c0.6,1.1,1.8,3.4,3.1,2.7c0.5-0.2,0.7-0.7,1.1-1.6c0.2-0.4,0.3-0.5,0.8-0.8c0.6-0.3,1.5,0.3,1.7,0.8
		c0.3,0.5,0.3,0.9-0.1,1.5c-0.6,1-1.1,1.9-2.7,2.8c-2.9,1.5-5.1,0.2-6.8-3.1l-2.8-5.5l-0.4,0.2c-0.3,0.1-0.6,0.4-0.8,0.5
		c-0.8,0.4-1,0.4-1.5-0.4c-0.3-0.6-0.4-1.7,0.3-2.1l1.2-0.7l-2.2-4.5c-0.3-0.7,0.1-1.7,1.1-2.2c1.1-0.6,1.7-0.2,2,0.4l2.1,4.3
		l1.8-1.1c0.2-0.2,0.3-0.2,0.5-0.3c0.8-0.4,1.5-0.3,1.9,0.6c0.3,0.6,0.2,1.4-0.5,1.8l-2.5,1.6L48.4,66.5z"/>
</g>
<g class="st0">
	<path d="M48.4,46.8c-0.3-1.4,0.4-1.6,1-1.8c0.9-0.4,2.2-0.4,2.5,0.2c0.1,0.2,0.1,0.3,0.2,0.5l1,5.4c0,0.4-0.2,1.1-0.6,1.3
		c-1,0.4-2.5,0.6-2.8-0.1c-0.1-0.2-0.1-0.1-0.1-0.4L48.4,46.8z"/>
</g>
<g class="st0">
	<path d="M65.4,56.3c2.4,0.1,3.7,0.5,4.6,2.4c1.2,2.7-0.6,5.2-3.7,6.5c-1.4,0.6-2.7,0.8-4.2,0.7c-0.6,0-0.9-0.1-1.2-0.8
		c-0.2-0.5-0.1-1.7,0.7-2.1c0.4-0.2,0.7-0.1,1.1-0.1c1.1,0.1,2,0.1,2.8-0.2c1.1-0.5,1.9-1.7,1.4-2.7c-0.3-0.7-1.2-0.7-2.1-0.8
		l-2.6-0.1c-2,0-3.7-0.4-4.6-2.3c-1.1-2.5,1.7-4.9,3.2-5.6c1.6-0.7,2.8-1,4.1-1.1c0.8-0.1,1.1,0.1,1.4,0.8c0.2,0.5,0,1.7-1,2.2
		c-0.8,0.3-2-0.2-3.7,0.5c-0.4,0.2-1.2,1-0.9,1.7c0.3,0.8,1.5,0.7,1.9,0.7L65.4,56.3z"/>
</g>
<g class="st0">
	<path d="M77.1,35c-0.3-0.7,0.6-1.8,1.3-2.1c1-0.4,1.7,0,2,0.7l7.9,20.8c0.3,0.9-0.5,1.8-1.2,2.1c-0.9,0.4-1.8,0.1-2.1-0.6L77.1,35z
		"/>
</g>
<g class="st0">
	<path d="M98.4,52.4c-3.6,1.3-7.2,0-8.8-4.5c-1.4-3.8,0.4-8.8,4.2-10.1c3.9-1.4,7.4,0.3,9,4.5C104.2,46.5,101.9,51.2,98.4,52.4z
		 M94.8,40.6c-2,0.7-2.6,3.8-1.7,6.1c0.9,2.6,2.6,3.6,4.5,2.9c1.9-0.7,2.7-3.5,1.8-6.1C98.4,41,96.8,39.8,94.8,40.6z"/>
</g>
<g class="st0">
	<path d="M114.1,47.1c-3.6,1.1-7.2-0.3-8.6-4.8c-1.2-3.9,0.8-8.8,4.5-10c3.9-1.2,7.4,0.5,8.8,4.8C120.2,41.5,117.6,46,114.1,47.1z
		 M110.9,35.2c-2,0.6-2.7,3.7-2,6c0.8,2.6,2.5,3.7,4.3,3.1c1.9-0.6,2.9-3.4,2-6C114.6,35.7,113,34.6,110.9,35.2z"/>
</g>
<g class="st0">
	<path d="M136.4,37.2c0.4,0.2,0.7,0.3,0.9,0.9c0.2,0.7-0.7,1.8-1.1,1.9c-0.5,0.1-0.8,0.2-1.3,0l-8.8-3.8l1.4,5.2
		c0.2,0.8-0.7,1.7-1.5,1.9c-1.2,0.3-1.7,0-1.9-0.9l-5.8-21.3c-0.2-0.8,0.8-1.6,1.4-1.8c1-0.3,1.9,0.1,2,0.8l3.3,12.3l3.7-5.5
		c0.3-0.4,0.4-0.7,1.1-0.9c1.2-0.3,1.7,0.6,1.9,1.1c0.1,0.4,0,0.7-0.3,1.1l-3.8,5.3L136.4,37.2z"/>
</g>
<g class="st0">
	<path d="M152,24.2c0.9-2.2,3-4.1,4.8-4.5c3.3-0.7,5.3,0.9,6,4.4c1,4.9-2.8,11.3-7.3,12.2c-0.3,0.1-0.5,0-0.7-0.2
		c-0.2-0.1-0.4-0.2-0.4-0.2s-1,1.2-1.8,1.4c-1,0.2-1.6-0.1-1.7-1l-4.4-22.1c-0.1-0.7,1-1.6,1.8-1.7c1-0.2,1.6,0.1,1.7,1L152,24.2z
		 M153.7,32.5c0.1,0.4,0.5,1,1.3,0.8c2.8-0.6,4.9-5.2,4.3-8.4c-0.3-1.4-0.8-2.3-1.9-2.1c-2.3,0.5-4,3.9-4.4,5.9L153.7,32.5z"/>
</g>
<g class="st0">
	<path d="M169.5,28c0.3,1.8,1.9,2.6,3.3,2.4c1.1-0.2,1.7-0.7,2.3-1.1c0.6-0.5,0.8-0.8,1.1-0.9c0.7-0.1,1.6,0.4,1.7,1.4
		c0.1,0.4,0,0.8-0.5,1.1c-1.4,1.1-2.6,1.8-4.3,2.1c-3.5,0.5-6.7-0.6-7.4-5.3c-0.7-4.3,2.1-9,5.8-9.6c3.2-0.5,4.7,1,5,2.7
		c0.6,3.8-5,6.5-7.2,6.8L169.5,28z M172,20.7c-1.9,0.3-2.8,2.5-2.7,4.8c2.6-0.6,4.1-2.9,4-4C173.2,21.2,172.8,20.5,172,20.7z"/>
</g>
<g class="st0">
	<path d="M183.8,18.8c1.1-2.1,2.9-3.3,4.5-3.5c1.9-0.2,4.9,0.5,5.5,5.5l0.8,7.6c0.1,0.8-0.7,1.4-1.6,1.5c-0.9,0.1-1.8-0.3-1.9-1.1
		l-0.9-8c-0.2-1.5-0.8-2.7-1.9-2.6c-1.5,0.2-3.4,2.9-4,5.4L185,30c0.1,0.8-0.8,1.5-1.7,1.6c-0.8,0.1-1.8-0.4-1.9-1.1L179,8.2
		c-0.1-0.8,1-1.7,1.7-1.8c1.1-0.1,1.7,0.4,1.8,1.1L183.8,18.8z"/>
</g>
<g class="st0">
	<path d="M199.7,9.9c-1.2,0.1-2.3-0.8-2.3-1.8c-0.1-1.1,0.9-2.1,2.1-2.2c1.3-0.1,2.3,0.7,2.4,1.9C201.9,8.9,201,9.8,199.7,9.9z
		 M198.2,15.7c-0.1-0.8,0.5-1.6,1.5-1.6c0.9-0.1,2,0.3,2,1.1l0.9,12.8c0.1,0.9-0.7,1.5-1.7,1.6c-0.8,0.1-1.8-0.7-1.8-1.1L198.2,15.7
		z"/>
</g>
<g class="st0">
	<path d="M210.2,16.8c1.1-1.6,2.9-2.9,4.8-3c1.9-0.1,4.9,1,5,5.7l0.2,7.7c0,0.7-1.1,1.4-1.9,1.4c-1,0-1.6-0.3-1.6-1.2l-0.2-8.1
		c0-1.4-0.6-2.7-1.7-2.6c-2,0.1-3.7,2.5-4.4,4.8l0.2,6.5c0,0.7-0.9,1.4-1.8,1.4c-0.9,0-1.8-0.5-1.8-1l-0.4-12.5c0-0.8,1.3-1.4,2-1.5
		c1.2,0,1.5,0.3,1.6,1.2L210.2,16.8z"/>
</g>
<g class="st0">
	<path d="M234.5,5.4c0-0.8,1-1.4,1.9-1.4c1,0,1.7,0.5,1.7,1.4l-0.6,22.1c0,0.8-0.4,1.5-1.8,1.5c-0.9,0-1.8-0.6-1.8-1.3l0.1-2.3
		c-1.4,2.1-3.5,3.7-5.3,3.6c-3.3-0.1-5-2.1-4.9-5.6c0.1-5.1,4.8-10.5,9.4-10.4c0.4,0,0.7,0.1,1,0.2L234.5,5.4z M234.2,16.9
		c0-0.3-0.3-0.9-1.1-0.9c-2.9-0.1-5.5,4.3-5.6,7.6c0,1.4,0.4,2.6,1.5,2.6c2.4,0.1,4.8-3.7,5.2-6L234.2,16.9z"/>
</g>
</svg>
