<?xml version="1.0" encoding="utf-8"?>
<!-- Generator: Adobe Illustrator 22.1.0, SVG Export Plug-In . SVG Version: 6.00 Build 0)  -->
<svg version="1.1" id="Capa_1" xmlns="http://www.w3.org/2000/svg" xmlns:xlink="http://www.w3.org/1999/xlink" x="0px" y="0px"
	 viewBox="0 0 348.6 178" style="enable-background:new 0 0 348.6 178;" xml:space="preserve">
<style type="text/css">
	.st0{enable-background:new    ;}
</style>
<title>TEX_TEXT_1020B</title>
<g class="st0">
	<path d="M18.9,99.7c-1,0.1-2-0.1-3.2-2.6c-1.5-3.2,2.2-5.7,2.2-5.7c4.9-3.8,9.5-5.9,11.2-6.7c5.7-2.7,24.2-9.7,31.5,5.5
		c7.4,15.5-11,27.8-19.7,32.4l9.9,20.8c0.9,1.9-1.1,5.2-3.1,6.2c-4,1.9-5,0.1-5.7-1.3L18.9,99.7z M37.5,115.4
		c6.6-3.2,18.5-10.9,13.7-20.9c-4.2-8.8-16.2-4-18.8-2.8c-1.7,0.8-3.2,1.6-5,2.8L37.5,115.4z"/>
</g>
<g class="st0">
	<path d="M78.4,119c2,4.9,7.1,6,11,4.4c3-1.2,4.4-3,5.6-4.7c1.3-1.8,1.6-2.8,2.6-3.2c2-0.8,4.7-0.1,5.8,2.7c0.5,1.2,0.5,2.2-0.6,3.5
		c-3.2,4.1-6,6.7-10.7,8.7c-9.4,3.9-19.1,2.9-24.3-9.9c-4.8-11.6-0.2-26.6,9.9-30.7c8.7-3.6,13.8-0.5,15.8,4.3
		c4.2,10.2-9.6,21.5-15.4,23.9L78.4,119z M80.3,96.8c-5,2.1-6,8.9-4.3,15.2c6.7-3.5,9.6-10.9,8.5-13.8
		C84.2,97.5,82.7,95.8,80.3,96.8z"/>
</g>
<g class="st0">
	<path d="M109.6,100c1.5,4.3,5.7,5.4,9.1,4.2c2.6-0.9,3.9-2.4,4.9-3.7c1.2-1.4,1.4-2.3,2.3-2.6c1.7-0.6,4,0.1,4.8,2.6
		c0.4,1.1,0.3,1.9-0.7,3c-2.9,3.4-5.4,5.5-9.5,6.9c-8.2,2.9-16.3,1.6-20.3-9.5c-3.6-10.1,1-22.6,9.7-25.7c7.5-2.7,11.8,0.2,13.2,4.3
		c3.1,8.9-9.1,17.8-14.1,19.6L109.6,100z M112.2,81.1c-4.4,1.5-5.5,7.3-4.3,12.7c5.9-2.7,8.7-8.9,7.8-11.4
		C115.5,81.9,114.2,80.4,112.2,81.1z"/>
</g>
<g class="st0">
	<path d="M170.8,94.7c1,0.4,1.7,0.7,2.2,2.2c0.5,1.6-1.6,4.5-2.6,4.8c-1.1,0.3-2,0.6-3.1,0.1l-21.9-8.8l3.8,12.6
		c0.6,2.1-1.5,4.1-3.6,4.7c-2.9,0.9-4.1,0-4.7-2l-15.5-51.7c-0.6-1.9,1.8-4,3.3-4.5c2.4-0.7,4.5,0.2,5,1.7l8.9,29.8l8.6-13.6
		c0.7-1.1,1-1.7,2.6-2.2c2.9-0.9,4.2,1.3,4.6,2.6c0.3,1,0,1.8-0.6,2.7l-9.1,13.3L170.8,94.7z"/>
</g>
<g class="st0">
	<path d="M193.2,71.9l-0.2-0.7c-0.2-0.9-1.4-6.9-4.5-6.2c-3.1,0.7-5.8,3.1-6.5,4.2c-0.4,0.6-1.1,1.5-3,2c-1.6,0.4-4-1.1-4.1-1.8
		c-0.2-0.7-0.8-1.7,1.5-3.6c2.3-2,6.2-5.4,11.7-6.8c8.7-2.1,11.9,5.1,13.4,11.3l2.9,11.8c0.3,1.3,1,1.8,1.7,1.6
		c1.5-0.4,3,0.2,3.5,2.3c0.6,2.4,0.6,3.9-3.4,4.8c-2.8,0.7-6.4-0.5-8.5-4.2c-1.3,3.2-5.1,7-9.7,8.1c-5.3,1.3-11.3,1.9-13.1-5.1
		c-1.6-6.7,4.9-14.5,15.9-17.2C191.5,72.3,193.2,71.9,193.2,71.9z M194.3,76.8c0,0-1.5,0.2-2.6,0.5c-5.9,1.4-10.2,6.5-9.2,10.4
		c0.4,1.7,2.5,1.8,4,1.5c5.5-1.3,8.3-6.4,8.8-8.7L194.3,76.8z"/>
</g>
<g class="st0">
	<path d="M221.4,55.4c2.7-6.2,9-11.6,14.2-12.5c9.5-1.6,15.3,3,17,13.1c2.5,14.4-9,32.5-22.1,34.8c-0.8,0.1-1.6-0.1-2.1-0.6
		c-0.7-0.3-1-0.6-1-0.6s-3.1,3.4-5.4,3.8c-2.9,0.5-4.5-0.5-5-3.2l-11-64.1c-0.4-2.1,2.9-4.5,5.2-4.9c2.9-0.5,4.5,0.5,5,3.2
		L221.4,55.4z M225.5,79.4c0.2,1.3,1.5,2.8,3.7,2.4c8.2-1.4,14.6-14.7,13-23.9c-0.7-4.1-2.1-6.7-5.4-6.2c-6.7,1.1-12,11.1-13.3,16.5
		L225.5,79.4z"/>
</g>
<g class="st0">
	<path d="M276.6,78.9c-9.2,1.1-17.1-4-18.4-15.4c-1.1-9.8,5.8-20.6,15.3-21.7c10-1.2,17.5,4.6,18.8,15.5
		C293.5,68.1,285.4,77.8,276.6,78.9z M274.3,48.9c-5.2,0.6-8.1,7.5-7.4,13.5c0.8,6.6,4.2,9.9,9,9.4c4.8-0.6,8.4-6.9,7.6-13.5
		C282.7,51.9,279.5,48.3,274.3,48.9z"/>
</g>
<g class="st0">
	<path d="M312,80.1c-8.4,0.5-15.3-4.5-15.9-15c-0.5-9,6.4-18.4,15.1-18.9c9.1-0.5,15.6,5.1,16.2,15.1
		C327.9,71.2,320.1,79.6,312,80.1z M311.5,52.8c-4.7,0.3-7.8,6.4-7.4,11.8c0.3,6,3.3,9.3,7.6,9c4.4-0.3,8-5.8,7.6-11.8
		C319,55.9,316.2,52.5,311.5,52.8z"/>
</g>
<g class="st0">
	<path d="M339,79.3c-2.2,0-4.7-1.1-4.8-4.7c0-1.5,2.4-4.8,4.6-4.9c2.6,0,4.7,1.2,4.8,4.7C343.7,76,341.6,79.2,339,79.3z M342.9,61.8
		c0,2.6-1.7,3.4-4,3.5c-2.4,0-3.9-1.1-3.9-2.9l-0.4-29.8c0-2.6,2.2-3.3,4.3-3.3c2.9,0,3.7,1.3,3.7,3.4L342.9,61.8z"/>
</g>
</svg>
