<?xml version="1.0" encoding="utf-8"?>
<!-- Generator: Adobe Illustrator 22.1.0, SVG Export Plug-In . SVG Version: 6.00 Build 0)  -->
<svg version="1.1" id="Capa_1" xmlns="http://www.w3.org/2000/svg" xmlns:xlink="http://www.w3.org/1999/xlink" x="0px" y="0px"
	 viewBox="0 0 172.1 100.3" style="enable-background:new 0 0 172.1 100.3;" xml:space="preserve">
<style type="text/css">
	.st0{enable-background:new    ;}
</style>
<title>TEX_TEXT_1060F</title>
<g class="st0">
	<path d="M43.5,44.9c0.1,0.2,0.1,0.3,0.2,0.4c0.1,0.4-0.1,0.9-0.9,1.1c-0.5,0.2-0.8,0-1.1-0.4l-4.9-8.7l-1.5,10
		c-0.1,0.6-0.4,0.8-0.7,0.9c-0.3,0.1-0.7,0.1-0.9-0.2l-7.1-7.3l1.2,10c0.1,0.5-0.1,0.7-0.6,0.9c-0.7,0.2-1.1,0-1.2-0.4
		c0-0.1,0-0.3-0.1-0.4l-1.2-12.5c0-0.5,0.1-0.8,0.5-1c0.3-0.1,0.8,0.1,1,0.3l7.8,7.8l1.7-11c0-0.3,0.3-0.8,0.7-1
		c0.4-0.1,0.7-0.1,0.9,0.5L43.5,44.9z"/>
</g>
<g class="st0">
	<path d="M45.8,38.5c0.4-1.1,1.2-1.8,2.3-2.1c0.7-0.2,1,0.2,1.1,0.7c0.2,0.6-0.1,0.9-0.6,1c-1.2,0.3-2.1,1.4-2.2,2.5l1,3.8
		c0.1,0.4-0.5,1-0.9,1.1c-0.7,0.2-0.9-0.1-1-0.5l-1.8-6.8c-0.1-0.5,0.4-1,0.9-1.1c0.8-0.2,0.9,0,1.1,0.5L45.8,38.5z"/>
</g>
<g class="st0">
	<path d="M64.7,41.3c-4.2,0.8-7.5-1.2-8.3-5.4c-0.7-4,1.6-7.6,6.3-8.5c4.8-0.9,8,1.3,8.7,5.4C72.3,37.3,69.7,40.4,64.7,41.3z
		 M63,29.1c-3.4,0.6-5,3.5-4.5,6.4c0.6,3.1,3,4.8,6,4.2c3.6-0.7,5.5-3.2,4.9-6.5C68.8,30.2,66.5,28.4,63,29.1z"/>
</g>
<g class="st0">
	<path d="M79.7,31.9c0.6,1.1,1.6,3,2.1,3.9c0.3-1.4,1-4,1.3-4.9c0.1-0.4,0.2-0.6,0.6-0.7c0.7-0.1,1.3,0.3,1.3,0.6
		c0,0.2,0,0.4-0.1,0.5c-0.3,1-1.2,3.6-2.1,6.9c-0.1,0.2-0.5,0.6-0.7,0.6c-0.4,0-0.7-0.2-0.8-0.5c-0.8-1.3-1.6-2.9-2.3-4.1l-1,4.4
		c-0.1,0.4-0.4,0.6-0.7,0.7c-0.4,0-0.8-0.3-0.9-0.5c-1-2.1-1.8-4-3.2-6.1c-0.1-0.2-0.1-0.2-0.1-0.4c0-0.3,0.3-0.8,0.8-0.9
		c0.5,0,0.6-0.1,0.9,0.4c0.8,1.3,1.8,3.4,2.3,4.4l0.9-4.3c0.1-0.4,0.3-0.6,0.8-0.6C79.2,31.3,79.6,31.4,79.7,31.9L79.7,31.9z"/>
</g>
<g class="st0">
	<path d="M75.5,87.9c0.1,0.2,0.1,0.3,0.2,0.4c0.1,0.4-0.1,0.9-0.8,1.1c-0.5,0.2-0.8,0-1.1-0.4l-5-8.6l-1.4,10
		c-0.1,0.6-0.4,0.8-0.7,0.9c-0.3,0.1-0.7,0.1-0.9-0.2l-7.2-7.2l1.3,10c0.1,0.5-0.1,0.7-0.6,0.9c-0.7,0.2-1.1,0-1.2-0.4
		c0-0.1,0-0.3-0.1-0.4l-1.3-12.4c0-0.5,0.1-0.8,0.5-1c0.3-0.1,0.8,0.1,1,0.3l7.9,7.7l1.6-11c0-0.3,0.3-0.8,0.7-1
		c0.4-0.1,0.7-0.1,0.9,0.5L75.5,87.9z"/>
</g>
<g class="st0">
	<path d="M75.4,77.5c-0.6,0.2-1.4-0.2-1.5-0.7c-0.2-0.6,0.2-1.3,0.9-1.5c0.7-0.2,1.4,0.1,1.6,0.7C76.4,76.7,76,77.3,75.4,77.5z
		 M75.3,81c-0.1-0.5,0.1-0.9,0.6-1.1c0.5-0.2,1.1-0.1,1.3,0.3l2.1,7c0.1,0.5-0.2,0.9-0.8,1.1c-0.5,0.1-1.1-0.1-1.2-0.4L75.3,81z"/>
</g>
<g class="st0">
	<path d="M84,81.9c1.3,0.2,2.1,0.6,2.4,1.7c0.5,1.6-0.8,2.9-2.6,3.4c-0.9,0.2-1.6,0.2-2.4,0.1c-0.3-0.1-0.5-0.1-0.6-0.5
		c-0.1-0.3,0.1-1,0.6-1.1c0.2-0.1,0.4,0,0.6,0c0.6,0.1,1.1,0.2,1.6,0.1c0.6-0.2,1.2-0.8,1-1.4c-0.1-0.4-0.6-0.5-1.1-0.6l-1.5-0.3
		c-1.1-0.2-2-0.5-2.4-1.7c-0.4-1.5,1.3-2.6,2.3-2.9c1-0.3,1.7-0.4,2.4-0.3c0.5,0,0.6,0.1,0.7,0.5c0.1,0.3-0.1,1-0.7,1.2
		c-0.5,0.1-1.1-0.3-2.1,0c-0.3,0.1-0.8,0.5-0.6,0.9c0.1,0.5,0.8,0.5,1,0.6L84,81.9z"/>
</g>
<g class="st0">
	<path d="M91,80.1c1.3,0.3,2,0.7,2.3,1.8c0.4,1.6-0.8,2.9-2.7,3.3c-0.9,0.2-1.6,0.2-2.5,0c-0.3-0.1-0.5-0.2-0.6-0.5
		c-0.1-0.3,0.1-1,0.6-1.1c0.2-0.1,0.4,0,0.6,0.1c0.6,0.1,1.1,0.3,1.6,0.2c0.6-0.2,1.2-0.8,1.1-1.4c-0.1-0.4-0.6-0.5-1.1-0.6
		l-1.5-0.3c-1.1-0.2-2-0.6-2.3-1.8c-0.4-1.5,1.4-2.6,2.3-2.8c1-0.2,1.7-0.3,2.4-0.2c0.5,0,0.6,0.1,0.7,0.6c0.1,0.3-0.1,1-0.7,1.1
		c-0.5,0.1-1.1-0.3-2.1,0c-0.3,0.1-0.8,0.5-0.7,0.9c0.1,0.5,0.8,0.5,1,0.6L91,80.1z"/>
</g>
<g class="st0">
	<path d="M108.2,78.9c0.1,0,0.4-0.1,0.5-0.1c0.4-0.1,0.7,0.2,0.8,0.7c0.1,0.5-0.2,0.8-0.7,1l-5.8,1.7c-0.2,0.1-0.5,0.1-0.6,0.2
		c-0.5,0.1-1-0.1-1.1-0.6c0-0.2,0-0.3,0-0.5l-2.2-10.8c-0.1-0.1-0.4-0.4-0.4-0.6c-0.1-0.6,0.1-0.8,0.7-0.9l5.5-1.5
		c0.3-0.1,0.7-0.2,0.9-0.2c0.5-0.1,0.8,0.2,0.9,0.7c0.1,0.7-0.2,0.8-0.7,1l-4.7,1.2L102,74l4.6-1.3c0.1,0,0.3-0.1,0.4-0.1
		c0.5-0.1,0.8,0.3,0.9,0.8c0.1,0.6-0.2,0.7-0.7,0.9l-4.8,1.4l1,4.7L108.2,78.9z"/>
</g>
<g class="st0">
	<path d="M109.2,67.2c-0.1-0.4,0.5-0.9,0.9-1c0.6-0.1,1,0.2,1,0.6l2.3,12.5c0.1,0.5-0.5,1-0.9,1c-0.6,0.1-1-0.1-1.1-0.6L109.2,67.2z
		"/>
</g>
<g class="st0">
	<path d="M87.6,24.5c0-0.4,0.7-0.8,1.2-0.8c0.6,0,0.9,0.4,0.9,0.8L89,37.2c0,0.5-0.7,0.8-1.1,0.8c-0.6,0-1-0.4-0.9-0.8L87.6,24.5z"
		/>
</g>
<g class="st0">
	<path d="M116.9,76.4c0.2,1,1.1,1.5,1.9,1.3c0.6-0.1,1-0.4,1.3-0.7c0.3-0.3,0.4-0.5,0.6-0.5c0.4-0.1,0.9,0.2,1,0.8
		c0,0.3,0,0.4-0.3,0.7c-0.8,0.7-1.5,1-2.5,1.2c-2,0.3-3.8-0.3-4.3-3c-0.4-2.5,1.2-5.2,3.3-5.5c1.8-0.3,2.7,0.5,2.9,1.5
		c0.4,2.2-2.8,3.7-4.1,3.9L116.9,76.4z M118.3,72.2c-1.1,0.2-1.6,1.5-1.5,2.7c1.5-0.4,2.4-1.7,2.3-2.3
		C119,72.5,118.7,72.1,118.3,72.2z"/>
</g>
<g class="st0">
	<path d="M124.7,71.2c0.6-1.3,1.7-2.1,2.7-2.3c1.9-0.3,3,0.6,3.2,2.7c0.4,2.8-1.8,6.3-4.4,6.7c-0.2,0-0.4,0-0.6,0l0.5,3.8
		c0.1,0.5-0.4,0.8-0.9,0.9c-0.5,0.1-1.1-0.2-1.1-0.6l-1.7-11.9c-0.1-0.4,0.4-0.9,0.9-1c0.7-0.1,1,0.2,1.1,0.6L124.7,71.2z
		 M125.4,76.2c0.1,0.2,0.3,0.5,0.7,0.4c1.6-0.2,2.7-2.9,2.5-4.7c-0.1-0.8-0.4-1.4-1-1.3c-1.2,0.2-2.2,2.3-2.5,3.3L125.4,76.2z"/>
</g>
<g class="st0">
	<path d="M134.5,69.8c0.6-1.2,1.7-1.9,2.6-2c1.1-0.1,2.8,0.3,3.1,3.1l0.5,4.3c0.1,0.5-0.4,0.8-0.9,0.9s-1-0.1-1.1-0.6l-0.5-4.6
		c-0.1-0.9-0.5-1.5-1.1-1.5c-0.9,0.1-1.9,1.6-2.3,3.1l0.4,3.6c0.1,0.5-0.4,0.9-0.9,0.9c-0.5,0.1-1-0.2-1.1-0.6l-1.4-12.7
		c-0.1-0.5,0.6-1,1-1c0.6-0.1,1,0.2,1,0.6L134.5,69.8z"/>
</g>
<g class="st0">
	<path d="M146.9,70.6l0-0.2c0-0.2-0.1-1.7-0.9-1.7c-0.8,0.1-1.5,0.5-1.7,0.8c-0.1,0.1-0.3,0.3-0.8,0.4c-0.4,0-0.9-0.4-0.9-0.6
		c0-0.2-0.1-0.4,0.5-0.8c0.6-0.4,1.7-1.1,3.1-1.2c2.2-0.2,2.7,1.7,2.9,3.2l0.3,3c0,0.3,0.2,0.5,0.4,0.4c0.4,0,0.7,0.2,0.8,0.7
		c0.1,0.6,0,1-1,1.1c-0.7,0.1-1.5-0.3-1.9-1.3c-0.4,0.7-1.5,1.5-2.6,1.6c-1.3,0.1-2.8,0.1-3-1.7c-0.2-1.7,1.7-3.4,4.5-3.6
		C146.5,70.6,146.9,70.6,146.9,70.6z M147.1,71.8c0,0-0.4,0-0.7,0c-1.5,0.1-2.7,1.2-2.6,2.2c0,0.4,0.5,0.5,0.9,0.5
		c1.4-0.1,2.2-1.3,2.4-1.8L147.1,71.8z"/>
</g>
<g class="st0">
	<path d="M153.7,68c0.6-1,1.6-1.7,2.7-1.8c1.1-0.1,2.8,0.5,3,3.2l0.3,4.4c0,0.4-0.6,0.8-1.1,0.8c-0.6,0-0.9-0.1-1-0.7l-0.3-4.6
		c-0.1-0.8-0.4-1.5-1-1.5c-1.1,0.1-2,1.5-2.4,2.9l0.3,3.7c0,0.4-0.5,0.8-1,0.8s-1-0.2-1-0.5l-0.5-7.1c0-0.5,0.7-0.9,1.1-0.9
		c0.7,0,0.9,0.1,0.9,0.7L153.7,68z"/>
</g>
<g class="st0">
	<path d="M164.2,70.8c0,0.7,0.2,2.2,1,2.1c0.3,0,0.5-0.2,1-0.6c0.2-0.1,0.3-0.2,0.6-0.2c0.4,0,0.7,0.5,0.7,0.8
		c0,0.3-0.1,0.6-0.4,0.8c-0.5,0.4-1,0.8-2.1,0.8c-1.9,0.1-2.7-1.1-2.8-3.2l-0.2-3.5l-0.3,0c-0.2,0-0.4,0.1-0.5,0.1
		c-0.5,0-0.6,0-0.7-0.6c0-0.4,0.2-1,0.6-1l0.8-0.1l-0.1-2.8c0-0.4,0.4-0.9,1.1-0.9c0.7,0,0.9,0.3,1,0.7l0.1,2.7l1.2-0.2
		c0.2,0,0.2,0,0.4-0.1c0.5,0,0.8,0.2,0.9,0.7c0,0.4-0.2,0.8-0.7,0.9l-1.7,0.2L164.2,70.8z"/>
</g>
<g class="st0">
	<path d="M170.2,74.3c-0.6,0-1.2-0.2-1.3-1.1c0-0.4,0.6-1.2,1.2-1.2c0.7,0,1.2,0.3,1.3,1.2C171.4,73.5,170.9,74.3,170.2,74.3z"/>
</g>
<g class="st0">
	<path d="M92.7,37c-0.6,0-1.2-0.2-1.3-1.1c0-0.4,0.6-1.2,1.2-1.2c0.7,0,1.2,0.3,1.3,1.2C93.9,36.2,93.4,37,92.7,37z"/>
</g>
<g class="st0">
	<path d="M70.9,54.4c-0.1-0.5,0.3-1,0.8-1.1c0.6-0.2,1,0.1,1.1,0.4l3.6,11.8c0.1,0.4,0,0.8-0.5,0.9c-0.2,0.1-0.5,0-0.8-0.1L63,59.5
		l2.8,9c0.1,0.5-0.3,1-0.8,1.2c-0.6,0.2-0.9,0.1-1.1-0.5l-3.6-11.8c-0.1-0.3,0.2-0.8,0.6-1c0.3-0.1,0.6,0,0.9,0.1l12,6.8L70.9,54.4z
		"/>
</g>
<g class="st0">
	<path d="M77.6,54.2c-0.6,0.2-1.4-0.2-1.5-0.8c-0.2-0.6,0.3-1.3,0.9-1.5c0.7-0.2,1.4,0.2,1.5,0.8C78.7,53.3,78.3,54,77.6,54.2z
		 M77.4,57.6c-0.1-0.5,0.1-0.9,0.7-1.1c0.5-0.1,1.1-0.1,1.3,0.4l1.9,7.1c0.1,0.5-0.2,0.9-0.8,1.1c-0.5,0.1-1.1-0.2-1.2-0.4
		L77.4,57.6z"/>
</g>
<g class="st0">
	<path d="M86.4,54.3c0.3-0.1,0.6,0,0.6,0l0-0.1c-0.1-0.2,0.3-0.6,0.9-0.7c0.5-0.1,1.1,0.1,1.2,0.6l1.1,4.2c0.7,2.7,0.8,2.3,1.3,4.5
		c0.4,1.8-0.4,4.4-3,5c-2,0.5-3.8-0.1-4.7-0.8c-0.2-0.2-0.2-0.2-0.3-0.5c-0.1-0.4,0.5-1,0.8-1.1c0.4-0.1,0.4-0.1,0.6,0.1
		c0.6,0.3,1.6,1.1,3.1,0.7c1.8-0.4,1.7-2.3,1.5-3.1c-0.2-0.6-0.4-1.4-0.7-2.2c-0.6,1.4-1.4,2.6-2.6,2.8c-1.8,0.4-3-0.2-3.5-2.3
		C81.9,58.7,83.9,54.9,86.4,54.3z M87.4,56.1c-0.1-0.1-0.3-0.3-0.7-0.2c-1.6,0.4-2.6,3.2-2.1,5.1c0.2,0.8,0.5,1.4,1.1,1.2
		c1.3-0.3,2.1-2.7,2.2-4.1L87.4,56.1z"/>
</g>
<g class="st0">
	<path d="M94.3,54.5c0.5-1.2,1.5-2,2.4-2.2c1.1-0.2,2.8,0,3.4,2.8l0.9,4.3c0.1,0.5-0.3,0.8-0.8,1s-1.1,0-1.2-0.5l-1-4.5
		c-0.2-0.9-0.6-1.5-1.2-1.4c-0.9,0.2-1.8,1.8-2,3.3l0.7,3.5c0.1,0.5-0.4,0.9-0.9,1c-0.5,0.1-1-0.1-1.1-0.5L91,48.7
		c-0.1-0.4,0.5-1,0.9-1.1c0.6-0.1,1,0.1,1.1,0.5L94.3,54.5z"/>
</g>
<g class="st0">
	<path d="M105.4,55.8c0.1,0.7,0.5,2.1,1.3,2c0.3-0.1,0.5-0.3,0.9-0.7c0.2-0.2,0.3-0.2,0.6-0.3c0.4-0.1,0.8,0.4,0.8,0.7
		c0.1,0.3,0,0.6-0.3,0.8c-0.5,0.4-0.9,0.9-1.9,1.1c-1.8,0.3-2.8-0.7-3.2-2.8l-0.6-3.5l-0.3,0.1c-0.2,0-0.4,0.1-0.5,0.2
		c-0.5,0.1-0.6,0.1-0.7-0.5c-0.1-0.4,0-1,0.5-1.1l0.8-0.2l-0.5-2.8c-0.1-0.4,0.3-0.9,0.9-1c0.7-0.1,1,0.1,1,0.6l0.5,2.7l1.2-0.3
		c0.2,0,0.2-0.1,0.3-0.1c0.5-0.1,0.9,0.1,1,0.6c0.1,0.4-0.1,0.8-0.6,0.9l-1.6,0.5L105.4,55.8z"/>
</g>
<g class="st0">
	<path d="M113.6,52.1c0.1,0,0.2-0.1,0.3-0.1c0.5-0.1,0.8,0.5,0.9,0.8c0.1,0.4-0.2,0.7-0.7,0.8l-4.3,0.9c-0.1,0-0.2,0-0.2,0.1
		c-0.4,0.1-0.8-0.4-0.9-0.7c-0.1-0.3,0.2-0.9,0.6-1L113.6,52.1z"/>
</g>
<g class="st0">
	<path d="M118.2,50.2c0.5-1,1.5-1.8,2.5-2s2.8,0.3,3.2,2.9l0.6,4.4c0.1,0.4-0.5,0.8-1,0.9c-0.6,0.1-0.9-0.1-1-0.6l-0.7-4.6
		c-0.1-0.8-0.5-1.5-1.1-1.4c-1.1,0.2-1.9,1.6-2.2,3l0.5,3.7c0.1,0.4-0.4,0.8-0.9,0.9s-1-0.2-1.1-0.5l-1-7.1c-0.1-0.5,0.6-0.9,1-1
		c0.7-0.1,0.9,0.1,1,0.6L118.2,50.2z"/>
</g>
<g class="st0">
	<path d="M127,44.7c-0.7,0.1-1.3-0.4-1.4-1c-0.1-0.6,0.5-1.2,1.1-1.3c0.7-0.1,1.3,0.3,1.4,1C128.2,44.1,127.7,44.6,127,44.7z
		 M126.3,48.1c-0.1-0.5,0.2-0.9,0.8-1c0.5-0.1,1.1,0.1,1.2,0.6l0.9,7.3c0.1,0.5-0.4,0.9-0.9,1c-0.5,0.1-1-0.3-1.1-0.6L126.3,48.1z"
		/>
</g>
<g class="st0">
	<path d="M136,46c0.3,0,0.6,0,0.6,0l0-0.1c0-0.2,0.4-0.5,1-0.6c0.6-0.1,1,0.2,1.1,0.7l0.4,4.3c0.3,2.7,0.4,2.4,0.7,4.6
		c0.2,1.8-1.1,4.3-3.7,4.5c-2.1,0.2-3.7-0.6-4.6-1.5c-0.2-0.2-0.2-0.2-0.2-0.5c0-0.4,0.6-0.9,0.9-1c0.4,0,0.4,0,0.6,0.2
		c0.5,0.4,1.4,1.3,3,1.2c1.8-0.2,2-2,2-2.8c-0.1-0.6-0.2-1.5-0.4-2.2c-0.8,1.3-1.8,2.3-3,2.4c-1.8,0.2-2.9-0.6-3.2-2.8
		C130.9,49.7,133.4,46.3,136,46z M136.8,47.9c-0.1-0.1-0.3-0.4-0.7-0.3c-1.6,0.2-3,2.8-2.8,4.7c0.1,0.8,0.3,1.4,0.9,1.4
		c1.4-0.1,2.5-2.4,2.8-3.7L136.8,47.9z"/>
</g>
<g class="st0">
	<path d="M143.7,47.3c0.7-1.2,1.7-1.8,2.7-1.9c1.1-0.1,2.8,0.4,3,3.3l0.3,4.3c0,0.5-0.4,0.8-1,0.8s-1-0.2-1.1-0.7l-0.3-4.6
		c-0.1-0.9-0.4-1.6-1-1.5c-0.9,0.1-2,1.6-2.4,3l0.3,3.6c0,0.5-0.5,0.8-1,0.9c-0.5,0-1-0.2-1.1-0.7l-0.9-12.8c0-0.5,0.6-0.9,1-1
		c0.6,0,1,0.2,1,0.7L143.7,47.3z"/>
</g>
<g class="st0">
	<path d="M154.5,50c0,0.7,0.2,2.2,1,2.1c0.3,0,0.5-0.2,1-0.6c0.2-0.1,0.3-0.2,0.6-0.2c0.4,0,0.7,0.5,0.7,0.8c0,0.3-0.1,0.6-0.4,0.8
		c-0.5,0.4-1,0.8-2.1,0.8c-1.9,0.1-2.7-1.1-2.8-3.2l-0.2-3.5l-0.3,0c-0.2,0-0.4,0.1-0.5,0.1c-0.5,0-0.6,0-0.7-0.5c0-0.4,0.2-1,0.6-1
		l0.8-0.1l-0.1-2.8c0-0.4,0.4-0.9,1.1-0.9c0.7,0,0.9,0.3,1,0.7l0.1,2.7l1.2-0.2c0.2,0,0.2-0.1,0.4-0.1c0.5,0,0.9,0.2,0.9,0.7
		c0,0.4-0.2,0.8-0.7,0.9l-1.7,0.2L154.5,50z"/>
</g>
<g class="st0">
	<path d="M160.1,52.1c0.2-0.8,0.6-0.7,0.9-0.7c0.6,0,1.3,0.2,1.3,0.6c0,0.1,0,0.2,0,0.3l-0.7,3.1c-0.1,0.2-0.2,0.5-0.6,0.5
		c-0.7,0-1.4-0.2-1.4-0.6c0-0.1,0-0.1,0-0.2L160.1,52.1z"/>
</g>
<g class="st0">
	<path d="M13.6,19.6c-0.2-0.5,0.2-1,0.8-1.2c0.6-0.2,1.1,0.1,1.2,0.4l4.2,11.6c0.1,0.4,0.1,0.8-0.5,1c-0.2,0.1-0.5,0.1-0.8-0.1L6,25
		l3.2,8.9c0.2,0.5-0.2,1-0.8,1.2c-0.6,0.2-0.9,0.1-1.1-0.5L3.1,23.1c-0.1-0.3,0.2-0.8,0.5-1C3.9,22,4.2,22,4.5,22.2l12.3,6.2
		L13.6,19.6z"/>
</g>
<g class="st0">
	<path d="M20.4,19.1c-0.6,0.2-1.4-0.1-1.5-0.7c-0.2-0.6,0.2-1.3,0.8-1.5c0.7-0.2,1.4,0.1,1.6,0.7C21.4,18.3,21.1,18.9,20.4,19.1z
		 M20.3,22.6c-0.1-0.5,0-0.9,0.6-1.1c0.5-0.2,1.1-0.1,1.3,0.3l2.2,7c0.2,0.5-0.2,0.9-0.7,1.1c-0.5,0.1-1.1-0.1-1.2-0.4L20.3,22.6z"
		/>
</g>
<g class="st0">
	<path d="M29.3,18.8c0.3-0.1,0.6-0.1,0.6-0.1l0-0.1c-0.1-0.2,0.3-0.6,0.9-0.7c0.5-0.2,1.1,0,1.2,0.5l1.2,4.2
		c0.8,2.6,0.9,2.3,1.5,4.4c0.5,1.8-0.3,4.4-2.8,5.1c-2,0.6-3.8,0.1-4.8-0.7c-0.2-0.1-0.2-0.2-0.3-0.5c-0.1-0.4,0.4-1,0.7-1.1
		c0.4-0.1,0.4-0.1,0.6,0c0.6,0.3,1.6,1.1,3.1,0.6c1.8-0.5,1.6-2.4,1.4-3.1c-0.2-0.6-0.5-1.4-0.8-2.1c-0.6,1.5-1.3,2.6-2.5,2.9
		c-1.8,0.5-3-0.1-3.6-2.2C24.9,23.3,26.7,19.5,29.3,18.8z M30.3,20.5c-0.1-0.1-0.3-0.3-0.7-0.2c-1.6,0.5-2.5,3.3-1.9,5.1
		c0.2,0.7,0.5,1.4,1.2,1.2c1.3-0.4,2-2.8,2-4.2L30.3,20.5z"/>
</g>
<g class="st0">
	<path d="M37.1,18.6c0.4-1.2,1.4-2.1,2.3-2.3c1.1-0.3,2.8-0.1,3.5,2.7l1.1,4.2c0.1,0.5-0.3,0.9-0.8,1c-0.5,0.1-1.1,0-1.2-0.5
		l-1.1-4.5c-0.2-0.9-0.7-1.5-1.3-1.3c-0.9,0.2-1.7,1.9-1.8,3.4l0.9,3.5c0.1,0.4-0.3,0.9-0.8,1c-0.5,0.1-1-0.1-1.2-0.5L33.6,13
		c-0.1-0.4,0.4-1,0.8-1.1c0.6-0.2,1,0.1,1.1,0.5L37.1,18.6z"/>
</g>
<g class="st0">
	<path d="M48.3,19.5c0.2,0.7,0.5,2.1,1.3,1.9c0.3-0.1,0.5-0.3,0.9-0.7c0.2-0.2,0.3-0.2,0.5-0.3c0.4-0.1,0.8,0.4,0.8,0.6
		c0.1,0.3,0,0.6-0.2,0.8c-0.5,0.5-0.9,0.9-1.9,1.2c-1.8,0.4-2.9-0.6-3.3-2.7l-0.8-3.5L45.3,17c-0.2,0-0.4,0.1-0.5,0.2
		c-0.5,0.1-0.6,0.1-0.8-0.4c-0.1-0.4,0-1,0.4-1.1l0.7-0.2l-0.6-2.8c-0.1-0.4,0.3-0.9,0.9-1.1c0.7-0.2,1,0.1,1.1,0.5l0.6,2.7l1.2-0.4
		c0.2-0.1,0.2-0.1,0.3-0.1c0.5-0.1,0.9,0,1,0.6c0.1,0.4-0.1,0.8-0.5,1l-1.6,0.5L48.3,19.5z"/>
</g>
<g class="st0">
	<path d="M56.4,15.5c0.1,0,0.2-0.1,0.3-0.1c0.5-0.1,0.8,0.5,0.9,0.8c0.1,0.4-0.2,0.7-0.7,0.8l-4.3,1c-0.1,0-0.2,0.1-0.2,0.1
		c-0.4,0.1-0.8-0.4-0.9-0.6c-0.1-0.3,0.2-0.9,0.6-1L56.4,15.5z"/>
</g>
<g class="st0">
	<path d="M61,13.5c0.5-1,1.4-1.9,2.5-2.1s2.8,0.2,3.3,2.9l0.7,4.4c0.1,0.4-0.5,0.9-1,0.9c-0.6,0.1-0.9,0-1-0.6l-0.8-4.6
		c-0.1-0.8-0.5-1.5-1.1-1.4c-1.1,0.2-1.9,1.7-2.2,3.1l0.6,3.7c0.1,0.4-0.4,0.8-0.9,0.9c-0.5,0.1-1-0.1-1.1-0.4l-1.2-7.1
		c-0.1-0.5,0.6-0.9,1-1c0.7-0.1,0.9,0,1,0.6L61,13.5z"/>
</g>
<g class="st0">
	<path d="M69.8,7.9c-0.7,0.1-1.3-0.4-1.4-1c-0.1-0.6,0.4-1.2,1.1-1.3c0.7-0.1,1.3,0.3,1.4,1C71,7.2,70.5,7.8,69.8,7.9z M69.2,11.2
		c-0.1-0.5,0.2-0.9,0.8-1c0.5-0.1,1.1,0.1,1.2,0.5l1,7.2c0.1,0.5-0.3,0.9-0.9,1c-0.5,0.1-1-0.3-1.1-0.6L69.2,11.2z"/>
</g>
<g class="st0">
	<path d="M78.9,9.1c0.3,0,0.6,0,0.6,0l0-0.1c0-0.2,0.4-0.5,1-0.6c0.6-0.1,1,0.2,1.1,0.7l0.4,4.3c0.3,2.7,0.4,2.4,0.7,4.6
		c0.2,1.8-1.1,4.3-3.7,4.5c-2.1,0.2-3.7-0.6-4.6-1.5c-0.2-0.2-0.2-0.2-0.2-0.5c0-0.4,0.6-0.9,0.9-1c0.4,0,0.4,0,0.6,0.2
		c0.5,0.4,1.4,1.3,3,1.2c1.8-0.2,2-2,2-2.8c-0.1-0.6-0.2-1.5-0.4-2.2c-0.8,1.3-1.8,2.3-3,2.4c-1.8,0.2-2.9-0.6-3.2-2.8
		C73.8,12.8,76.3,9.4,78.9,9.1z M79.7,11c-0.1-0.1-0.3-0.4-0.7-0.3c-1.6,0.2-3,2.8-2.9,4.7c0.1,0.8,0.3,1.4,0.9,1.4
		c1.4-0.1,2.5-2.4,2.8-3.7L79.7,11z"/>
</g>
<g class="st0">
	<path d="M86.7,10.4c0.7-1.1,1.8-1.8,2.7-1.8c1.1-0.1,2.8,0.5,2.9,3.3l0.2,4.4c0,0.5-0.5,0.8-1,0.8c-0.5,0-1-0.2-1.1-0.7l-0.2-4.6
		c0-0.9-0.4-1.6-1-1.5c-0.9,0-2,1.5-2.5,3l0.2,3.6c0,0.5-0.5,0.8-1,0.9c-0.5,0-1-0.3-1-0.7L84.4,4.2c0-0.5,0.6-0.9,1-1
		c0.6,0,1,0.3,1,0.7L86.7,10.4z"/>
</g>
<g class="st0">
	<path d="M97.6,13.4c0,0.7,0.1,2.2,0.9,2.2c0.3,0,0.5-0.2,1-0.6c0.2-0.1,0.3-0.2,0.6-0.2c0.4,0,0.7,0.5,0.7,0.8
		c0,0.3-0.1,0.6-0.4,0.8c-0.5,0.3-1,0.7-2.1,0.8c-1.9,0-2.7-1.2-2.7-3.3l-0.1-3.5l-0.3,0c-0.2,0-0.4,0.1-0.5,0.1
		c-0.5,0-0.6,0-0.6-0.6c0-0.4,0.2-1,0.7-1l0.8-0.1l0-2.8c0-0.4,0.4-0.8,1.1-0.9c0.7,0,0.9,0.3,0.9,0.7l0,2.7l1.2-0.1
		c0.2,0,0.2,0,0.4,0c0.5,0,0.8,0.2,0.9,0.8c0,0.4-0.2,0.8-0.7,0.8l-1.7,0.2L97.6,13.4z"/>
</g>
<g class="st0">
	<path d="M103.1,15.7c0.2-0.8,0.6-0.7,0.9-0.7c0.6,0,1.2,0.3,1.2,0.7c0,0.1,0,0.2,0,0.3l-0.8,3c-0.1,0.2-0.2,0.5-0.6,0.5
		c-0.7,0-1.4-0.3-1.4-0.7c0-0.1,0-0.1,0-0.2L103.1,15.7z"/>
</g>
</svg>
