<?xml version="1.0" encoding="utf-8"?>
<!-- Generator: Adobe Illustrator 22.1.0, SVG Export Plug-In . SVG Version: 6.00 Build 0)  -->
<svg version="1.1" id="Capa_1" xmlns="http://www.w3.org/2000/svg" xmlns:xlink="http://www.w3.org/1999/xlink" x="0px" y="0px"
	 viewBox="0 0 307 142.8" style="enable-background:new 0 0 307 142.8;" xml:space="preserve">
<title>TEX_TEXT_1020B</title>
<g>
	<path d="M38.6,30.7c0.9-0.2,1.5-0.3,1.9,1.1c0.2,0.7-0.5,1.4-1.2,1.5l-7.3,2.4l5,18.8c0.2,0.8-0.2,1.5-1.6,1.9
		c-1.4,0.4-1.7-0.1-1.9-0.9l-5-18.6l-5.8,2c-0.3,0.1-0.7,0.3-0.9,0.4c-1,0.3-1.7,0-1.9-0.8c-0.2-0.7,0.2-1.7,1-1.9l17-5.7L38.6,30.7
		z"/>
</g>
<g>
	<path d="M48.3,40.5c0.8-2.2,2.5-3.6,4.1-3.9c1.9-0.4,4.9,0,6.1,4.9l1.7,7.4c0.2,0.8-0.6,1.5-1.4,1.7c-0.9,0.2-1.8-0.1-2-0.9
		l-1.8-7.9c-0.3-1.5-1.1-2.6-2.1-2.4c-1.5,0.3-3.1,3.2-3.4,5.9l1.4,6.1c0.2,0.8-0.6,1.6-1.5,1.8c-0.8,0.2-1.8-0.2-2-0.9l-4.9-21.9
		c-0.2-0.8,0.8-1.8,1.5-2c1.1-0.2,1.8,0.2,1.9,0.9L48.3,40.5z"/>
</g>
<g>
	<path d="M65.8,44.1c0.4,1.8,2,2.5,3.4,2.2c1.1-0.2,1.7-0.7,2.2-1.2c0.6-0.5,0.7-0.9,1.1-0.9c0.7-0.1,1.6,0.3,1.8,1.3
		c0.1,0.4,0,0.8-0.4,1.2c-1.4,1.2-2.5,1.9-4.2,2.2c-3.5,0.7-6.7-0.3-7.6-5c-0.9-4.3,1.7-9.1,5.4-9.8c3.2-0.6,4.8,0.8,5.1,2.5
		c0.8,3.8-4.7,6.7-6.9,7.1L65.8,44.1z M67.9,36.6c-1.9,0.4-2.6,2.6-2.5,4.9c2.5-0.8,4-3.1,3.8-4.2C69.2,37.1,68.8,36.4,67.9,36.6z"
		/>
</g>
<g>
	<path d="M79.5,34.5c0.9-1.8,2.4-3,4.3-3.3c1.3-0.2,1.7,0.6,1.9,1.4c0.2,1.1-0.3,1.5-1.2,1.7c-2.1,0.4-3.9,2-4.3,4l1.2,6.8
		c0.1,0.8-1,1.6-1.8,1.7c-1.2,0.2-1.6-0.4-1.7-1l-2.1-12.1c-0.1-0.8,0.9-1.6,1.7-1.8c1.5-0.3,1.6,0.2,1.8,1L79.5,34.5z"/>
</g>
<g>
	<path d="M90.9,39.6c0.3,1.8,1.9,2.6,3.3,2.4c1.1-0.2,1.7-0.6,2.3-1.1c0.6-0.5,0.8-0.8,1.1-0.9c0.7-0.1,1.6,0.4,1.7,1.4
		c0.1,0.5,0,0.8-0.5,1.1c-1.4,1.1-2.6,1.8-4.3,2c-3.5,0.5-6.7-0.6-7.4-5.4c-0.6-4.3,2.2-9,5.9-9.5c3.2-0.5,4.7,1,5,2.8
		c0.6,3.8-5,6.4-7.2,6.8L90.9,39.6z M93.4,32.3c-1.9,0.3-2.8,2.5-2.7,4.8c2.6-0.6,4.2-2.9,4-4C94.7,32.8,94.3,32.1,93.4,32.3z"/>
</g>
<g>
	<path d="M100.4,19.3c0.2-1.5,0.9-1.3,1.5-1.4c1-0.1,2.2,0.2,2.3,0.9c0,0.2,0,0.4,0,0.6l-0.7,5.5c-0.1,0.4-0.5,1-1,1
		c-1,0.1-2.5-0.2-2.6-0.9c0-0.2-0.1-0.2,0-0.4L100.4,19.3z"/>
</g>
<g>
	<path d="M114.3,33.5c2.3,0.8,3.4,1.6,3.6,3.7c0.3,3-2.2,4.7-5.5,5.1c-1.6,0.2-2.8-0.1-4.3-0.6c-0.5-0.2-0.9-0.4-0.9-1.1
		c-0.1-0.6,0.4-1.7,1.4-1.8c0.4,0,0.7,0.1,1,0.2c1,0.4,1.9,0.7,2.7,0.7c1.1-0.1,2.3-1,2.2-2.1c-0.1-0.8-1-1.1-1.8-1.4l-2.5-0.9
		c-1.9-0.6-3.4-1.5-3.6-3.6c-0.3-2.7,3.1-4.2,4.7-4.4c1.7-0.2,3-0.1,4.2,0.2c0.8,0.2,1,0.4,1.1,1.1c0.1,0.6-0.5,1.7-1.6,1.8
		c-0.8,0.1-1.9-0.8-3.7-0.6c-0.5,0.1-1.4,0.6-1.4,1.4c0.1,0.8,1.2,1.1,1.6,1.3L114.3,33.5z"/>
</g>
<g>
	<path d="M152.3,38.2c-1.4,0.7-3.1,1.4-6.4,1.5c-7.6,0.4-14.3-4.1-14.7-11.7c-0.3-6.6,5-12.4,13-12.7c3.6-0.2,5.2,0.4,6.9,1
		c1,0.4,1.2,0.9,1.3,1.4c0,0.7-0.8,1.7-1.7,1.8c-0.5,0-0.8-0.1-1.5-0.4c-1.6-0.6-2.4-1.1-4.8-1c-5.7,0.3-9.7,4.7-9.4,9.7
		c0.3,5.6,5.9,9.3,10.9,9c2-0.1,2.6-0.5,4.3-1.3c0.5-0.2,1-0.5,1.3-0.5c1.1-0.1,1.9,0.8,1.9,1.5C153.4,37.5,153.1,37.8,152.3,38.2z"
		/>
</g>
<g>
	<path d="M166.5,25.1c0-0.7,1.1-1.3,1.9-1.3c0.9,0,1.7,0.5,1.7,1.3L170,37.8c0,0.9-1.2,1.4-1.9,1.4c-1.1,0-1.7-0.6-1.7-1.2l0-1.7
		c-1.4,1.6-3.3,2.9-5,2.8c-2.3,0-4.8-1-4.7-5.7l0-7.9c0-0.7,1.1-1.3,2-1.3c1,0,1.6,0.4,1.6,1.3l0,8.3c0,1.5,0.5,2.6,1.6,2.6
		c1.5,0,3.8-1.9,4.6-4.5L166.5,25.1z"/>
</g>
<g>
	<path d="M184.7,16.3c0-0.8,1-1.4,1.9-1.3c1,0,1.7,0.6,1.7,1.5l-1.1,22.1c0,0.8-0.4,1.5-1.8,1.4c-0.9,0-1.8-0.7-1.8-1.4l0.1-2.3
		c-1.4,2.1-3.5,3.6-5.4,3.5c-3.3-0.2-4.9-2.2-4.8-5.7c0.2-5.1,5.1-10.4,9.7-10.1c0.4,0,0.7,0.1,1,0.2L184.7,16.3z M184.1,27.8
		c0-0.3-0.3-0.9-1.1-1c-2.9-0.1-5.6,4.2-5.8,7.5c-0.1,1.4,0.4,2.6,1.4,2.6c2.4,0.1,4.8-3.5,5.3-5.9L184.1,27.8z"/>
</g>
<g>
	<path d="M202.7,17.7c0.1-0.8,1.1-1.3,1.9-1.2c1,0.1,1.7,0.6,1.6,1.6l-2,22c-0.1,0.8-0.4,1.5-1.8,1.3c-0.9-0.1-1.8-0.7-1.7-1.5
		l0.2-2.3c-1.5,2-3.7,3.4-5.5,3.3c-3.3-0.3-4.8-2.4-4.5-5.9c0.4-5.1,5.5-10.2,10.1-9.8c0.4,0,0.7,0.1,1,0.2L202.7,17.7z M201.7,29.1
		c0-0.3-0.3-0.9-1-1c-2.9-0.3-5.8,3.9-6.1,7.2c-0.1,1.4,0.3,2.6,1.3,2.7c2.4,0.2,5-3.4,5.5-5.7L201.7,29.1z"/>
</g>
<g>
	<path d="M211.3,18.7c0.1-0.7,1.4-1.3,2.1-1.2c1.1,0.1,1.5,0.8,1.4,1.5l-2.7,22.1c-0.1,0.9-1.3,1.4-2,1.3c-1-0.1-1.6-0.8-1.5-1.5
		L211.3,18.7z"/>
</g>
<g>
	<path d="M230.9,33.1c-1.5,1.2-3.2,3.3-6.8,9c-4,6.2-5.9,10.4-9.3,9.9c-1.1-0.2-2.1-0.6-2.8-1.2c-0.6-0.5-0.7-0.7-0.6-1.3
		c0.1-0.6,0.6-1.5,1.9-1.3c0.4,0.1,0.9,0.7,1.5,0.8c1.8,0.3,3.6-3.5,5-6c-0.6-4.3-1.6-8.1-2.9-12.4c-0.1-0.4-0.1-0.4-0.1-0.8
		c0.1-0.5,1.6-1.2,2.1-1.2c0.7,0.1,1.1,0.2,1.4,1.1c0.8,2.9,1.7,7.6,2,9.6c1.3-1.9,3.7-5.9,4.4-6.8c0.9-1.1,1-1.5,2.1-2.1
		c0.3-0.2,0.5-0.2,1.2-0.1c0.7,0.1,1.5,1.3,1.4,1.9C231.4,32.6,231.3,32.7,230.9,33.1z"/>
</g>
<g>
	<path d="M263.6,28c0.9,0.2,1.5,0.4,1.2,1.9c-0.2,0.7-1.1,1-1.8,0.8l-7.6-1.3l-4.5,18.9c-0.2,0.8-0.9,1.2-2.3,0.9
		c-1.4-0.3-1.5-0.9-1.3-1.7l4.5-18.8l-6-1c-0.3,0-0.7-0.1-1-0.1c-1-0.2-1.5-0.8-1.3-1.6c0.2-0.7,1-1.4,1.8-1.2l17.7,3.1L263.6,28z"
		/>
</g>
<g>
	<path d="M260.3,46.9c-0.5,1.8,0.6,3.2,2,3.6c1.1,0.3,1.9,0.1,2.5-0.1c0.7-0.2,1-0.4,1.4-0.3c0.7,0.2,1.3,1,1,2
		c-0.1,0.4-0.3,0.7-0.9,0.8c-1.8,0.4-3.1,0.5-4.8,0.1c-3.4-1-5.8-3.3-4.5-7.9c1.2-4.2,5.7-7.3,9.3-6.3c3.1,0.9,3.9,2.8,3.4,4.6
		c-1,3.7-7.2,3.8-9.3,3.2L260.3,46.9z M265.6,41.2c-1.8-0.5-3.6,1.1-4.4,3.2c2.6,0.5,5-0.9,5.3-2C266.5,42.3,266.5,41.5,265.6,41.2z
		"/>
</g>
<g>
	<path d="M286,35.8c0.3-0.8,1.3-1,2.2-0.7c0.9,0.3,1.5,1,1.2,1.9l-7.2,20.9c-0.2,0.7-0.8,1.3-2.1,0.9c-0.8-0.3-1.6-1.1-1.3-1.8
		l0.7-2.2c-2,1.6-4.4,2.5-6.1,1.9c-3.1-1.1-4.1-3.5-3-6.8c1.6-4.8,7.7-8.6,12.1-7.1c0.4,0.1,0.7,0.3,0.9,0.5L286,35.8z M282.2,46.6
		c0.1-0.3,0-1-0.8-1.2c-2.7-0.9-6.6,2.4-7.6,5.6c-0.4,1.3-0.4,2.6,0.6,2.9c2.3,0.8,5.6-2.1,6.7-4.2L282.2,46.6z"/>
</g>
<g>
	<path d="M286.5,58.8c0.9-1.2,1.4-0.8,2-0.5c0.9,0.4,1.8,1.3,1.6,1.9c-0.1,0.2-0.2,0.3-0.3,0.5l-3.2,4.5c-0.3,0.3-0.7,0.7-1.4,0.4
		c-1.1-0.4-2.1-1.3-1.9-2.1c0.1-0.2,0.1-0.2,0.2-0.4L286.5,58.8z"/>
</g>
<g>
	<path d="M84.6,72.1c1.2,1.8,3.1,5.1,4.1,6.6c0.4-2.4,1.4-7.1,1.7-8.8c0.1-0.6,0.3-1.2,1-1.3c1.1-0.2,2.2,0.4,2.3,0.9
		c0.1,0.4,0,0.7-0.1,0.9c-0.5,1.8-1.7,6.5-2.9,12.3c-0.1,0.4-0.7,1.1-1.2,1.2c-0.7,0.1-1.2-0.3-1.5-0.8c-1.5-2.2-3-5-4.4-6.9
		l-1.3,7.8c-0.1,0.6-0.6,1.2-1.2,1.3c-0.6,0.1-1.4-0.4-1.6-0.8c-1.9-3.6-3.6-6.7-6.2-10.3c-0.2-0.4-0.2-0.4-0.3-0.7
		c-0.1-0.5,0.5-1.5,1.4-1.6c0.8-0.1,1-0.2,1.5,0.6c1.6,2.2,3.5,5.8,4.4,7.5l1.1-7.6c0.1-0.8,0.4-1,1.3-1.2c0.9-0.1,1.6,0.1,1.7,0.7
		L84.6,72.1z"/>
</g>
<g>
	<path d="M97.4,62.7c-1.1,0.2-2.3-0.6-2.5-1.7c-0.1-1.1,0.8-2.2,1.9-2.3c1.2-0.2,2.3,0.6,2.5,1.7C99.5,61.5,98.6,62.5,97.4,62.7z
		 M96.3,68.6c-0.1-0.8,0.3-1.6,1.4-1.7c0.9-0.1,2,0.1,2.1,0.9l1.8,12.7c0.1,0.9-0.6,1.6-1.6,1.7c-0.8,0.1-1.8-0.5-1.9-1L96.3,68.6z"
		/>
</g>
<g>
	<path d="M112.8,57c-0.1-0.8,0.8-1.5,1.7-1.6c1-0.1,1.8,0.3,1.9,1.2l2.4,22c0.1,0.8-0.2,1.5-1.5,1.7c-0.9,0.1-1.9-0.4-2-1.1
		l-0.3-2.3c-1.1,2.3-2.9,4.1-4.7,4.3c-3.3,0.4-5.2-1.4-5.6-4.8c-0.6-5,3.4-11,8-11.5c0.4,0,0.7,0,1.1,0L112.8,57z M114,68.4
		c0-0.3-0.4-0.9-1.2-0.8c-2.9,0.3-4.9,5-4.6,8.3c0.1,1.4,0.8,2.5,1.8,2.4c2.4-0.3,4.2-4.3,4.3-6.7L114,68.4z"/>
</g>
<g>
	<path d="M125.5,74.2c0.1,1.9,1.7,2.8,3.2,2.6c1.1-0.1,1.8-0.5,2.3-1c0.6-0.4,0.8-0.8,1.2-0.8c0.7-0.1,1.5,0.5,1.6,1.5
		c0,0.5-0.1,0.8-0.6,1.1c-1.5,1-2.7,1.6-4.5,1.7c-3.5,0.3-6.6-1.1-7-5.9c-0.3-4.4,2.8-8.8,6.6-9.1c3.2-0.2,4.6,1.3,4.8,3.1
		c0.3,3.8-5.5,6.1-7.7,6.2L125.5,74.2z M128.5,67.1c-1.9,0.1-2.9,2.3-3.1,4.6c2.6-0.4,4.4-2.6,4.3-3.7
		C129.7,67.7,129.4,67,128.5,67.1z"/>
</g>
<g>
	<path d="M156.8,69.2l0-0.3c0-0.4,0.1-3-1.3-3s-2.7,0.7-3.1,1.1c-0.2,0.2-0.6,0.5-1.5,0.5c-0.7,0-1.6-0.9-1.6-1.2
		c0-0.3-0.2-0.8,1-1.4c1.1-0.6,3.1-1.7,5.5-1.7c3.8-0.1,4.5,3.3,4.5,6l0.1,5.2c0,0.6,0.3,0.8,0.6,0.8c0.7,0,1.2,0.4,1.2,1.3
		c0,1.1-0.1,1.7-1.9,1.7c-1.2,0-2.6-0.8-3.2-2.5c-0.9,1.2-2.8,2.5-4.8,2.5c-2.3,0-4.9-0.3-5-3.4c0-3,3.5-5.6,8.3-5.7
		C156.1,69.2,156.8,69.2,156.8,69.2z M156.9,71.4c0,0-0.7-0.1-1.2-0.1c-2.6,0-4.9,1.8-4.8,3.5c0,0.7,0.9,1,1.5,1
		c2.4,0,4.1-1.9,4.5-2.8L156.9,71.4z"/>
</g>
<g>
	<path d="M176,65.8c0.8,2,2.1,5.6,2.8,7.3c0.9-2.3,2.7-6.8,3.3-8.3c0.3-0.6,0.6-1.1,1.3-1.1c1.2,0,2.1,0.8,2.1,1.3
		c0,0.4-0.2,0.7-0.2,0.8c-0.8,1.7-2.9,6-5.1,11.6c-0.2,0.4-0.9,1-1.4,0.9c-0.7,0-1.1-0.5-1.3-1.1c-1-2.4-2-5.4-3-7.6l-2.8,7.5
		c-0.2,0.6-0.8,1-1.4,1c-0.6,0-1.3-0.7-1.4-1.1c-1.2-3.9-2.3-7.3-4.1-11.3c-0.2-0.4-0.2-0.4-0.2-0.7c0-0.5,0.7-1.3,1.6-1.3
		c0.8,0,1,0,1.4,0.8c1.1,2.5,2.4,6.4,2.9,8.2l2.5-7.3c0.3-0.7,0.6-0.9,1.5-0.9c0.9,0,1.6,0.4,1.5,1.1L176,65.8z"/>
</g>
<g>
	<path d="M195.8,70.5l0-0.3c0-0.4,0.3-3-1-3.1c-1.4-0.1-2.8,0.5-3.2,0.8c-0.3,0.2-0.7,0.5-1.5,0.4c-0.7-0.1-1.5-1-1.4-1.3
		c0-0.3-0.1-0.8,1.1-1.3c1.2-0.5,3.3-1.4,5.7-1.2c3.8,0.3,4.2,3.7,3.9,6.4l-0.4,5.2c0,0.6,0.2,0.9,0.5,0.9c0.7,0.1,1.2,0.5,1.1,1.4
		c-0.1,1-0.3,1.7-2,1.5c-1.2-0.1-2.5-1-2.9-2.8c-1,1.1-3,2.2-5,2c-2.3-0.2-4.9-0.7-4.6-3.9c0.2-3,4-5.3,8.8-4.9
		C195.1,70.4,195.8,70.5,195.8,70.5z M195.6,72.7c0,0-0.7-0.1-1.1-0.2c-2.6-0.2-5,1.3-5.2,3c-0.1,0.7,0.8,1.1,1.4,1.1
		c2.4,0.2,4.2-1.5,4.8-2.4L195.6,72.7z"/>
</g>
<g>
	<path d="M217.4,78.5c0.3,0.3,0.5,0.6,0.5,1.2c-0.1,0.7-1.3,1.4-1.8,1.4c-0.5-0.1-0.8-0.1-1.2-0.5l-6.7-6.9l-0.7,5.4
		c-0.1,0.9-1.3,1.3-2.1,1.2c-1.2-0.1-1.5-0.7-1.4-1.5l2.7-21.9c0.1-0.8,1.3-1.2,2-1.1c1,0.1,1.7,0.8,1.6,1.5l-1.5,12.6l5.5-3.7
		c0.5-0.3,0.7-0.5,1.4-0.4c1.2,0.1,1.4,1.2,1.3,1.7c-0.1,0.4-0.3,0.7-0.7,0.9l-5.6,3.5L217.4,78.5z"/>
</g>
<g>
	<path d="M223.2,77.4c-0.3,1.8,1,3.1,2.4,3.3c1.1,0.2,1.9-0.1,2.5-0.4c0.7-0.3,1-0.5,1.4-0.5c0.7,0.1,1.4,0.8,1.2,1.9
		c-0.1,0.4-0.3,0.7-0.8,0.9c-1.7,0.6-3,0.9-4.7,0.6c-3.5-0.6-6.2-2.7-5.4-7.4c0.7-4.3,4.8-7.9,8.6-7.3c3.2,0.5,4.2,2.4,3.9,4.2
		c-0.6,3.8-6.8,4.6-8.9,4.2L223.2,77.4z M227.9,71.2c-1.9-0.3-3.4,1.5-4.1,3.7c2.6,0.2,4.9-1.5,5-2.5
		C228.9,72.1,228.7,71.3,227.9,71.2z"/>
</g>
<g>
	<path d="M60.6,118.9l-0.1-0.3c-0.1-0.4-0.6-3-1.9-2.7s-2.5,1.3-2.8,1.8c-0.2,0.3-0.5,0.7-1.3,0.9c-0.7,0.2-1.7-0.5-1.8-0.8
		c-0.1-0.3-0.4-0.7,0.6-1.6c1-0.8,2.7-2.3,5-2.9c3.7-0.9,5.1,2.2,5.7,4.9l1.2,5.1c0.1,0.5,0.4,0.8,0.7,0.7c0.6-0.2,1.3,0.1,1.5,1
		c0.2,1,0.3,1.7-1.4,2.1c-1.2,0.3-2.7-0.2-3.6-1.8c-0.6,1.4-2.2,3-4.2,3.5c-2.3,0.5-4.9,0.8-5.6-2.2c-0.7-2.9,2.1-6.2,6.9-7.4
		C59.9,119,60.6,118.9,60.6,118.9z M61.1,121c0,0-0.7,0.1-1.1,0.2c-2.5,0.6-4.4,2.8-4,4.4c0.2,0.7,1.1,0.8,1.7,0.6
		c2.3-0.6,3.6-2.7,3.8-3.7L61.1,121z"/>
</g>
<g>
	<path d="M72.2,112.7c0.8-1.8,2.3-3.4,4.2-3.8c1.9-0.4,5,0.2,5.9,4.8l1.5,7.6c0.1,0.7-0.8,1.5-1.7,1.7c-1,0.2-1.6,0-1.8-0.9l-1.6-8
		c-0.3-1.4-1-2.5-2.1-2.3c-1.9,0.4-3.2,3-3.6,5.5l1.3,6.4c0.1,0.7-0.7,1.5-1.5,1.7s-1.8-0.2-1.9-0.7l-2.5-12.3
		c-0.2-0.8,1-1.6,1.7-1.8c1.2-0.2,1.6,0,1.8,1L72.2,112.7z"/>
</g>
<g>
	<path d="M93.8,97.3c-0.1-0.8,0.7-1.5,1.6-1.7c1-0.2,1.8,0.2,2,1.1l3.6,21.8c0.1,0.8-0.1,1.5-1.4,1.8c-0.9,0.1-1.9-0.3-2-1l-0.4-2.3
		c-1,2.4-2.7,4.2-4.5,4.5c-3.3,0.5-5.3-1.1-5.9-4.5c-0.8-5,2.8-11.2,7.3-12c0.4-0.1,0.7-0.1,1.1,0L93.8,97.3z M95.6,108.6
		c-0.1-0.3-0.5-0.8-1.3-0.7c-2.8,0.5-4.6,5.3-4.1,8.5c0.2,1.3,0.9,2.4,1.9,2.3c2.3-0.4,4-4.5,3.9-6.9L95.6,108.6z"/>
</g>
<g>
	<path d="M120.1,105.3c1-1.7,2.7-3.1,4.6-3.3c1.9-0.2,4.9,0.7,5.4,5.4l0.7,7.7c0.1,0.7-1,1.4-1.8,1.5c-1,0.1-1.6-0.2-1.7-1.1
		l-0.8-8.1c-0.1-1.4-0.7-2.6-1.8-2.5c-2,0.2-3.5,2.7-4.1,5.1l0.6,6.5c0.1,0.7-0.8,1.4-1.7,1.5c-0.9,0.1-1.8-0.4-1.8-0.9l-1.2-12.5
		c-0.1-0.8,1.2-1.5,1.9-1.6c1.2-0.1,1.6,0.2,1.7,1.1L120.1,105.3z"/>
</g>
<g>
	<path d="M141.1,116.2c-3.8,0.2-6.9-2.1-7.2-6.8c-0.2-4.1,2.9-8.3,6.9-8.5c4.1-0.2,7.1,2.4,7.3,6.9
		C148.3,112.2,144.7,116,141.1,116.2z M140.9,103.8c-2.1,0.1-3.5,2.9-3.4,5.3c0.1,2.7,1.5,4.2,3.4,4.1c2-0.1,3.6-2.6,3.5-5.3
		C144.3,105.2,143.1,103.7,140.9,103.8z"/>
</g>
<g>
	<path d="M156.2,109.1c0,1.3,0.2,3.8,1.6,3.8c0.5,0,0.9-0.4,1.7-1c0.3-0.2,0.5-0.3,1-0.3c0.7,0,1.2,1,1.2,1.4c0,0.6-0.1,1-0.7,1.3
		c-0.9,0.6-1.8,1.3-3.7,1.3c-3.3,0-4.7-2-4.8-5.7l-0.1-6.2l-0.5,0c-0.3,0-0.7,0.1-0.9,0.1c-0.8,0-1.1-0.1-1.1-1
		c0-0.6,0.4-1.7,1.2-1.8l1.4-0.2l-0.1-5c0-0.8,0.8-1.5,1.9-1.5c1.3,0,1.6,0.5,1.6,1.3l0.1,4.8l2.1-0.2c0.3,0,0.3-0.1,0.6-0.1
		c0.9,0,1.5,0.4,1.5,1.3c0,0.7-0.4,1.4-1.2,1.5l-3,0.3L156.2,109.1z"/>
</g>
<g>
	<path d="M175.9,101.6c0-0.8,0.6-1.5,1.7-1.5c0.9,0,1.9,0.5,1.9,1.3l-0.6,12.8c0,0.9-0.9,1.4-1.9,1.4c-0.8,0-1.7-0.8-1.7-1.3
		L175.9,101.6z M178.1,95.9c-1.2-0.1-2.2-1-2.1-2.1c0-1.1,1.1-2,2.3-1.9c1.3,0.1,2.2,1,2.1,2.1C180.4,95.2,179.3,96,178.1,95.9z"/>
</g>
<g>
	<path d="M187.4,103.9c1.2-1.5,3.2-2.6,5.1-2.4c1.9,0.2,4.7,1.6,4.3,6.2l-0.6,7.7c-0.1,0.7-1.2,1.2-2.1,1.2c-1-0.1-1.6-0.5-1.5-1.4
		l0.6-8.1c0.1-1.4-0.3-2.7-1.4-2.8c-2-0.2-3.9,2-4.9,4.3l-0.5,6.5c-0.1,0.7-1,1.3-1.9,1.2c-0.9-0.1-1.7-0.7-1.7-1.2l1-12.5
		c0.1-0.8,1.4-1.3,2.1-1.2c1.2,0.1,1.5,0.4,1.4,1.4L187.4,103.9z"/>
</g>
<g>
	<path d="M217.6,107.4c1.6-1.7,4.3-2.8,6.1-2.5c3.3,0.6,4.6,2.7,4.1,6.2c-0.8,5-6.7,9.6-11.2,8.8c-0.3,0-0.5-0.2-0.6-0.4
		c-0.2-0.2-0.3-0.3-0.3-0.3s-1.4,0.8-2.2,0.6c-1-0.2-1.4-0.7-1.3-1.6l3.7-22.2c0.1-0.7,1.5-1.1,2.3-1c1,0.2,1.4,0.7,1.3,1.6
		L217.6,107.4z M216.1,115.7c-0.1,0.4,0.2,1.1,0.9,1.2c2.8,0.5,6.5-3.1,7-6.3c0.2-1.4,0.1-2.4-1-2.6c-2.3-0.4-5.2,2.2-6.2,3.9
		L216.1,115.7z"/>
</g>
<g>
	<path d="M233.3,117.4c-0.4,1.8,0.8,3.1,2.2,3.4c1.1,0.2,1.9,0,2.5-0.2c0.7-0.2,1-0.5,1.4-0.4c0.7,0.2,1.3,0.9,1.1,1.9
		c-0.1,0.4-0.3,0.7-0.9,0.9c-1.7,0.5-3.1,0.7-4.8,0.3c-3.4-0.8-6-3-5-7.7c1-4.3,5.3-7.6,8.9-6.8c3.2,0.7,4,2.6,3.6,4.4
		c-0.8,3.8-7,4.2-9.2,3.7L233.3,117.4z M238.3,111.4c-1.8-0.4-3.5,1.3-4.3,3.5c2.6,0.3,4.9-1.2,5.2-2.2
		C239.2,112.4,239.1,111.6,238.3,111.4z"/>
</g>
<g>
	<path d="M258.5,104.7c0.2-0.8,1.3-1.1,2.1-0.9c0.9,0.3,1.6,0.9,1.3,1.8l-5.8,21.3c-0.2,0.7-0.7,1.4-2.1,1c-0.8-0.2-1.6-1-1.5-1.7
		l0.6-2.2c-1.9,1.7-4.2,2.7-6,2.3c-3.2-0.9-4.3-3.2-3.4-6.6c1.3-4.9,7.2-9,11.6-7.8c0.4,0.1,0.7,0.2,1,0.4L258.5,104.7z
		 M255.4,115.8c0.1-0.3-0.1-1-0.8-1.2c-2.8-0.8-6.4,2.9-7.3,6c-0.4,1.3-0.2,2.6,0.8,2.9c2.3,0.6,5.5-2.4,6.4-4.6L255.4,115.8z"/>
</g>
<g>
	<path d="M261.9,130.8c-1-0.3-1.9-1.2-1.4-2.7c0.2-0.6,1.7-1.7,2.7-1.4c1.1,0.4,1.8,1.2,1.4,2.7C264.4,130,263,131.1,261.9,130.8z
		 M266.1,123.8c-0.4,1.1-1.2,1.2-2.2,0.9c-1-0.3-1.5-1-1.3-1.8l4.1-12.8c0.4-1.1,1.4-1.1,2.3-0.8c1.3,0.4,1.4,1.1,1.1,2L266.1,123.8
		z"/>
</g>
</svg>
