<svg width="267" height="83" viewBox="0 0 267 83" fill="none" xmlns="http://www.w3.org/2000/svg">
<path d="M-0.000488281 1.04935H26.7039V5.10365H24.8118C22.0009 5.10365 20.1989 5.31988 19.4061 5.75234C18.6493 6.1848 18.2709 6.86952 18.2709 7.80652C18.2709 8.45521 18.5412 9.4823 19.0818 10.8878L19.4061 11.9149L35.6774 62.6747L49.9485 15.807C48.2908 10.4733 47.0114 7.35604 46.1105 6.45508C45.2455 5.55413 43.4977 5.10365 40.8669 5.10365H36.0017V1.04935H69.3551V5.10365H65.8954C62.8682 5.10365 60.9041 5.35592 60.0032 5.86045C59.1022 6.32895 58.6518 7.04971 58.6518 8.02275C58.6518 8.77955 58.7599 9.4823 58.9761 10.131L75.5717 62.6747L89.1942 17.2125C89.7347 15.4466 90.005 13.7528 90.005 12.1311C90.005 9.71654 89.4464 7.95067 88.3293 6.83349C87.2481 5.68026 85.6084 5.10365 83.41 5.10365H80.9234V1.04935H106.006V5.10365C103.808 5.39196 102.06 5.93253 100.762 6.72537C99.4651 7.48217 98.3299 8.58134 97.3568 10.0229C96.4198 11.4644 95.4648 13.8609 94.4918 17.2125L74.8149 82.8922H71.0309L52.5433 24.24L35.0287 82.8922H30.9744L8.48652 11.9149C7.58556 9.13993 6.55847 7.32 5.40525 6.45508C4.28806 5.55413 2.48615 5.10365 -0.000488281 5.10365V1.04935Z" fill="black"/>
<path d="M128.115 28.8348C134.927 28.8348 140.639 31.3035 145.252 36.2407C149.901 41.1419 152.225 47.6108 152.225 55.6473C152.225 61.1972 151.18 65.9362 149.09 69.8644C147.036 73.7565 144.08 76.8378 140.224 79.1082C136.404 81.3786 132.278 82.5138 127.845 82.5138C121.286 82.5138 115.718 80.0272 111.141 75.0539C106.601 70.0806 104.33 63.6298 104.33 55.7013C104.33 47.7369 106.619 41.268 111.196 36.2948C115.772 31.3215 121.412 28.8348 128.115 28.8348ZM128.115 32.6729C124.079 32.6729 120.764 34.5109 118.169 38.1868C115.574 41.8266 114.277 47.5927 114.277 55.4851C114.277 63.5216 115.556 69.3959 118.115 73.1078C120.71 76.8198 124.043 78.6757 128.115 78.6757C132.332 78.6757 135.738 76.8198 138.332 73.1078C140.963 69.3959 142.279 63.3234 142.279 54.8905C142.279 47.0702 140.981 41.4122 138.386 37.9165C135.828 34.4208 132.404 32.6729 128.115 32.6729Z" fill="black"/>
<path d="M158.766 30.3484L176.983 29.4295V49.9172C178.929 43.1781 181.272 38.0786 184.011 34.619C186.75 31.1593 190.137 29.4295 194.174 29.4295C196.912 29.4295 199.093 30.2764 200.715 31.9702C202.372 33.6279 203.201 35.8623 203.201 38.6733C203.201 40.9437 202.643 42.7096 201.525 43.9709C200.444 45.2322 199.075 45.8629 197.417 45.8629C195.795 45.8629 194.48 45.3223 193.471 44.2412C192.498 43.16 192.011 41.7005 192.011 39.8625C192.011 38.6733 192.3 37.5561 192.876 36.511C193.417 35.574 193.687 35.0154 193.687 34.8352C193.687 34.2946 193.345 34.0243 192.66 34.0243C191.182 34.0243 189.507 34.8893 187.633 36.6191C185.038 39.0337 183.038 42.3492 181.632 46.5657C179.47 53.1246 178.389 58.3682 178.389 62.2963V73.1619C178.389 74.3872 178.821 75.3242 179.686 75.9729C180.551 76.6216 182.029 76.9459 184.119 76.9459H190.552V81.0002H159.09V76.9459H164.118C165.811 76.9459 167.091 76.6216 167.956 75.9729C168.821 75.2881 169.253 74.4773 169.253 73.5403V41.268C169.253 38.8174 168.731 37.0335 167.685 35.9164C166.64 34.7631 165.145 34.1865 163.199 34.1865H158.766V30.3484Z" fill="black"/>
<path d="M237.474 1.04935L257.259 0.130371V69.4319C257.259 72.1348 257.763 74.0628 258.772 75.2161C259.817 76.3693 261.367 76.9459 263.421 76.9459H266.935V81.0002H249.636L248.339 70.6752C246.285 74.3511 243.87 77.1261 241.095 79.0001C238.356 80.838 235.275 81.757 231.852 81.757C226.085 81.757 221.166 79.3424 217.094 74.5133C213.058 69.6842 211.039 63.3054 211.039 55.377C211.039 46.7999 213.634 39.9526 218.824 34.8352C222.896 30.835 227.581 28.8348 232.879 28.8348C236.122 28.8348 239.023 29.6457 241.582 31.2674C244.177 32.8891 246.429 35.3397 248.339 38.6192V10.0229C248.339 8.50926 247.744 7.32 246.555 6.45508C245.402 5.55413 243.582 5.10365 241.095 5.10365H237.474V1.04935ZM234.338 33.3216C230.446 33.3216 227.347 34.9253 225.04 38.1327C222.77 41.3401 221.635 46.7458 221.635 54.3499C221.635 62.6027 222.806 68.4229 225.148 71.8104C227.491 75.162 230.5 76.8378 234.176 76.8378C238.104 76.8378 241.456 74.9638 244.231 71.2158C247.042 67.4318 248.447 61.9179 248.447 54.6743C248.447 47.827 246.952 42.4393 243.96 38.5111C241.366 35.0514 238.158 33.3216 234.338 33.3216Z" fill="black"/>
</svg>
