<?xml version="1.0" encoding="utf-8"?>
<!-- Generator: Adobe Illustrator 22.1.0, SVG Export Plug-In . SVG Version: 6.00 Build 0)  -->
<svg version="1.1" id="Capa_1" xmlns="http://www.w3.org/2000/svg" xmlns:xlink="http://www.w3.org/1999/xlink" x="0px" y="0px"
	 viewBox="0 0 307 183" style="enable-background:new 0 0 307 183;" xml:space="preserve">
<g>
	<path d="M47.7,18.4c-0.7-0.2-1.2-0.5-1.4-2.4c-0.2-2.4,2.7-3.1,2.7-3.1c3.9-1.2,7.3-1.5,8.5-1.7c4.2-0.4,17.4-0.5,18.4,10.6
		c1.1,11.4-13.2,14.9-19.7,15.8l1.5,15.3c0.1,1.4-1.9,3-3.4,3.2c-2.9,0.3-3.1-1-3.2-2.1L47.7,18.4z M55.8,32.4
		c4.9-0.5,14.1-2.6,13.3-9.9c-0.6-6.5-9.2-6.2-11.1-6c-1.2,0.1-2.4,0.3-3.7,0.6L55.8,32.4z"/>
</g>
<g>
	<path d="M80.5,44c0.1,3.6,3,5.4,5.9,5.3c2.1-0.1,3.5-0.9,4.6-1.7c1.2-0.8,1.6-1.4,2.4-1.4c1.4-0.1,2.9,1,3,3c0,0.9-0.2,1.5-1.2,2.1
		c-2.9,1.9-5.3,2.8-8.7,3c-6.8,0.3-12.6-2.6-13-11.7c-0.3-8.4,5.9-16.7,13.2-17c6.2-0.3,8.8,2.9,8.9,6.3
		c0.3,7.4-10.9,11.3-15.1,11.4L80.5,44z M86.8,30.5c-3.6,0.2-5.8,4.2-6.2,8.5c5-0.7,8.5-4.6,8.4-6.7C89.1,31.8,88.5,30.5,86.8,30.5z
		"/>
</g>
<g>
	<path d="M104.4,39.2c0,3,2.4,4.7,4.8,4.7c1.8,0,3-0.6,3.9-1.2c1.1-0.6,1.4-1.1,2.1-1.1c1.2,0,2.4,1,2.4,2.7c0,0.7-0.2,1.3-1.1,1.7
		c-2.6,1.5-4.6,2.2-7.5,2.2c-5.8-0.1-10.6-2.7-10.5-10.5c0.1-7.1,5.8-13.9,11.9-13.9c5.3,0,7.3,2.8,7.3,5.7
		c-0.1,6.3-9.7,9.1-13.3,9.1L104.4,39.2z M110.3,28c-3.1,0-5.1,3.3-5.6,7c4.3-0.4,7.5-3.6,7.5-5.4C112.2,29.2,111.8,28,110.3,28z"/>
</g>
<g>
	<path d="M143.9,49.8c0.5,0.5,0.9,0.9,0.9,1.9c-0.1,1.1-2,2.5-2.7,2.4c-0.8,0-1.4-0.1-2-0.6L128.4,43l-0.5,8.8
		c-0.1,1.4-1.9,2.2-3.3,2.1c-2-0.1-2.6-0.9-2.5-2.3l2.1-35.9c0.1-1.3,2-2.1,3.1-2c1.7,0.1,2.8,1.2,2.7,2.2l-1.2,20.7l8.5-6.5
		c0.7-0.5,1-0.9,2.2-0.8c2,0.1,2.4,1.8,2.3,2.7c0,0.7-0.4,1.1-1,1.5l-8.7,6.2L143.9,49.8z"/>
</g>
<g>
	<path d="M163.1,40.7l0.1-0.5c0.1-0.6,0.7-4.7-1.4-4.9c-2.1-0.2-4.3,0.6-5,1.1c-0.4,0.3-1.1,0.7-2.4,0.6c-1.1-0.1-2.2-1.6-2.2-2.1
		s-0.1-1.3,1.7-1.9c1.9-0.7,5.1-2,8.9-1.6c5.9,0.7,6.3,5.9,5.8,10.1l-0.9,8c-0.1,0.9,0.2,1.3,0.7,1.4c1,0.1,1.8,0.8,1.7,2.2
		c-0.2,1.6-0.5,2.6-3.2,2.3c-1.9-0.2-3.9-1.7-4.3-4.5c-1.6,1.7-4.8,3.2-7.9,2.9c-3.6-0.4-7.5-1.4-7-6.2c0.5-4.6,6.4-8,13.9-7.1
		C162,40.5,163.1,40.7,163.1,40.7z M162.7,43.9c0,0-1-0.2-1.8-0.3c-4-0.4-7.8,1.7-8.1,4.4c-0.1,1.1,1.1,1.7,2.1,1.8
		c3.7,0.4,6.6-2.1,7.5-3.5L162.7,43.9z"/>
</g>
<g>
	<path d="M184.4,36.8c3.1-3.3,8.2-5.2,11.7-4.6c6.3,1.1,8.9,5.3,7.7,12c-1.7,9.5-12.9,18.2-21.7,16.7c-0.5-0.1-0.9-0.4-1.2-0.8
		c-0.3-0.3-0.5-0.6-0.5-0.6s-2.7,1.4-4.2,1.1c-1.9-0.3-2.7-1.3-2.4-3.1l7.6-42.4c0.2-1.4,2.8-2.1,4.4-1.9c1.9,0.3,2.7,1.3,2.4,3.1
		L184.4,36.8z M181.6,52.7c-0.2,0.9,0.3,2.1,1.8,2.4c5.4,1,12.4-5.9,13.5-11.9c0.5-2.7,0.2-4.7-2-5.1c-4.4-0.8-10,4.2-12,7.3
		L181.6,52.7z"/>
</g>
<g>
	<path d="M213.7,64c-6-1.4-9.8-6.4-8-13.8c1.5-6.4,8.3-11.6,14.6-10.1c6.5,1.5,9.9,6.9,8.2,14C226.8,61.1,219.5,65.4,213.7,64z
		 M219.1,44.7c-3.4-0.8-6.8,2.9-7.7,6.7c-1,4.3,0.4,7.2,3.5,7.9c3.1,0.7,6.8-2.4,7.8-6.7C223.7,48.5,222.5,45.5,219.1,44.7z"/>
</g>
<g>
	<path d="M235.6,72.8c-5.4-1.6-8.5-6.3-6.5-13c1.7-5.7,8.2-10.1,13.7-8.4c5.8,1.7,8.6,6.8,6.7,13.1
		C247.6,70.9,240.7,74.4,235.6,72.8z M241.5,55.6c-3-0.9-6.3,2.2-7.3,5.7c-1.2,3.8,0,6.5,2.7,7.4c2.8,0.8,6.3-1.8,7.4-5.7
		C245.5,59.3,244.5,56.5,241.5,55.6z"/>
</g>
<g>
	<path d="M252.6,78.5c-1.4-0.5-2.7-1.7-1.8-4c0.4-0.9,2.8-2.4,4.2-1.9c1.7,0.6,2.6,1.8,1.8,4C256.4,77.5,254.3,79,252.6,78.5z
		 M259.6,68.6c-0.6,1.6-2,1.7-3.4,1.2c-1.5-0.5-2.1-1.6-1.7-2.7l7.5-18.4c0.6-1.6,2.2-1.5,3.5-1.1c1.8,0.6,2,1.6,1.4,2.9L259.6,68.6
		z"/>
</g>
<g>
	<path d="M82.4,87.8c0.1,0.3,0.1,0.5,0.1,0.7c0,0.7-0.6,1.4-1.9,1.5c-0.9,0.1-1.3-0.3-1.6-1.1l-4.2-16.4l-6.7,15.7
		c-0.5,0.9-1,1.1-1.5,1.2c-0.6,0-1.1-0.2-1.4-0.7l-8.5-15l-2.5,16.9c-0.1,0.9-0.5,1.2-1.4,1.2c-1.2,0.1-1.8-0.5-1.8-1.2
		c0-0.2,0-0.4,0.1-0.8l3.4-21c0.2-0.8,0.5-1.3,1.2-1.4c0.6,0,1.3,0.5,1.5,1l9.4,16.2l7.5-17.4c0.2-0.5,0.8-1.2,1.6-1.3
		c0.6,0,1.1,0.2,1.3,1.2L82.4,87.8z"/>
</g>
<g>
	<path d="M87.6,70.7c-1.1,0-2.2-0.9-2.2-1.9c0-1.1,1-2,2.1-2c1.2,0,2.2,0.8,2.2,1.9C89.7,69.8,88.8,70.6,87.6,70.7z M85.9,76.3
		c0-0.8,0.5-1.5,1.5-1.5c0.9,0,1.9,0.4,1.9,1.1l0.3,12.4c0,0.8-0.7,1.4-1.7,1.5c-0.8,0-1.7-0.7-1.7-1.2L85.9,76.3z"/>
</g>
<g>
	<path d="M99.9,81.7c2.1,1,3.1,1.9,3.1,3.9c0,2.9-2.6,4.4-5.9,4.4c-1.5,0-2.7-0.4-4-1c-0.5-0.2-0.8-0.5-0.8-1.2
		c0-0.6,0.6-1.6,1.5-1.6c0.4,0,0.7,0.2,1,0.3c0.9,0.5,1.8,0.9,2.5,0.9c1.1,0,2.3-0.8,2.3-1.8c0-0.7-0.8-1.1-1.6-1.5l-2.3-1.1
		c-1.7-0.8-3.1-1.8-3.1-3.9c0-2.7,3.4-3.7,5-3.7c1.7,0,2.9,0.2,4.1,0.6c0.8,0.3,1,0.5,1,1.2c0,0.5-0.6,1.6-1.7,1.6
		c-0.8,0-1.7-0.9-3.5-0.9c-0.5,0-1.5,0.4-1.5,1.2c0,0.8,1.1,1.2,1.4,1.4L99.9,81.7z"/>
</g>
<g>
	<path d="M112.3,81.8c2.1,1,3.1,2,3,4c-0.1,2.9-2.7,4.3-6,4.2c-1.5,0-2.7-0.4-4-1.1c-0.5-0.2-0.8-0.5-0.8-1.2c0-0.6,0.6-1.6,1.5-1.6
		c0.4,0,0.7,0.2,1,0.4c0.9,0.5,1.7,1,2.5,1c1.1,0,2.3-0.7,2.4-1.8c0-0.7-0.8-1.1-1.5-1.5l-2.3-1.1c-1.7-0.9-3.1-1.8-3-3.9
		c0.1-2.7,3.5-3.6,5.1-3.6c1.7,0,2.9,0.2,4.1,0.7c0.8,0.3,0.9,0.5,0.9,1.2c0,0.5-0.7,1.5-1.7,1.5c-0.8,0-1.7-1-3.4-1
		c-0.5,0-1.5,0.4-1.5,1.2c0,0.8,1,1.2,1.4,1.4L112.3,81.8z"/>
</g>
<g>
	<path d="M143.3,88c0.2,0,0.6,0,0.8,0c0.6,0.1,1.1,0.7,1,1.6c-0.1,0.8-0.6,1.3-1.6,1.3l-10.3,0c-0.3,0-0.9,0-1,0
		c-0.8-0.1-1.5-0.6-1.4-1.5c0-0.3,0.1-0.6,0.2-0.8l1.5-18.6c-0.2-0.3-0.4-0.8-0.4-1.2c0.1-1,0.6-1.2,1.5-1.2l9.6,0.2
		c0.5,0,1.2,0,1.6,0c0.9,0.1,1.2,0.7,1.1,1.6c-0.1,1.2-0.7,1.3-1.6,1.3l-8.3-0.2l-0.5,6.6l8.1,0.1c0.2,0,0.5,0,0.7,0
		c0.9,0.1,1.2,0.8,1.1,1.7c-0.1,1-0.6,1.1-1.6,1.1l-8.6,0l-0.7,8.1L143.3,88z"/>
</g>
<g>
	<path d="M150.9,69.5c0.1-0.7,1.3-1.3,2-1.2c1.1,0.1,1.5,0.7,1.4,1.5L152,91.2c-0.1,0.9-1.2,1.3-2,1.3c-1-0.1-1.6-0.7-1.5-1.5
		L150.9,69.5z"/>
</g>
<g>
	<path d="M159,88.3c-0.2,1.8,1,3,2.5,3.1c1.1,0.1,1.8-0.1,2.4-0.4c0.7-0.3,0.9-0.6,1.3-0.5c0.7,0.1,1.4,0.8,1.2,1.8
		c-0.1,0.4-0.2,0.7-0.8,0.9c-1.6,0.7-2.9,1-4.6,0.7c-3.4-0.5-6.1-2.4-5.4-7c0.6-4.2,4.4-7.8,8.1-7.3c3.1,0.4,4.1,2.2,3.9,3.9
		c-0.5,3.7-6.4,4.7-8.5,4.4L159,88.3z M163.4,82.1c-1.8-0.2-3.3,1.6-3.8,3.7c2.6,0.1,4.7-1.6,4.8-2.6
		C164.4,83,164.2,82.2,163.4,82.1z"/>
</g>
<g>
	<path d="M174.8,83.8c1.6-1.8,3.8-2.5,5.6-2.2c3.2,0.6,4.5,2.6,3.9,6c-0.8,4.8-6.1,9.3-10.6,8.5c-0.3-0.1-0.7-0.2-0.9-0.3l-1.1,6.4
		c-0.1,0.8-1.1,1.2-1.9,1c-0.8-0.1-1.6-0.9-1.5-1.6l3.5-20.1c0.1-0.7,1.2-1.2,2-1.1c1.1,0.2,1.5,0.9,1.4,1.5L174.8,83.8z
		 M173.3,92.2c0,0.3,0.2,1,0.9,1.1c2.7,0.5,5.9-3.2,6.5-6.3c0.2-1.3,0.1-2.5-1-2.7c-2.1-0.4-4.8,2.5-5.8,4L173.3,92.2z"/>
</g>
<g>
	<path d="M191.9,86.8c1.6-1.6,3.7-2.1,5.3-1.8c1.8,0.4,4.4,2,3.3,6.8l-1.6,7.2c-0.2,0.8-1.1,1.1-2,0.9s-1.6-0.8-1.4-1.6l1.7-7.6
		c0.3-1.5,0.1-2.7-0.9-3c-1.5-0.3-4,1.6-5.4,3.8l-1.3,6c-0.2,0.8-1.2,1.1-2,1c-0.8-0.2-1.5-0.9-1.4-1.6l4.6-21.3
		c0.2-0.8,1.4-1.3,2.1-1.1c1.1,0.2,1.5,0.9,1.3,1.6L191.9,86.8z"/>
</g>
<g>
	<path d="M212.2,95.3l0.1-0.3c0.1-0.4,0.9-2.8-0.4-3.2c-1.3-0.3-2.7,0-3.2,0.2c-0.3,0.1-0.7,0.3-1.5,0.1c-0.7-0.2-1.2-1.2-1.1-1.5
		c0.1-0.3,0-0.8,1.3-1c1.2-0.3,3.4-0.8,5.6-0.1c3.6,1,3.3,4.2,2.6,6.8l-1.3,4.9c-0.1,0.5,0,0.8,0.3,0.9c0.6,0.2,1.1,0.7,0.8,1.5
		c-0.3,1-0.6,1.5-2.2,1.1c-1.1-0.3-2.3-1.4-2.3-3.2c-1.1,0.9-3.3,1.6-5.2,1c-2.2-0.6-4.5-1.6-3.8-4.5c0.7-2.8,4.7-4.3,9.3-3.1
		C211.5,95.1,212.2,95.3,212.2,95.3z M211.7,97.3c0,0-0.6-0.2-1.1-0.4c-2.4-0.7-5,0.3-5.4,2c-0.2,0.7,0.5,1.2,1.2,1.3
		c2.3,0.6,4.3-0.7,5-1.5L211.7,97.3z"/>
</g>
<g>
	<path d="M224.7,95.3c1.5-1.2,3.6-1.8,5.4-1.2c1.8,0.6,4.1,2.5,2.8,6.8l-2.2,7.2c-0.2,0.7-1.4,0.9-2.2,0.7c-1-0.3-1.4-0.8-1.1-1.7
		l2.3-7.5c0.4-1.3,0.3-2.6-0.7-3c-1.8-0.6-4.1,1.1-5.6,3l-1.9,6.1c-0.2,0.7-1.3,1-2.1,0.7c-0.8-0.2-1.5-1-1.3-1.5l3.6-11.6
		c0.2-0.8,1.6-0.9,2.3-0.7c1.1,0.3,1.3,0.7,1.1,1.6L224.7,95.3z"/>
</g>
<g>
	<path d="M239.9,106.5c-0.4,1.1-1.2,3.5,0.1,4c0.5,0.2,0.9,0,1.9-0.3c0.4-0.1,0.6-0.1,1.1,0.1c0.6,0.2,0.8,1.3,0.6,1.7
		c-0.2,0.5-0.5,0.8-1.1,1c-1.1,0.2-2.1,0.5-3.8-0.1c-3-1.1-3.6-3.5-2.3-6.9l2.1-5.7l-0.4-0.2c-0.3-0.1-0.7-0.1-0.9-0.2
		c-0.8-0.3-1-0.5-0.7-1.3c0.2-0.6,0.9-1.4,1.7-1.2l1.3,0.3l1.7-4.5c0.3-0.7,1.2-1.1,2.3-0.7c1.1,0.4,1.3,1,1,1.7l-1.6,4.3l2,0.5
		c0.3,0.1,0.3,0.1,0.6,0.1c0.9,0.3,1.2,0.8,0.9,1.7c-0.2,0.6-0.8,1.1-1.6,0.9l-2.8-0.7L239.9,106.5z"/>
</g>
<g>
	<path d="M246.5,113.2c0.8-1.2,1.4-0.7,1.9-0.5c0.9,0.4,1.8,1.2,1.5,1.9c-0.1,0.2-0.2,0.3-0.3,0.5l-3.1,4.3
		c-0.3,0.3-0.7,0.6-1.3,0.4c-1.1-0.4-2.1-1.3-1.8-2c0.1-0.2,0.1-0.2,0.2-0.4L246.5,113.2z"/>
</g>
<g>
	<path d="M71.7,108.6c-1.1,0.1-2.2-0.8-2.3-1.8c-0.1-1.1,0.9-2,2-2.1c1.2-0.1,2.2,0.7,2.3,1.8C73.8,107.6,73,108.5,71.7,108.6z
		 M70.2,114.2c0-0.8,0.5-1.5,1.5-1.6c0.9-0.1,1.9,0.3,2,1.1l0.8,12.4c0.1,0.8-0.7,1.5-1.7,1.5c-0.8,0-1.7-0.6-1.8-1.1L70.2,114.2z"
		/>
</g>
<g>
	<path d="M83.1,121c0,1.2,0.2,3.7,1.6,3.6c0.5,0,0.9-0.4,1.7-1c0.3-0.2,0.5-0.3,1-0.3c0.7,0,1.2,0.9,1.2,1.3c0,0.6-0.1,1-0.7,1.3
		c-0.9,0.6-1.7,1.3-3.5,1.4c-3.2,0.1-4.6-1.9-4.8-5.5l-0.2-6l-0.5,0c-0.3,0-0.7,0.1-0.9,0.1c-0.8,0-1.1-0.1-1.1-0.9
		c0-0.6,0.3-1.6,1.1-1.7l1.3-0.2l-0.2-4.8c0-0.7,0.7-1.5,1.8-1.5c1.2,0,1.6,0.5,1.6,1.2l0.2,4.6l2.1-0.3c0.3,0,0.3-0.1,0.6-0.1
		c0.9,0,1.4,0.3,1.5,1.3c0,0.6-0.4,1.3-1.2,1.4l-2.9,0.4L83.1,121z"/>
</g>
<g>
	<path d="M90.7,103.6c0.3-1.4,1-1.2,1.6-1.2c1,0,2.1,0.5,2.1,1.1c0,0.2,0,0.3-0.1,0.5l-1.2,5.2c-0.2,0.4-0.6,0.9-1.1,0.9
		c-1,0-2.4-0.4-2.4-1.2c0-0.2,0-0.2,0-0.4L90.7,103.6z"/>
</g>
<g>
	<path d="M102.5,118.8c2.1,1,3.1,1.9,3.1,3.9c0,2.9-2.6,4.4-5.9,4.4c-1.5,0-2.7-0.4-4-1c-0.5-0.2-0.8-0.5-0.8-1.2
		c0-0.6,0.6-1.6,1.5-1.6c0.4,0,0.7,0.2,1,0.3c0.9,0.5,1.8,0.9,2.5,0.9c1.1,0,2.3-0.7,2.3-1.8c0-0.7-0.8-1.1-1.6-1.5l-2.3-1.1
		c-1.7-0.8-3.1-1.8-3.1-3.9c0-2.7,3.4-3.7,5-3.7c1.7,0,2.9,0.2,4.1,0.6c0.8,0.3,1,0.5,1,1.2c0,0.5-0.6,1.6-1.7,1.6
		c-0.8,0-1.7-1-3.5-1c-0.5,0-1.5,0.4-1.5,1.2c0,0.8,1.1,1.2,1.4,1.4L102.5,118.8z"/>
</g>
<g>
	<path d="M124.2,115.7c1.4-1.8,3.8-3.1,5.6-3c3.2,0.2,4.8,2.2,4.5,5.6c-0.3,4.9-5.5,9.9-9.9,9.7c-0.3,0-0.5-0.2-0.7-0.3
		c-0.2-0.1-0.3-0.3-0.3-0.3s-1.3,0.9-2.1,0.8c-1-0.1-1.4-0.5-1.4-1.4l1.4-21.8c0-0.7,1.3-1.2,2.1-1.2c1,0.1,1.4,0.5,1.4,1.4
		L124.2,115.7z M123.7,123.9c0,0.4,0.3,1,1,1.1c2.8,0.2,5.9-3.7,6.1-6.8c0.1-1.4-0.2-2.4-1.3-2.4c-2.3-0.1-4.8,2.7-5.6,4.4
		L123.7,123.9z"/>
</g>
<g>
	<path d="M139.7,123.7c-0.2,1.8,1.1,2.9,2.6,3.1c1.1,0.1,1.8-0.2,2.4-0.5c0.7-0.3,0.9-0.6,1.3-0.6c0.7,0.1,1.4,0.7,1.3,1.7
		c0,0.4-0.2,0.7-0.7,0.9c-1.6,0.7-2.9,1-4.6,0.9c-3.4-0.4-6.1-2.2-5.7-6.8c0.4-4.2,4.2-7.9,7.9-7.6c3.1,0.3,4.2,2.1,4,3.8
		c-0.4,3.7-6.3,4.9-8.4,4.6L139.7,123.7z M143.8,117.3c-1.8-0.2-3.2,1.7-3.7,3.8c2.6,0,4.6-1.7,4.7-2.8
		C144.8,118.2,144.7,117.4,143.8,117.3z"/>
</g>
<g>
	<path d="M162.7,108.7c0.1-0.8,1.1-1.2,2-1.1c0.9,0.1,1.6,0.7,1.5,1.6l-3.3,21.2c-0.1,0.7-0.5,1.4-1.9,1.2c-0.8-0.1-1.7-0.8-1.6-1.5
		l0.3-2.2c-1.6,1.9-3.8,3.1-5.5,2.8c-3.2-0.5-4.5-2.7-4-6c0.8-4.9,5.9-9.5,10.4-8.8c0.4,0.1,0.7,0.1,1,0.3L162.7,108.7z
		 M160.9,119.7c0.1-0.3-0.2-0.9-0.9-1c-2.8-0.4-5.9,3.5-6.4,6.6c-0.2,1.3,0.1,2.5,1.1,2.7c2.3,0.4,5-2.9,5.7-5.2L160.9,119.7z"/>
</g>
<g>
	<path d="M172.2,127.3c-0.2,1.2-0.6,3.7,0.8,3.9c0.5,0.1,0.9-0.2,1.8-0.6c0.4-0.2,0.6-0.2,1.1-0.1c0.7,0.1,1,1.2,0.9,1.6
		c-0.1,0.6-0.3,0.9-0.9,1.1c-1,0.4-2,0.9-3.7,0.5c-3.1-0.6-4.1-2.9-3.4-6.4l1.1-5.9l-0.5-0.1c-0.3-0.1-0.7,0-0.9-0.1
		c-0.8-0.2-1-0.3-0.9-1.2c0.1-0.6,0.7-1.5,1.5-1.5l1.3,0.1l0.9-4.7c0.1-0.7,1-1.3,2.1-1c1.2,0.2,1.4,0.8,1.3,1.5l-0.9,4.5l2.1,0.2
		c0.3,0,0.3,0,0.6,0c0.9,0.2,1.3,0.6,1.2,1.6c-0.1,0.6-0.6,1.2-1.5,1.1l-2.9-0.3L172.2,127.3z"/>
</g>
<g>
	<path d="M181.5,121.6c0.2-0.8,0.9-1.3,1.9-1.1c0.9,0.2,1.8,0.8,1.6,1.6l-2.7,12.1c-0.2,0.8-1.1,1.2-2,1c-0.8-0.2-1.5-1.1-1.4-1.6
		L181.5,121.6z M184.5,116.6c-1.1-0.2-1.9-1.4-1.7-2.4c0.2-1,1.4-1.7,2.5-1.5c1.2,0.3,1.9,1.3,1.7,2.4
		C186.8,116.2,185.7,116.9,184.5,116.6z"/>
</g>
<g>
	<path d="M197.7,138.4c-0.2,0.8-1.3,1-2.1,0.8c-1-0.3-1.5-0.8-1.3-1.6l2.1-7.6c0.4-1.3,0.5-2.5-0.5-2.8c-1.8-0.5-4.1,1.3-5.3,3.2
		l-1.6,5.9c-0.2,0.8-1.4,1-2.3,0.8c-0.9-0.2-1.3-0.8-1.1-1.6l3.1-11.3c0.2-0.8,1.6-1.1,2.3-0.9c1.1,0.3,1.3,0.8,1.1,1.5l-0.3,0.9
		c1.4-1,3.3-1.6,5-1.1c1.4,0.4,3,1.4,3.3,3.6c1.5-1,3.3-1.7,5.3-1.2c1.8,0.5,4.1,2.2,2.9,6.6l-1.9,7c-0.2,0.7-1.4,1-2.2,0.7
		c-1-0.3-1.4-0.8-1.1-1.6l2-7.4c0.4-1.3,0.4-2.5-0.6-2.8c-1.8-0.5-3.8,1.5-5.2,3.3L197.7,138.4z"/>
</g>
<g>
	<path d="M213.1,139.3c-0.6,1.7,0.4,3.1,1.8,3.6c1,0.4,1.8,0.2,2.5,0.1c0.7-0.1,1-0.4,1.4-0.2c0.7,0.2,1.2,1,0.9,2
		c-0.1,0.4-0.4,0.7-0.9,0.8c-1.7,0.3-3,0.4-4.6-0.2c-3.2-1.1-5.5-3.5-3.9-7.9c1.4-4,5.9-6.8,9.4-5.6c3,1,3.6,3,3,4.6
		c-1.2,3.5-7.2,3.3-9.2,2.6L213.1,139.3z M218.6,134.1c-1.7-0.6-3.5,0.9-4.5,2.9c2.5,0.6,4.9-0.6,5.2-1.6
		C219.4,135.1,219.4,134.3,218.6,134.1z"/>
</g>
<g>
	<path d="M91,147.1c-0.4-2.8-0.4-6.3,3.3-6.8c2.4-0.4,3.7,0.2,5,0.7c0.7,0.3,0.9,0.7,1,1.1c0.1,0.7-0.9,1.8-1.4,1.9
		c-1,0.1-1-0.1-1.4-0.3c-0.5-0.3-1.6-0.8-2.5-0.7c-1,0.2-0.8,2.3-0.6,3.6l0.4,2.6l2-0.5c0.4-0.1,0.6-0.2,0.9-0.2
		c0.9-0.1,1.2,0.3,1.3,1.2c0.1,0.7-0.3,1.3-1,1.5l-2.8,0.7l1.5,10.6c0.1,0.4-0.5,1.4-1.6,1.5c-0.8,0.1-1.7-0.4-1.8-1l-1.5-10.2
		l-0.6,0.1c0,0-0.5,0.2-0.6,0.2c-0.9,0.1-1.2-0.2-1.4-1c-0.1-0.7,0-1.4,0.7-1.6l1.6-0.4L91,147.1z"/>
</g>
<g>
	<path d="M108,162.8c-3.7,0.3-6.8-1.8-7.2-6.4c-0.3-3.9,2.6-8.2,6.4-8.5c4-0.3,6.9,2.1,7.3,6.4C114.9,158.6,111.5,162.5,108,162.8z
		 M107.4,150.8c-2.1,0.2-3.3,2.9-3.1,5.3c0.2,2.6,1.6,4,3.5,3.9c1.9-0.2,3.4-2.6,3.2-5.3C110.8,152,109.5,150.6,107.4,150.8z"/>
</g>
<g>
	<path d="M121.3,150c1.1-1.6,2.8-2.5,4.6-2.6c1.3,0,1.6,0.8,1.6,1.6c0,1.1-0.5,1.4-1.4,1.5c-2.1,0.1-4,1.4-4.7,3.3l0.2,6.7
		c0,0.7-1.2,1.4-1.9,1.4c-1.2,0-1.5-0.6-1.5-1.2l-0.3-11.9c0-0.8,1.1-1.4,1.9-1.4c1.5,0,1.5,0.4,1.6,1.2L121.3,150z"/>
</g>
<g>
	<path d="M154,151.9c-1.4,1.3-2.9,3.3-6.2,9c-3.6,6.2-5.3,10.4-8.6,10c-1.1-0.1-2-0.5-2.8-1c-0.6-0.5-0.7-0.7-0.6-1.2
		c0.1-0.6,0.5-1.5,1.8-1.4c0.4,0,1,0.7,1.5,0.7c1.8,0.2,3.4-3.5,4.6-6c-0.7-4.1-1.9-7.8-3.3-11.9c-0.1-0.4-0.1-0.4-0.1-0.8
		c0.1-0.5,1.5-1.3,2-1.2c0.7,0.1,1.1,0.2,1.4,1c0.9,2.7,1.9,7.3,2.3,9.2c1.2-1.9,3.3-5.9,4-6.8c0.8-1.1,1-1.5,2-2.2
		c0.3-0.2,0.4-0.2,1.1-0.1c0.7,0.1,1.5,1.2,1.5,1.7C154.5,151.5,154.4,151.5,154,151.9z"/>
</g>
<g>
	<path d="M159.7,165.2c-3.6-0.7-6-3.6-5.1-8.1c0.8-3.9,4.7-7.1,8.5-6.4c3.9,0.8,6.1,3.9,5.2,8.2
		C167.5,163.2,163.2,165.9,159.7,165.2z M162.6,153.5c-2-0.4-4,1.9-4.5,4.2c-0.5,2.6,0.4,4.3,2.3,4.7c1.9,0.4,4-1.6,4.5-4.2
		C165.4,155.7,164.6,153.9,162.6,153.5z"/>
</g>
<g>
	<path d="M182,156.8c0.2-0.6,1.4-0.9,2.1-0.7c0.8,0.3,1.4,1,1.2,1.7l-3.8,11.8c-0.3,0.8-1.5,1-2.2,0.7c-1-0.3-1.4-1-1.2-1.6l0.5-1.6
		c-1.8,1.1-3.9,1.7-5.5,1.2c-2.1-0.7-4.1-2.3-2.7-6.7l2.4-7.3c0.2-0.6,1.4-0.9,2.2-0.6c0.9,0.3,1.3,0.8,1.1,1.6l-2.5,7.7
		c-0.4,1.4-0.3,2.5,0.7,2.9c1.4,0.5,4-0.7,5.6-2.8L182,156.8z"/>
</g>
<g>
	<path d="M186.5,173.5c-0.9-0.4-1.7-1.3-1.1-2.8c0.3-0.6,1.8-1.5,2.7-1.1c1.1,0.5,1.7,1.3,1.1,2.8C188.9,173,187.5,174,186.5,173.5z
		 M191.1,167.2c-0.4,1-1.3,1.1-2.2,0.7c-1-0.4-1.4-1.1-1.1-1.9l5.1-12.1c0.4-1,1.5-0.9,2.3-0.6c1.2,0.5,1.2,1.2,0.9,2L191.1,167.2z"
		/>
</g>
</svg>
