<?xml version="1.0" encoding="utf-8"?>
<!-- Generator: Adobe Illustrator 22.1.0, SVG Export Plug-In . SVG Version: 6.00 Build 0)  -->
<svg version="1.1" id="Capa_1" xmlns="http://www.w3.org/2000/svg" xmlns:xlink="http://www.w3.org/1999/xlink" x="0px" y="0px"
	 viewBox="0 0 132.2 69.1" style="enable-background:new 0 0 132.2 69.1;" xml:space="preserve">
<style type="text/css">
	.st0{enable-background:new    ;}
</style>
<title>TEX_TEXT_1060E</title>
<g class="st0">
	<path d="M16.1,48.1c-1,0.5-2.2,0.9-4.6,0.9c-5.4,0.1-10.1-3.3-10.2-8.7c0-4.7,3.9-8.7,9.6-8.7c2.6,0,3.7,0.4,4.9,0.9
		c0.7,0.3,0.9,0.7,0.9,1c0,0.5-0.6,1.2-1.3,1.2c-0.3,0-0.6-0.1-1.1-0.3c-1.2-0.4-1.7-0.8-3.4-0.8c-4.1,0-7,3.1-7,6.7
		c0,4,3.9,6.8,7.5,6.7c1.4,0,1.9-0.3,3.1-0.8c0.3-0.2,0.7-0.3,1-0.3c0.8,0,1.3,0.6,1.3,1.1C16.9,47.6,16.7,47.8,16.1,48.1z"/>
</g>
<g class="st0">
	<path d="M27,39c0-0.5,0.8-0.9,1.4-0.9c0.6,0,1.2,0.4,1.2,0.9l-0.3,9.1c0,0.6-0.9,1-1.4,1c-0.8,0-1.2-0.4-1.2-0.9l0-1.2
		c-1,1.1-2.4,2-3.6,1.9c-1.6,0-3.4-0.8-3.3-4.2l0.2-5.7c0-0.5,0.8-0.9,1.5-0.9c0.7,0,1.1,0.3,1.1,0.9L22.3,45c0,1,0.3,1.9,1.1,1.9
		c1.1,0,2.7-1.3,3.4-3.1L27,39z"/>
</g>
<g class="st0">
	<path d="M40.2,33c0-0.6,0.7-1,1.4-0.9c0.7,0,1.2,0.4,1.2,1.1l-1,15.7c0,0.5-0.3,1.1-1.3,1c-0.6,0-1.3-0.5-1.3-1l0.1-1.6
		c-1,1.5-2.6,2.5-3.9,2.4C33,49.5,31.9,48,32,45.6c0.2-3.6,3.7-7.3,7-7.1c0.3,0,0.5,0.1,0.7,0.1L40.2,33z M39.6,41.2
		c0-0.2-0.2-0.7-0.8-0.7c-2-0.1-4.1,2.9-4.2,5.3c-0.1,1,0.2,1.8,1,1.9c1.7,0.1,3.5-2.5,3.9-4.2L39.6,41.2z"/>
</g>
<g class="st0">
	<path d="M53.2,34.2c0.1-0.6,0.8-0.9,1.4-0.9c0.7,0.1,1.2,0.5,1.1,1.1l-1.6,15.6c-0.1,0.5-0.3,1-1.3,0.9c-0.6-0.1-1.3-0.5-1.2-1
		l0.2-1.6c-1.1,1.4-2.6,2.4-3.9,2.3c-2.3-0.2-3.4-1.8-3.2-4.2c0.4-3.6,4-7.2,7.2-6.8c0.3,0,0.5,0.1,0.7,0.2L53.2,34.2z M52.3,42.3
		c0-0.2-0.2-0.7-0.7-0.7c-2-0.2-4.1,2.8-4.4,5.1c-0.1,1,0.2,1.8,0.9,1.9c1.7,0.2,3.6-2.3,4-4L52.3,42.3z"/>
</g>
<g class="st0">
	<path d="M59.3,34.9c0.1-0.5,1-0.9,1.5-0.9c0.8,0.1,1.1,0.6,1,1.1L60,50.8c-0.1,0.6-0.9,1-1.4,0.9c-0.7-0.1-1.2-0.5-1.1-1.1
		L59.3,34.9z"/>
</g>
<g class="st0">
	<path d="M73.7,45c-1.1,0.9-2.2,2.4-4.7,6.5c-2.8,4.5-4.1,7.5-6.5,7.2c-0.8-0.1-1.5-0.4-2-0.8C60,57.5,60,57.3,60,56.9
		c0.1-0.4,0.4-1.1,1.4-1c0.3,0,0.7,0.5,1.1,0.6c1.3,0.2,2.6-2.5,3.5-4.3c-0.4-3-1.2-5.8-2.2-8.8c-0.1-0.3-0.1-0.3,0-0.6
		c0.1-0.4,1.1-0.9,1.5-0.8c0.5,0.1,0.8,0.1,1,0.8c0.6,2,1.3,5.4,1.5,6.8c0.9-1.3,2.6-4.3,3.1-4.9c0.6-0.8,0.7-1.1,1.5-1.6
		c0.2-0.1,0.3-0.2,0.8-0.1s1.1,0.9,1,1.3C74.1,44.7,74,44.7,73.7,45z"/>
</g>
<g class="st0">
	<path d="M97.2,40.4c0.6,0.1,1.1,0.3,0.9,1.3c-0.1,0.5-0.7,0.7-1.2,0.6l-5.4-0.7l-2.5,13.6c-0.1,0.6-0.6,0.9-1.6,0.7
		c-1-0.2-1.1-0.6-1-1.2l2.5-13.5l-4.3-0.5c-0.2,0-0.5,0-0.7-0.1c-0.7-0.1-1.1-0.5-1-1.1c0.1-0.5,0.6-1,1.3-0.9l12.6,1.5L97.2,40.4z"
		/>
</g>
<g class="st0">
	<path d="M95.5,53.9c-0.3,1.3,0.6,2.2,1.6,2.4c0.8,0.2,1.3,0,1.8-0.2c0.5-0.2,0.7-0.4,1-0.3c0.5,0.1,1,0.6,0.8,1.4
		c-0.1,0.3-0.2,0.5-0.6,0.6c-1.2,0.4-2.2,0.5-3.4,0.3c-2.5-0.5-4.3-2.1-3.6-5.4c0.6-3.1,3.7-5.5,6.3-4.9c2.3,0.5,2.9,1.8,2.7,3.1
		c-0.6,2.7-4.9,3.1-6.5,2.8L95.5,53.9z M99,49.6c-1.3-0.3-2.5,1-3,2.5c1.9,0.2,3.5-0.9,3.7-1.7C99.7,50.2,99.6,49.7,99,49.6z"/>
</g>
<g class="st0">
	<path d="M113.3,44.4c0.1-0.6,0.9-0.8,1.5-0.7c0.7,0.2,1.1,0.6,1,1.3l-3.6,15.4c-0.1,0.5-0.5,1-1.4,0.8c-0.6-0.1-1.2-0.7-1.1-1.2
		l0.4-1.6c-1.3,1.3-2.9,2.1-4.2,1.8c-2.3-0.5-3.2-2.2-2.6-4.6c0.8-3.5,4.9-6.6,8.1-5.9c0.3,0.1,0.5,0.1,0.7,0.3L113.3,44.4z
		 M111.4,52.4c0.1-0.2-0.1-0.7-0.6-0.8c-2-0.5-4.5,2.2-5,4.5c-0.2,0.9-0.1,1.9,0.7,2c1.7,0.4,3.8-1.9,4.5-3.5L111.4,52.4z"/>
</g>
<g class="st0">
	<path d="M115.8,62.6c-0.7-0.2-1.4-0.7-1.1-1.8c0.1-0.4,1.1-1.3,1.8-1.1c0.8,0.2,1.4,0.8,1.1,1.8C117.5,62,116.6,62.8,115.8,62.6z"
		/>
</g>
<g class="st0">
	<path d="M16.4,5.2c0-0.6,0.7-1.1,1.4-1.1c0.8,0,1.2,0.5,1.2,0.9l0.3,15.4c0,0.5-0.3,1-0.9,1c-0.3,0-0.7-0.1-1-0.5L5.2,8.6l0.3,11.8
		c0,0.6-0.7,1.1-1.4,1.2c-0.8,0-1.2-0.2-1.2-1L2.5,5.1c0-0.4,0.5-0.9,1-0.9c0.4,0,0.8,0.2,1,0.4l12.1,12.3L16.4,5.2z"/>
</g>
<g class="st0">
	<path d="M24.4,7.2c-0.8,0-1.6-0.7-1.6-1.4c0-0.8,0.8-1.4,1.6-1.4C25.3,4.3,26,5,26,5.8C26,6.6,25.3,7.2,24.4,7.2z M23,11.3
		c0-0.6,0.4-1.1,1.2-1.1c0.7,0,1.4,0.3,1.4,0.9l-0.1,9.1c0,0.6-0.6,1-1.3,1c-0.6,0-1.2-0.6-1.2-0.9L23,11.3z"/>
</g>
<g class="st0">
	<path d="M35,10.3c0.4,0,0.7,0.1,0.7,0.1l0-0.1c0-0.3,0.6-0.6,1.3-0.5c0.7,0,1.2,0.5,1.2,1.1l-0.2,5.4c-0.1,3.4,0.2,3,0.1,5.8
		c-0.1,2.3-2,5.1-5.3,5c-2.6-0.1-4.5-1.3-5.4-2.6c-0.2-0.3-0.2-0.3-0.2-0.7c0-0.5,0.9-1,1.3-1c0.5,0,0.5,0.1,0.7,0.3
		c0.6,0.6,1.5,1.9,3.5,1.9c2.3,0.1,2.8-2.2,2.9-3.2c0-0.8,0-1.8-0.1-2.8c-1.2,1.5-2.6,2.6-4.1,2.5c-2.3-0.1-3.5-1.2-3.4-4
		C28.1,14,31.7,10.2,35,10.3z M35.7,12.8c-0.1-0.2-0.3-0.5-0.8-0.5c-2-0.1-4.2,3-4.3,5.4c0,1,0.1,1.8,0.9,1.9c1.7,0.1,3.5-2.6,4-4.1
		L35.7,12.8z"/>
</g>
<g class="st0">
	<path d="M44.4,13.2c1-1.3,2.5-1.9,3.6-1.9c1.4,0.1,3.4,1,3.2,4.6l-0.4,5.4c0,0.6-0.7,0.9-1.3,0.9c-0.6,0-1.2-0.4-1.2-1l0.4-5.7
		c0.1-1.1-0.2-2-1-2c-1.1-0.1-2.8,1.6-3.5,3.3l-0.3,4.5c0,0.6-0.7,1-1.4,0.9c-0.6,0-1.2-0.5-1.2-1l1-15.9c0-0.6,0.9-1.1,1.4-1
		c0.8,0.1,1.2,0.5,1.1,1L44.4,13.2z"/>
</g>
<g class="st0">
	<path d="M57.4,18.5c-0.1,0.9-0.2,2.7,0.8,2.8c0.4,0,0.7-0.2,1.3-0.6c0.3-0.2,0.4-0.2,0.8-0.2c0.5,0,0.8,0.8,0.8,1.1
		c0,0.4-0.2,0.7-0.6,0.9c-0.7,0.4-1.4,0.8-2.7,0.7c-2.3-0.2-3.2-1.8-3-4.4l0.4-4.4l-0.3,0c-0.2,0-0.5,0-0.7,0
		c-0.6-0.1-0.8-0.1-0.7-0.8c0-0.4,0.4-1.2,1-1.2l1,0l0.3-3.5c0-0.5,0.7-1,1.5-0.9c0.9,0.1,1.1,0.5,1.1,1l-0.3,3.4l1.5,0
		c0.2,0,0.3,0,0.5,0c0.7,0.1,1,0.4,1,1.1c0,0.5-0.4,0.9-1,0.9l-2.1,0L57.4,18.5z"/>
</g>
<g class="st0">
	<path d="M68.4,16.9c0.1,0,0.2,0,0.3,0c0.6,0.1,0.8,0.9,0.8,1.3c-0.1,0.5-0.5,0.8-1.1,0.7l-5.5-0.4c-0.1,0-0.2,0-0.3,0
		c-0.5-0.1-0.9-0.8-0.8-1.1c0-0.4,0.5-1,1.1-0.9L68.4,16.9z"/>
</g>
<g class="st0">
	<path d="M74.6,16.2c0.9-1,2.4-1.7,3.7-1.5c1.4,0.2,3.3,1.3,2.9,4.6l-0.7,5.5c-0.1,0.5-0.9,0.8-1.5,0.8c-0.7-0.1-1.1-0.4-1-1.1
		l0.8-5.7c0.1-1-0.1-2-0.9-2.1c-1.4-0.2-2.9,1.3-3.7,2.9l-0.6,4.6c-0.1,0.5-0.8,0.9-1.4,0.8c-0.6-0.1-1.2-0.5-1.1-0.9l1.2-8.9
		c0.1-0.6,1-0.9,1.6-0.8c0.8,0.1,1.1,0.4,1,1.1L74.6,16.2z"/>
</g>
<g class="st0">
	<path d="M85.1,16.4c0.1-0.6,0.6-1,1.3-0.9c0.7,0.1,1.3,0.5,1.2,1.1l-1.4,9c-0.1,0.6-0.7,1-1.4,0.8c-0.6-0.1-1.2-0.7-1.1-1.1
		L85.1,16.4z M87,12.6c-0.8-0.1-1.5-0.9-1.3-1.6c0.1-0.8,1-1.3,1.8-1.2c0.9,0.1,1.5,0.9,1.4,1.7C88.7,12.2,87.9,12.7,87,12.6z"/>
</g>
<g class="st0">
	<path d="M97.4,17.2c0.4,0.1,0.7,0.2,0.7,0.2l0-0.1c0.1-0.3,0.6-0.5,1.4-0.3c0.7,0.1,1.2,0.6,1.1,1.2l-1,5.4c-0.6,3.4-0.3,3-0.8,5.7
		c-0.4,2.3-2.7,4.8-6,4.2c-2.6-0.5-4.3-2-5-3.4c-0.2-0.3-0.2-0.3-0.1-0.7c0.1-0.5,1-0.9,1.4-0.8c0.5,0.1,0.5,0.1,0.7,0.4
		c0.5,0.6,1.2,2.1,3.2,2.4c2.3,0.4,3.1-1.8,3.3-2.7c0.1-0.8,0.2-1.8,0.3-2.8c-1.4,1.3-2.9,2.2-4.4,1.9c-2.3-0.4-3.3-1.7-2.8-4.4
		C90,19.9,94.1,16.6,97.4,17.2z M97.6,19.7c0-0.2-0.2-0.5-0.7-0.6c-2-0.4-4.6,2.4-5,4.7c-0.2,1-0.1,1.8,0.7,2
		c1.7,0.3,3.8-2.1,4.6-3.5L97.6,19.7z"/>
</g>
<g class="st0">
	<path d="M106.2,21.3c1.2-1.2,2.7-1.6,3.8-1.4c1.3,0.3,3.2,1.4,2.5,4.9l-1.1,5.3c-0.1,0.6-0.8,0.8-1.4,0.7c-0.6-0.1-1.2-0.6-1.1-1.2
		l1.1-5.6c0.2-1.1,0.1-2-0.7-2.2c-1.1-0.2-2.9,1.2-3.9,2.8l-0.9,4.4c-0.1,0.6-0.9,0.8-1.5,0.7c-0.6-0.1-1.1-0.6-1-1.2l3.2-15.7
		c0.1-0.6,1-0.9,1.5-0.8c0.8,0.2,1.1,0.6,1,1.1L106.2,21.3z"/>
</g>
<g class="st0">
	<path d="M118.3,28.3c-0.2,0.9-0.5,2.7,0.5,2.9c0.4,0.1,0.7-0.1,1.4-0.4c0.3-0.1,0.4-0.1,0.8-0.1c0.5,0.1,0.7,0.9,0.6,1.2
		c-0.1,0.4-0.2,0.7-0.7,0.8c-0.7,0.3-1.5,0.6-2.7,0.3c-2.3-0.5-2.9-2.2-2.3-4.8l1-4.3l-0.3-0.1c-0.2,0-0.5,0-0.7-0.1
		c-0.6-0.1-0.8-0.2-0.6-0.9c0.1-0.4,0.5-1.1,1.1-1l1,0.1l0.8-3.4c0.1-0.5,0.8-0.9,1.6-0.7c0.9,0.2,1,0.6,0.9,1.1l-0.7,3.3l1.5,0.2
		c0.2,0,0.3,0,0.4,0c0.7,0.1,1,0.5,0.8,1.2c-0.1,0.5-0.5,0.9-1.1,0.8l-2.1-0.3L118.3,28.3z"/>
</g>
<g class="st0">
	<path d="M124.3,32.7c0.5-0.9,0.9-0.7,1.3-0.6c0.7,0.2,1.4,0.7,1.3,1.2c0,0.1-0.1,0.2-0.1,0.4l-1.8,3.5c-0.2,0.2-0.4,0.5-0.9,0.4
		c-0.8-0.2-1.6-0.7-1.5-1.3c0-0.1,0-0.1,0.1-0.3L124.3,32.7z"/>
</g>
</svg>
