<?xml version="1.0" encoding="utf-8"?>
<!-- Generator: Adobe Illustrator 22.1.0, SVG Export Plug-In . SVG Version: 6.00 Build 0)  -->
<svg version="1.1" id="Capa_1" xmlns="http://www.w3.org/2000/svg" xmlns:xlink="http://www.w3.org/1999/xlink" x="0px" y="0px"
	 viewBox="0 0 301 212.4" style="enable-background:new 0 0 301 212.4;" xml:space="preserve">
<style type="text/css">
	.st0{enable-background:new    ;}
</style>
<g class="st0">
	<path d="M36,36.7c-0.7-0.1-1.4-0.4-1.8-2.4c-0.5-2.5,2.5-3.7,2.5-3.7c4.1-1.8,7.6-2.6,9-2.9c4.4-1,18.6-2.7,21.1,9.1
		c2.6,12.1-12.3,17.7-19.2,19.4l3.5,16.2c0.3,1.5-1.7,3.5-3.2,3.8c-3.1,0.7-3.5-0.7-3.7-1.9L36,36.7z M46.4,50.7
		c5.2-1.1,14.8-4.5,13.1-12.4c-1.5-6.9-10.7-5.5-12.7-5.1c-1.3,0.3-2.5,0.6-3.9,1.1L46.4,50.7z"/>
</g>
<g class="st0">
	<path d="M74.6,60.2c0.6,3.8,3.9,5.4,6.9,4.9c2.3-0.4,3.6-1.4,4.7-2.3c1.2-1,1.6-1.7,2.4-1.8c1.5-0.2,3.3,0.7,3.6,2.9
		c0.1,0.9,0,1.6-1,2.4c-2.9,2.4-5.4,3.7-9,4.3c-7.2,1.1-13.8-1.2-15.4-11.1c-1.4-9,4.4-18.7,12.1-19.9c6.7-1,9.8,2,10.3,5.7
		c1.2,7.9-10.3,13.4-14.8,14.1L74.6,60.2z M79.7,44.9c-3.9,0.6-5.7,5.2-5.6,9.9c5.3-1.3,8.6-6,8.3-8.3
		C82.3,46.1,81.5,44.6,79.7,44.9z"/>
</g>
<g class="st0">
	<path d="M99.6,52.1c0.3,3.3,3.1,4.8,5.7,4.5c2-0.2,3.1-1,4.1-1.8c1.1-0.8,1.4-1.4,2.1-1.5c1.3-0.1,2.8,0.8,2.9,2.6
		c0.1,0.8-0.1,1.4-1,2c-2.6,1.9-4.7,2.9-7.8,3.3c-6.2,0.7-11.7-1.6-12.6-10c-0.8-7.7,4.5-15.7,11.1-16.4c5.7-0.6,8.2,2.1,8.6,5.2
		c0.7,6.8-9.3,11-13.2,11.4L99.6,52.1z M104.5,39.3c-3.3,0.4-5.1,4.2-5.1,8.2c4.6-0.9,7.6-4.8,7.4-6.7
		C106.7,40.4,106.1,39.2,104.5,39.3z"/>
</g>
<g class="st0">
	<path d="M143.4,58.7c0.6,0.5,1.1,0.8,1.2,1.9c0.1,1.2-1.9,2.9-2.6,2.9c-0.9,0-1.5,0.1-2.2-0.4l-13.8-9.8l0.5,9.5
		c0.1,1.5-1.8,2.6-3.3,2.7c-2.2,0.1-2.9-0.7-3-2.2L118,24.4c-0.1-1.4,1.9-2.5,3.1-2.6c1.8-0.1,3.1,0.9,3.2,2l1.2,22.4l8.3-8.1
		c0.7-0.7,1-1,2.2-1.1c2.2-0.1,2.8,1.6,2.8,2.6c0,0.7-0.3,1.3-0.9,1.8l-8.6,7.8L143.4,58.7z"/>
</g>
<g class="st0">
	<path d="M162.9,46.5v-0.5c0-0.7,0.2-5.1-2.1-5.1c-2.3,0-4.6,1.2-5.3,1.8c-0.4,0.4-1.1,0.9-2.5,0.9c-1.2,0-2.6-1.5-2.6-2
		c0-0.5-0.3-1.3,1.6-2.3c1.9-1,5.3-2.8,9.3-2.8c6.5,0,7.4,5.6,7.4,10.2l0,8.7c0,0.9,0.4,1.4,0.9,1.4c1.1,0,2.1,0.6,2.1,2.2
		c0,1.8-0.2,2.8-3.2,2.8c-2.1,0-4.4-1.4-5.2-4.3c-1.5,2-4.8,4-8.2,4c-3.9,0-8.3-0.6-8.3-5.8c0-5,5.9-9.3,14.1-9.3
		C161.7,46.4,162.9,46.5,162.9,46.5z M162.9,50.1c0,0-1.1-0.1-1.9-0.1c-4.3,0-8.2,2.8-8.2,5.7c0,1.2,1.4,1.7,2.5,1.7
		c4,0,6.9-3,7.6-4.6L162.9,50.1z"/>
</g>
<g class="st0">
	<path d="M185.2,39.7c2.9-3.9,8.2-6.6,11.9-6.4c6.9,0.4,10.2,4.6,9.7,11.9c-0.6,10.4-11.6,21.2-21.2,20.7c-0.6,0-1.1-0.4-1.4-0.7
		c-0.4-0.3-0.6-0.6-0.6-0.6s-2.7,1.9-4.4,1.8c-2.1-0.1-3.1-1.1-2.9-3l2.8-46.6c0.1-1.5,2.8-2.7,4.4-2.6c2.1,0.1,3.1,1.1,2.9,3
		L185.2,39.7z M184.2,57.2c-0.1,0.9,0.6,2.2,2.2,2.3c5.9,0.4,12.6-7.9,13-14.5c0.2-3-0.3-5-2.7-5.2c-4.9-0.3-10.2,5.8-12,9.4
		L184.2,57.2z"/>
</g>
<g class="st0">
	<path d="M220.2,65.4c-6.6-0.8-11.3-5.7-10.2-14c0.9-7.1,7.6-13.4,14.5-12.6c7.2,0.9,11.4,6.3,10.4,14.1
		C233.9,60.8,226.6,66.2,220.2,65.4z M223.8,44.1c-3.7-0.5-7,3.9-7.5,8.1c-0.6,4.7,1.2,7.7,4.7,8.1c3.5,0.4,7-3.4,7.6-8.1
		C229.2,47.6,227.5,44.5,223.8,44.1z"/>
</g>
<g class="st0">
	<path d="M245.3,72.3c-6-1.1-10-5.8-8.6-13.2c1.1-6.4,7.6-11.9,13.8-10.7c6.5,1.2,10.1,6.2,8.8,13.3
		C258.1,68.7,251.1,73.3,245.3,72.3z M249.6,53c-3.4-0.6-6.5,3.2-7.2,7c-0.8,4.3,0.8,7.1,3.9,7.6c3.1,0.6,6.6-2.7,7.3-7
		C254.3,56.5,253,53.6,249.6,53z"/>
</g>
<g class="st0">
	<path d="M264.4,76.3c-1.6-0.4-3.1-1.6-2.4-4.1c0.3-1,2.7-2.9,4.3-2.6c1.9,0.4,3.1,1.7,2.4,4.1C268.4,74.8,266.3,76.7,264.4,76.3z
		 M270.7,64.8c-0.5,1.8-1.9,2.1-3.6,1.7c-1.7-0.4-2.5-1.4-2.1-2.7l5.8-20.7c0.5-1.8,2.2-1.9,3.7-1.6c2.1,0.5,2.3,1.5,1.9,3
		L270.7,64.8z"/>
</g>
<g class="st0">
	<path d="M32.3,100c-0.3-1.1,0.7-1.7,1.6-1.9c1.3-0.3,1.7,0.2,2,1.1l4.9,20.2c0.3,1.1-0.6,1.7-1.6,2c-1.1,0.3-1.7,0-1.9-0.9
		L32.3,100z"/>
</g>
<g class="st0">
	<path d="M49.7,112.7c0.3,1.2,0.9,3.7,2.3,3.4c0.5-0.1,0.8-0.5,1.5-1.3c0.3-0.3,0.4-0.4,1-0.5c0.7-0.1,1.4,0.7,1.5,1.2
		c0.1,0.6,0.1,1-0.4,1.5c-0.8,0.8-1.5,1.6-3.3,2c-3.2,0.7-5-1.1-5.8-4.7l-1.3-6.1l-0.5,0.1c-0.3,0.1-0.7,0.2-0.9,0.3
		c-0.8,0.2-1.1,0.1-1.3-0.8c-0.1-0.6,0-1.7,0.8-2l1.3-0.4l-1-4.9c-0.2-0.8,0.5-1.6,1.6-1.8c1.2-0.3,1.7,0.2,1.8,0.9l1,4.7l2-0.7
		c0.3-0.1,0.3-0.1,0.6-0.2c0.9-0.2,1.5,0.1,1.7,1c0.1,0.7-0.1,1.4-0.9,1.7l-2.9,0.9L49.7,112.7z"/>
</g>
<g class="st0">
	<path d="M54.8,93.6c0.1-1.5,0.8-1.4,1.4-1.5c1-0.2,2.2,0.1,2.4,0.8c0,0.2,0,0.4,0,0.6L58.2,99c-0.1,0.4-0.4,1-0.9,1.1
		c-1,0.2-2.5,0-2.7-0.8c0-0.2-0.1-0.2,0-0.4L54.8,93.6z"/>
</g>
<g class="st0">
	<path d="M70.2,106.8c2.3,0.6,3.5,1.4,3.8,3.5c0.5,2.9-1.9,4.9-5.2,5.4c-1.6,0.3-2.8,0.1-4.3-0.3c-0.6-0.2-0.9-0.3-1-1
		c-0.1-0.6,0.3-1.7,1.2-1.9c0.4-0.1,0.7,0.1,1.1,0.2c1,0.3,2,0.6,2.7,0.5c1.1-0.2,2.2-1.2,2-2.2c-0.1-0.8-1-1-1.8-1.2l-2.5-0.7
		c-1.9-0.5-3.5-1.2-3.9-3.4c-0.5-2.7,2.8-4.4,4.5-4.6c1.7-0.3,3-0.3,4.3-0.1c0.8,0.1,1,0.3,1.2,1.1c0.1,0.6-0.4,1.7-1.5,1.9
		c-0.8,0.1-1.9-0.7-3.7-0.4c-0.5,0.1-1.4,0.7-1.3,1.5c0.1,0.8,1.3,1.1,1.7,1.2L70.2,106.8z"/>
</g>
<g class="st0">
	<path d="M101.6,97c0.2,0,0.3-0.1,0.5-0.1c1-0.1,1.6,0.6,1.7,1.4c0.1,0.9-0.4,1.3-1.4,1.5l-8.6,1.7l1,8.2c0.1,1-0.8,1.8-1.8,1.9
		c-1.5,0.2-1.7-0.6-1.7-1.3L88.8,91c-0.3-0.2-0.6-0.8-0.6-1.3c-0.1-1,0.4-1.4,1.3-1.6l9.8-1.7c0.5-0.1,0.9-0.2,1.2-0.2
		c0.9-0.1,1.7,0.4,1.8,1.2c0.2,1.3-0.5,1.5-1.4,1.6l-8.4,1.5l1,8.1L101.6,97z"/>
</g>
<g class="st0">
	<path d="M106.3,86.6c-0.1-0.7,1.1-1.6,1.8-1.6c1.1-0.1,1.7,0.4,1.7,1.2l2.1,22.2c0.1,0.9-0.9,1.6-1.7,1.7c-1,0.1-1.8-0.4-1.8-1.2
		L106.3,86.6z"/>
</g>
<g class="st0">
	<path d="M125.5,94.5c0-0.7,1-1.4,1.8-1.5c0.9-0.1,1.7,0.4,1.8,1.1l0.9,12.7c0.1,0.9-1.1,1.5-1.8,1.6c-1.1,0.1-1.7-0.4-1.8-1.1
		l-0.1-1.7c-1.3,1.7-3.1,3.1-4.8,3.2c-2.3,0.2-4.8-0.7-5.1-5.4l-0.5-7.9c0-0.7,1-1.4,1.9-1.4c1-0.1,1.6,0.2,1.7,1.1l0.6,8.3
		c0.1,1.5,0.7,2.6,1.7,2.5c1.5-0.1,3.6-2.2,4.3-4.8L125.5,94.5z"/>
</g>
<g class="st0">
	<path d="M134.8,90.2c-0.1-2.9,0.3-6.5,4.1-6.6c2.5-0.1,3.8,0.6,5.1,1.3c0.7,0.4,0.8,0.8,0.8,1.2c0,0.7-1.1,1.8-1.7,1.8
		c-1,0-1-0.2-1.4-0.5c-0.4-0.4-1.5-1-2.5-1c-1.1,0-1,2.3-1,3.6l0.1,2.7l2.1-0.3c0.4,0,0.7-0.1,1-0.1c0.9,0,1.2,0.5,1.2,1.4
		c0,0.7-0.4,1.3-1.2,1.4l-3,0.4l0.4,11c0,0.5-0.6,1.4-1.8,1.4c-0.8,0-1.7-0.6-1.7-1.2l-0.4-10.6l-0.7,0c0,0-0.5,0.1-0.7,0.1
		c-0.9,0-1.2-0.4-1.3-1.2c0-0.7,0.2-1.4,0.9-1.5l1.6-0.2L134.8,90.2z"/>
</g>
<g class="st0">
	<path d="M148.8,89.8c0-2.9,0.5-6.4,4.3-6.5c2.5,0,3.7,0.7,5,1.4c0.7,0.4,0.8,0.8,0.8,1.3c0,0.7-1.1,1.7-1.7,1.7c-1,0-1-0.2-1.4-0.5
		c-0.4-0.4-1.5-1.1-2.4-1.1c-1.1,0-1.1,2.3-1.1,3.6l0,2.7l2.1-0.2c0.4,0,0.7-0.1,1-0.1c0.9,0,1.2,0.5,1.2,1.5c0,0.7-0.4,1.3-1.3,1.3
		l-3,0.3l0.1,11c0,0.5-0.7,1.3-1.9,1.3c-0.8,0-1.7-0.7-1.7-1.3l-0.1-10.6l-0.7,0c0,0-0.5,0.1-0.7,0.1c-0.9,0-1.2-0.4-1.2-1.3
		c0-0.7,0.2-1.4,0.9-1.5l1.6-0.2L148.8,89.8z"/>
</g>
<g class="st0">
	<path d="M173.3,96c-1.4,1.4-2.7,3.7-5.5,9.8c-3.1,6.7-4.5,11.1-7.9,11c-1.1,0-2.1-0.3-2.9-0.8c-0.7-0.4-0.8-0.6-0.7-1.2
		c0-0.6,0.4-1.6,1.8-1.6c0.4,0,1,0.6,1.6,0.6c1.9,0,3.2-3.9,4.2-6.6c-1.1-4.2-2.7-7.8-4.5-11.9c-0.2-0.4-0.2-0.4-0.2-0.8
		c0-0.5,1.4-1.4,2-1.4c0.7,0,1.1,0.1,1.5,0.9c1.2,2.7,2.6,7.3,3.2,9.2c1-2,2.9-6.4,3.5-7.3c0.8-1.2,0.8-1.6,1.8-2.4
		c0.3-0.2,0.4-0.3,1.1-0.3c0.7,0,1.7,1.1,1.7,1.7C173.7,95.5,173.7,95.6,173.3,96z"/>
</g>
<g class="st0">
	<path d="M207.6,110.1c-1.5,0.5-3.3,0.9-6.5,0.5c-7.6-0.8-13.6-6.2-12.7-13.8c0.7-6.6,6.9-11.4,14.8-10.6c3.6,0.4,5.1,1.1,6.7,2
		c0.9,0.5,1.1,1.1,1,1.6c-0.1,0.7-1,1.6-2,1.5c-0.5-0.1-0.8-0.2-1.4-0.6c-1.5-0.8-2.2-1.4-4.6-1.7c-5.7-0.6-10.3,3.2-10.8,8.2
		c-0.6,5.6,4.4,10,9.4,10.6c1.9,0.2,2.6-0.1,4.5-0.6c0.5-0.2,1.1-0.3,1.4-0.3c1.1,0.1,1.8,1,1.7,1.8
		C208.8,109.5,208.5,109.8,207.6,110.1z"/>
</g>
<g class="st0">
	<path d="M217.9,100.2c1.6-1.7,3.7-2.4,5.3-2.1c1.9,0.3,4.6,1.8,3.8,6.8l-1.3,7.5c-0.1,0.8-1.1,1.2-2,1c-0.9-0.2-1.7-0.7-1.5-1.6
		l1.3-7.9c0.3-1.5,0-2.8-1.1-3c-1.5-0.3-4.1,1.8-5.3,4.1l-1,6.2c-0.1,0.8-1.2,1.2-2,1.1c-0.8-0.1-1.6-0.8-1.5-1.6l3.7-22.1
		c0.1-0.8,1.4-1.4,2.1-1.2c1.1,0.2,1.6,0.8,1.4,1.6L217.9,100.2z"/>
</g>
<g class="st0">
	<path d="M232.2,101c0.2-0.8,0.9-1.4,1.9-1.2c0.9,0.2,1.8,0.8,1.7,1.6l-2.6,12.6c-0.2,0.9-1.1,1.3-2.1,1.1c-0.8-0.2-1.6-1.1-1.5-1.6
		L232.2,101z M235.2,95.8c-1.1-0.2-2-1.4-1.8-2.4c0.2-1.1,1.4-1.8,2.6-1.5c1.2,0.3,2,1.3,1.8,2.4C237.6,95.4,236.4,96.1,235.2,95.8z
		"/>
</g>
<g class="st0">
	<path d="M247.9,117.4c-1.8,1-3.6,0.9-5.4,0.5c-3.1-0.7-5.6-3.2-4.5-7.6c1.2-5,5.1-7.6,8.9-6.7c1.4,0.3,2.1,0.6,2.8,1.5
		c0.5,0.6,0.8,1.2,0.6,1.9c-0.3,0.8-1.2,1.2-2.1,1c-0.5-0.1-0.6-0.7-1.1-1.3c-0.2-0.2-0.4-0.4-0.9-0.5c-2.7-0.6-4.2,2.6-4.7,5
		c-0.6,2.6,0.5,4,1.7,4.3c1.3,0.3,2-0.3,2.9-0.5c0.6-0.2,0.5-0.2,1.1-0.1c0.4,0.1,1.5,0.8,1.3,1.9
		C248.5,117,248.2,117.2,247.9,117.4z"/>
</g>
<g class="st0">
	<path d="M264.7,120.4c0.3,0.4,0.4,0.6,0.3,1.2c-0.2,0.7-1.5,1.2-1.9,1.1c-0.5-0.1-0.8-0.2-1.1-0.6l-5.6-7.8l-1.5,5.2
		c-0.2,0.8-1.4,1.1-2.3,0.8c-1.2-0.3-1.4-0.9-1.2-1.7l6.1-21.2c0.2-0.8,1.5-1,2.1-0.8c1,0.3,1.5,1.1,1.3,1.7l-3.5,12.2l6-2.8
		c0.5-0.2,0.7-0.4,1.4-0.2c1.2,0.3,1.2,1.4,1,1.9c-0.1,0.4-0.4,0.6-0.8,0.8l-6.1,2.6L264.7,120.4z"/>
</g>
<g class="st0">
	<path d="M269.1,125.6c-1-0.3-1.9-1.2-1.3-2.7c0.2-0.6,1.7-1.7,2.7-1.4c1.1,0.4,1.8,1.2,1.3,2.7
		C271.6,124.9,270.3,125.9,269.1,125.6z M273.4,118.7c-0.4,1.1-1.2,1.2-2.2,0.9c-1-0.3-1.5-1.1-1.2-1.8l4.3-12.8
		c0.4-1.1,1.4-1.1,2.3-0.8c1.3,0.4,1.4,1.1,1.1,2L273.4,118.7z"/>
</g>
<g class="st0">
	<path d="M15.7,154.5c3.7,0.5,6.3,0.9,7.4,4.6c1.6,5.2-2.3,8.1-5.1,9c-2.9,0.9-4.7,0.8-7.1,0.2c-0.7-0.2-0.9-0.7-1.1-1.1
		c-0.2-0.6,0.2-1.8,0.9-2c0.9-0.3,1.2,0,1.7,0.1c1.8,0.5,3.2,0.7,4.8,0.2c1.1-0.3,3.5-2.3,2.6-5.1c-0.6-2-2.6-2.3-4.7-2.6l-2.7-0.4
		c-3.4-0.4-6.1-1.1-7.2-4.5c-1.5-5.1,3.4-7.6,5.7-8.3c1.9-0.6,3.2-0.6,5.6-0.4c0.8,0,1.2,0.6,1.3,1.1c0.1,0.4-0.1,1.7-0.9,2
		c-0.4,0.1-0.6,0.1-1.3,0c-1.5-0.1-2.5-0.5-3.8,0c-1.1,0.3-3.9,1.9-3.1,4.6c0.6,1.9,2.5,2,4.4,2.3L15.7,154.5z"/>
</g>
<g class="st0">
	<path d="M34.5,154l-0.1-0.3c-0.1-0.4-0.7-3-2-2.6c-1.3,0.4-2.5,1.4-2.8,1.9c-0.2,0.3-0.5,0.7-1.3,0.9c-0.7,0.2-1.7-0.4-1.8-0.8
		c-0.1-0.3-0.4-0.7,0.6-1.6c1-0.9,2.6-2.4,5-3c3.7-1,5.2,2.1,5.9,4.7l1.3,5c0.1,0.5,0.5,0.7,0.8,0.7c0.6-0.2,1.3,0.1,1.5,0.9
		c0.3,1,0.3,1.7-1.4,2.1c-1.2,0.3-2.8-0.1-3.7-1.7c-0.5,1.4-2.1,3.1-4.1,3.6c-2.3,0.6-4.9,0.9-5.7-2.1c-0.8-2.9,2-6.3,6.7-7.5
		C33.8,154.2,34.5,154,34.5,154z M35.1,156.1c0,0-0.7,0.1-1.1,0.2c-2.5,0.7-4.3,2.9-3.9,4.5c0.2,0.7,1.1,0.8,1.7,0.6
		c2.3-0.6,3.5-2.8,3.7-3.8L35.1,156.1z"/>
</g>
<g class="st0">
	<path d="M54.5,145.9c-1,1.7-1.7,4.2-3,10.8c-1.4,7.3-1.6,11.9-5,12.6c-1.1,0.2-2.1,0.2-3,0c-0.7-0.3-0.9-0.4-1-1
		c-0.1-0.6,0-1.7,1.3-1.9c0.4-0.1,1.1,0.3,1.7,0.2c1.8-0.4,2.1-4.6,2.4-7.4c-2.1-3.8-4.5-6.9-7.3-10.4c-0.3-0.4-0.3-0.3-0.3-0.7
		c-0.1-0.5,1-1.7,1.6-1.9c0.7-0.2,1.1-0.2,1.7,0.5c1.8,2.4,4.3,6.4,5.3,8.2c0.5-2.2,1.2-6.9,1.6-7.9c0.4-1.4,0.4-1.7,1.2-2.8
		c0.2-0.3,0.3-0.4,1-0.5s1.9,0.6,2,1.2C54.8,145.3,54.8,145.3,54.5,145.9z"/>
</g>
<g class="st0">
	<path d="M58.5,155.1c0.1-1.5,0.8-1.4,1.4-1.5c1-0.2,2.2,0.1,2.4,0.8c0,0.2,0,0.4,0,0.6l-0.3,5.5c-0.1,0.4-0.2,0.9-0.9,1.1
		c-1.2,0.2-2.5,0.1-2.7-0.7c0-0.2,0-0.2-0.1-0.4L58.5,155.1z"/>
</g>
<g class="st0">
	<path d="M73.1,135.3c0.1,0.2,0.1,0.2,0.1,0.4c0.1,0.8-1.2,1.4-2.2,1.6c-0.5,0.1-1-0.3-1.3-0.7l-2.2-5c-0.1-0.2-0.2-0.4-0.2-0.6
		c-0.1-0.7,1.7-1.5,1.9-1.6c0.6-0.1,1.2-0.4,1.8,0.9L73.1,135.3z M79.4,134.3c0.1,0.2,0.1,0.2,0.1,0.4c0.1,0.8-1.2,1.4-2.2,1.6
		c-0.5,0.1-1-0.3-1.3-0.7l-2.3-5c-0.1-0.2-0.1-0.3-0.2-0.5c-0.1-0.7,1.7-1.5,1.9-1.6c0.6-0.1,1.2-0.4,1.8,0.9L79.4,134.3z"/>
</g>
<g class="st0">
	<path d="M106.7,146.9c0.1,0.8-0.8,1.5-1.3,1.7c-1.5,0.9-3,1.6-6.2,2.1c-7,0.9-14.6-2.8-15.7-10.4c-0.9-6.6,3.9-12.7,11.8-13.8
		c3.6-0.5,5.2-0.1,7,0.4c0.9,0.3,1.3,0.9,1.4,1.4c0.1,0.8-0.4,1.5-1.4,1.7c-0.5,0.1-0.9,0-1.6-0.2c-1.7-0.4-2.4-0.9-4.9-0.5
		c-5.7,0.8-9.2,5.6-8.5,10.5c0.7,5.6,6.6,8.7,11.6,8.1c1.9-0.3,2.6-0.5,4.2-1.4l-1-7.8l-6.5,1.3c-0.2,0-0.5,0.1-0.6,0.1
		c-0.7,0.1-1.5-0.3-1.6-1.1c-0.2-1.1,0.5-1.6,1.3-1.8c0,0,9-1.7,9.3-1.7c0.9-0.1,1.5,0.1,1.6,1.2L106.7,146.9z"/>
</g>
<g class="st0">
	<path d="M118,148.6c-3.8,0.3-7-1.8-7.4-6.5c-0.4-4,2.6-8.4,6.5-8.8c4.1-0.4,7.2,2.1,7.6,6.6C125.1,144.3,121.7,148.3,118,148.6z
		 M117.4,136.3c-2.1,0.2-3.4,3-3.2,5.5c0.2,2.7,1.6,4.1,3.6,4c2-0.2,3.5-2.7,3.3-5.5C120.9,137.6,119.6,136.1,117.4,136.3z"/>
</g>
<g class="st0">
	<path d="M145.1,140.4c0,1.3,0.2,3.8,1.7,3.8c0.5,0,0.9-0.4,1.7-1c0.3-0.3,0.5-0.3,1-0.4c0.7,0,1.2,0.9,1.2,1.4c0,0.6-0.1,1-0.7,1.4
		c-0.9,0.6-1.8,1.3-3.6,1.4c-3.3,0.1-4.8-1.9-4.9-5.6l-0.2-6.2l-0.5,0c-0.3,0-0.7,0.1-0.9,0.1c-0.8,0-1.1-0.1-1.2-1
		c0-0.6,0.3-1.7,1.1-1.8l1.4-0.2l-0.2-5c0-0.8,0.8-1.5,1.9-1.5c1.3,0,1.6,0.5,1.7,1.2l0.2,4.8l2.1-0.3c0.3,0,0.3-0.1,0.6-0.1
		c0.9,0,1.5,0.3,1.5,1.3c0,0.7-0.4,1.4-1.2,1.5l-3,0.4L145.1,140.4z"/>
</g>
<g class="st0">
	<path d="M159.2,146.7c-3.8,0-6.8-2.5-6.8-7.2c0-4.1,3.4-8.1,7.3-8.1c4.1,0,6.9,2.7,6.9,7.3C166.6,143.1,162.9,146.7,159.2,146.7z
		 M159.7,134.3c-2.1,0-3.7,2.7-3.7,5.1c0,2.7,1.2,4.3,3.2,4.3c2,0,3.8-2.4,3.8-5.1C163,135.9,161.9,134.3,159.7,134.3z"/>
</g>
<g class="st0">
	<path d="M187,135.1c1.4-1.9,4-3.1,5.8-3c3.3,0.2,4.9,2.3,4.6,5.8c-0.4,5-5.7,10.2-10.3,9.8c-0.3,0-0.5-0.2-0.7-0.4
		c-0.2-0.2-0.3-0.3-0.3-0.3s-1.3,0.9-2.1,0.8c-1-0.1-1.5-0.5-1.4-1.5l1.7-22.4c0.1-0.7,1.4-1.3,2.2-1.2c1,0.1,1.5,0.5,1.4,1.5
		L187,135.1z M186.3,143.6c0,0.5,0.3,1.1,1,1.1c2.9,0.2,6.1-3.7,6.4-6.9c0.1-1.4-0.1-2.4-1.3-2.5c-2.3-0.2-4.9,2.7-5.8,4.4
		L186.3,143.6z"/>
</g>
<g class="st0">
	<path d="M203.5,143.5c-0.2,1.8,1.1,3,2.6,3.2c1.1,0.1,1.9-0.2,2.5-0.5c0.7-0.3,0.9-0.6,1.3-0.6c0.7,0.1,1.4,0.8,1.3,1.8
		c-0.1,0.5-0.2,0.7-0.8,1c-1.7,0.7-3,1-4.7,0.8c-3.5-0.4-6.3-2.3-5.7-7.1c0.5-4.3,4.4-8.1,8.2-7.7c3.2,0.4,4.3,2.2,4.1,4
		c-0.4,3.8-6.5,4.9-8.7,4.7L203.5,143.5z M207.8,137.1c-1.9-0.2-3.3,1.7-3.9,3.9c2.6,0.1,4.8-1.7,4.9-2.8
		C208.9,138,208.7,137.2,207.8,137.1z"/>
</g>
<g class="st0">
	<path d="M227.5,128.4c0.1-0.8,1.2-1.2,2-1.1c1,0.2,1.7,0.8,1.5,1.7l-3.5,21.9c-0.1,0.8-0.5,1.4-1.9,1.2c-0.9-0.1-1.7-0.8-1.6-1.6
		l0.4-2.3c-1.7,1.9-3.9,3.2-5.7,2.9c-3.3-0.5-4.7-2.8-4.1-6.1c0.8-5,6.2-9.8,10.7-9c0.4,0.1,0.7,0.1,1,0.3L227.5,128.4z
		 M225.7,139.7c0.1-0.3-0.2-1-1-1.1c-2.8-0.4-6.1,3.5-6.6,6.8c-0.2,1.3,0.1,2.6,1.1,2.8c2.4,0.4,5.2-3,5.9-5.3L225.7,139.7z"/>
</g>
<g class="st0">
	<path d="M253.5,149l0.1-0.3c0.1-0.4,0.8-2.9-0.5-3.3c-1.3-0.3-2.8,0-3.3,0.3c-0.3,0.1-0.7,0.4-1.6,0.2c-0.7-0.2-1.3-1.2-1.2-1.5
		c0.1-0.3,0-0.8,1.3-1.1c1.3-0.3,3.5-0.8,5.8-0.3c3.7,0.9,3.5,4.3,2.9,7l-1.2,5.1c-0.1,0.5,0,0.9,0.3,1c0.6,0.2,1.1,0.7,0.9,1.6
		c-0.3,1-0.5,1.6-2.2,1.2c-1.2-0.3-2.3-1.4-2.4-3.3c-1.1,0.9-3.3,1.7-5.3,1.2c-2.3-0.6-4.7-1.5-4-4.5c0.7-2.9,4.8-4.6,9.5-3.4
		C252.8,148.8,253.5,149,253.5,149z M253,151c0,0-0.6-0.2-1.1-0.3c-2.5-0.6-5.2,0.5-5.6,2.1c-0.2,0.7,0.6,1.2,1.2,1.3
		c2.3,0.6,4.4-0.8,5.1-1.6L253,151z"/>
</g>
<g class="st0">
	<path d="M266.9,149c1.6-1.2,3.7-1.8,5.5-1.2s4.3,2.6,2.9,7.1l-2.3,7.4c-0.2,0.7-1.5,0.9-2.3,0.7c-1-0.3-1.4-0.8-1.1-1.7l2.4-7.7
		c0.4-1.4,0.3-2.7-0.7-3c-1.9-0.6-4.3,1.1-5.8,3.1l-2,6.2c-0.2,0.7-1.3,1-2.1,0.7c-0.8-0.3-1.5-1-1.3-1.6l3.7-12
		c0.3-0.8,1.7-0.9,2.4-0.7c1.1,0.4,1.4,0.8,1.1,1.7L266.9,149z"/>
</g>
<g class="st0">
	<path d="M293.3,146.1c0.3-0.8,1.4-1,2.2-0.7c0.9,0.3,1.5,1.1,1.1,1.9l-7.8,20.7c-0.3,0.7-0.8,1.3-2.1,0.8c-0.8-0.3-1.5-1.2-1.3-1.9
		l0.8-2.2c-2,1.6-4.5,2.3-6.2,1.7c-3.1-1.2-4-3.6-2.8-6.8c1.8-4.8,8-8.3,12.3-6.7c0.4,0.1,0.7,0.3,0.9,0.5L293.3,146.1z
		 M289.2,156.8c0.1-0.3,0-1-0.7-1.2c-2.7-1-6.6,2.3-7.8,5.3c-0.5,1.3-0.4,2.6,0.5,2.9c2.2,0.8,5.7-1.9,6.8-4L289.2,156.8z"/>
</g>
<g class="st0">
	<path d="M44.8,188.7c0.8-2.4,2.6-3.9,4.4-4.3c3.2-0.7,5.2,0.7,6,4.2c1.1,4.9-2.2,11.3-6.7,12.3c-0.3,0.1-0.7,0.1-1,0.1l1.5,6.6
		c0.2,0.8-0.6,1.5-1.4,1.7c-0.9,0.2-1.9-0.3-2-1l-4.6-20.5c-0.2-0.8,0.6-1.6,1.5-1.8c1.2-0.3,1.8,0.2,2,0.9L44.8,188.7z M46.7,197.3
		c0.2,0.3,0.5,0.8,1.3,0.7c2.8-0.6,4.4-5.4,3.7-8.5c-0.3-1.4-0.9-2.4-2-2.1c-2.1,0.5-3.6,4.3-3.9,6.1L46.7,197.3z"/>
</g>
<g class="st0">
	<path d="M56.4,174.6c-0.1-0.7,0.9-1.7,1.6-1.8c1.1-0.2,1.7,0.3,1.8,1l4.3,21.8c0.2,0.9-0.8,1.7-1.5,1.8c-1,0.2-1.8-0.2-1.9-1
		L56.4,174.6z"/>
</g>
<g class="st0">
	<path d="M70.5,190.5c0.3,1.8,1.9,2.6,3.4,2.3c1.1-0.2,1.7-0.7,2.2-1.2c0.6-0.5,0.7-0.8,1.1-0.9c0.7-0.1,1.6,0.3,1.8,1.4
		c0.1,0.4,0,0.8-0.5,1.1c-1.4,1.2-2.6,1.8-4.3,2.1c-3.5,0.6-6.7-0.5-7.5-5.2c-0.8-4.3,1.9-9,5.6-9.7c3.2-0.6,4.7,0.9,5,2.6
		c0.7,3.8-4.8,6.6-7,7L70.5,190.5z M72.8,183.1c-1.9,0.3-2.7,2.6-2.6,4.8c2.5-0.7,4.1-3,3.9-4.1C74.1,183.6,73.7,182.9,72.8,183.1z"
		/>
</g>
<g class="st0">
	<path d="M89.6,183.9l0-0.3c-0.1-0.4-0.3-3-1.7-2.8c-1.4,0.2-2.6,1.1-3,1.5c-0.2,0.2-0.5,0.6-1.4,0.7c-0.7,0.1-1.7-0.6-1.7-1
		c0-0.3-0.3-0.8,0.8-1.5c1.1-0.8,2.9-2.1,5.3-2.4c3.8-0.6,4.9,2.6,5.3,5.4l0.8,5.2c0.1,0.6,0.4,0.8,0.7,0.8c0.7-0.1,1.3,0.2,1.4,1.1
		c0.2,1,0.1,1.7-1.6,1.9c-1.2,0.2-2.7-0.4-3.5-2.1c-0.7,1.3-2.5,2.8-4.5,3.1c-2.3,0.3-4.9,0.4-5.4-2.7c-0.4-2.9,2.7-6,7.5-6.7
		C88.8,183.9,89.6,183.9,89.6,183.9z M89.9,186c0,0-0.7,0-1.2,0.1c-2.6,0.4-4.6,2.4-4.4,4.1c0.1,0.7,1,0.9,1.6,0.8
		c2.4-0.4,3.8-2.4,4.1-3.4L89.9,186z"/>
</g>
<g class="st0">
	<path d="M105.2,182.3c2.3,0.8,3.4,1.6,3.6,3.7c0.3,3-2.1,4.8-5.5,5.1c-1.6,0.2-2.8-0.1-4.3-0.6c-0.5-0.2-0.9-0.4-0.9-1.1
		c-0.1-0.6,0.4-1.7,1.3-1.8c0.4,0,0.7,0.1,1,0.2c1,0.4,1.9,0.7,2.7,0.6c1.1-0.1,2.3-1,2.2-2.1c-0.1-0.8-1-1-1.8-1.3l-2.5-0.8
		c-1.9-0.6-3.4-1.4-3.7-3.6c-0.3-2.7,3.1-4.2,4.7-4.4c1.7-0.2,3-0.2,4.2,0.2c0.8,0.2,1,0.4,1.1,1.1c0.1,0.6-0.5,1.7-1.6,1.8
		c-0.8,0.1-1.9-0.8-3.7-0.6c-0.5,0.1-1.4,0.6-1.4,1.4c0.1,0.8,1.2,1.1,1.6,1.3L105.2,182.3z"/>
</g>
<g class="st0">
	<path d="M115,184.4c0.2,1.8,1.7,2.7,3.2,2.6c1.1-0.1,1.8-0.5,2.3-1c0.6-0.4,0.8-0.8,1.2-0.8c0.7-0.1,1.6,0.5,1.6,1.5
		c0,0.5-0.1,0.8-0.6,1.1c-1.5,1-2.7,1.6-4.5,1.8c-3.5,0.3-6.6-1-7-5.8c-0.4-4.4,2.7-8.8,6.5-9.2c3.2-0.3,4.6,1.3,4.8,3.1
		c0.3,3.8-5.4,6.1-7.6,6.3L115,184.4z M118,177.2c-1.9,0.2-2.9,2.3-3,4.6c2.6-0.5,4.3-2.6,4.2-3.7
		C119.2,177.8,118.8,177.1,118,177.2z"/>
</g>
<g class="st0">
	<path d="M142.5,175.7c1.2-2,3.6-3.5,5.5-3.6c3.3-0.1,5.1,1.8,5.2,5.3c0.1,5-4.7,10.7-9.3,10.8c-0.3,0-0.5-0.1-0.7-0.3
		c-0.2-0.1-0.3-0.3-0.3-0.3s-1.2,1-2,1c-1,0-1.5-0.4-1.5-1.3l-0.7-22.5c0-0.7,1.2-1.4,2-1.4c1,0,1.5,0.4,1.5,1.3L142.5,175.7z
		 M142.7,184.1c0,0.5,0.4,1,1.2,1c2.9-0.1,5.7-4.3,5.6-7.6c0-1.4-0.4-2.4-1.5-2.4c-2.3,0.1-4.6,3.2-5.4,5L142.7,184.1z"/>
</g>
<g class="st0">
	<path d="M159.1,182.4c0,1.9,1.4,2.9,2.9,2.9c1.1,0,1.8-0.4,2.4-0.7c0.7-0.4,0.9-0.7,1.3-0.7c0.7,0,1.5,0.6,1.5,1.7
		c0,0.5-0.1,0.8-0.7,1c-1.6,0.9-2.8,1.3-4.6,1.3c-3.5,0-6.5-1.7-6.5-6.5c0-4.4,3.5-8.5,7.3-8.5c3.3,0,4.5,1.7,4.5,3.5
		c0,3.9-6,5.6-8.2,5.6L159.1,182.4z M162.7,175.5c-1.9,0-3.1,2-3.4,4.3c2.6-0.2,4.6-2.2,4.6-3.3
		C163.9,176.2,163.6,175.5,162.7,175.5z"/>
</g>
<g class="st0">
	<path d="M192.5,186.2c-1.7,1.9-3.7,3.1-5.5,3c-2.9-0.2-4.9-2.2-4.6-5.8c0.4-5.1,5.4-10.1,10-9.7c0.7,0.1,1,0.4,1,0.4s0.7-1,2.2-0.8
		c1,0.1,1.4,1,1.3,1.9l-1.7,21.2c-0.1,0.6-1.1,1.3-2.1,1.2c-1.1-0.1-1.5-0.5-1.5-1.4L192.5,186.2z M193.3,177.4
		c-0.1-0.3-0.3-0.9-1.1-0.9c-2.9-0.2-5.8,4-6,7.2c-0.1,1.4,0.2,2.5,1.2,2.6c2.4,0.2,4.4-2.4,5.6-4.4L193.3,177.4z"/>
</g>
<g class="st0">
	<path d="M211.9,176.9c0.1-0.7,1.2-1.2,2-1.1c0.9,0.1,1.6,0.7,1.5,1.5l-1.6,12.7c-0.1,0.9-1.3,1.3-2.1,1.2c-1.1-0.1-1.6-0.8-1.5-1.4
		l0.2-1.7c-1.6,1.4-3.6,2.4-5.3,2.2c-2.3-0.3-4.6-1.6-4-6.2l1-7.9c0.1-0.7,1.2-1.2,2.1-1c1,0.1,1.5,0.5,1.4,1.4l-1,8.2
		c-0.2,1.5,0.2,2.6,1.2,2.8c1.5,0.2,4-1.5,5.1-3.9L211.9,176.9z"/>
</g>
<g class="st0">
	<path d="M220.5,178.3c0.1-0.8,0.8-1.4,1.8-1.3c0.9,0.2,1.9,0.7,1.7,1.5l-2.1,12.6c-0.1,0.9-1,1.3-2,1.2c-0.8-0.1-1.6-1-1.5-1.5
		L220.5,178.3z M223.3,173c-1.1-0.2-2-1.3-1.8-2.3c0.2-1.1,1.4-1.8,2.5-1.6c1.2,0.2,2.1,1.2,1.9,2.4
		C225.7,172.5,224.5,173.2,223.3,173z"/>
</g>
<g class="st0">
	<path d="M236.8,194.1c-1.7,1.1-3.6,1-5.3,0.7c-3.2-0.6-5.7-3-4.8-7.5c1-5,4.8-7.8,8.7-7c1.4,0.3,2.1,0.6,2.9,1.4
		c0.5,0.6,0.9,1.1,0.7,1.8c-0.3,0.8-1.2,1.2-2.1,1.1c-0.5-0.1-0.7-0.7-1.2-1.3c-0.2-0.2-0.5-0.4-0.9-0.5c-2.7-0.5-4.1,2.7-4.5,5.1
		c-0.5,2.6,0.6,4,1.8,4.2c1.3,0.2,2-0.3,2.9-0.6c0.6-0.2,0.5-0.2,1.1-0.1c0.4,0.1,1.6,0.7,1.4,1.8
		C237.3,193.6,237,193.9,236.8,194.1z"/>
</g>
<g class="st0">
	<path d="M253.7,196.4c0.3,0.4,0.5,0.6,0.3,1.2c-0.2,0.7-1.5,1.3-1.9,1.2c-0.5-0.1-0.8-0.2-1.1-0.6l-5.9-7.6l-1.3,5.2
		c-0.2,0.8-1.4,1.1-2.2,0.9c-1.2-0.3-1.4-0.9-1.2-1.7l5.3-21.4c0.2-0.8,1.4-1,2.1-0.9c1,0.2,1.5,1,1.4,1.6l-3,12.3l5.9-3
		c0.5-0.2,0.7-0.4,1.4-0.2c1.2,0.3,1.2,1.3,1.1,1.9c-0.1,0.4-0.4,0.6-0.8,0.8l-6,2.8L253.7,196.4z"/>
</g>
<g class="st0">
	<path d="M268.7,179c0.8-1.3,1.4-0.9,1.9-0.7c0.2,0.1,1.9,1.1,1.7,1.8c-0.1,0.2-0.1,0.3-0.2,0.5l-2.9,4.7c-0.3,0.3-0.8,0.7-1.3,0.5
		c-1-0.3-2.2-1.2-2-1.9c0.1-0.2,0-0.2,0.2-0.4L268.7,179z M274.8,180.9c0.8-1.3,1.3-0.9,1.9-0.7c0.2,0.1,1.9,1.1,1.7,1.8
		c-0.1,0.2-0.1,0.4-0.3,0.5l-2.8,4.6c-0.3,0.3-0.8,0.7-1.3,0.5c-1-0.3-2.2-1.2-2-1.9c0.1-0.2,0-0.2,0.2-0.4L274.8,180.9z"/>
</g>
</svg>
