<?xml version="1.0" encoding="utf-8"?>
<!-- Generator: Adobe Illustrator 22.1.0, SVG Export Plug-In . SVG Version: 6.00 Build 0)  -->
<svg version="1.1" id="Capa_1" xmlns="http://www.w3.org/2000/svg" xmlns:xlink="http://www.w3.org/1999/xlink" x="0px" y="0px"
	 viewBox="0 0 352.1 90.3" style="enable-background:new 0 0 352.1 90.3;" xml:space="preserve">
<style type="text/css">
	.st0{enable-background:new    ;}
</style>
<title>TEX_TEXT_1050C</title>
<g class="st0">
	<path d="M30.1,15.1c0.8-0.2,1.4-0.2,1.7,1.2c0.1,0.7-0.5,1.2-1.2,1.3l-6.8,1.8l3.4,17.5c0.1,0.7-0.3,1.4-1.5,1.6
		c-1.3,0.3-1.6-0.2-1.7-0.9l-3.4-17.3l-5.4,1.4c-0.3,0.1-0.6,0.2-0.9,0.3c-0.9,0.2-1.5-0.1-1.7-0.9c-0.1-0.7,0.3-1.6,1.1-1.7
		l15.8-4.1L30.1,15.1z"/>
</g>
<g class="st0">
	<path d="M41.6,24.1c1.1,1.6,2.9,4.6,3.7,6.1c0.4-2.2,1.3-6.5,1.6-8c0.1-0.6,0.3-1.1,1-1.2c1-0.2,2,0.4,2.1,0.8
		c0.1,0.3,0,0.7-0.1,0.8c-0.5,1.6-1.6,5.9-2.7,11.3c-0.1,0.4-0.7,1-1.1,1.1c-0.6,0.1-1.1-0.2-1.4-0.7c-1.3-2-2.8-4.6-4-6.4l-1.2,7.2
		c-0.1,0.6-0.5,1.1-1.1,1.2c-0.6,0.1-1.3-0.4-1.5-0.8c-1.8-3.3-3.3-6.2-5.6-9.5c-0.2-0.3-0.2-0.3-0.3-0.6c-0.1-0.4,0.4-1.3,1.3-1.5
		c0.7-0.1,0.9-0.2,1.4,0.5c1.4,2,3.2,5.3,4,6.9l1-7c0.1-0.7,0.4-0.9,1.2-1.1c0.8-0.1,1.5,0.1,1.6,0.7L41.6,24.1z"/>
</g>
<g class="st0">
	<path d="M55.8,28.7c0.2,1.7,1.7,2.4,3,2.3c1-0.1,1.6-0.6,2.1-1c0.6-0.4,0.7-0.7,1.1-0.8c0.7-0.1,1.4,0.4,1.6,1.3
		c0.1,0.4,0,0.7-0.5,1c-1.3,1-2.4,1.6-4,1.8c-3.2,0.4-6.1-0.7-6.6-5.1c-0.5-4,2.2-8.2,5.6-8.6c3-0.4,4.3,1,4.5,2.6
		c0.4,3.5-4.7,5.8-6.7,6L55.8,28.7z M58.3,22.1c-1.7,0.2-2.6,2.2-2.6,4.3c2.4-0.5,3.9-2.6,3.7-3.5C59.4,22.6,59.1,22,58.3,22.1z"/>
</g>
<g class="st0">
	<path d="M68.8,27.1c0.2,1.7,1.6,2.5,3,2.3c1-0.1,1.6-0.5,2.1-0.9c0.6-0.4,0.7-0.7,1.1-0.8c0.7-0.1,1.4,0.4,1.5,1.3
		c0,0.4-0.1,0.7-0.5,1c-1.3,1-2.4,1.5-4,1.7c-3.2,0.3-6.1-0.8-6.5-5.2c-0.4-4,2.3-8.1,5.7-8.5c3-0.3,4.3,1.1,4.4,2.7
		c0.4,3.5-4.8,5.7-6.8,5.9L68.8,27.1z M71.4,20.5c-1.7,0.2-2.6,2.2-2.7,4.2c2.4-0.5,3.9-2.5,3.8-3.5C72.5,21.1,72.2,20.4,71.4,20.5z
		"/>
</g>
<g class="st0">
	<path d="M82.9,24.7c0.1,1.2,0.4,3.5,1.7,3.4c0.5,0,0.8-0.4,1.5-1c0.3-0.3,0.5-0.3,0.9-0.4c0.6-0.1,1.2,0.8,1.2,1.2
		c0,0.5,0,0.9-0.6,1.3c-0.8,0.6-1.6,1.3-3.3,1.5c-3,0.3-4.5-1.5-4.8-4.9L79.2,20l-0.4,0c-0.3,0-0.6,0.2-0.9,0.2
		c-0.8,0.1-1,0-1.1-0.8c-0.1-0.6,0.2-1.6,0.9-1.7l1.2-0.2l-0.4-4.5c-0.1-0.7,0.6-1.4,1.7-1.5c1.2-0.1,1.5,0.3,1.6,1.1l0.4,4.4
		l1.9-0.4c0.3-0.1,0.3-0.1,0.6-0.1c0.9-0.1,1.4,0.2,1.5,1.1c0.1,0.6-0.3,1.3-1,1.4l-2.7,0.5L82.9,24.7z"/>
</g>
<g class="st0">
	<path d="M94.9,22.6c0.1,1.1-0.6,1.5-1.6,1.5c-1,0.1-1.6-0.4-1.7-1.1l-0.9-12.3c-0.1-1.1,0.8-1.4,1.7-1.5c1.2-0.1,1.5,0.4,1.6,1.3
		L94.9,22.6z M93.7,30c-0.9,0.1-2-0.3-2.1-1.8c0-0.6,0.9-2.1,1.8-2.1c1.1-0.1,2,0.4,2.1,1.8C95.6,28.5,94.8,29.9,93.7,30z"/>
</g>
<g class="st0">
	<path d="M123.8,5.8c0.8,0,1.4,0,1.5,1.4c0,0.7-0.7,1.1-1.4,1.2l-7,0.8l0.9,17.8c0,0.7-0.5,1.3-1.8,1.4c-1.3,0.1-1.5-0.4-1.6-1.2
		l-0.8-17.6l-5.6,0.6c-0.3,0-0.7,0.1-0.9,0.1c-0.9,0-1.5-0.3-1.5-1.1c0-0.7,0.5-1.5,1.3-1.5l16.3-1.8L123.8,5.8z"/>
</g>
<g class="st0">
	<path d="M133.6,16.3c0.9,1.8,2.2,5,2.9,6.5c0.7-2.2,2.1-6.3,2.6-7.7c0.2-0.6,0.4-1,1.1-1c1.1,0,2,0.6,2,1.1c0,0.4-0.1,0.6-0.2,0.8
		c-0.7,1.6-2.4,5.6-4.1,10.8c-0.1,0.4-0.8,0.9-1.3,0.9c-0.6,0-1.1-0.4-1.2-0.9c-1.1-2.2-2.1-4.9-3.1-6.8l-2.2,7
		c-0.2,0.5-0.6,1-1.2,1c-0.6,0-1.2-0.5-1.4-1c-1.3-3.5-2.4-6.5-4.4-10.1c-0.2-0.3-0.2-0.3-0.2-0.7c0-0.4,0.6-1.3,1.4-1.3
		c0.7,0,0.9-0.1,1.3,0.7c1.2,2.2,2.5,5.7,3.1,7.4l1.9-6.8c0.2-0.7,0.5-0.9,1.3-0.9c0.8,0,1.5,0.3,1.5,0.9L133.6,16.3z"/>
</g>
<g class="st0">
	<path d="M147.1,22.5c0,1.7,1.4,2.6,2.7,2.6c1,0,1.7-0.4,2.2-0.7c0.6-0.4,0.8-0.7,1.1-0.7c0.7,0,1.4,0.5,1.4,1.5
		c0,0.4-0.1,0.7-0.6,1c-1.4,0.9-2.6,1.3-4.2,1.3c-3.2,0-6-1.4-6-5.8c-0.1-4,3-7.9,6.5-7.9c3,0,4.2,1.5,4.2,3.1
		c0.1,3.5-5.3,5.2-7.3,5.3L147.1,22.5z M150.3,16.2c-1.7,0-2.8,1.9-3,4c2.4-0.3,4.1-2.1,4.1-3.1C151.4,16.8,151.1,16.1,150.3,16.2z"
		/>
</g>
<g class="st0">
	<path d="M160.2,22.4c0,1.7,1.4,2.6,2.7,2.6c1,0,1.7-0.4,2.2-0.7c0.6-0.4,0.8-0.6,1.1-0.6c0.7,0,1.4,0.5,1.4,1.5
		c0,0.4-0.1,0.7-0.6,1c-1.4,0.8-2.6,1.3-4.2,1.3c-3.2,0-6-1.4-6-5.8c0-4,3.1-7.9,6.6-7.9c3,0,4.1,1.5,4.1,3.2c0,3.5-5.4,5.2-7.4,5.2
		L160.2,22.4z M163.4,16.1c-1.7,0-2.8,1.9-3.1,3.9c2.4-0.2,4.2-2.1,4.1-3.1C164.5,16.7,164.2,16.1,163.4,16.1z"/>
</g>
<g class="st0">
	<path d="M174.4,21.4c0,1.2,0.1,3.5,1.4,3.5c0.5,0,0.8-0.3,1.6-0.9c0.3-0.2,0.5-0.3,1-0.3c0.6,0,1.1,0.9,1.1,1.3
		c0,0.5-0.1,0.9-0.7,1.2c-0.9,0.5-1.7,1.1-3.4,1.1c-3,0-4.3-2-4.2-5.3l0-5.7l-0.4,0c-0.3,0-0.6,0.1-0.9,0.1c-0.8,0-1-0.1-1-0.9
		c0-0.6,0.4-1.5,1.1-1.6l1.2-0.1l0-4.5c0-0.7,0.7-1.3,1.8-1.3c1.2,0,1.5,0.5,1.5,1.2l0,4.4l2-0.2c0.3,0,0.3-0.1,0.6-0.1
		c0.9,0,1.3,0.4,1.3,1.3c0,0.6-0.4,1.2-1.2,1.3l-2.7,0.2L174.4,21.4z"/>
</g>
<g class="st0">
	<path d="M184.7,27.6c-0.9,0-1.9-0.5-1.9-2c0-0.6,1-2,2-2c1.1,0,1.9,0.6,1.9,2C186.6,26.3,185.7,27.6,184.7,27.6z M186.4,20.4
		c0,1.1-0.8,1.4-1.7,1.4c-1,0-1.6-0.5-1.6-1.2l0.1-12.3c0-1.1,0.9-1.3,1.8-1.3c1.2,0,1.5,0.6,1.5,1.5L186.4,20.4z"/>
</g>
<g class="st0">
	<path d="M212.7,15.5c0.2,0,0.3,0,0.4,0c1,0,1.4,0.7,1.4,1.5c0,0.8-0.6,1.1-1.4,1.2l-8,0.4l-0.2,7.5c0,0.9-1,1.5-1.9,1.5
		c-1.3,0-1.4-0.7-1.4-1.4L202,8.3c-0.2-0.3-0.4-0.8-0.4-1.2c0-0.9,0.5-1.2,1.3-1.2l9.1-0.2c0.5,0,0.8,0,1.2,0c0.9,0,1.5,0.6,1.5,1.4
		c0,1.2-0.6,1.3-1.5,1.3l-7.8,0.2l-0.2,7.4L212.7,15.5z"/>
</g>
<g class="st0">
	<path d="M217.8,6.6c0-0.7,1.2-1.3,1.8-1.3c1,0,1.4,0.6,1.4,1.3L220.2,27c0,0.8-1.1,1.3-1.8,1.3c-0.9,0-1.5-0.6-1.5-1.3L217.8,6.6z"
		/>
</g>
<g class="st0">
	<path d="M231.8,20.9l0-0.3c0-0.4,0.3-2.8-1-2.8s-2.5,0.5-2.9,0.8c-0.2,0.2-0.6,0.4-1.4,0.4c-0.6,0-1.4-0.9-1.3-1.2
		c0-0.3-0.1-0.7,1-1.2c1.1-0.5,3-1.3,5.2-1.2c3.5,0.2,3.9,3.3,3.7,5.8l-0.3,4.8c0,0.5,0.2,0.8,0.5,0.8c0.6,0,1.1,0.4,1,1.2
		c-0.1,1-0.2,1.5-1.8,1.4c-1.1-0.1-2.4-0.9-2.7-2.5c-0.9,1-2.7,2.1-4.6,1.9c-2.1-0.1-4.5-0.6-4.3-3.4c0.2-2.7,3.5-4.9,8-4.6
		C231.1,20.8,231.8,20.9,231.8,20.9z M231.6,22.8c0,0-0.6-0.1-1-0.1c-2.4-0.1-4.6,1.3-4.7,2.8c0,0.7,0.7,1,1.3,1
		c2.2,0.1,3.8-1.4,4.3-2.3L231.6,22.8z"/>
</g>
<g class="st0">
	<path d="M243.1,18.5c1.4-1.8,3.4-2.7,5-2.6c3,0.2,4.4,2,4.1,5.3c-0.4,4.6-5,9.3-9.2,8.9c-0.3,0-0.6-0.1-0.9-0.2l-0.5,6.1
		c-0.1,0.8-0.9,1.2-1.7,1.1c-0.8-0.1-1.6-0.7-1.5-1.4l1.6-19.1c0.1-0.7,1-1.3,1.8-1.2c1.1,0.1,1.5,0.7,1.5,1.3L243.1,18.5z
		 M242.4,26.5c0.1,0.3,0.2,0.9,0.9,0.9c2.6,0.2,5.3-3.5,5.5-6.4c0.1-1.3-0.1-2.3-1.1-2.4c-2-0.2-4.3,2.8-5.1,4.3L242.4,26.5z"/>
</g>
<g class="st0">
	<path d="M257.2,31.2c-0.9-0.1-1.9-0.7-1.7-2.2c0.1-0.6,1.2-1.9,2.1-1.8c1.1,0.1,1.9,0.7,1.7,2.2C259.3,30.1,258.3,31.4,257.2,31.2z
		 M259.6,24.3c-0.1,1-0.9,1.3-1.8,1.2c-1-0.1-1.5-0.6-1.5-1.4l1.3-12.3c0.1-1,1.1-1.2,1.9-1.2c1.2,0.1,1.4,0.7,1.3,1.6L259.6,24.3z"
		/>
</g>
<g class="st0">
	<path d="M286.4,22.2c0.2,0,0.3,0,0.4,0c1,0.1,1.3,0.9,1.2,1.7c-0.1,0.8-0.7,1.1-1.6,1l-8-0.5l-1.1,7.5c-0.1,0.9-1.2,1.4-2.1,1.3
		c-1.3-0.2-1.3-0.9-1.2-1.6l2.6-17.7c-0.2-0.3-0.3-0.9-0.3-1.3c0.1-0.9,0.6-1.1,1.5-1.1l9,0.8c0.5,0,0.8,0,1.2,0.1
		c0.9,0.1,1.4,0.7,1.3,1.5c-0.2,1.2-0.8,1.2-1.6,1.1l-7.8-0.7l-1.1,7.3L286.4,22.2z"/>
</g>
<g class="st0">
	<path d="M292.7,14.1c0.1-0.7,1.3-1.1,2-1c1,0.2,1.4,0.8,1.2,1.4l-3.4,20.1c-0.1,0.8-1.2,1.2-1.9,1.1c-0.9-0.2-1.5-0.8-1.3-1.5
		L292.7,14.1z"/>
</g>
<g class="st0">
	<path d="M304.8,30l0.1-0.3c0.1-0.4,0.6-2.7-0.6-2.9c-1.2-0.2-2.6,0.2-3,0.4c-0.3,0.1-0.7,0.4-1.4,0.2c-0.6-0.1-1.2-1.1-1.2-1.3
		c0.1-0.3,0-0.8,1.1-1.1c1.1-0.3,3.1-0.9,5.3-0.5c3.4,0.7,3.4,3.8,2.9,6.2l-0.9,4.7c-0.1,0.5,0.1,0.8,0.4,0.8c0.6,0.1,1,0.6,0.9,1.4
		c-0.2,0.9-0.4,1.5-2,1.2c-1.1-0.2-2.2-1.2-2.3-2.9c-1,0.9-3,1.7-4.8,1.3c-2.1-0.4-4.4-1.2-3.8-4c0.5-2.7,4.1-4.4,8.5-3.5
		C304.2,29.8,304.8,30,304.8,30z M304.4,31.9c0,0-0.6-0.2-1-0.3c-2.3-0.4-4.7,0.7-5,2.2c-0.1,0.7,0.6,1.1,1.2,1.2
		c2.2,0.4,4-0.9,4.6-1.7L304.4,31.9z"/>
</g>
<g class="st0">
	<path d="M316.6,29.3c1.6-1.6,3.7-2.2,5.4-1.8c3,0.7,4,2.7,3.3,5.8c-1.1,4.5-6.3,8.4-10.4,7.4c-0.3-0.1-0.6-0.2-0.9-0.3l-1.4,6
		c-0.2,0.7-1.1,1-1.9,0.8c-0.8-0.2-1.4-1-1.3-1.6l4.4-18.7c0.2-0.7,1.2-1.1,2-0.9c1.1,0.3,1.4,0.9,1.3,1.5L316.6,29.3z M314.7,37.2
		c0,0.3,0.1,0.9,0.8,1.1c2.6,0.6,5.8-2.7,6.4-5.5c0.3-1.2,0.3-2.3-0.7-2.5c-1.9-0.5-4.7,2.1-5.7,3.5L314.7,37.2z"/>
</g>
<g class="st0">
	<path d="M328.5,44.1c-0.9-0.2-1.7-1-1.4-2.4c0.2-0.6,1.5-1.6,2.4-1.4c1,0.3,1.7,1,1.4,2.4C330.7,43.3,329.6,44.4,328.5,44.1z
		 M332,37.6c-0.3,1-1.1,1.2-2,0.9c-1-0.3-1.4-0.9-1.2-1.6l3.2-11.8c0.3-1,1.2-1,2.1-0.8c1.2,0.3,1.3,0.9,1.1,1.8L332,37.6z"/>
</g>
<g class="st0">
	<path d="M31.4,50.2c0.2-1,0.3-1.2,1.2-1.3c0.9-0.1,1.9,0.3,2,0.9c0.1,0.4,0,0.7-0.1,1.1L30.7,71c-0.1,0.6-0.3,1.3-1.1,1.4
		c-0.3,0-1.1-0.1-1.5-0.8l-9.2-15.1L15,73.7c-0.2,0.8-0.9,1.1-1.2,1.2c-0.6,0.1-1.2-0.5-1.5-1L1.7,55.8c-0.2-0.3-0.3-0.5-0.3-0.7
		c-0.1-0.8,0.8-1.4,1.4-1.6c0.4-0.1,1-0.1,1.4,0.7l8.8,15.1l3.7-17c0.1-0.7,0.8-1,1.2-1.1c0.3-0.1,1-0.1,1.4,0.6l9.2,15.2L31.4,50.2
		z"/>
</g>
<g class="st0">
	<path d="M42,59.1c1-1.9,2.6-3,4.1-3.2c1.7-0.2,4.5,0.4,5.1,5l0.8,6.9c0.1,0.8-0.6,1.3-1.5,1.4c-0.8,0.1-1.7-0.2-1.8-1l-0.9-7.3
		c-0.2-1.4-0.8-2.5-1.7-2.3c-1.4,0.2-3.1,2.7-3.6,5l0.7,5.7c0.1,0.7-0.7,1.4-1.5,1.5c-0.8,0.1-1.6-0.3-1.7-1l-2.5-20.3
		c-0.1-0.7,0.9-1.6,1.5-1.6c1-0.1,1.6,0.3,1.7,1L42,59.1z"/>
</g>
<g class="st0">
	<path d="M61.2,68.5c-3.5,0.3-6.4-1.6-6.8-5.9c-0.4-3.7,2.3-7.7,5.9-8.1c3.7-0.4,6.5,1.8,6.9,5.9C67.6,64.6,64.5,68.2,61.2,68.5z
		 M60.5,57.3c-1.9,0.2-3.1,2.8-2.9,5c0.2,2.5,1.5,3.8,3.3,3.6c1.8-0.2,3.2-2.5,2.9-5C63.6,58.4,62.4,57.1,60.5,57.3z"/>
</g>
<g class="st0">
	<path d="M68.2,45.5c0.2-1.3,0.9-1.2,1.4-1.3c0.9-0.1,2,0.3,2.1,0.9c0,0.2,0,0.3,0,0.5l-0.8,5c-0.1,0.4-0.5,0.9-0.9,0.9
		c-1,0.1-2.3-0.2-2.4-0.9c0-0.2,0-0.2,0-0.4L68.2,45.5z"/>
</g>
<g class="st0">
	<path d="M80.4,58.9c2.1,0.8,3.1,1.6,3.2,3.4c0.2,2.7-2.1,4.3-5.2,4.6c-1.4,0.1-2.6-0.1-3.9-0.6c-0.5-0.2-0.8-0.4-0.8-1
		c0-0.5,0.4-1.5,1.3-1.6c0.4,0,0.7,0.1,1,0.2c0.9,0.4,1.7,0.7,2.4,0.7c1.1-0.1,2.1-0.9,2-1.9c-0.1-0.7-0.9-1-1.6-1.3l-2.2-0.8
		c-1.7-0.6-3.1-1.4-3.3-3.4c-0.2-2.5,2.9-3.8,4.4-3.9c1.6-0.1,2.7-0.1,3.9,0.3c0.8,0.2,0.9,0.4,1,1.1c0,0.5-0.5,1.5-1.5,1.6
		c-0.8,0.1-1.7-0.8-3.3-0.6c-0.4,0-1.3,0.5-1.3,1.2c0.1,0.8,1.1,1.1,1.5,1.2L80.4,58.9z"/>
</g>
<g class="st0">
	<path d="M98,46.9c-1.1,0.1-2.1-0.7-2.1-1.7c-0.1-1,0.8-1.9,1.9-2c1.2-0.1,2.1,0.7,2.2,1.7C100,46,99.1,46.9,98,46.9z M96.6,52.3
		c-0.1-0.8,0.4-1.4,1.4-1.5c0.9-0.1,1.8,0.3,1.9,1l0.8,11.7c0.1,0.8-0.6,1.4-1.6,1.5c-0.8,0.1-1.6-0.6-1.7-1L96.6,52.3z"/>
</g>
<g class="st0">
	<path d="M107.3,53.2c0.9-1.5,2.6-2.8,4.3-2.9c1.8-0.1,4.5,0.8,4.7,5.1l0.4,7.1c0,0.7-0.9,1.3-1.7,1.3c-1,0.1-1.5-0.2-1.5-1.1
		l-0.4-7.4c-0.1-1.3-0.6-2.4-1.6-2.4c-1.8,0.1-3.3,2.3-3.9,4.5l0.4,6c0,0.7-0.8,1.3-1.6,1.3c-0.8,0-1.6-0.4-1.7-0.9L104,52.5
		c0-0.8,1.1-1.3,1.8-1.4c1.1-0.1,1.4,0.2,1.5,1.1L107.3,53.2z"/>
</g>
<g class="st0">
	<path d="M134.9,57.2c0,1.2,0.2,3.5,1.6,3.4c0.5,0,0.8-0.4,1.6-0.9c0.3-0.2,0.5-0.3,0.9-0.3c0.6,0,1.1,0.8,1.1,1.3
		c0,0.5-0.1,0.9-0.6,1.2c-0.8,0.6-1.6,1.2-3.3,1.3c-3,0.1-4.4-1.7-4.5-5.1l-0.2-5.7l-0.4,0c-0.3,0-0.6,0.1-0.9,0.1
		c-0.8,0-1-0.1-1.1-0.9c0-0.6,0.3-1.5,1-1.6l1.2-0.2l-0.2-4.5c0-0.7,0.7-1.4,1.7-1.4c1.2,0,1.5,0.4,1.5,1.1l0.2,4.3l1.9-0.3
		c0.3,0,0.3-0.1,0.6-0.1c0.9,0,1.4,0.3,1.4,1.2c0,0.6-0.3,1.3-1.1,1.4l-2.7,0.4L134.9,57.2z"/>
</g>
<g class="st0">
	<path d="M144.9,51.2c1.1-1.8,2.9-2.8,4.4-2.9c1.8-0.1,4.5,0.8,4.6,5.4l0.3,7c0,0.8-0.8,1.2-1.6,1.3s-1.6-0.4-1.7-1.1l-0.3-7.4
		c-0.1-1.4-0.5-2.5-1.5-2.5c-1.4,0.1-3.3,2.4-4,4.7l0.2,5.8c0,0.7-0.8,1.3-1.6,1.3c-0.8,0-1.6-0.4-1.6-1.2l-0.8-20.5
		c0-0.7,1-1.5,1.7-1.5c1,0,1.6,0.5,1.6,1.1L144.9,51.2z"/>
</g>
<g class="st0">
	<path d="M159.9,57.3c0.1,1.7,1.4,2.6,2.8,2.5c1,0,1.7-0.4,2.2-0.8c0.6-0.4,0.8-0.7,1.1-0.7c0.7,0,1.4,0.5,1.4,1.5
		c0,0.4-0.1,0.7-0.6,1c-1.4,0.9-2.6,1.3-4.2,1.4c-3.2,0.1-6-1.3-6.1-5.7c-0.1-4,2.9-7.9,6.4-8c3-0.1,4.2,1.4,4.2,3
		c0.1,3.5-5.3,5.3-7.3,5.4L159.9,57.3z M163,50.9c-1.7,0.1-2.8,2-3,4c2.4-0.3,4.1-2.2,4.1-3.2C164.1,51.5,163.8,50.9,163,50.9z"/>
</g>
<g class="st0">
	<path d="M181,40c0-0.7,1.1-1.4,1.8-1.4c1,0,1.5,0.5,1.5,1.2l0.3,20.3c0,0.8-1,1.4-1.7,1.4c-0.9,0-1.6-0.5-1.6-1.2L181,40z"/>
</g>
<g class="st0">
	<path d="M195.7,53.4v-0.3c0-0.4,0.1-2.8-1.2-2.8s-2.5,0.6-2.9,1c-0.2,0.2-0.6,0.5-1.3,0.5c-0.6,0-1.4-0.8-1.4-1.1
		c0-0.3-0.2-0.7,0.9-1.2c1.1-0.5,2.9-1.5,5.1-1.5c3.5,0,4.1,3,4.1,5.6l0,4.8c0,0.5,0.2,0.8,0.5,0.8c0.6,0,1.1,0.3,1.1,1.2
		c0,1-0.1,1.5-1.7,1.5c-1.1,0-2.4-0.8-2.9-2.4c-0.8,1.1-2.6,2.2-4.4,2.2c-2.1,0-4.5-0.3-4.5-3.2c0-2.7,3.2-5.1,7.7-5.1
		C195.1,53.4,195.7,53.4,195.7,53.4z M195.7,55.4c0,0-0.6-0.1-1.1-0.1c-2.4,0-4.5,1.5-4.5,3.1c0,0.7,0.8,0.9,1.4,0.9
		c2.2,0,3.7-1.7,4.2-2.5L195.7,55.4z"/>
</g>
<g class="st0">
	<path d="M212.6,48.7c0-0.6,1-1.2,1.8-1.2c0.8,0,1.5,0.5,1.5,1.2l-0.2,11.7c0,0.8-1.1,1.3-1.8,1.3c-1,0-1.5-0.5-1.5-1.2l0-1.6
		c-1.3,1.4-3.1,2.6-4.6,2.5c-2.1,0-4.3-1-4.2-5.3l0.1-7.3c0-0.6,1-1.2,1.8-1.1c0.9,0,1.4,0.3,1.4,1.2l-0.2,7.6
		c0,1.3,0.4,2.4,1.4,2.4c1.4,0,3.5-1.7,4.3-4L212.6,48.7z"/>
</g>
<g class="st0">
	<path d="M223.2,50.7c1.1-1.4,2.8-2.5,4.6-2.4c1.8,0.1,4.4,1.3,4.2,5.6l-0.3,7.1c0,0.7-1.1,1.2-1.8,1.1c-1,0-1.5-0.4-1.4-1.2
		l0.3-7.4c0.1-1.3-0.3-2.5-1.3-2.5c-1.8-0.1-3.5,2-4.4,4.1l-0.3,6c0,0.7-0.9,1.2-1.7,1.1c-0.8,0-1.6-0.6-1.6-1.1l0.5-11.4
		c0-0.8,1.2-1.2,1.9-1.2c1.1,0,1.4,0.3,1.4,1.2L223.2,50.7z"/>
</g>
<g class="st0">
	<path d="M245.5,41.7c0.1-0.7,1-1.2,1.8-1.2c0.9,0.1,1.6,0.6,1.5,1.4l-1.4,20.2c0,0.7-0.4,1.4-1.7,1.3c-0.8-0.1-1.7-0.6-1.6-1.3
		l0.1-2.1c-1.4,1.9-3.3,3.2-5,3.1c-3-0.2-4.5-2.1-4.3-5.3c0.3-4.6,4.8-9.4,9.1-9.1c0.4,0,0.7,0.1,1,0.2L245.5,41.7z M244.8,52.1
		c0-0.3-0.3-0.9-1-0.9c-2.6-0.2-5.2,3.7-5.5,6.7c-0.1,1.2,0.3,2.4,1.2,2.4c2.2,0.2,4.5-3.2,5-5.3L244.8,52.1z"/>
</g>
<g class="st0">
	<path d="M255.1,53c1.2-1.4,2.9-2,4.6-1.9c1.2,0.1,1.4,0.9,1.3,1.7c-0.1,1-0.6,1.3-1.5,1.2c-1.9-0.2-3.9,0.8-4.7,2.5l-0.6,6.3
		c-0.1,0.7-1.2,1.2-2,1.1c-1.1-0.1-1.3-0.7-1.3-1.3l1.1-11.2c0.1-0.8,1.2-1.2,1.9-1.1c1.4,0.1,1.4,0.6,1.3,1.3L255.1,53z"/>
</g>
<g class="st0">
	<path d="M275.4,55.4c-1.4,1.2-2.8,3.1-5.9,8.4c-3.4,5.8-5,9.7-8.2,9.3c-1-0.1-1.9-0.5-2.6-1c-0.6-0.5-0.6-0.6-0.6-1.1
		c0.1-0.6,0.5-1.4,1.7-1.3c0.4,0,0.9,0.6,1.4,0.7c1.7,0.2,3.2-3.3,4.4-5.7c-0.7-3.9-1.7-7.3-3-11.2c-0.1-0.4-0.1-0.4-0.1-0.7
		c0.1-0.5,1.4-1.2,1.9-1.1c0.7,0.1,1,0.2,1.3,1c0.8,2.6,1.8,6.9,2.1,8.7c1.1-1.7,3.2-5.5,3.8-6.3c0.8-1,0.9-1.4,1.9-2
		c0.3-0.2,0.4-0.2,1-0.1c0.6,0.1,1.4,1.1,1.4,1.7C275.9,55,275.8,55,275.4,55.4z"/>
</g>
<g class="st0">
	<path d="M292,57.9c1.5-1.6,3.9-2.5,5.6-2.2c3,0.5,4.2,2.6,3.6,5.7c-0.8,4.5-6.2,8.7-10.4,7.9c-0.3,0-0.4-0.2-0.6-0.4
		c-0.2-0.2-0.2-0.3-0.2-0.3s-1.3,0.7-2,0.5c-0.9-0.2-1.3-0.6-1.1-1.5l3.7-20.2c0.1-0.7,1.4-1,2.1-0.9c0.9,0.2,1.3,0.6,1.1,1.5
		L292,57.9z M290.6,65.5c-0.1,0.4,0.1,1,0.8,1.1c2.6,0.5,5.9-2.8,6.5-5.7c0.2-1.3,0.1-2.2-0.9-2.4c-2.1-0.4-4.8,2-5.7,3.5
		L290.6,65.5z"/>
</g>
<g class="st0">
	<path d="M311.5,65l0.1-0.3c0.1-0.4,0.7-2.7-0.5-3c-1.2-0.3-2.6,0.1-3,0.3c-0.3,0.1-0.7,0.3-1.4,0.2c-0.6-0.1-1.2-1.1-1.1-1.4
		c0.1-0.3,0-0.8,1.1-1c1.1-0.3,3.1-0.8,5.3-0.4c3.4,0.8,3.3,3.9,2.7,6.3l-1,4.7c-0.1,0.5,0,0.8,0.3,0.9c0.6,0.1,1,0.6,0.8,1.4
		c-0.2,0.9-0.5,1.5-2,1.1c-1.1-0.2-2.2-1.3-2.3-2.9c-1,0.9-3,1.6-4.8,1.2c-2.1-0.5-4.3-1.3-3.7-4.1c0.6-2.7,4.3-4.3,8.6-3.3
		C310.8,64.9,311.5,65,311.5,65z M311,66.9c0,0-0.6-0.2-1-0.3c-2.3-0.5-4.7,0.5-5.1,2c-0.1,0.7,0.5,1.1,1.1,1.2
		c2.2,0.5,4-0.8,4.6-1.6L311,66.9z"/>
</g>
<g class="st0">
	<path d="M328.5,62.7c0.5,0.1,0.8,0.4,0.8,0.4l0-0.2c0.1-0.4,0.9-0.5,1.8-0.3c0.9,0.2,1.4,0.9,1.2,1.7l-1.8,6.7
		c-1.1,4.2-0.7,3.8-1.6,7.3c-0.8,2.8-4,5.8-8.1,4.7c-3.2-0.9-5.2-3-6-4.9c-0.2-0.4-0.2-0.4,0-0.9c0.2-0.6,1.4-1,1.9-0.9
		c0.6,0.2,0.6,0.2,0.8,0.6c0.5,0.9,1.3,2.8,3.8,3.4c2.8,0.8,4.2-1.9,4.5-3.1c0.3-1,0.5-2.3,0.7-3.6c-2,1.6-4,2.5-5.8,2
		c-2.8-0.8-4-2.6-3.1-6C318.9,65.3,324.5,61.6,328.5,62.7z M328.6,66c0-0.2-0.2-0.7-0.8-0.8c-2.5-0.7-6.1,2.5-6.9,5.4
		c-0.3,1.2-0.4,2.3,0.6,2.6c2.1,0.6,5.1-2.2,6.2-4L328.6,66z"/>
</g>
<g class="st0">
	<path d="M336.8,80.5c-0.9-0.3-1.7-1-1.3-2.5c0.2-0.6,1.6-1.6,2.5-1.3c1,0.3,1.7,1.1,1.2,2.5C339,79.8,337.8,80.8,336.8,80.5z
		 M341.3,70.1c-1.2,0.3-2.2,0.5-2.6,1.6c-0.2,0.6,0.2,1.2,0.5,1.3c0.9,0.3,1.4,0,2.1-0.3c0.5-0.2,0.9-0.3,1.3-0.2
		c0.5,0.2,1.1,1.1,1,1.5c-0.1,0.4-0.2,0.7-0.6,0.8c-1.4,0.7-2.6,1.3-4.8,0.6c-1.2-0.4-3.5-2-2.7-4.7c0.7-2.2,2.5-2.5,4.7-3.1
		c1.5-0.4,3.3-0.6,3.8-2.2c0.5-1.6-1.2-2.8-1.8-3c-1-0.3-1.7-0.4-2.7-0.2c-0.4,0.1-0.7,0.3-1.1,0.2c-0.5-0.2-1.1-1.2-0.8-1.9
		c0.2-0.6,0.3-0.7,1-0.9c1.7-0.3,2.7-0.2,4.3,0.3c1.5,0.5,5.6,2.4,4.3,6.5C346.5,69.1,343.6,69.4,341.3,70.1z"/>
</g>
</svg>
