<?xml version="1.0" encoding="utf-8"?>
<!-- Generator: Adobe Illustrator 22.1.0, SVG Export Plug-In . SVG Version: 6.00 Build 0)  -->
<svg version="1.1" id="Capa_1" xmlns="http://www.w3.org/2000/svg" xmlns:xlink="http://www.w3.org/1999/xlink" x="0px" y="0px"
	 viewBox="0 0 249.8 212.1" style="enable-background:new 0 0 249.8 212.1;" xml:space="preserve">
<style type="text/css">
	.st0{enable-background:new    ;}
</style>
<title>TEX_TEXT_1040B</title>
<g class="st0">
	<path d="M7.3,20.9c-0.7-0.3-1.3-0.7-1.3-2.7c-0.1-2.6,3.1-3.2,3.1-3.2c4.4-1,8-1.1,9.4-1.2c4.5-0.1,18.8,0.7,19.2,12.8
		c0.4,12.4-15.4,15.2-22.5,15.7L15.7,59c0,1.5-2.3,3.1-3.9,3.2c-3.2,0.1-3.3-1.4-3.4-2.5L7.3,20.9z M15.1,36.7
		c5.3-0.2,15.4-1.8,15.2-9.8c-0.2-7-9.6-7.4-11.6-7.3c-1.3,0-2.6,0.1-4.1,0.4L15.1,36.7z"/>
</g>
<g class="st0">
	<path d="M41,51c-0.1,3.9,2.9,6,6,6.1c2.3,0.1,3.8-0.7,5.1-1.5c1.4-0.8,1.9-1.4,2.7-1.4c1.5,0,3.1,1.3,3,3.5c0,0.9-0.3,1.6-1.4,2.1
		c-3.3,1.8-6,2.7-9.6,2.6c-7.3-0.2-13.4-3.7-13.2-13.6c0.2-9.1,7.6-17.6,15.5-17.5c6.8,0.2,9.3,3.7,9.2,7.4
		C58,46.9,45.6,50.3,41,50.2L41,51z M48.7,36.9c-3.9-0.1-6.6,4.1-7.3,8.8c5.5-0.4,9.6-4.4,9.6-6.7C51.1,38.5,50.5,36.9,48.7,36.9z"
		/>
</g>
<g class="st0">
	<path d="M67.2,47.5c-0.2,3.3,2.2,5.3,4.8,5.4c2,0.1,3.3-0.4,4.4-1c1.2-0.6,1.6-1.1,2.3-1.1c1.3,0.1,2.6,1.2,2.4,3.1
		c-0.1,0.8-0.3,1.3-1.3,1.8c-2.9,1.4-5.2,2-8.3,1.8c-6.2-0.5-11.3-3.7-10.6-12.2c0.6-7.7,7.2-14.7,13.9-14.2
		c5.7,0.4,7.7,3.6,7.5,6.7c-0.5,6.8-11.2,9.2-15.1,8.9L67.2,47.5z M74.4,35.8c-3.3-0.2-5.8,3.2-6.6,7.1c4.7-0.1,8.3-3.4,8.5-5.3
		C76.3,37.3,75.9,35.9,74.4,35.8z"/>
</g>
<g class="st0">
	<path d="M109.1,61.8c0.6,0.6,0.9,1,0.8,2.1c-0.2,1.2-2.4,2.5-3.1,2.4c-0.9-0.1-1.5-0.2-2.1-0.8L92.9,53.4l-1.2,9.5
		c-0.2,1.5-2.2,2.3-3.8,2.1c-2.2-0.3-2.7-1.2-2.5-2.7l4.8-38.7c0.2-1.4,2.3-2.1,3.5-2c1.8,0.2,2.9,1.5,2.8,2.6l-2.8,22.3l9.7-6.5
		c0.8-0.5,1.2-0.9,2.4-0.7c2.2,0.3,2.4,2.1,2.3,3.1c-0.1,0.7-0.5,1.2-1.2,1.6L97,50.1L109.1,61.8z"/>
</g>
<g class="st0">
	<path d="M130.6,53.3l0.1-0.5c0.1-0.7,1.1-5-1.2-5.4s-4.7,0.3-5.5,0.9c-0.5,0.3-1.2,0.7-2.6,0.4c-1.2-0.2-2.3-1.9-2.2-2.4
		s-0.1-1.4,2-2c2.1-0.6,5.7-1.8,9.7-1.1c6.4,1.1,6.4,6.8,5.5,11.4l-1.5,8.6c-0.2,0.9,0.2,1.5,0.7,1.6c1.1,0.2,1.9,1,1.6,2.5
		c-0.3,1.7-0.7,2.7-3.6,2.2c-2-0.4-4.1-2.2-4.4-5.2c-1.8,1.7-5.4,3.2-8.8,2.6c-3.9-0.7-8.1-2-7.1-7.2c0.9-4.9,7.5-8.2,15.5-6.7
		C129.4,53,130.6,53.3,130.6,53.3z M129.9,56.8c0,0-1.1-0.3-1.9-0.5c-4.3-0.8-8.6,1.3-9.1,4.2c-0.2,1.2,1.1,1.9,2.2,2.1
		c4,0.7,7.3-1.8,8.3-3.2L129.9,56.8z"/>
</g>
<g class="st0">
	<path d="M153.9,50.6c3.6-3.3,9.3-5,12.9-4.1c6.7,1.7,9.2,6.4,7.4,13.5c-2.5,10.2-15.3,18.8-24.6,16.5c-0.6-0.1-1-0.5-1.3-1
		c-0.4-0.4-0.5-0.7-0.5-0.7s-3,1.3-4.7,0.9c-2-0.5-2.8-1.6-2.4-3.5l11.2-45.4c0.4-1.5,3.2-2.1,4.8-1.7c2,0.5,2.8,1.6,2.4,3.5
		L153.9,50.6z M149.7,67.7c-0.2,0.9,0.2,2.3,1.7,2.7c5.8,1.4,13.9-5.5,15.5-12c0.7-2.9,0.6-5-1.8-5.6c-4.7-1.2-11.1,3.9-13.5,7.1
		L149.7,67.7z"/>
</g>
<g class="st0">
	<path d="M183.8,82.1c-6.4-1.9-10.2-7.6-7.8-15.6c2.1-6.8,9.8-12,16.5-10c7,2.1,10.3,8.1,8,15.7C198.2,79.8,190,84,183.8,82.1z
		 M191,61.5c-3.6-1.1-7.6,2.7-8.8,6.8c-1.4,4.6-0.1,7.8,3.3,8.8c3.4,1,7.5-2.2,8.9-6.8C195.7,65.9,194.6,62.6,191,61.5z"/>
</g>
<g class="st0">
	<path d="M206.8,93.2c-5.7-2.1-8.8-7.4-6.2-14.5c2.3-6.1,9.6-10.3,15.5-8.1c6.2,2.3,8.8,7.9,6.3,14.7
		C219.9,92,212.3,95.3,206.8,93.2z M214.5,75.1c-3.2-1.2-7,2-8.4,5.6c-1.5,4.1-0.5,7.1,2.4,8.2c3,1.1,6.9-1.5,8.5-5.6
		C218.5,79.3,217.6,76.2,214.5,75.1z"/>
</g>
<g class="st0">
	<path d="M224.9,100.6c-1.5-0.6-2.8-2.1-1.8-4.5c0.4-1,3-2.5,4.5-1.9c1.7,0.7,2.8,2.2,1.8,4.5C228.9,99.8,226.6,101.3,224.9,100.6z
		 M232.5,90.2c-0.7,1.7-2.1,1.8-3.7,1.1c-1.6-0.7-2.2-1.9-1.7-3l8.4-19.8c0.7-1.7,2.4-1.5,3.8-0.9c2,0.8,2,1.9,1.4,3.3L232.5,90.2z"
		/>
</g>
<g class="st0">
	<path d="M26.3,77.7c0-1.2,1-1.5,2-1.5c1.3,0,1.7,0.6,1.7,1.6l0.2,20.8c0,1.2-1,1.6-2,1.6c-1.1,0-1.6-0.4-1.7-1.3L26.3,77.7z"/>
</g>
<g class="st0">
	<path d="M39.7,93.9c0,1.3,0.1,3.8,1.5,3.8c0.5,0,0.9-0.3,1.8-0.9c0.4-0.2,0.5-0.3,1.1-0.3c0.7,0,1.2,1,1.2,1.4c0,0.6-0.2,1-0.8,1.3
		c-1,0.6-1.8,1.2-3.7,1.2c-3.3,0-4.7-2.2-4.6-5.9l0.1-6.2l-0.5,0c-0.3,0-0.7,0.1-0.9,0.1c-0.8,0-1.1-0.1-1.1-1
		c0-0.6,0.4-1.7,1.2-1.7l1.4-0.1l0.1-5c0-0.8,0.8-1.5,2-1.4c1.3,0,1.6,0.5,1.6,1.3l-0.1,4.8l2.1-0.2c0.3,0,0.4-0.1,0.6-0.1
		c0.9,0,1.5,0.4,1.5,1.4c0,0.7-0.4,1.4-1.3,1.4l-3,0.2L39.7,93.9z"/>
</g>
<g class="st0">
	<path d="M48.4,76.3c0.4-1.4,1.1-1.2,1.7-1.2c1,0,2.2,0.6,2.1,1.3c0,0.2,0,0.3-0.1,0.6l-1.5,5.3c-0.2,0.4-0.6,0.9-1.1,0.9
		c-1.1,0-2.5-0.6-2.4-1.3c0-0.2,0-0.2,0-0.4L48.4,76.3z"/>
</g>
<g class="st0">
	<path d="M59.4,92.5c2.1,1.1,3.1,2.2,3,4.2c-0.1,3-2.9,4.3-6.3,4.2c-1.6-0.1-2.8-0.5-4.1-1.3c-0.5-0.3-0.8-0.5-0.7-1.2
		c0-0.6,0.7-1.6,1.6-1.6c0.4,0,0.7,0.2,1,0.4c0.9,0.5,1.8,1,2.5,1.1c1.2,0.1,2.4-0.7,2.5-1.7c0-0.8-0.8-1.2-1.5-1.6L55,93.7
		c-1.7-0.9-3.1-2-3-4.2c0.1-2.8,3.7-3.6,5.4-3.6c1.8,0.1,3,0.3,4.2,0.9c0.8,0.3,1,0.5,0.9,1.3c0,0.6-0.7,1.6-1.8,1.5
		c-0.8,0-1.7-1.1-3.5-1.2c-0.5,0-1.5,0.4-1.6,1.1c0,0.8,1,1.3,1.4,1.5L59.4,92.5z"/>
</g>
<g class="st0">
	<path d="M108.6,103.7c0,0.3,0,0.5,0,0.7c-0.1,0.7-0.9,1.3-2.2,1.1c-0.9-0.1-1.3-0.6-1.4-1.4L104,86.7l-9.9,14.6
		c-0.6,0.8-1.2,0.9-1.7,0.9c-0.6-0.1-1.1-0.4-1.3-0.9l-5.7-16.8L79.6,101c-0.3,0.9-0.7,1.1-1.7,1c-1.2-0.2-1.7-0.9-1.6-1.6
		c0-0.2,0.1-0.4,0.2-0.8l7.6-20.5c0.3-0.8,0.8-1.2,1.5-1.2c0.6,0.1,1.2,0.8,1.4,1.3l6.3,18.2l11-16.1c0.3-0.4,1.1-1.1,1.8-1
		c0.7,0.1,1.1,0.4,1.1,1.4L108.6,103.7z"/>
</g>
<g class="st0">
	<path d="M117.1,95.3c1.5-1.4,3.3-1.9,5.1-1.6c1.3,0.2,1.4,1.1,1.3,1.9c-0.2,1.1-0.8,1.3-1.7,1.2c-2.1-0.4-4.3,0.6-5.4,2.3l-1.2,6.8
		c-0.1,0.8-1.5,1.2-2.2,1c-1.2-0.2-1.4-0.9-1.3-1.5l2.2-12c0.2-0.8,1.4-1.2,2.2-1c1.5,0.3,1.5,0.8,1.3,1.5L117.1,95.3z"/>
</g>
<g class="st0">
	<path d="M141.4,113.2c-7.2-1.9-11-7.5-9.1-14.8c1.9-7,8.3-10.9,16.3-8.7c8.2,2.2,11.7,8.1,9.8,15.1
		C156.5,112.4,149.9,115.5,141.4,113.2z M147.9,92.5c-5.9-1.6-10.6,1.7-11.9,6.8c-1.4,5.3,1.1,9.8,6.3,11.2c6.3,1.7,11.1-1,12.6-6.6
		C156.3,98.6,154,94.1,147.9,92.5z"/>
</g>
<g class="st0">
	<path d="M172,108.8c0.2,2.1,0.3,5.9,0.4,7.8c1.5-2,4.6-5.6,5.7-6.9c0.4-0.5,0.9-0.9,1.5-0.6c1.1,0.4,1.8,1.4,1.6,1.9
		c-0.1,0.4-0.4,0.6-0.5,0.7c-1.3,1.3-4.6,4.8-8.4,9.5c-0.3,0.3-1.2,0.6-1.6,0.5c-0.6-0.2-0.9-0.8-0.9-1.4c-0.2-2.6-0.3-5.8-0.5-8.2
		l-4.9,6.3c-0.4,0.5-1,0.8-1.7,0.5c-0.6-0.2-1-1-1-1.5c0-4.1,0.1-7.6-0.5-12c0-0.4,0-0.4,0.1-0.8c0.2-0.5,1.1-1.1,2-0.8
		c0.8,0.3,0.9,0.3,1.1,1.2c0.3,2.7,0.3,6.8,0.3,8.7l4.6-6.2c0.5-0.6,0.9-0.7,1.7-0.4c0.8,0.3,1.4,0.9,1.2,1.5L172,108.8z"/>
</g>
<g class="st0">
	<path d="M192.3,104.4c0.3-0.7,1.7-0.9,2.4-0.6c1,0.4,1.3,1.1,1,1.8l-8.2,20.7c-0.3,0.8-1.6,1-2.3,0.7c-0.9-0.4-1.4-1.2-1.1-1.9
		L192.3,104.4z"/>
</g>
<g class="st0">
	<path d="M196.2,132.6c-0.9-0.4-1.7-1.3-1.1-2.8c0.3-0.6,1.9-1.5,2.8-1.1c1.1,0.5,1.7,1.4,1.1,2.8
		C198.7,132.1,197.3,133.1,196.2,132.6z M201.1,126.1c-0.5,1.1-1.4,1.1-2.3,0.7c-1-0.4-1.4-1.2-1.1-1.9l5.4-12.3
		c0.5-1.1,1.5-0.9,2.4-0.6c1.2,0.5,1.3,1.2,0.9,2.1L201.1,126.1z"/>
</g>
<g class="st0">
	<path d="M33.7,112.6c0.9,0,1.6,0,1.6,1.6c0,0.8-0.8,1.2-1.5,1.2l-7.7,0.6l0.4,19.5c0,0.8-0.6,1.4-2,1.5c-1.4,0-1.7-0.5-1.7-1.3
		l-0.4-19.3l-6.1,0.5c-0.3,0-0.7,0.1-1,0.1c-1,0-1.6-0.4-1.6-1.3c0-0.7,0.6-1.6,1.5-1.6l17.9-1.4L33.7,112.6z"/>
</g>
<g class="st0">
	<path d="M39.5,117.1c-1.2,0-2.2-1-2.2-2c0-1.1,1.1-2,2.2-2c1.3,0,2.2,0.9,2.2,2.1C41.8,116.2,40.8,117.1,39.5,117.1z M37.6,122.8
		c0-0.8,0.6-1.5,1.6-1.5c0.9,0,2,0.4,1.9,1.2L41,135.3c0,0.9-0.8,1.5-1.8,1.5c-0.8,0-1.7-0.8-1.7-1.3L37.6,122.8z"/>
</g>
<g class="st0">
	<path d="M57.8,136c0,0.8-1,1.3-1.9,1.3c-1,0-1.7-0.5-1.7-1.3l0.3-8.1c0.1-1.4-0.1-2.6-1.2-2.6c-1.9-0.1-3.8,2.3-4.5,4.4l-0.3,6.3
		c0,0.8-1.1,1.3-2.1,1.3s-1.5-0.5-1.5-1.3l0.5-12c0-0.9,1.3-1.5,2.1-1.4c1.2,0,1.5,0.5,1.5,1.3l0,1c1.2-1.4,2.9-2.3,4.8-2.3
		c1.5,0.1,3.4,0.7,4.2,2.8c1.2-1.4,2.9-2.5,5-2.4c2,0.1,4.6,1.2,4.4,5.9l-0.3,7.5c0,0.8-1.2,1.3-2,1.2c-1,0-1.6-0.4-1.5-1.4l0.3-7.9
		c0.1-1.4-0.2-2.6-1.3-2.7c-1.9-0.1-3.4,2.4-4.5,4.5L57.8,136z"/>
</g>
<g class="st0">
	<path d="M74.1,133.1c-0.2,1.8,1.2,3,2.7,3.1c1.1,0.1,1.8-0.2,2.5-0.6c0.7-0.3,0.9-0.6,1.3-0.6c0.7,0.1,1.4,0.7,1.4,1.8
		c0,0.5-0.2,0.8-0.8,1c-1.6,0.8-2.9,1.1-4.7,1c-3.5-0.3-6.3-2.2-5.9-7c0.4-4.4,4.2-8.2,8-7.9c3.2,0.3,4.4,2.1,4.2,3.8
		c-0.3,3.8-6.4,5.1-8.6,4.9L74.1,133.1z M78.2,126.5c-1.9-0.2-3.3,1.8-3.8,4c2.6,0,4.7-1.8,4.8-2.9
		C79.3,127.3,79.1,126.6,78.2,126.5z"/>
</g>
<g class="st0">
	<path d="M100.6,123.2c0.4-2.9,1.4-6.3,5.2-5.8c2.5,0.4,3.6,1.2,4.8,2.2c0.6,0.5,0.7,0.9,0.6,1.4c-0.1,0.7-1.4,1.5-2,1.4
		c-1-0.1-1-0.4-1.3-0.7c-0.4-0.4-1.3-1.3-2.2-1.4c-1.1-0.2-1.4,2.1-1.6,3.4l-0.4,2.7l2.1,0.1c0.4,0,0.7,0,1,0.1
		c0.9,0.1,1.1,0.7,1,1.6c-0.1,0.7-0.6,1.2-1.4,1.1l-3-0.1l-1.6,10.9c-0.1,0.5-0.8,1.2-2.1,1c-0.8-0.1-1.6-0.9-1.5-1.5l1.5-10.5
		l-0.7-0.1c0,0-0.5,0-0.7,0c-0.9-0.1-1.2-0.6-1-1.4c0.1-0.7,0.4-1.4,1.1-1.4l1.7,0.1L100.6,123.2z"/>
</g>
<g class="st0">
	<path d="M113,143.6c-3.8-0.7-6.2-3.6-5.4-8.3c0.7-4,4.8-7.4,8.7-6.7c4.1,0.7,6.3,3.9,5.5,8.4C121,141.3,116.6,144.2,113,143.6z
		 M115.7,131.5c-2.1-0.4-4.1,2-4.5,4.4c-0.5,2.7,0.5,4.4,2.4,4.8c2,0.4,4.1-1.7,4.6-4.4C118.7,133.7,117.8,131.9,115.7,131.5z"/>
</g>
<g class="st0">
	<path d="M129.9,134.3c1.5-1.4,3.4-1.8,5.2-1.4c1.3,0.3,1.4,1.2,1.2,2c-0.2,1.1-0.9,1.3-1.8,1.1c-2.1-0.5-4.4,0.4-5.5,2.1l-1.5,6.8
		c-0.2,0.8-1.5,1.1-2.3,0.9c-1.2-0.3-1.4-1-1.2-1.6l2.7-12c0.2-0.8,1.5-1.1,2.3-1c1.5,0.3,1.4,0.8,1.3,1.6L129.9,134.3z"/>
</g>
<g class="st0">
	<path d="M162.4,142.9c-1.7,1-3.6,2.8-7.9,8c-4.8,5.7-7.2,9.6-10.5,8.6c-1.1-0.3-2-0.9-2.6-1.5c-0.5-0.6-0.6-0.8-0.4-1.3
		c0.2-0.6,0.8-1.4,2.1-1.1c0.4,0.1,0.8,0.8,1.4,1c1.8,0.5,4.1-3,5.7-5.3c0-4.3-0.5-8.2-1.2-12.6c0-0.5-0.1-0.4,0.1-0.8
		c0.2-0.5,1.7-1,2.3-0.9c0.7,0.2,1.1,0.4,1.2,1.3c0.4,2.9,0.7,7.7,0.7,9.7c1.5-1.7,4.4-5.4,5.2-6.2c1.1-1,1.2-1.3,2.4-1.8
		c0.3-0.2,0.5-0.1,1.2,0.1c0.7,0.2,1.4,1.5,1.2,2C162.9,142.5,162.8,142.6,162.4,142.9z"/>
</g>
<g class="st0">
	<path d="M166.2,157.2c-3.6-1.2-5.6-4.5-4.1-9c1.3-3.8,5.8-6.6,9.5-5.4c3.9,1.3,5.7,4.8,4.2,9.1
		C174.5,156.2,169.7,158.4,166.2,157.2z M170.7,145.7c-2-0.7-4.3,1.4-5.1,3.7c-0.9,2.6-0.2,4.4,1.7,5.1c1.9,0.6,4.3-1.1,5.2-3.7
		C173.3,148.2,172.7,146.3,170.7,145.7z"/>
</g>
<g class="st0">
	<path d="M190.2,150.8c0.3-0.7,1.5-0.9,2.2-0.5c0.8,0.3,1.4,1.1,1.1,1.8l-4.7,11.9c-0.3,0.8-1.6,0.9-2.3,0.6c-1-0.4-1.4-1.1-1.1-1.8
		l0.6-1.6c-1.9,1-4.1,1.5-5.7,0.8c-2.1-0.8-4.1-2.7-2.3-7.1l2.9-7.4c0.3-0.6,1.5-0.8,2.3-0.5c0.9,0.4,1.3,0.9,1,1.8l-3.1,7.7
		c-0.5,1.4-0.5,2.6,0.5,3c1.4,0.6,4.2-0.4,6-2.5L190.2,150.8z"/>
</g>
<g class="st0">
	<path d="M17,165.2c0,1.3,0.2,3.8,1.6,3.8c0.5,0,0.9-0.4,1.7-1c0.3-0.3,0.5-0.3,1-0.3c0.7,0,1.2,1,1.2,1.4c0,0.6-0.1,1-0.7,1.3
		c-0.9,0.6-1.8,1.3-3.7,1.3c-3.3,0.1-4.7-2-4.8-5.7l-0.1-6.2l-0.5,0c-0.3,0-0.7,0.1-0.9,0.1c-0.8,0-1.1-0.1-1.1-1
		c0-0.6,0.4-1.7,1.2-1.8l1.4-0.2l-0.1-5c0-0.8,0.8-1.5,1.9-1.5c1.3,0,1.6,0.5,1.6,1.3l0.1,4.8l2.1-0.2c0.3,0,0.3-0.1,0.6-0.1
		c0.9,0,1.5,0.4,1.5,1.3c0,0.7-0.4,1.4-1.2,1.5l-3,0.3L17,165.2z"/>
</g>
<g class="st0">
	<path d="M31,171.8c-3.8,0-6.8-2.5-6.7-7.3c0-4.1,3.5-8.1,7.4-8.1c4.1,0,6.9,2.8,6.8,7.3C38.4,168.3,34.6,171.8,31,171.8z
		 M31.6,159.4c-2.1,0-3.7,2.7-3.7,5.1c0,2.7,1.2,4.3,3.2,4.3c2,0,3.8-2.4,3.8-5.1C34.9,161.1,33.8,159.4,31.6,159.4z"/>
</g>
<g class="st0">
	<path d="M61.2,164.6c2.1,1.2,3,2.2,2.9,4.3c-0.2,3-3,4.3-6.4,4.1c-1.6-0.1-2.8-0.6-4.1-1.3c-0.5-0.3-0.8-0.5-0.7-1.2
		c0-0.6,0.7-1.6,1.7-1.5c0.4,0,0.7,0.2,1,0.4c0.9,0.6,1.8,1.1,2.5,1.1c1.2,0.1,2.4-0.6,2.5-1.7c0.1-0.8-0.8-1.2-1.5-1.7l-2.3-1.3
		c-1.7-1-3.1-2-2.9-4.2c0.2-2.8,3.8-3.6,5.4-3.5c1.7,0.1,3,0.4,4.2,1c0.8,0.3,0.9,0.6,0.9,1.3c0,0.6-0.8,1.6-1.9,1.5
		c-0.8-0.1-1.7-1.1-3.5-1.2c-0.5,0-1.5,0.3-1.6,1.1c-0.1,0.8,1,1.3,1.4,1.5L61.2,164.6z"/>
</g>
<g class="st0">
	<path d="M69.3,149.9c0.1-0.7,1.4-1.4,2.1-1.3c1.1,0.1,1.6,0.7,1.5,1.5l-2,22.3c-0.1,0.9-1.2,1.4-2,1.3c-1-0.1-1.7-0.7-1.6-1.5
		L69.3,149.9z"/>
</g>
<g class="st0">
	<path d="M78,169.2c-0.2,1.8,1.1,3,2.6,3.2c1.1,0.1,1.9-0.2,2.5-0.5c0.7-0.3,1-0.6,1.3-0.5c0.7,0.1,1.4,0.8,1.3,1.8
		c-0.1,0.5-0.2,0.7-0.8,1c-1.7,0.7-3,1-4.7,0.8c-3.5-0.4-6.3-2.4-5.7-7.1c0.5-4.3,4.5-8.1,8.2-7.6c3.2,0.4,4.3,2.2,4.1,4
		c-0.5,3.8-6.5,4.9-8.7,4.6L78,169.2z M82.4,162.8c-1.9-0.2-3.3,1.7-3.9,3.9c2.6,0.1,4.8-1.7,4.9-2.8
		C83.5,163.7,83.3,162.9,82.4,162.8z"/>
</g>
<g class="st0">
	<path d="M92.6,171.1c-0.3,1.8,1,3.1,2.5,3.3c1.1,0.2,1.9-0.1,2.5-0.4c0.7-0.3,1-0.6,1.4-0.5c0.7,0.1,1.4,0.8,1.2,1.9
		c-0.1,0.5-0.3,0.7-0.8,0.9c-1.7,0.7-3,0.9-4.7,0.7c-3.5-0.5-6.2-2.6-5.5-7.3c0.7-4.3,4.7-8,8.5-7.4c3.2,0.5,4.2,2.3,4,4.1
		c-0.6,3.8-6.7,4.7-8.9,4.4L92.6,171.1z M97.2,164.8c-1.9-0.3-3.4,1.6-4,3.8c2.6,0.2,4.8-1.5,5-2.6C98.2,165.7,98.1,165,97.2,164.8z
		"/>
</g>
<g class="st0">
	<path d="M108.9,166.9c1.7-1.8,4-2.5,5.8-2.2c3.3,0.6,4.5,2.7,3.9,6.2c-1,4.9-6.5,9.5-11,8.6c-0.3-0.1-0.7-0.2-1-0.3l-1.3,6.6
		c-0.2,0.8-1.1,1.2-2,1c-0.9-0.2-1.6-1-1.5-1.7l4-20.6c0.1-0.8,1.2-1.3,2.1-1.1c1.2,0.2,1.6,0.9,1.4,1.6L108.9,166.9z M107.2,175.5
		c0,0.3,0.2,1,0.9,1.1c2.8,0.5,6.2-3.2,6.8-6.3c0.3-1.4,0.2-2.5-0.9-2.7c-2.1-0.4-5,2.5-6,4L107.2,175.5z"/>
</g>
<g class="st0">
	<path d="M139,173.7c1.5-1.2,3.6-1.9,5.5-1.4c1.8,0.5,4.3,2.4,3,6.9l-2.1,7.4c-0.2,0.7-1.4,1-2.2,0.7c-1-0.3-1.5-0.8-1.2-1.7
		l2.2-7.8c0.4-1.4,0.3-2.7-0.8-3c-1.9-0.5-4.2,1.2-5.7,3.3l-1.8,6.3c-0.2,0.7-1.3,1-2.1,0.8s-1.5-1-1.4-1.5l3.4-12
		c0.2-0.8,1.6-1,2.3-0.8c1.1,0.3,1.4,0.7,1.1,1.7L139,173.7z"/>
</g>
<g class="st0">
	<path d="M154,191.2c-3.6-1.2-5.7-4.5-4.2-9c1.3-3.9,5.8-6.7,9.5-5.4c3.9,1.3,5.7,4.8,4.3,9.1C162.2,190.2,157.5,192.4,154,191.2z
		 M158.4,179.7c-2-0.7-4.3,1.4-5.1,3.7c-0.9,2.6-0.2,4.5,1.7,5.1c1.9,0.6,4.3-1.1,5.2-3.7C161,182.2,160.4,180.3,158.4,179.7z"/>
</g>
<g class="st0">
	<path d="M177.5,186.4c0.1,2.1,0.1,5.9,0.1,7.8c1.6-1.9,4.9-5.4,6-6.6c0.4-0.5,0.9-0.8,1.5-0.6c1.1,0.4,1.7,1.5,1.5,1.9
		c-0.1,0.4-0.4,0.6-0.5,0.7c-1.3,1.3-4.8,4.6-8.8,9.1c-0.3,0.3-1.2,0.6-1.7,0.4c-0.6-0.2-0.9-0.9-0.9-1.4c-0.1-2.6,0-5.8-0.2-8.2
		l-5.2,6c-0.4,0.5-1.1,0.7-1.7,0.5c-0.6-0.2-1-1.1-1-1.6c0.2-4.1,0.4-7.6,0.1-12c0-0.4,0-0.4,0.1-0.7c0.2-0.5,1.2-1,2-0.7
		c0.7,0.3,0.9,0.3,1,1.3c0.2,2.7,0,6.8-0.1,8.7l4.9-5.9c0.5-0.6,0.9-0.7,1.7-0.3s1.3,0.9,1.1,1.5L177.5,186.4z"/>
</g>
<g class="st0">
	<path d="M183.9,202.9c-0.9-0.4-1.7-1.3-1.1-2.8c0.3-0.6,1.9-1.5,2.8-1c1.1,0.5,1.7,1.4,1.1,2.8
		C186.4,202.5,184.9,203.4,183.9,202.9z"/>
</g>
</svg>
